%TF.GenerationSoftware,KiCad,Pcbnew,7.0.1*%
%TF.CreationDate,2023-09-20T08:02:12-03:00*%
%TF.ProjectId,Circuito interno Maxon 30W v4,43697263-7569-4746-9f20-696e7465726e,rev?*%
%TF.SameCoordinates,Original*%
%TF.FileFunction,Copper,L1,Top*%
%TF.FilePolarity,Positive*%
%FSLAX46Y46*%
G04 Gerber Fmt 4.6, Leading zero omitted, Abs format (unit mm)*
G04 Created by KiCad (PCBNEW 7.0.1) date 2023-09-20 08:02:12*
%MOMM*%
%LPD*%
G01*
G04 APERTURE LIST*
G04 Aperture macros list*
%AMRoundRect*
0 Rectangle with rounded corners*
0 $1 Rounding radius*
0 $2 $3 $4 $5 $6 $7 $8 $9 X,Y pos of 4 corners*
0 Add a 4 corners polygon primitive as box body*
4,1,4,$2,$3,$4,$5,$6,$7,$8,$9,$2,$3,0*
0 Add four circle primitives for the rounded corners*
1,1,$1+$1,$2,$3*
1,1,$1+$1,$4,$5*
1,1,$1+$1,$6,$7*
1,1,$1+$1,$8,$9*
0 Add four rect primitives between the rounded corners*
20,1,$1+$1,$2,$3,$4,$5,0*
20,1,$1+$1,$4,$5,$6,$7,0*
20,1,$1+$1,$6,$7,$8,$9,0*
20,1,$1+$1,$8,$9,$2,$3,0*%
%AMHorizOval*
0 Thick line with rounded ends*
0 $1 width*
0 $2 $3 position (X,Y) of the first rounded end (center of the circle)*
0 $4 $5 position (X,Y) of the second rounded end (center of the circle)*
0 Add line between two ends*
20,1,$1,$2,$3,$4,$5,0*
0 Add two circle primitives to create the rounded ends*
1,1,$1,$2,$3*
1,1,$1,$4,$5*%
G04 Aperture macros list end*
%TA.AperFunction,SMDPad,CuDef*%
%ADD10RoundRect,0.150000X-0.273603X0.541108X-0.019286X-0.606040X0.273603X-0.541108X0.019286X0.606040X0*%
%TD*%
%TA.AperFunction,ComponentPad*%
%ADD11C,2.000000*%
%TD*%
%TA.AperFunction,ComponentPad*%
%ADD12HorizOval,2.000000X0.000000X0.000000X0.000000X0.000000X0*%
%TD*%
%TA.AperFunction,SMDPad,CuDef*%
%ADD13RoundRect,0.250000X0.262500X0.450000X-0.262500X0.450000X-0.262500X-0.450000X0.262500X-0.450000X0*%
%TD*%
%TA.AperFunction,SMDPad,CuDef*%
%ADD14RoundRect,0.150000X-0.507501X0.331812X0.286318X-0.534489X0.507501X-0.331812X-0.286318X0.534489X0*%
%TD*%
%TA.AperFunction,ComponentPad*%
%ADD15HorizOval,2.000000X0.000000X0.000000X0.000000X0.000000X0*%
%TD*%
%TA.AperFunction,ComponentPad*%
%ADD16O,2.000000X2.000000*%
%TD*%
%TA.AperFunction,SMDPad,CuDef*%
%ADD17RoundRect,0.250000X-0.262500X-0.450000X0.262500X-0.450000X0.262500X0.450000X-0.262500X0.450000X0*%
%TD*%
%TA.AperFunction,SMDPad,CuDef*%
%ADD18RoundRect,0.250000X0.250000X0.475000X-0.250000X0.475000X-0.250000X-0.475000X0.250000X-0.475000X0*%
%TD*%
%TA.AperFunction,SMDPad,CuDef*%
%ADD19RoundRect,0.150000X0.044168X0.604736X-0.328665X-0.509544X-0.044168X-0.604736X0.328665X0.509544X0*%
%TD*%
%TA.AperFunction,ComponentPad*%
%ADD20R,3.000000X3.000000*%
%TD*%
%TA.AperFunction,ComponentPad*%
%ADD21C,3.000000*%
%TD*%
%TA.AperFunction,Conductor*%
%ADD22C,0.500000*%
%TD*%
%TA.AperFunction,Conductor*%
%ADD23C,1.500000*%
%TD*%
G04 APERTURE END LIST*
D10*
%TO.P,IC1,1,VCC*%
%TO.N,5V*%
X134515335Y-104325918D03*
%TO.P,IC1,2,OUT*%
%TO.N,HALL1_M1*%
X132660373Y-104737153D03*
%TO.P,IC1,3,GND*%
%TO.N,GND*%
X133993678Y-106362091D03*
%TD*%
D11*
%TO.P,L2,1,1*%
%TO.N,MOTOR1_2*%
X128462500Y-109096557D03*
D12*
%TO.P,L2,2,2*%
%TO.N,Net-(L1-Pad2)*%
X120842500Y-122294784D03*
%TD*%
D13*
%TO.P,R3,1*%
%TO.N,5V*%
X126600000Y-83360000D03*
%TO.P,R3,2*%
%TO.N,HALL3_M1*%
X124775000Y-83360000D03*
%TD*%
D14*
%TO.P,IC3,1,VCC*%
%TO.N,5V*%
X128909466Y-95164191D03*
%TO.P,IC3,2,OUT*%
%TO.N,HALL3_M1*%
X127508639Y-96447812D03*
%TO.P,IC3,3,GND*%
%TO.N,GND*%
X129475784Y-97188397D03*
%TD*%
D11*
%TO.P,L3,1,1*%
%TO.N,MOTOR1_3*%
X109362500Y-121593444D03*
D15*
%TO.P,L3,2,2*%
%TO.N,Net-(L1-Pad2)*%
X101742500Y-108395217D03*
%TD*%
D11*
%TO.P,L1,1,1*%
%TO.N,MOTOR1_1*%
X107800000Y-98730000D03*
D16*
%TO.P,L1,2,2*%
%TO.N,Net-(L1-Pad2)*%
X123040000Y-98730000D03*
%TD*%
D17*
%TO.P,R2,1*%
%TO.N,5V*%
X117515000Y-83320000D03*
%TO.P,R2,2*%
%TO.N,HALL2_M1*%
X119340000Y-83320000D03*
%TD*%
D18*
%TO.P,C1,1*%
%TO.N,5V*%
X115850000Y-83350000D03*
%TO.P,C1,2*%
%TO.N,GND*%
X113950000Y-83350000D03*
%TD*%
D17*
%TO.P,R1,1*%
%TO.N,5V*%
X121197500Y-83340000D03*
%TO.P,R1,2*%
%TO.N,HALL1_M1*%
X123022500Y-83340000D03*
%TD*%
D19*
%TO.P,IC2,1,VCC*%
%TO.N,5V*%
X134478381Y-115162386D03*
%TO.P,IC2,2,OUT*%
%TO.N,HALL2_M1*%
X132676566Y-114559507D03*
%TO.P,IC2,3,GND*%
%TO.N,GND*%
X132982527Y-116639053D03*
%TD*%
D20*
%TO.P,MOTOR1,1,1*%
%TO.N,HALL1_M1*%
X121100000Y-78900000D03*
D21*
%TO.P,MOTOR1,2,2*%
%TO.N,HALL2_M1*%
X116900000Y-78900000D03*
%TO.P,MOTOR1,3,3*%
%TO.N,5V*%
X112700000Y-78900000D03*
%TO.P,MOTOR1,4,4*%
%TO.N,MOTOR1_3*%
X108500000Y-78900000D03*
%TO.P,MOTOR1,5,5*%
%TO.N,HALL3_M1*%
X121100000Y-74700000D03*
%TO.P,MOTOR1,6,6*%
%TO.N,GND*%
X116900000Y-74700000D03*
%TO.P,MOTOR1,7,7*%
%TO.N,MOTOR1_1*%
X112700000Y-74700000D03*
%TO.P,MOTOR1,8,8*%
%TO.N,MOTOR1_2*%
X108500000Y-74700000D03*
%TD*%
D22*
%TO.N,GND*%
X111770000Y-76840000D02*
X113780000Y-76840000D01*
X113950000Y-83350000D02*
X112600000Y-83350000D01*
X113780000Y-76840000D02*
X115920000Y-74700000D01*
X132740000Y-100740000D02*
X129653126Y-97381932D01*
X131450000Y-118270000D02*
X131020000Y-117200000D01*
X129710000Y-102900000D02*
X124590000Y-97560000D01*
X131020000Y-117200000D02*
X131020000Y-108540000D01*
X134020000Y-113420000D02*
X134450000Y-108350000D01*
X124590000Y-97560000D02*
X113950000Y-83350000D01*
X115920000Y-74700000D02*
X116900000Y-74700000D01*
X132982527Y-116639053D02*
X132360000Y-118290000D01*
X131020000Y-108540000D02*
X129710000Y-102900000D01*
X110600000Y-78010000D02*
X111770000Y-76840000D01*
X112600000Y-83350000D02*
X110600000Y-81350000D01*
X132360000Y-118290000D02*
X131450000Y-118270000D01*
X110600000Y-81350000D02*
X110600000Y-78010000D01*
X134450000Y-108350000D02*
X132740000Y-100740000D01*
X132982527Y-116639053D02*
X134020000Y-113420000D01*
D23*
%TO.N,MOTOR1_1*%
X106980000Y-71760000D02*
X103570000Y-75170000D01*
X109887962Y-71760000D02*
X106980000Y-71760000D01*
X103570000Y-94500000D02*
X107800000Y-98730000D01*
X112700000Y-74700000D02*
X110513981Y-72386019D01*
X103570000Y-75170000D02*
X103570000Y-94500000D01*
X110513981Y-72386019D02*
X109887962Y-71760000D01*
%TO.N,MOTOR1_2*%
X105680000Y-76610000D02*
X105680000Y-91870000D01*
X110310000Y-99568000D02*
X106246000Y-103632000D01*
X96774000Y-106426000D02*
X96774000Y-114554000D01*
X128462500Y-120711500D02*
X128462500Y-109096557D01*
X107590000Y-74700000D02*
X105680000Y-76610000D01*
X110310000Y-96500000D02*
X110310000Y-99568000D01*
X96774000Y-114554000D02*
X108458000Y-126238000D01*
X106246000Y-103632000D02*
X99568000Y-103632000D01*
X105680000Y-91870000D02*
X110310000Y-96500000D01*
X108500000Y-74700000D02*
X107590000Y-74700000D01*
X108458000Y-126238000D02*
X122936000Y-126238000D01*
X122936000Y-126238000D02*
X128462500Y-120711500D01*
X99568000Y-103632000D02*
X96774000Y-106426000D01*
%TO.N,MOTOR1_3*%
X112408198Y-93978198D02*
X108490000Y-90060000D01*
X100584000Y-105918000D02*
X106364164Y-105918000D01*
X98806000Y-107696000D02*
X100584000Y-105918000D01*
X109362500Y-121593444D02*
X98806000Y-111036944D01*
X112408198Y-99873966D02*
X112408198Y-93978198D01*
X106364164Y-105918000D02*
X112408198Y-99873966D01*
X108490000Y-90060000D02*
X108490000Y-85210000D01*
X108500000Y-78900000D02*
X108510000Y-85210000D01*
X98806000Y-111036944D02*
X98806000Y-107696000D01*
D22*
%TO.N,5V*%
X118030000Y-76820000D02*
X118890000Y-77680000D01*
X134458520Y-104069640D02*
X133780000Y-100630000D01*
X118890000Y-80590000D02*
X121197500Y-82897500D01*
X119440000Y-73200000D02*
X120100000Y-72540000D01*
X126600000Y-86460000D02*
X126630000Y-86430000D01*
X113320000Y-78900000D02*
X115400000Y-76820000D01*
X118890000Y-77680000D02*
X118890000Y-78230000D01*
X126630000Y-86430000D02*
X126600000Y-83360000D01*
X112700000Y-78900000D02*
X113320000Y-78900000D01*
X119020000Y-73620000D02*
X119440000Y-73200000D01*
X115400000Y-76820000D02*
X118030000Y-76820000D01*
X134478381Y-115162386D02*
X135120000Y-113180000D01*
X118890000Y-73750000D02*
X119440000Y-73200000D01*
X117515000Y-83320000D02*
X115880000Y-83320000D01*
X115880000Y-83320000D02*
X115850000Y-83350000D01*
X115850000Y-83350000D02*
X112700000Y-78900000D01*
X135120000Y-113180000D02*
X135540000Y-109100000D01*
X118890000Y-78230000D02*
X118890000Y-73750000D01*
X126600000Y-76270000D02*
X126600000Y-83360000D01*
X126580000Y-92600000D02*
X126600000Y-86460000D01*
X135540000Y-109100000D02*
X134458520Y-104069640D01*
X118890000Y-78230000D02*
X118890000Y-80590000D01*
X120100000Y-72540000D02*
X122870000Y-72540000D01*
X133780000Y-100630000D02*
X128732123Y-94970655D01*
X122870000Y-72540000D02*
X126600000Y-76270000D01*
X128732123Y-94970655D02*
X126580000Y-92600000D01*
X121197500Y-82897500D02*
X121197500Y-83340000D01*
%TO.N,HALL1_M1*%
X124370000Y-93550000D02*
X123022500Y-83340000D01*
X126285454Y-97045454D02*
X124370000Y-93550000D01*
X123022500Y-83340000D02*
X121100000Y-78900000D01*
X132603557Y-104480875D02*
X132270000Y-102920000D01*
X132270000Y-102920000D02*
X126285454Y-97045454D01*
%TO.N,HALL2_M1*%
X119340000Y-83320000D02*
X123090000Y-93430000D01*
X132750000Y-107980000D02*
X133290000Y-112780000D01*
X132760000Y-107930000D02*
X132750000Y-107980000D01*
X125570000Y-97450000D02*
X130850000Y-102730000D01*
X130850000Y-102730000D02*
X132760000Y-107930000D01*
X133290000Y-112780000D02*
X132676566Y-114559507D01*
X123090000Y-93430000D02*
X125570000Y-97450000D01*
X119340000Y-83320000D02*
X116900000Y-78900000D01*
%TO.N,HALL3_M1*%
X126570000Y-95400000D02*
X126600000Y-95440000D01*
X125430000Y-93220000D02*
X126570000Y-95400000D01*
X126600000Y-95440000D02*
X127508639Y-96447812D01*
X124775000Y-83360000D02*
X124775000Y-78375000D01*
X124775000Y-78375000D02*
X121100000Y-74700000D01*
X124775000Y-83360000D02*
X125430000Y-93220000D01*
D23*
%TO.N,Net-(L1-Pad2)*%
X106488783Y-108395217D02*
X116154000Y-98730000D01*
X124300000Y-99990000D02*
X123040000Y-98730000D01*
X120842500Y-122294784D02*
X124300000Y-118837284D01*
X124300000Y-118837284D02*
X124300000Y-99990000D01*
X101742500Y-108395217D02*
X106488783Y-108395217D01*
X116154000Y-98730000D02*
X123040000Y-98730000D01*
%TD*%
M02*
