%TF.GenerationSoftware,KiCad,Pcbnew,7.0.1*%
%TF.CreationDate,2023-09-20T08:02:12-03:00*%
%TF.ProjectId,Circuito interno Maxon 30W v4,43697263-7569-4746-9f20-696e7465726e,rev?*%
%TF.SameCoordinates,Original*%
%TF.FileFunction,Legend,Top*%
%TF.FilePolarity,Positive*%
%FSLAX46Y46*%
G04 Gerber Fmt 4.6, Leading zero omitted, Abs format (unit mm)*
G04 Created by KiCad (PCBNEW 7.0.1) date 2023-09-20 08:02:12*
%MOMM*%
%LPD*%
G01*
G04 APERTURE LIST*
%ADD10C,0.150000*%
%ADD11C,0.120000*%
%ADD12C,0.127000*%
G04 APERTURE END LIST*
D10*
%TO.C,IC1*%
X133617079Y-108842939D02*
X133400640Y-107866643D01*
X134619252Y-108523212D02*
X134583068Y-108580009D01*
X134583068Y-108580009D02*
X134453904Y-108657419D01*
X134453904Y-108657419D02*
X134360924Y-108678032D01*
X134360924Y-108678032D02*
X134211146Y-108662462D01*
X134211146Y-108662462D02*
X134097552Y-108590095D01*
X134097552Y-108590095D02*
X134030449Y-108507421D01*
X134030449Y-108507421D02*
X133942732Y-108331766D01*
X133942732Y-108331766D02*
X133911812Y-108192296D01*
X133911812Y-108192296D02*
X133917075Y-107996028D01*
X133917075Y-107996028D02*
X133942952Y-107892741D01*
X133942952Y-107892741D02*
X134015320Y-107779147D01*
X134015320Y-107779147D02*
X134144484Y-107701736D01*
X134144484Y-107701736D02*
X134237464Y-107681123D01*
X134237464Y-107681123D02*
X134387242Y-107696694D01*
X134387242Y-107696694D02*
X134444039Y-107732877D01*
X135569671Y-108410060D02*
X135011788Y-108533739D01*
X135290729Y-108471900D02*
X135074290Y-107495604D01*
X135074290Y-107495604D02*
X135012229Y-107655688D01*
X135012229Y-107655688D02*
X134939862Y-107769282D01*
X134939862Y-107769282D02*
X134857188Y-107836385D01*
%TO.C,L2*%
X127888312Y-117756317D02*
X127650217Y-118168710D01*
X127650217Y-118168710D02*
X126784192Y-117668710D01*
X127247623Y-117056500D02*
X127230193Y-116991451D01*
X127230193Y-116991451D02*
X127236573Y-116885163D01*
X127236573Y-116885163D02*
X127355620Y-116678967D01*
X127355620Y-116678967D02*
X127444479Y-116620298D01*
X127444479Y-116620298D02*
X127509527Y-116602868D01*
X127509527Y-116602868D02*
X127615816Y-116609248D01*
X127615816Y-116609248D02*
X127698294Y-116656867D01*
X127698294Y-116656867D02*
X127798203Y-116769535D01*
X127798203Y-116769535D02*
X128007360Y-117550121D01*
X128007360Y-117550121D02*
X128316884Y-117014010D01*
%TO.C,R3*%
X125817333Y-85806619D02*
X125484000Y-85330428D01*
X125245905Y-85806619D02*
X125245905Y-84806619D01*
X125245905Y-84806619D02*
X125626857Y-84806619D01*
X125626857Y-84806619D02*
X125722095Y-84854238D01*
X125722095Y-84854238D02*
X125769714Y-84901857D01*
X125769714Y-84901857D02*
X125817333Y-84997095D01*
X125817333Y-84997095D02*
X125817333Y-85139952D01*
X125817333Y-85139952D02*
X125769714Y-85235190D01*
X125769714Y-85235190D02*
X125722095Y-85282809D01*
X125722095Y-85282809D02*
X125626857Y-85330428D01*
X125626857Y-85330428D02*
X125245905Y-85330428D01*
X126150667Y-84806619D02*
X126769714Y-84806619D01*
X126769714Y-84806619D02*
X126436381Y-85187571D01*
X126436381Y-85187571D02*
X126579238Y-85187571D01*
X126579238Y-85187571D02*
X126674476Y-85235190D01*
X126674476Y-85235190D02*
X126722095Y-85282809D01*
X126722095Y-85282809D02*
X126769714Y-85378047D01*
X126769714Y-85378047D02*
X126769714Y-85616142D01*
X126769714Y-85616142D02*
X126722095Y-85711380D01*
X126722095Y-85711380D02*
X126674476Y-85759000D01*
X126674476Y-85759000D02*
X126579238Y-85806619D01*
X126579238Y-85806619D02*
X126293524Y-85806619D01*
X126293524Y-85806619D02*
X126198286Y-85759000D01*
X126198286Y-85759000D02*
X126150667Y-85711380D01*
%TO.C,IC3*%
X130492818Y-99860582D02*
X129817228Y-99123305D01*
X131200861Y-99082605D02*
X131197924Y-99149884D01*
X131197924Y-99149884D02*
X131124769Y-99281505D01*
X131124769Y-99281505D02*
X131054553Y-99345847D01*
X131054553Y-99345847D02*
X130917056Y-99407252D01*
X130917056Y-99407252D02*
X130782497Y-99401377D01*
X130782497Y-99401377D02*
X130683047Y-99363331D01*
X130683047Y-99363331D02*
X130519255Y-99255068D01*
X130519255Y-99255068D02*
X130422742Y-99149743D01*
X130422742Y-99149743D02*
X130329167Y-98977138D01*
X130329167Y-98977138D02*
X130299933Y-98874750D01*
X130299933Y-98874750D02*
X130305808Y-98740191D01*
X130305808Y-98740191D02*
X130378962Y-98608570D01*
X130378962Y-98608570D02*
X130449179Y-98544228D01*
X130449179Y-98544228D02*
X130586676Y-98482824D01*
X130586676Y-98482824D02*
X130653955Y-98485761D01*
X130835372Y-98190347D02*
X131291782Y-97772125D01*
X131291782Y-97772125D02*
X131303391Y-98278189D01*
X131303391Y-98278189D02*
X131408716Y-98181676D01*
X131408716Y-98181676D02*
X131511104Y-98152443D01*
X131511104Y-98152443D02*
X131578383Y-98155380D01*
X131578383Y-98155380D02*
X131677833Y-98193426D01*
X131677833Y-98193426D02*
X131838688Y-98368968D01*
X131838688Y-98368968D02*
X131867922Y-98471356D01*
X131867922Y-98471356D02*
X131864984Y-98538636D01*
X131864984Y-98538636D02*
X131826938Y-98638086D01*
X131826938Y-98638086D02*
X131616288Y-98831112D01*
X131616288Y-98831112D02*
X131513900Y-98860345D01*
X131513900Y-98860345D02*
X131446620Y-98857408D01*
%TO.C,L3*%
X102150021Y-116766302D02*
X101911925Y-116353909D01*
X101911925Y-116353909D02*
X102777951Y-115853909D01*
X103135094Y-116472498D02*
X103444617Y-117008609D01*
X103444617Y-117008609D02*
X102948036Y-116910410D01*
X102948036Y-116910410D02*
X103019465Y-117034128D01*
X103019465Y-117034128D02*
X103025845Y-117140417D01*
X103025845Y-117140417D02*
X103008415Y-117205465D01*
X103008415Y-117205465D02*
X102949746Y-117294324D01*
X102949746Y-117294324D02*
X102743549Y-117413371D01*
X102743549Y-117413371D02*
X102637261Y-117419751D01*
X102637261Y-117419751D02*
X102572212Y-117402321D01*
X102572212Y-117402321D02*
X102483354Y-117343652D01*
X102483354Y-117343652D02*
X102340497Y-117096216D01*
X102340497Y-117096216D02*
X102334117Y-116989928D01*
X102334117Y-116989928D02*
X102351547Y-116924879D01*
%TO.C,L1*%
X115253333Y-95822619D02*
X114777143Y-95822619D01*
X114777143Y-95822619D02*
X114777143Y-94822619D01*
X116110476Y-95822619D02*
X115539048Y-95822619D01*
X115824762Y-95822619D02*
X115824762Y-94822619D01*
X115824762Y-94822619D02*
X115729524Y-94965476D01*
X115729524Y-94965476D02*
X115634286Y-95060714D01*
X115634286Y-95060714D02*
X115539048Y-95108333D01*
%TO.C,R2*%
X118451333Y-85552619D02*
X118118000Y-85076428D01*
X117879905Y-85552619D02*
X117879905Y-84552619D01*
X117879905Y-84552619D02*
X118260857Y-84552619D01*
X118260857Y-84552619D02*
X118356095Y-84600238D01*
X118356095Y-84600238D02*
X118403714Y-84647857D01*
X118403714Y-84647857D02*
X118451333Y-84743095D01*
X118451333Y-84743095D02*
X118451333Y-84885952D01*
X118451333Y-84885952D02*
X118403714Y-84981190D01*
X118403714Y-84981190D02*
X118356095Y-85028809D01*
X118356095Y-85028809D02*
X118260857Y-85076428D01*
X118260857Y-85076428D02*
X117879905Y-85076428D01*
X118832286Y-84647857D02*
X118879905Y-84600238D01*
X118879905Y-84600238D02*
X118975143Y-84552619D01*
X118975143Y-84552619D02*
X119213238Y-84552619D01*
X119213238Y-84552619D02*
X119308476Y-84600238D01*
X119308476Y-84600238D02*
X119356095Y-84647857D01*
X119356095Y-84647857D02*
X119403714Y-84743095D01*
X119403714Y-84743095D02*
X119403714Y-84838333D01*
X119403714Y-84838333D02*
X119356095Y-84981190D01*
X119356095Y-84981190D02*
X118784667Y-85552619D01*
X118784667Y-85552619D02*
X119403714Y-85552619D01*
%TO.C,C1*%
X114733333Y-85397380D02*
X114685714Y-85445000D01*
X114685714Y-85445000D02*
X114542857Y-85492619D01*
X114542857Y-85492619D02*
X114447619Y-85492619D01*
X114447619Y-85492619D02*
X114304762Y-85445000D01*
X114304762Y-85445000D02*
X114209524Y-85349761D01*
X114209524Y-85349761D02*
X114161905Y-85254523D01*
X114161905Y-85254523D02*
X114114286Y-85064047D01*
X114114286Y-85064047D02*
X114114286Y-84921190D01*
X114114286Y-84921190D02*
X114161905Y-84730714D01*
X114161905Y-84730714D02*
X114209524Y-84635476D01*
X114209524Y-84635476D02*
X114304762Y-84540238D01*
X114304762Y-84540238D02*
X114447619Y-84492619D01*
X114447619Y-84492619D02*
X114542857Y-84492619D01*
X114542857Y-84492619D02*
X114685714Y-84540238D01*
X114685714Y-84540238D02*
X114733333Y-84587857D01*
X115685714Y-85492619D02*
X115114286Y-85492619D01*
X115400000Y-85492619D02*
X115400000Y-84492619D01*
X115400000Y-84492619D02*
X115304762Y-84635476D01*
X115304762Y-84635476D02*
X115209524Y-84730714D01*
X115209524Y-84730714D02*
X115114286Y-84778333D01*
%TO.C,R1*%
X122007333Y-85552619D02*
X121674000Y-85076428D01*
X121435905Y-85552619D02*
X121435905Y-84552619D01*
X121435905Y-84552619D02*
X121816857Y-84552619D01*
X121816857Y-84552619D02*
X121912095Y-84600238D01*
X121912095Y-84600238D02*
X121959714Y-84647857D01*
X121959714Y-84647857D02*
X122007333Y-84743095D01*
X122007333Y-84743095D02*
X122007333Y-84885952D01*
X122007333Y-84885952D02*
X121959714Y-84981190D01*
X121959714Y-84981190D02*
X121912095Y-85028809D01*
X121912095Y-85028809D02*
X121816857Y-85076428D01*
X121816857Y-85076428D02*
X121435905Y-85076428D01*
X122959714Y-85552619D02*
X122388286Y-85552619D01*
X122674000Y-85552619D02*
X122674000Y-84552619D01*
X122674000Y-84552619D02*
X122578762Y-84695476D01*
X122578762Y-84695476D02*
X122483524Y-84790714D01*
X122483524Y-84790714D02*
X122388286Y-84838333D01*
%TO.C,IC2*%
X131247464Y-118508963D02*
X131564769Y-117560639D01*
X132271165Y-118751060D02*
X132210897Y-118781109D01*
X132210897Y-118781109D02*
X132060313Y-118780938D01*
X132060313Y-118780938D02*
X131969996Y-118750718D01*
X131969996Y-118750718D02*
X131849631Y-118660231D01*
X131849631Y-118660231D02*
X131789534Y-118539695D01*
X131789534Y-118539695D02*
X131774595Y-118434268D01*
X131774595Y-118434268D02*
X131789876Y-118238526D01*
X131789876Y-118238526D02*
X131835205Y-118103051D01*
X131835205Y-118103051D02*
X131940803Y-117937528D01*
X131940803Y-117937528D02*
X132016180Y-117862321D01*
X132016180Y-117862321D02*
X132136716Y-117802224D01*
X132136716Y-117802224D02*
X132287301Y-117802395D01*
X132287301Y-117802395D02*
X132377618Y-117832614D01*
X132377618Y-117832614D02*
X132497983Y-117923102D01*
X132497983Y-117923102D02*
X132528031Y-117983370D01*
X132889297Y-118104248D02*
X132949565Y-118074199D01*
X132949565Y-118074199D02*
X133054992Y-118059260D01*
X133054992Y-118059260D02*
X133280783Y-118134809D01*
X133280783Y-118134809D02*
X133355990Y-118210187D01*
X133355990Y-118210187D02*
X133386038Y-118270455D01*
X133386038Y-118270455D02*
X133400977Y-118375881D01*
X133400977Y-118375881D02*
X133370758Y-118466198D01*
X133370758Y-118466198D02*
X133280270Y-118586563D01*
X133280270Y-118586563D02*
X132557054Y-118947145D01*
X132557054Y-118947145D02*
X133144111Y-119143572D01*
%TO.C,MOTOR1*%
X106481905Y-83520619D02*
X106481905Y-82520619D01*
X106481905Y-82520619D02*
X106815238Y-83234904D01*
X106815238Y-83234904D02*
X107148571Y-82520619D01*
X107148571Y-82520619D02*
X107148571Y-83520619D01*
X107815238Y-82520619D02*
X108005714Y-82520619D01*
X108005714Y-82520619D02*
X108100952Y-82568238D01*
X108100952Y-82568238D02*
X108196190Y-82663476D01*
X108196190Y-82663476D02*
X108243809Y-82853952D01*
X108243809Y-82853952D02*
X108243809Y-83187285D01*
X108243809Y-83187285D02*
X108196190Y-83377761D01*
X108196190Y-83377761D02*
X108100952Y-83473000D01*
X108100952Y-83473000D02*
X108005714Y-83520619D01*
X108005714Y-83520619D02*
X107815238Y-83520619D01*
X107815238Y-83520619D02*
X107720000Y-83473000D01*
X107720000Y-83473000D02*
X107624762Y-83377761D01*
X107624762Y-83377761D02*
X107577143Y-83187285D01*
X107577143Y-83187285D02*
X107577143Y-82853952D01*
X107577143Y-82853952D02*
X107624762Y-82663476D01*
X107624762Y-82663476D02*
X107720000Y-82568238D01*
X107720000Y-82568238D02*
X107815238Y-82520619D01*
X108529524Y-82520619D02*
X109100952Y-82520619D01*
X108815238Y-83520619D02*
X108815238Y-82520619D01*
X109624762Y-82520619D02*
X109815238Y-82520619D01*
X109815238Y-82520619D02*
X109910476Y-82568238D01*
X109910476Y-82568238D02*
X110005714Y-82663476D01*
X110005714Y-82663476D02*
X110053333Y-82853952D01*
X110053333Y-82853952D02*
X110053333Y-83187285D01*
X110053333Y-83187285D02*
X110005714Y-83377761D01*
X110005714Y-83377761D02*
X109910476Y-83473000D01*
X109910476Y-83473000D02*
X109815238Y-83520619D01*
X109815238Y-83520619D02*
X109624762Y-83520619D01*
X109624762Y-83520619D02*
X109529524Y-83473000D01*
X109529524Y-83473000D02*
X109434286Y-83377761D01*
X109434286Y-83377761D02*
X109386667Y-83187285D01*
X109386667Y-83187285D02*
X109386667Y-82853952D01*
X109386667Y-82853952D02*
X109434286Y-82663476D01*
X109434286Y-82663476D02*
X109529524Y-82568238D01*
X109529524Y-82568238D02*
X109624762Y-82520619D01*
X111053333Y-83520619D02*
X110720000Y-83044428D01*
X110481905Y-83520619D02*
X110481905Y-82520619D01*
X110481905Y-82520619D02*
X110862857Y-82520619D01*
X110862857Y-82520619D02*
X110958095Y-82568238D01*
X110958095Y-82568238D02*
X111005714Y-82615857D01*
X111005714Y-82615857D02*
X111053333Y-82711095D01*
X111053333Y-82711095D02*
X111053333Y-82853952D01*
X111053333Y-82853952D02*
X111005714Y-82949190D01*
X111005714Y-82949190D02*
X110958095Y-82996809D01*
X110958095Y-82996809D02*
X110862857Y-83044428D01*
X110862857Y-83044428D02*
X110481905Y-83044428D01*
X112005714Y-83520619D02*
X111434286Y-83520619D01*
X111720000Y-83520619D02*
X111720000Y-82520619D01*
X111720000Y-82520619D02*
X111624762Y-82663476D01*
X111624762Y-82663476D02*
X111529524Y-82758714D01*
X111529524Y-82758714D02*
X111434286Y-82806333D01*
D11*
%TO.C,IC1*%
X135313788Y-105109167D02*
X134951251Y-103473871D01*
X135313788Y-105109167D02*
X135454474Y-105743760D01*
X132267744Y-105784459D02*
X132127058Y-105149866D01*
X132267744Y-105784459D02*
X132408430Y-106419051D01*
%TO.C,L2*%
X127842500Y-110170429D02*
X127462500Y-110828608D01*
X129514980Y-112013608D02*
X125410020Y-109643608D01*
X125410020Y-109643608D02*
X119790020Y-119377733D01*
X123894980Y-121747733D02*
X129514980Y-112013608D01*
X119790020Y-119377733D02*
X123894980Y-121747733D01*
X121462500Y-121220913D02*
X121842500Y-120562733D01*
%TO.C,R3*%
X125914564Y-84095000D02*
X125460436Y-84095000D01*
X125914564Y-82625000D02*
X125460436Y-82625000D01*
%TO.C,IC3*%
X129992571Y-95443278D02*
X128860957Y-94208339D01*
X129992571Y-95443278D02*
X130431704Y-95922509D01*
X127692265Y-97551120D02*
X127253132Y-97071889D01*
X127692265Y-97551120D02*
X128131399Y-98030350D01*
%TO.C,L3*%
X108742500Y-120519572D02*
X108362500Y-119861393D01*
X106310020Y-121046393D02*
X110414980Y-118676393D01*
X110414980Y-118676393D02*
X104794980Y-108942268D01*
X100690020Y-111312268D02*
X106310020Y-121046393D01*
X104794980Y-108942268D02*
X100690020Y-111312268D01*
X102362500Y-109469088D02*
X102742500Y-110127268D01*
%TO.C,L1*%
X109040000Y-98730000D02*
X109800000Y-98730000D01*
X109800000Y-96360000D02*
X109800000Y-101100000D01*
X109800000Y-101100000D02*
X121040000Y-101100000D01*
X121040000Y-96360000D02*
X109800000Y-96360000D01*
X121040000Y-101100000D02*
X121040000Y-96360000D01*
X121800000Y-98730000D02*
X121040000Y-98730000D01*
%TO.C,R2*%
X118200436Y-82585000D02*
X118654564Y-82585000D01*
X118200436Y-84055000D02*
X118654564Y-84055000D01*
%TO.C,C1*%
X115161252Y-84085000D02*
X114638748Y-84085000D01*
X115161252Y-82615000D02*
X114638748Y-82615000D01*
%TO.C,R1*%
X121882936Y-82605000D02*
X122337064Y-82605000D01*
X121882936Y-84075000D02*
X122337064Y-84075000D01*
%TO.C,IC2*%
X134759385Y-116244995D02*
X135290870Y-114656553D01*
X134759385Y-116244995D02*
X134553137Y-116861406D01*
X131800615Y-115255005D02*
X132006863Y-114638594D01*
X131800615Y-115255005D02*
X131594367Y-115871415D01*
D12*
%TO.C,MOTOR1*%
X123870000Y-71900000D02*
X123870000Y-81650000D01*
X105870000Y-81650000D02*
X123870000Y-81650000D01*
X105870000Y-81650000D02*
X105870000Y-71900000D01*
X105870000Y-71900000D02*
X123870000Y-71900000D01*
%TD*%
M02*
