M48
; DRILL file {KiCad 7.0.2} date Sat Aug 19 23:38:04 2023
; FORMAT={-:-/ absolute / inch / decimal}
; #@! TF.CreationDate,2023-08-19T23:38:04-03:00
; #@! TF.GenerationSoftware,Kicad,Pcbnew,7.0.2
; #@! TF.FileFunction,Plated,1,2,PTH
FMAT,2
INCH
; #@! TA.AperFunction,Plated,PTH,ViaDrill
T1C0.0276
; #@! TA.AperFunction,Plated,PTH,ComponentDrill
T2C0.0315
; #@! TA.AperFunction,Plated,PTH,ComponentDrill
T3C0.0354
; #@! TA.AperFunction,Plated,PTH,ComponentDrill
T4C0.0394
; #@! TA.AperFunction,Plated,PTH,ComponentDrill
T5C0.0591
; #@! TA.AperFunction,Plated,PTH,ComponentDrill
T6C0.0598
%
G90
G05
T1
X5.2756Y-1.6142
X5.3766Y-1.8729
X5.4724Y-3.2677
X5.4865Y-2.2311
X5.5422Y-2.9003
X5.6299Y-3.5039
X5.6693Y-2.7165
X5.6873Y-2.3633
X5.748Y-2.7559
X5.8429Y-3.2425
X5.8661Y-2.1654
X5.8661Y-2.9921
X6.0806Y-2.2316
X6.1024Y-3.0315
X6.2252Y-3.3858
X6.4961Y-3.2283
X6.6142Y-3.3858
X6.7165Y-2.3754
X6.7323Y-2.7559
X6.7323Y-2.874
X6.7323Y-2.9921
X6.783Y-1.7794
X7.0079Y-2.9921
X7.0472Y-3.0709
X7.0866Y-3.1496
X7.186Y-1.8048
X7.1886Y-2.0912
X7.4803Y-2.126
X7.4803Y-2.4409
X7.4803Y-2.8346
T2
X5.1969Y-1.7472
X5.1969Y-2.3472
X5.206Y-3.1496
X5.4299Y-2.426
X5.4299Y-2.526
X5.4299Y-2.626
X5.4299Y-2.726
X5.4299Y-2.826
X5.4299Y-2.926
X5.506Y-3.1496
X6.0236Y-2.4165
X6.0236Y-2.5165
X6.0236Y-2.6165
X6.0236Y-2.7165
X6.0236Y-2.8165
X6.0236Y-2.9165
X6.3423Y-1.689
X6.3423Y-1.789
X6.3423Y-1.889
X6.3423Y-1.989
X6.3423Y-2.089
X6.3423Y-2.189
X6.3423Y-2.289
X6.3423Y-2.389
X6.3423Y-2.489
X6.3423Y-2.589
X6.3423Y-2.689
X6.3423Y-2.789
X6.3423Y-2.889
X6.3423Y-2.989
X6.3423Y-3.089
X6.3423Y-3.189
X6.3423Y-3.289
X6.3423Y-3.389
X6.3423Y-3.489
X6.511Y-3.3465
X6.8504Y-2.0622
X6.8504Y-2.6622
X7.111Y-3.3465
X7.315Y-1.6843
X7.315Y-1.7843
X7.315Y-1.8843
X7.315Y-1.9843
X7.315Y-2.0843
X7.315Y-2.1843
X7.315Y-2.2843
X7.315Y-2.3843
X7.315Y-2.4843
X7.315Y-2.5843
X7.315Y-2.6843
X7.315Y-2.7843
X7.315Y-2.8843
X7.315Y-2.9843
X7.315Y-3.0843
X7.315Y-3.1843
X7.315Y-3.2843
X7.315Y-3.3843
X7.315Y-3.4843
T3
X5.1575Y-2.4803
X5.2575Y-2.4803
X7.4602Y-3.3572
X7.4602Y-3.4572
X7.4803Y-1.5929
X7.4803Y-1.6929
T4
X5.4874Y-1.6929
X5.5874Y-1.6929
X5.6874Y-1.6929
X5.7874Y-1.6929
X5.8874Y-1.6929
X5.9874Y-1.6929
X6.5748Y-2.2522
X6.5748Y-2.3522
X6.5748Y-2.4522
X6.5748Y-2.5522
X6.5748Y-2.6522
X6.5748Y-2.7522
X6.5748Y-2.8522
X6.5748Y-2.9522
X6.5898Y-3.5433
X6.6898Y-3.5433
X6.7898Y-3.5433
X6.8898Y-3.5433
X6.9898Y-3.5433
X7.0898Y-3.5433
T5
X5.2362Y-2.0472
X5.5118Y-2.0472
X5.8661Y-2.0472
X6.1417Y-2.0472
T6
X5.2543Y-3.4646
X5.4543Y-3.4646
T0
M30
