%TF.GenerationSoftware,KiCad,Pcbnew,7.0.2*%
%TF.CreationDate,2023-08-19T23:37:56-03:00*%
%TF.ProjectId,Placa v1.1,506c6163-6120-4763-912e-312e6b696361,rev?*%
%TF.SameCoordinates,Original*%
%TF.FileFunction,OtherDrawing,Comment*%
%FSLAX46Y46*%
G04 Gerber Fmt 4.6, Leading zero omitted, Abs format (unit mm)*
G04 Created by KiCad (PCBNEW 7.0.2) date 2023-08-19 23:37:56*
%MOMM*%
%LPD*%
G01*
G04 APERTURE LIST*
%ADD10C,0.150000*%
G04 APERTURE END LIST*
D10*
X197312619Y-70095237D02*
X197312619Y-70571427D01*
X197312619Y-70571427D02*
X197788809Y-70619046D01*
X197788809Y-70619046D02*
X197741190Y-70571427D01*
X197741190Y-70571427D02*
X197693571Y-70476189D01*
X197693571Y-70476189D02*
X197693571Y-70238094D01*
X197693571Y-70238094D02*
X197741190Y-70142856D01*
X197741190Y-70142856D02*
X197788809Y-70095237D01*
X197788809Y-70095237D02*
X197884047Y-70047618D01*
X197884047Y-70047618D02*
X198122142Y-70047618D01*
X198122142Y-70047618D02*
X198217380Y-70095237D01*
X198217380Y-70095237D02*
X198265000Y-70142856D01*
X198265000Y-70142856D02*
X198312619Y-70238094D01*
X198312619Y-70238094D02*
X198312619Y-70476189D01*
X198312619Y-70476189D02*
X198265000Y-70571427D01*
X198265000Y-70571427D02*
X198217380Y-70619046D01*
X197645952Y-69190475D02*
X198312619Y-69190475D01*
X197265000Y-69428570D02*
X197979285Y-69666665D01*
X197979285Y-69666665D02*
X197979285Y-69047618D01*
X198265000Y-68619046D02*
X198312619Y-68619046D01*
X198312619Y-68619046D02*
X198407857Y-68666665D01*
X198407857Y-68666665D02*
X198455476Y-68714284D01*
X197312619Y-67999999D02*
X197312619Y-67904761D01*
X197312619Y-67904761D02*
X197360238Y-67809523D01*
X197360238Y-67809523D02*
X197407857Y-67761904D01*
X197407857Y-67761904D02*
X197503095Y-67714285D01*
X197503095Y-67714285D02*
X197693571Y-67666666D01*
X197693571Y-67666666D02*
X197931666Y-67666666D01*
X197931666Y-67666666D02*
X198122142Y-67714285D01*
X198122142Y-67714285D02*
X198217380Y-67761904D01*
X198217380Y-67761904D02*
X198265000Y-67809523D01*
X198265000Y-67809523D02*
X198312619Y-67904761D01*
X198312619Y-67904761D02*
X198312619Y-67999999D01*
X198312619Y-67999999D02*
X198265000Y-68095237D01*
X198265000Y-68095237D02*
X198217380Y-68142856D01*
X198217380Y-68142856D02*
X198122142Y-68190475D01*
X198122142Y-68190475D02*
X197931666Y-68238094D01*
X197931666Y-68238094D02*
X197693571Y-68238094D01*
X197693571Y-68238094D02*
X197503095Y-68190475D01*
X197503095Y-68190475D02*
X197407857Y-68142856D01*
X197407857Y-68142856D02*
X197360238Y-68095237D01*
X197360238Y-68095237D02*
X197312619Y-67999999D01*
X197312619Y-67047618D02*
X197312619Y-66952380D01*
X197312619Y-66952380D02*
X197360238Y-66857142D01*
X197360238Y-66857142D02*
X197407857Y-66809523D01*
X197407857Y-66809523D02*
X197503095Y-66761904D01*
X197503095Y-66761904D02*
X197693571Y-66714285D01*
X197693571Y-66714285D02*
X197931666Y-66714285D01*
X197931666Y-66714285D02*
X198122142Y-66761904D01*
X198122142Y-66761904D02*
X198217380Y-66809523D01*
X198217380Y-66809523D02*
X198265000Y-66857142D01*
X198265000Y-66857142D02*
X198312619Y-66952380D01*
X198312619Y-66952380D02*
X198312619Y-67047618D01*
X198312619Y-67047618D02*
X198265000Y-67142856D01*
X198265000Y-67142856D02*
X198217380Y-67190475D01*
X198217380Y-67190475D02*
X198122142Y-67238094D01*
X198122142Y-67238094D02*
X197931666Y-67285713D01*
X197931666Y-67285713D02*
X197693571Y-67285713D01*
X197693571Y-67285713D02*
X197503095Y-67238094D01*
X197503095Y-67238094D02*
X197407857Y-67190475D01*
X197407857Y-67190475D02*
X197360238Y-67142856D01*
X197360238Y-67142856D02*
X197312619Y-67047618D01*
X197312619Y-66095237D02*
X197312619Y-65999999D01*
X197312619Y-65999999D02*
X197360238Y-65904761D01*
X197360238Y-65904761D02*
X197407857Y-65857142D01*
X197407857Y-65857142D02*
X197503095Y-65809523D01*
X197503095Y-65809523D02*
X197693571Y-65761904D01*
X197693571Y-65761904D02*
X197931666Y-65761904D01*
X197931666Y-65761904D02*
X198122142Y-65809523D01*
X198122142Y-65809523D02*
X198217380Y-65857142D01*
X198217380Y-65857142D02*
X198265000Y-65904761D01*
X198265000Y-65904761D02*
X198312619Y-65999999D01*
X198312619Y-65999999D02*
X198312619Y-66095237D01*
X198312619Y-66095237D02*
X198265000Y-66190475D01*
X198265000Y-66190475D02*
X198217380Y-66238094D01*
X198217380Y-66238094D02*
X198122142Y-66285713D01*
X198122142Y-66285713D02*
X197931666Y-66333332D01*
X197931666Y-66333332D02*
X197693571Y-66333332D01*
X197693571Y-66333332D02*
X197503095Y-66285713D01*
X197503095Y-66285713D02*
X197407857Y-66238094D01*
X197407857Y-66238094D02*
X197360238Y-66190475D01*
X197360238Y-66190475D02*
X197312619Y-66095237D01*
X197312619Y-65142856D02*
X197312619Y-65047618D01*
X197312619Y-65047618D02*
X197360238Y-64952380D01*
X197360238Y-64952380D02*
X197407857Y-64904761D01*
X197407857Y-64904761D02*
X197503095Y-64857142D01*
X197503095Y-64857142D02*
X197693571Y-64809523D01*
X197693571Y-64809523D02*
X197931666Y-64809523D01*
X197931666Y-64809523D02*
X198122142Y-64857142D01*
X198122142Y-64857142D02*
X198217380Y-64904761D01*
X198217380Y-64904761D02*
X198265000Y-64952380D01*
X198265000Y-64952380D02*
X198312619Y-65047618D01*
X198312619Y-65047618D02*
X198312619Y-65142856D01*
X198312619Y-65142856D02*
X198265000Y-65238094D01*
X198265000Y-65238094D02*
X198217380Y-65285713D01*
X198217380Y-65285713D02*
X198122142Y-65333332D01*
X198122142Y-65333332D02*
X197931666Y-65380951D01*
X197931666Y-65380951D02*
X197693571Y-65380951D01*
X197693571Y-65380951D02*
X197503095Y-65333332D01*
X197503095Y-65333332D02*
X197407857Y-65285713D01*
X197407857Y-65285713D02*
X197360238Y-65238094D01*
X197360238Y-65238094D02*
X197312619Y-65142856D01*
X198312619Y-63619046D02*
X197645952Y-63619046D01*
X197741190Y-63619046D02*
X197693571Y-63571427D01*
X197693571Y-63571427D02*
X197645952Y-63476189D01*
X197645952Y-63476189D02*
X197645952Y-63333332D01*
X197645952Y-63333332D02*
X197693571Y-63238094D01*
X197693571Y-63238094D02*
X197788809Y-63190475D01*
X197788809Y-63190475D02*
X198312619Y-63190475D01*
X197788809Y-63190475D02*
X197693571Y-63142856D01*
X197693571Y-63142856D02*
X197645952Y-63047618D01*
X197645952Y-63047618D02*
X197645952Y-62904761D01*
X197645952Y-62904761D02*
X197693571Y-62809522D01*
X197693571Y-62809522D02*
X197788809Y-62761903D01*
X197788809Y-62761903D02*
X198312619Y-62761903D01*
X198312619Y-62285713D02*
X197645952Y-62285713D01*
X197741190Y-62285713D02*
X197693571Y-62238094D01*
X197693571Y-62238094D02*
X197645952Y-62142856D01*
X197645952Y-62142856D02*
X197645952Y-61999999D01*
X197645952Y-61999999D02*
X197693571Y-61904761D01*
X197693571Y-61904761D02*
X197788809Y-61857142D01*
X197788809Y-61857142D02*
X198312619Y-61857142D01*
X197788809Y-61857142D02*
X197693571Y-61809523D01*
X197693571Y-61809523D02*
X197645952Y-61714285D01*
X197645952Y-61714285D02*
X197645952Y-61571428D01*
X197645952Y-61571428D02*
X197693571Y-61476189D01*
X197693571Y-61476189D02*
X197788809Y-61428570D01*
X197788809Y-61428570D02*
X198312619Y-61428570D01*
X192500000Y-39000000D02*
X199586420Y-39000000D01*
X192500000Y-93000000D02*
X199586420Y-93000000D01*
X199000000Y-39000000D02*
X199000000Y-93000000D01*
X199000000Y-39000000D02*
X199000000Y-93000000D01*
X199000000Y-39000000D02*
X199586421Y-40126504D01*
X199000000Y-39000000D02*
X198413579Y-40126504D01*
X199000000Y-93000000D02*
X198413579Y-91873496D01*
X199000000Y-93000000D02*
X199586421Y-91873496D01*
X156857143Y-98312619D02*
X156666667Y-98312619D01*
X156666667Y-98312619D02*
X156571429Y-98360238D01*
X156571429Y-98360238D02*
X156523810Y-98407857D01*
X156523810Y-98407857D02*
X156428572Y-98550714D01*
X156428572Y-98550714D02*
X156380953Y-98741190D01*
X156380953Y-98741190D02*
X156380953Y-99122142D01*
X156380953Y-99122142D02*
X156428572Y-99217380D01*
X156428572Y-99217380D02*
X156476191Y-99265000D01*
X156476191Y-99265000D02*
X156571429Y-99312619D01*
X156571429Y-99312619D02*
X156761905Y-99312619D01*
X156761905Y-99312619D02*
X156857143Y-99265000D01*
X156857143Y-99265000D02*
X156904762Y-99217380D01*
X156904762Y-99217380D02*
X156952381Y-99122142D01*
X156952381Y-99122142D02*
X156952381Y-98884047D01*
X156952381Y-98884047D02*
X156904762Y-98788809D01*
X156904762Y-98788809D02*
X156857143Y-98741190D01*
X156857143Y-98741190D02*
X156761905Y-98693571D01*
X156761905Y-98693571D02*
X156571429Y-98693571D01*
X156571429Y-98693571D02*
X156476191Y-98741190D01*
X156476191Y-98741190D02*
X156428572Y-98788809D01*
X156428572Y-98788809D02*
X156380953Y-98884047D01*
X157333334Y-98407857D02*
X157380953Y-98360238D01*
X157380953Y-98360238D02*
X157476191Y-98312619D01*
X157476191Y-98312619D02*
X157714286Y-98312619D01*
X157714286Y-98312619D02*
X157809524Y-98360238D01*
X157809524Y-98360238D02*
X157857143Y-98407857D01*
X157857143Y-98407857D02*
X157904762Y-98503095D01*
X157904762Y-98503095D02*
X157904762Y-98598333D01*
X157904762Y-98598333D02*
X157857143Y-98741190D01*
X157857143Y-98741190D02*
X157285715Y-99312619D01*
X157285715Y-99312619D02*
X157904762Y-99312619D01*
X158380953Y-99265000D02*
X158380953Y-99312619D01*
X158380953Y-99312619D02*
X158333334Y-99407857D01*
X158333334Y-99407857D02*
X158285715Y-99455476D01*
X159000000Y-98312619D02*
X159095238Y-98312619D01*
X159095238Y-98312619D02*
X159190476Y-98360238D01*
X159190476Y-98360238D02*
X159238095Y-98407857D01*
X159238095Y-98407857D02*
X159285714Y-98503095D01*
X159285714Y-98503095D02*
X159333333Y-98693571D01*
X159333333Y-98693571D02*
X159333333Y-98931666D01*
X159333333Y-98931666D02*
X159285714Y-99122142D01*
X159285714Y-99122142D02*
X159238095Y-99217380D01*
X159238095Y-99217380D02*
X159190476Y-99265000D01*
X159190476Y-99265000D02*
X159095238Y-99312619D01*
X159095238Y-99312619D02*
X159000000Y-99312619D01*
X159000000Y-99312619D02*
X158904762Y-99265000D01*
X158904762Y-99265000D02*
X158857143Y-99217380D01*
X158857143Y-99217380D02*
X158809524Y-99122142D01*
X158809524Y-99122142D02*
X158761905Y-98931666D01*
X158761905Y-98931666D02*
X158761905Y-98693571D01*
X158761905Y-98693571D02*
X158809524Y-98503095D01*
X158809524Y-98503095D02*
X158857143Y-98407857D01*
X158857143Y-98407857D02*
X158904762Y-98360238D01*
X158904762Y-98360238D02*
X159000000Y-98312619D01*
X159952381Y-98312619D02*
X160047619Y-98312619D01*
X160047619Y-98312619D02*
X160142857Y-98360238D01*
X160142857Y-98360238D02*
X160190476Y-98407857D01*
X160190476Y-98407857D02*
X160238095Y-98503095D01*
X160238095Y-98503095D02*
X160285714Y-98693571D01*
X160285714Y-98693571D02*
X160285714Y-98931666D01*
X160285714Y-98931666D02*
X160238095Y-99122142D01*
X160238095Y-99122142D02*
X160190476Y-99217380D01*
X160190476Y-99217380D02*
X160142857Y-99265000D01*
X160142857Y-99265000D02*
X160047619Y-99312619D01*
X160047619Y-99312619D02*
X159952381Y-99312619D01*
X159952381Y-99312619D02*
X159857143Y-99265000D01*
X159857143Y-99265000D02*
X159809524Y-99217380D01*
X159809524Y-99217380D02*
X159761905Y-99122142D01*
X159761905Y-99122142D02*
X159714286Y-98931666D01*
X159714286Y-98931666D02*
X159714286Y-98693571D01*
X159714286Y-98693571D02*
X159761905Y-98503095D01*
X159761905Y-98503095D02*
X159809524Y-98407857D01*
X159809524Y-98407857D02*
X159857143Y-98360238D01*
X159857143Y-98360238D02*
X159952381Y-98312619D01*
X160904762Y-98312619D02*
X161000000Y-98312619D01*
X161000000Y-98312619D02*
X161095238Y-98360238D01*
X161095238Y-98360238D02*
X161142857Y-98407857D01*
X161142857Y-98407857D02*
X161190476Y-98503095D01*
X161190476Y-98503095D02*
X161238095Y-98693571D01*
X161238095Y-98693571D02*
X161238095Y-98931666D01*
X161238095Y-98931666D02*
X161190476Y-99122142D01*
X161190476Y-99122142D02*
X161142857Y-99217380D01*
X161142857Y-99217380D02*
X161095238Y-99265000D01*
X161095238Y-99265000D02*
X161000000Y-99312619D01*
X161000000Y-99312619D02*
X160904762Y-99312619D01*
X160904762Y-99312619D02*
X160809524Y-99265000D01*
X160809524Y-99265000D02*
X160761905Y-99217380D01*
X160761905Y-99217380D02*
X160714286Y-99122142D01*
X160714286Y-99122142D02*
X160666667Y-98931666D01*
X160666667Y-98931666D02*
X160666667Y-98693571D01*
X160666667Y-98693571D02*
X160714286Y-98503095D01*
X160714286Y-98503095D02*
X160761905Y-98407857D01*
X160761905Y-98407857D02*
X160809524Y-98360238D01*
X160809524Y-98360238D02*
X160904762Y-98312619D01*
X161857143Y-98312619D02*
X161952381Y-98312619D01*
X161952381Y-98312619D02*
X162047619Y-98360238D01*
X162047619Y-98360238D02*
X162095238Y-98407857D01*
X162095238Y-98407857D02*
X162142857Y-98503095D01*
X162142857Y-98503095D02*
X162190476Y-98693571D01*
X162190476Y-98693571D02*
X162190476Y-98931666D01*
X162190476Y-98931666D02*
X162142857Y-99122142D01*
X162142857Y-99122142D02*
X162095238Y-99217380D01*
X162095238Y-99217380D02*
X162047619Y-99265000D01*
X162047619Y-99265000D02*
X161952381Y-99312619D01*
X161952381Y-99312619D02*
X161857143Y-99312619D01*
X161857143Y-99312619D02*
X161761905Y-99265000D01*
X161761905Y-99265000D02*
X161714286Y-99217380D01*
X161714286Y-99217380D02*
X161666667Y-99122142D01*
X161666667Y-99122142D02*
X161619048Y-98931666D01*
X161619048Y-98931666D02*
X161619048Y-98693571D01*
X161619048Y-98693571D02*
X161666667Y-98503095D01*
X161666667Y-98503095D02*
X161714286Y-98407857D01*
X161714286Y-98407857D02*
X161761905Y-98360238D01*
X161761905Y-98360238D02*
X161857143Y-98312619D01*
X163380953Y-99312619D02*
X163380953Y-98645952D01*
X163380953Y-98741190D02*
X163428572Y-98693571D01*
X163428572Y-98693571D02*
X163523810Y-98645952D01*
X163523810Y-98645952D02*
X163666667Y-98645952D01*
X163666667Y-98645952D02*
X163761905Y-98693571D01*
X163761905Y-98693571D02*
X163809524Y-98788809D01*
X163809524Y-98788809D02*
X163809524Y-99312619D01*
X163809524Y-98788809D02*
X163857143Y-98693571D01*
X163857143Y-98693571D02*
X163952381Y-98645952D01*
X163952381Y-98645952D02*
X164095238Y-98645952D01*
X164095238Y-98645952D02*
X164190477Y-98693571D01*
X164190477Y-98693571D02*
X164238096Y-98788809D01*
X164238096Y-98788809D02*
X164238096Y-99312619D01*
X164714286Y-99312619D02*
X164714286Y-98645952D01*
X164714286Y-98741190D02*
X164761905Y-98693571D01*
X164761905Y-98693571D02*
X164857143Y-98645952D01*
X164857143Y-98645952D02*
X165000000Y-98645952D01*
X165000000Y-98645952D02*
X165095238Y-98693571D01*
X165095238Y-98693571D02*
X165142857Y-98788809D01*
X165142857Y-98788809D02*
X165142857Y-99312619D01*
X165142857Y-98788809D02*
X165190476Y-98693571D01*
X165190476Y-98693571D02*
X165285714Y-98645952D01*
X165285714Y-98645952D02*
X165428571Y-98645952D01*
X165428571Y-98645952D02*
X165523810Y-98693571D01*
X165523810Y-98693571D02*
X165571429Y-98788809D01*
X165571429Y-98788809D02*
X165571429Y-99312619D01*
X130000000Y-93500000D02*
X130000000Y-100586420D01*
X192000000Y-93500000D02*
X192000000Y-100586420D01*
X130000000Y-100000000D02*
X192000000Y-100000000D01*
X130000000Y-100000000D02*
X192000000Y-100000000D01*
X130000000Y-100000000D02*
X131126504Y-99413579D01*
X130000000Y-100000000D02*
X131126504Y-100586421D01*
X192000000Y-100000000D02*
X190873496Y-100586421D01*
X192000000Y-100000000D02*
X190873496Y-99413579D01*
M02*
