%TF.GenerationSoftware,KiCad,Pcbnew,7.0.2*%
%TF.CreationDate,2023-08-19T23:37:56-03:00*%
%TF.ProjectId,Placa v1.1,506c6163-6120-4763-912e-312e6b696361,rev?*%
%TF.SameCoordinates,Original*%
%TF.FileFunction,Copper,L2,Bot*%
%TF.FilePolarity,Positive*%
%FSLAX46Y46*%
G04 Gerber Fmt 4.6, Leading zero omitted, Abs format (unit mm)*
G04 Created by KiCad (PCBNEW 7.0.2) date 2023-08-19 23:37:56*
%MOMM*%
%LPD*%
G01*
G04 APERTURE LIST*
%TA.AperFunction,ComponentPad*%
%ADD10R,1.800000X1.800000*%
%TD*%
%TA.AperFunction,ComponentPad*%
%ADD11C,1.800000*%
%TD*%
%TA.AperFunction,ComponentPad*%
%ADD12C,2.700000*%
%TD*%
%TA.AperFunction,ComponentPad*%
%ADD13R,1.600000X1.600000*%
%TD*%
%TA.AperFunction,ComponentPad*%
%ADD14O,1.600000X1.600000*%
%TD*%
%TA.AperFunction,ComponentPad*%
%ADD15C,1.600000*%
%TD*%
%TA.AperFunction,ComponentPad*%
%ADD16C,2.000000*%
%TD*%
%TA.AperFunction,ComponentPad*%
%ADD17R,1.700000X1.700000*%
%TD*%
%TA.AperFunction,ComponentPad*%
%ADD18O,1.700000X1.700000*%
%TD*%
%TA.AperFunction,ComponentPad*%
%ADD19R,3.000000X3.000000*%
%TD*%
%TA.AperFunction,ComponentPad*%
%ADD20C,3.000000*%
%TD*%
%TA.AperFunction,ComponentPad*%
%ADD21R,2.000000X2.000000*%
%TD*%
%TA.AperFunction,ViaPad*%
%ADD22C,1.500000*%
%TD*%
%TA.AperFunction,ViaPad*%
%ADD23C,2.000000*%
%TD*%
%TA.AperFunction,Conductor*%
%ADD24C,1.000000*%
%TD*%
%TA.AperFunction,Conductor*%
%ADD25C,2.000000*%
%TD*%
%TA.AperFunction,Conductor*%
%ADD26C,1.500000*%
%TD*%
G04 APERTURE END LIST*
D10*
%TO.P,D2,1,K*%
%TO.N,Earth*%
X190000000Y-43000000D03*
D11*
%TO.P,D2,2,A*%
%TO.N,Net-(D2-A)*%
X190000000Y-40460000D03*
%TD*%
D10*
%TO.P,D4,1,K*%
%TO.N,Earth*%
X189489565Y-85273763D03*
D11*
%TO.P,D4,2,A*%
%TO.N,Net-(D4-A)*%
X189489565Y-87813763D03*
%TD*%
D12*
%TO.P,FUS\u00CDVEL,A1,A1*%
%TO.N,7.4V*%
X133000000Y-52000000D03*
%TO.P,FUS\u00CDVEL,A2,A2*%
X140000000Y-52000000D03*
%TO.P,FUS\u00CDVEL,A3,A3*%
X149000000Y-52000000D03*
%TO.P,FUS\u00CDVEL,A4,A4*%
X156000000Y-52000000D03*
%TD*%
D13*
%TO.P,B1,1,1*%
%TO.N,7.4V*%
X132232500Y-80000000D03*
D14*
%TO.P,B1,2,2*%
%TO.N,Net-(J1-Pin_1)*%
X139852500Y-80000000D03*
%TD*%
D15*
%TO.P,R2,1*%
%TO.N,3v3*%
X132000000Y-44380000D03*
D14*
%TO.P,R2,2*%
%TO.N,Net-(D3-A)*%
X132000000Y-59620000D03*
%TD*%
D16*
%TO.P,U3,A0,3V3*%
%TO.N,unconnected-(U3-3V3-PadA0)*%
X161095000Y-42900000D03*
%TO.P,U3,A1,EN*%
%TO.N,unconnected-(U3-EN-PadA1)*%
X161095000Y-45440000D03*
%TO.P,U3,A2,SP*%
%TO.N,unconnected-(U3-SP-PadA2)*%
X161095000Y-47980000D03*
%TO.P,U3,A3,SN*%
%TO.N,unconnected-(U3-SN-PadA3)*%
X161095000Y-50520000D03*
%TO.P,U3,A4,G34*%
%TO.N,unconnected-(U3-G34-PadA4)*%
X161095000Y-53060000D03*
%TO.P,U3,A5,G35*%
%TO.N,unconnected-(U3-G35-PadA5)*%
X161095000Y-55600000D03*
%TO.P,U3,A6,G32*%
%TO.N,IN4*%
X161095000Y-58140000D03*
%TO.P,U3,A7,G33*%
%TO.N,IN3*%
X161095000Y-60680000D03*
%TO.P,U3,A8,G25*%
%TO.N,IN2*%
X161095000Y-63220000D03*
%TO.P,U3,A9,G26*%
%TO.N,IN1*%
X161095000Y-65760000D03*
%TO.P,U3,A10,G27*%
%TO.N,unconnected-(U3-G27-PadA10)*%
X161095000Y-68300000D03*
%TO.P,U3,A11,G14*%
%TO.N,unconnected-(U3-G14-PadA11)*%
X161095000Y-70840000D03*
%TO.P,U3,A12,G12*%
%TO.N,unconnected-(U3-G12-PadA12)*%
X161095000Y-73380000D03*
%TO.P,U3,A13,GND*%
%TO.N,Earth*%
X161095000Y-75920000D03*
%TO.P,U3,A14,G13*%
%TO.N,C2_2*%
X161095000Y-78460000D03*
%TO.P,U3,A15,SD2*%
%TO.N,unconnected-(U3-SD2-PadA15)*%
X161095000Y-81000000D03*
%TO.P,U3,A16,SD3*%
%TO.N,unconnected-(U3-SD3-PadA16)*%
X161095000Y-83540000D03*
%TO.P,U3,A17,CMD*%
%TO.N,unconnected-(U3-CMD-PadA17)*%
X161095000Y-86080000D03*
%TO.P,U3,A18,5V*%
%TO.N,7.4V*%
X161095000Y-88620000D03*
%TO.P,U3,A19,GND*%
%TO.N,Earth*%
X185800000Y-42780000D03*
%TO.P,U3,A20,G23*%
%TO.N,unconnected-(U3-G23-PadA20)*%
X185800000Y-45320000D03*
%TO.P,U3,A21,G22*%
%TO.N,SCL*%
X185800000Y-47860000D03*
%TO.P,U3,A22,TXD*%
%TO.N,unconnected-(U3-TXD-PadA22)*%
X185800000Y-50400000D03*
%TO.P,U3,A23,RXD*%
%TO.N,unconnected-(U3-RXD-PadA23)*%
X185800000Y-52940000D03*
%TO.P,U3,A24,G21*%
%TO.N,SDA*%
X185800000Y-55480000D03*
%TO.P,U3,A25,GND*%
%TO.N,Earth*%
X185800000Y-58020000D03*
%TO.P,U3,A26,G19*%
%TO.N,C2_1*%
X185800000Y-60560000D03*
%TO.P,U3,A27,G18*%
%TO.N,C1_2*%
X185800000Y-63100000D03*
%TO.P,U3,A28,G5*%
%TO.N,C1_1*%
X185800000Y-65640000D03*
%TO.P,U3,A29,G17*%
%TO.N,unconnected-(U3-G17-PadA29)*%
X185800000Y-68180000D03*
%TO.P,U3,A30,G16*%
%TO.N,unconnected-(U3-G16-PadA30)*%
X185800000Y-70720000D03*
%TO.P,U3,A31,G4*%
%TO.N,LED*%
X185800000Y-73260000D03*
%TO.P,U3,A32,G0*%
%TO.N,unconnected-(U3-G0-PadA32)*%
X185800000Y-75800000D03*
%TO.P,U3,A33,G2*%
%TO.N,unconnected-(U3-G2-PadA33)*%
X185800000Y-78340000D03*
%TO.P,U3,A34,G15*%
%TO.N,unconnected-(U3-G15-PadA34)*%
X185800000Y-80880000D03*
%TO.P,U3,A35,SD1*%
%TO.N,unconnected-(U3-SD1-PadA35)*%
X185800000Y-83420000D03*
%TO.P,U3,A36,SD0*%
%TO.N,unconnected-(U3-SD0-PadA36)*%
X185800000Y-85960000D03*
%TO.P,U3,A37,CLK*%
%TO.N,unconnected-(U3-CLK-PadA37)*%
X185800000Y-88500000D03*
%TD*%
D17*
%TO.P,MOTOR2,1,Pin_1*%
%TO.N,SAIDA 4 PONTE H *%
X167380000Y-90000000D03*
D18*
%TO.P,MOTOR2,2,Pin_2*%
%TO.N,Earth*%
X169920000Y-90000000D03*
%TO.P,MOTOR2,3,Pin_3*%
%TO.N,C2_2*%
X172460000Y-90000000D03*
%TO.P,MOTOR2,4,Pin_4*%
%TO.N,C1_2*%
X175000000Y-90000000D03*
%TO.P,MOTOR2,5,Pin_5*%
%TO.N,3v3*%
X177540000Y-90000000D03*
%TO.P,MOTOR2,6,Pin_6*%
%TO.N,SAIDA 3 PONTE H *%
X180080000Y-90000000D03*
%TD*%
D15*
%TO.P,R1,1*%
%TO.N,LED*%
X174000000Y-67620000D03*
D14*
%TO.P,R1,2*%
%TO.N,Net-(D2-A)*%
X174000000Y-52380000D03*
%TD*%
D17*
%TO.P,MOTOR1,1,Pin_1*%
%TO.N,SAIDA 1 PONTE H *%
X139380000Y-43000000D03*
D18*
%TO.P,MOTOR1,2,Pin_2*%
%TO.N,3v3*%
X141920000Y-43000000D03*
%TO.P,MOTOR1,3,Pin_3*%
%TO.N,C1_1*%
X144460000Y-43000000D03*
%TO.P,MOTOR1,4,Pin_4*%
%TO.N,C2_1*%
X147000000Y-43000000D03*
%TO.P,MOTOR1,5,Pin_5*%
%TO.N,Earth*%
X149540000Y-43000000D03*
%TO.P,MOTOR1,6,Pin_6*%
%TO.N,SAIDA 2 PONTE H *%
X152080000Y-43000000D03*
%TD*%
D10*
%TO.P,D3,1,K*%
%TO.N,Earth*%
X131000000Y-63000000D03*
D11*
%TO.P,D3,2,A*%
%TO.N,Net-(D3-A)*%
X133540000Y-63000000D03*
%TD*%
D19*
%TO.P,BATERIA,*%
%TO.N,Net-(J1-Pin_1)*%
X133460000Y-88000000D03*
D20*
%TO.P,BATERIA,2,Pin_2*%
%TO.N,Earth*%
X138540000Y-88000000D03*
%TD*%
D15*
%TO.P,R3,1*%
%TO.N,7.4V*%
X165380000Y-85000000D03*
D14*
%TO.P,R3,2*%
%TO.N,Net-(D4-A)*%
X180620000Y-85000000D03*
%TD*%
D16*
%TO.P,DRV8833,A0,EEP*%
%TO.N,3v3*%
X137920000Y-61620000D03*
%TO.P,DRV8833,A1,OUT1*%
%TO.N,SAIDA 1 PONTE H *%
X137920000Y-64160000D03*
%TO.P,DRV8833,A2,OUT2*%
%TO.N,SAIDA 2 PONTE H *%
X137920000Y-66700000D03*
%TO.P,DRV8833,A3,OUT3*%
%TO.N,SAIDA 4 PONTE H *%
X137920000Y-69240000D03*
%TO.P,DRV8833,A4,OUT4*%
%TO.N,SAIDA 3 PONTE H *%
X137920000Y-71780000D03*
%TO.P,DRV8833,A5,ULT*%
%TO.N,unconnected-(DRV1-ULT-PadA5)*%
X137920000Y-74320000D03*
%TO.P,DRV8833,A6,IN4*%
%TO.N,IN4*%
X153000000Y-61380000D03*
%TO.P,DRV8833,A7,IN3*%
%TO.N,IN3*%
X153000000Y-63920000D03*
%TO.P,DRV8833,A8,GND*%
%TO.N,Earth*%
X153000000Y-66460000D03*
%TO.P,DRV8833,A9,VCC*%
%TO.N,7.4V*%
X153000000Y-69000000D03*
%TO.P,DRV8833,A10,IN2*%
%TO.N,IN2*%
X153000000Y-71540000D03*
%TO.P,DRV8833,A11,IN1*%
%TO.N,IN1*%
X153000000Y-74080000D03*
%TD*%
D21*
%TO.P,MPU6050,A0,VCC*%
%TO.N,3v3*%
X167000000Y-57205000D03*
%TO.P,MPU6050,A1,GND*%
%TO.N,Earth*%
X167000000Y-59745000D03*
%TO.P,MPU6050,A2,SCL*%
%TO.N,SCL*%
X167000000Y-62285000D03*
%TO.P,MPU6050,A3,SDA*%
%TO.N,SDA*%
X167000000Y-64825000D03*
%TO.P,MPU6050,A4,XDA*%
%TO.N,unconnected-(M1-XDA-PadA4)*%
X167000000Y-67365000D03*
%TO.P,MPU6050,A5,XCL*%
%TO.N,unconnected-(M1-XCL-PadA5)*%
X167000000Y-69905000D03*
%TO.P,MPU6050,A6,AD0*%
%TO.N,unconnected-(M1-AD0-PadA6)*%
X167000000Y-72445000D03*
%TO.P,MPU6050,A7,INT*%
%TO.N,unconnected-(M1-INT-PadA7)*%
X167000000Y-74985000D03*
%TD*%
D22*
%TO.N,Earth*%
X170599219Y-60335500D03*
X144000000Y-69000000D03*
X182589354Y-53116603D03*
X144457851Y-60028615D03*
X172287706Y-45197211D03*
X146000000Y-70000000D03*
X179000000Y-78000000D03*
X171000000Y-76000000D03*
X158118883Y-86000000D03*
X190000000Y-54000000D03*
X139000000Y-83000000D03*
X171000000Y-70000000D03*
X180000000Y-80000000D03*
X182524969Y-45841064D03*
X148410389Y-82358365D03*
X171000000Y-73000000D03*
X139356146Y-56670467D03*
X190000000Y-62000000D03*
X155000000Y-77000000D03*
X178000000Y-76000000D03*
X136566117Y-47570677D03*
X190000000Y-72000000D03*
X154446641Y-56683904D03*
X143000000Y-89000000D03*
X168000000Y-86000000D03*
X165000000Y-82000000D03*
X140772623Y-73668186D03*
X149000000Y-55000000D03*
D23*
%TO.N,3v3*%
X134000000Y-41000000D03*
%TO.N,7.4V*%
X149000000Y-76000000D03*
%TD*%
D24*
%TO.N,Earth*%
X146000000Y-67000000D02*
X146000000Y-70000000D01*
X144000000Y-60486466D02*
X144000000Y-65000000D01*
X144000000Y-65000000D02*
X146000000Y-67000000D01*
X144457851Y-60028615D02*
X144000000Y-60486466D01*
D25*
%TO.N,LED*%
X174000000Y-67620000D02*
X179640000Y-73260000D01*
X179640000Y-73260000D02*
X185800000Y-73260000D01*
%TO.N,Net-(D2-A)*%
X174000000Y-51000000D02*
X184540000Y-40460000D01*
X174000000Y-52380000D02*
X174000000Y-51000000D01*
X184540000Y-40460000D02*
X190000000Y-40460000D01*
D24*
%TO.N,3v3*%
X143000000Y-50000000D02*
X134000000Y-41000000D01*
X143000000Y-56540000D02*
X143000000Y-50000000D01*
X137920000Y-61620000D02*
X143000000Y-56540000D01*
D26*
X132000000Y-44380000D02*
X132000000Y-43000000D01*
X132000000Y-43000000D02*
X134000000Y-41000000D01*
D25*
%TO.N,Net-(D3-A)*%
X132000000Y-59620000D02*
X133540000Y-61160000D01*
X133540000Y-61160000D02*
X133540000Y-63000000D01*
D24*
%TO.N,Net-(D4-A)*%
X184000000Y-91000000D02*
X186303328Y-91000000D01*
X180620000Y-85000000D02*
X180620000Y-87620000D01*
X180620000Y-87620000D02*
X184000000Y-91000000D01*
X186303328Y-91000000D02*
X189489565Y-87813763D01*
D26*
%TO.N,IN4*%
X153000000Y-61380000D02*
X156240000Y-58140000D01*
X156240000Y-58140000D02*
X161095000Y-58140000D01*
D24*
%TO.N,C2_1*%
X168000000Y-42000000D02*
X165800000Y-39800000D01*
X178560000Y-60560000D02*
X168000000Y-50000000D01*
X149000000Y-46000000D02*
X147000000Y-44000000D01*
X168000000Y-50000000D02*
X168000000Y-42000000D01*
X185800000Y-60560000D02*
X178560000Y-60560000D01*
X159200000Y-39800000D02*
X153000000Y-46000000D01*
X165800000Y-39800000D02*
X159200000Y-39800000D01*
X153000000Y-46000000D02*
X149000000Y-46000000D01*
X147000000Y-44000000D02*
X147000000Y-43000000D01*
%TO.N,C1_1*%
X145460000Y-48000000D02*
X158000000Y-48000000D01*
X160590836Y-41000000D02*
X164000000Y-41000000D01*
X144460000Y-47000000D02*
X145460000Y-48000000D01*
X159000000Y-42590836D02*
X160590836Y-41000000D01*
X158000000Y-48000000D02*
X159000000Y-47000000D01*
X144460000Y-47000000D02*
X144460000Y-43000000D01*
X166000000Y-52000000D02*
X181000000Y-67000000D01*
X181000000Y-67000000D02*
X184440000Y-67000000D01*
X164000000Y-41000000D02*
X166000000Y-43000000D01*
X184440000Y-67000000D02*
X185800000Y-65640000D01*
X159000000Y-47000000D02*
X159000000Y-42590836D01*
X166000000Y-43000000D02*
X166000000Y-52000000D01*
D26*
%TO.N,IN3*%
X157320000Y-60680000D02*
X161095000Y-60680000D01*
X154080000Y-63920000D02*
X157320000Y-60680000D01*
X153000000Y-63920000D02*
X154080000Y-63920000D01*
%TO.N,IN2*%
X153000000Y-71540000D02*
X153460000Y-71540000D01*
X158780000Y-63220000D02*
X161095000Y-63220000D01*
X156000000Y-66000000D02*
X158780000Y-63220000D01*
X156000000Y-69000000D02*
X156000000Y-66000000D01*
X153460000Y-71540000D02*
X156000000Y-69000000D01*
%TO.N,C2_2*%
X167554542Y-78554542D02*
X172460000Y-83460000D01*
X172460000Y-83460000D02*
X172460000Y-90000000D01*
X161189542Y-78554542D02*
X167554542Y-78554542D01*
D24*
X161095000Y-78460000D02*
X161189542Y-78554542D01*
D26*
%TO.N,IN1*%
X159680787Y-65760000D02*
X161095000Y-65760000D01*
X153000000Y-74080000D02*
X154414213Y-74080000D01*
X159000000Y-66440787D02*
X159680787Y-65760000D01*
X159000000Y-69494213D02*
X159000000Y-66440787D01*
X154414213Y-74080000D02*
X159000000Y-69494213D01*
D24*
%TO.N,SAIDA 3 PONTE H *%
X143000000Y-85000000D02*
X150200000Y-92200000D01*
X141000000Y-77000000D02*
X143000000Y-79000000D01*
X143000000Y-79000000D02*
X143000000Y-85000000D01*
X137920000Y-71780000D02*
X135000000Y-74700000D01*
X136000000Y-77000000D02*
X141000000Y-77000000D01*
X135000000Y-76000000D02*
X136000000Y-77000000D01*
X135000000Y-74700000D02*
X135000000Y-76000000D01*
X150200000Y-92200000D02*
X177880000Y-92200000D01*
X177880000Y-92200000D02*
X180080000Y-90000000D01*
%TO.N,SAIDA 4 PONTE H *%
X146000000Y-84000000D02*
X146000000Y-75000000D01*
X163161264Y-90838736D02*
X152838736Y-90838736D01*
X140240000Y-69240000D02*
X137920000Y-69240000D01*
X152838736Y-90838736D02*
X146000000Y-84000000D01*
X146000000Y-75000000D02*
X140240000Y-69240000D01*
X167380000Y-90000000D02*
X164000000Y-90000000D01*
X164000000Y-90000000D02*
X163161264Y-90838736D01*
D26*
%TO.N,7.4V*%
X135506971Y-54506971D02*
X133000000Y-52000000D01*
D25*
X149000000Y-69000000D02*
X149000000Y-76000000D01*
X133000000Y-52000000D02*
X140000000Y-52000000D01*
D26*
X132232500Y-80000000D02*
X132232500Y-67742195D01*
D25*
X149000000Y-52000000D02*
X156000000Y-52000000D01*
X153000000Y-69000000D02*
X149000000Y-69000000D01*
X156000000Y-52000000D02*
X148000000Y-60000000D01*
X149000000Y-80000000D02*
X149000000Y-76000000D01*
X158000000Y-89000000D02*
X160715000Y-89000000D01*
D26*
X160715000Y-89000000D02*
X161095000Y-88620000D01*
D25*
X158000000Y-89000000D02*
X149000000Y-80000000D01*
D26*
X161095000Y-88620000D02*
X161760000Y-88620000D01*
X132232500Y-67742195D02*
X135506971Y-64467724D01*
D25*
X148000000Y-60000000D02*
X148000000Y-68000000D01*
D26*
X135506971Y-64467724D02*
X135506971Y-54506971D01*
D25*
X161760000Y-88620000D02*
X165380000Y-85000000D01*
X148000000Y-68000000D02*
X149000000Y-69000000D01*
%TD*%
%TA.AperFunction,Conductor*%
%TO.N,Earth*%
G36*
X130802547Y-63410016D02*
G01*
X130932173Y-63450000D01*
X131033724Y-63450000D01*
X131134138Y-63434865D01*
X131250000Y-63379068D01*
X131250000Y-64400000D01*
X131944518Y-64400000D01*
X131951132Y-64399645D01*
X132007371Y-64393599D01*
X132142089Y-64343352D01*
X132257190Y-64257187D01*
X132349007Y-64134535D01*
X132404940Y-64092663D01*
X132474632Y-64087679D01*
X132524436Y-64110992D01*
X132716485Y-64260470D01*
X132716487Y-64260471D01*
X132716491Y-64260474D01*
X132935190Y-64378828D01*
X133170386Y-64459571D01*
X133415665Y-64500500D01*
X133425799Y-64502191D01*
X133425159Y-64506020D01*
X133473397Y-64520185D01*
X133519152Y-64572989D01*
X133529096Y-64642147D01*
X133500071Y-64705703D01*
X133494039Y-64712181D01*
X131402843Y-66803376D01*
X131392480Y-66812638D01*
X131364835Y-66834686D01*
X131321236Y-66884586D01*
X131315552Y-66890667D01*
X131310524Y-66895696D01*
X131310515Y-66895705D01*
X131308555Y-66897666D01*
X131306780Y-66899791D01*
X131306769Y-66899804D01*
X131282429Y-66928958D01*
X131280624Y-66931071D01*
X131216735Y-67004198D01*
X131214486Y-67007962D01*
X131203239Y-67023812D01*
X131200432Y-67027174D01*
X131152478Y-67111685D01*
X131151104Y-67114044D01*
X131142855Y-67127853D01*
X131101282Y-67197436D01*
X131099746Y-67201530D01*
X131091509Y-67219139D01*
X131089347Y-67222948D01*
X131057262Y-67314639D01*
X131056314Y-67317252D01*
X131022191Y-67408173D01*
X131021410Y-67412477D01*
X131016450Y-67431272D01*
X131015001Y-67435412D01*
X130999804Y-67531361D01*
X130999338Y-67534102D01*
X130982000Y-67629645D01*
X130982000Y-67634024D01*
X130980473Y-67653422D01*
X130979790Y-67657732D01*
X130981969Y-67754834D01*
X130982000Y-67757616D01*
X130982000Y-78953270D01*
X130974182Y-78996603D01*
X130938409Y-79092514D01*
X130938409Y-79092516D01*
X130938409Y-79092517D01*
X130932000Y-79152127D01*
X130932000Y-79155448D01*
X130932000Y-79155449D01*
X130932000Y-80844560D01*
X130932000Y-80844578D01*
X130932001Y-80847872D01*
X130932353Y-80851152D01*
X130932354Y-80851159D01*
X130938409Y-80907483D01*
X130988704Y-81042331D01*
X131074954Y-81157546D01*
X131190169Y-81243796D01*
X131325017Y-81294091D01*
X131384627Y-81300500D01*
X133080372Y-81300499D01*
X133139983Y-81294091D01*
X133274831Y-81243796D01*
X133390046Y-81157546D01*
X133476296Y-81042331D01*
X133526591Y-80907483D01*
X133533000Y-80847873D01*
X133532999Y-80000000D01*
X138547031Y-80000000D01*
X138566864Y-80226689D01*
X138625761Y-80446497D01*
X138721932Y-80652735D01*
X138852453Y-80839140D01*
X139013359Y-81000046D01*
X139199764Y-81130567D01*
X139199765Y-81130567D01*
X139199766Y-81130568D01*
X139406004Y-81226739D01*
X139625808Y-81285635D01*
X139852500Y-81305468D01*
X140079192Y-81285635D01*
X140298996Y-81226739D01*
X140505234Y-81130568D01*
X140691639Y-81000047D01*
X140852547Y-80839139D01*
X140983068Y-80652734D01*
X141079239Y-80446496D01*
X141138135Y-80226692D01*
X141157968Y-80000000D01*
X141138135Y-79773308D01*
X141079239Y-79553504D01*
X140983068Y-79347266D01*
X140863573Y-79176607D01*
X140852546Y-79160859D01*
X140691640Y-78999953D01*
X140505235Y-78869432D01*
X140298997Y-78773261D01*
X140079189Y-78714364D01*
X139852500Y-78694531D01*
X139625810Y-78714364D01*
X139406002Y-78773261D01*
X139199764Y-78869432D01*
X139013359Y-78999953D01*
X138852453Y-79160859D01*
X138721932Y-79347264D01*
X138625761Y-79553502D01*
X138566864Y-79773310D01*
X138547031Y-80000000D01*
X133532999Y-80000000D01*
X133532999Y-79152128D01*
X133526591Y-79092517D01*
X133490818Y-78996603D01*
X133483000Y-78953271D01*
X133483000Y-68311530D01*
X133502685Y-68244491D01*
X133519314Y-68223854D01*
X136336638Y-65406529D01*
X136346987Y-65397281D01*
X136374637Y-65375232D01*
X136418240Y-65325323D01*
X136423914Y-65319253D01*
X136430915Y-65312254D01*
X136457076Y-65280916D01*
X136458855Y-65278836D01*
X136462964Y-65274134D01*
X136522736Y-65205720D01*
X136524973Y-65201975D01*
X136536240Y-65186094D01*
X136539039Y-65182743D01*
X136563031Y-65140458D01*
X136613234Y-65091867D01*
X136681740Y-65078130D01*
X136746797Y-65103610D01*
X136762107Y-65117668D01*
X136843168Y-65205724D01*
X136900256Y-65267738D01*
X136983008Y-65332147D01*
X137023821Y-65388858D01*
X137027494Y-65458631D01*
X136992863Y-65519314D01*
X136983008Y-65527853D01*
X136900256Y-65592261D01*
X136807320Y-65693217D01*
X136731836Y-65775215D01*
X136721832Y-65790527D01*
X136595825Y-65983395D01*
X136530484Y-66132359D01*
X136495937Y-66211119D01*
X136445338Y-66410930D01*
X136434891Y-66452183D01*
X136414356Y-66699999D01*
X136434891Y-66947816D01*
X136434891Y-66947819D01*
X136434892Y-66947821D01*
X136495937Y-67188881D01*
X136525034Y-67255215D01*
X136595825Y-67416604D01*
X136595827Y-67416607D01*
X136731836Y-67624785D01*
X136855205Y-67758799D01*
X136900256Y-67807738D01*
X136983008Y-67872147D01*
X137023821Y-67928858D01*
X137027494Y-67998631D01*
X136992863Y-68059314D01*
X136983008Y-68067853D01*
X136900256Y-68132261D01*
X136731837Y-68315214D01*
X136595825Y-68523395D01*
X136523597Y-68688060D01*
X136495937Y-68751119D01*
X136468251Y-68860449D01*
X136434891Y-68992183D01*
X136414356Y-69240000D01*
X136434891Y-69487816D01*
X136434891Y-69487819D01*
X136434892Y-69487821D01*
X136495937Y-69728881D01*
X136525034Y-69795215D01*
X136595825Y-69956604D01*
X136595827Y-69956607D01*
X136731836Y-70164785D01*
X136792901Y-70231119D01*
X136900256Y-70347738D01*
X136983008Y-70412147D01*
X137023821Y-70468858D01*
X137027494Y-70538631D01*
X136992863Y-70599314D01*
X136983008Y-70607853D01*
X136900256Y-70672261D01*
X136731837Y-70855214D01*
X136595825Y-71063395D01*
X136527864Y-71218332D01*
X136495937Y-71291119D01*
X136468251Y-71400449D01*
X136434891Y-71532183D01*
X136414356Y-71779995D01*
X136416553Y-71806501D01*
X136402471Y-71874937D01*
X136380657Y-71904421D01*
X134302646Y-73982432D01*
X134300399Y-73984623D01*
X134236948Y-74044939D01*
X134203244Y-74093362D01*
X134197573Y-74100882D01*
X134160301Y-74146593D01*
X134146210Y-74173566D01*
X134138082Y-74186983D01*
X134120705Y-74211950D01*
X134097439Y-74266165D01*
X134093399Y-74274671D01*
X134066090Y-74326952D01*
X134057720Y-74356201D01*
X134052459Y-74370978D01*
X134040460Y-74398942D01*
X134028587Y-74456713D01*
X134026342Y-74465860D01*
X134010113Y-74522580D01*
X134007802Y-74552925D01*
X134005622Y-74568465D01*
X134005320Y-74569936D01*
X133999500Y-74598258D01*
X133999500Y-74657241D01*
X133999142Y-74666656D01*
X133997817Y-74684063D01*
X133994663Y-74725476D01*
X133998204Y-74753289D01*
X133998506Y-74755656D01*
X133999499Y-74771318D01*
X133999499Y-75985721D01*
X133999459Y-75988861D01*
X133997242Y-76076361D01*
X134007648Y-76134420D01*
X134008957Y-76143749D01*
X134014926Y-76202438D01*
X134024033Y-76231467D01*
X134027772Y-76246702D01*
X134033141Y-76276652D01*
X134055020Y-76331425D01*
X134058180Y-76340300D01*
X134075841Y-76396588D01*
X134090607Y-76423191D01*
X134097337Y-76437364D01*
X134108622Y-76465617D01*
X134141080Y-76514867D01*
X134145961Y-76522923D01*
X134174590Y-76574501D01*
X134194404Y-76597581D01*
X134203856Y-76610116D01*
X134220599Y-76635520D01*
X134262300Y-76677221D01*
X134268705Y-76684132D01*
X134307130Y-76728891D01*
X134307131Y-76728892D01*
X134307134Y-76728895D01*
X134331198Y-76747522D01*
X134342968Y-76757889D01*
X135282449Y-77697370D01*
X135284642Y-77699619D01*
X135326254Y-77743395D01*
X135344941Y-77763053D01*
X135393358Y-77796752D01*
X135400865Y-77802413D01*
X135446593Y-77839698D01*
X135468454Y-77851117D01*
X135473556Y-77853782D01*
X135486980Y-77861915D01*
X135511951Y-77879295D01*
X135566163Y-77902559D01*
X135574663Y-77906595D01*
X135626951Y-77933909D01*
X135656196Y-77942277D01*
X135670986Y-77947543D01*
X135678464Y-77950752D01*
X135698942Y-77959540D01*
X135756737Y-77971416D01*
X135765854Y-77973654D01*
X135822582Y-77989887D01*
X135852916Y-77992196D01*
X135868453Y-77994374D01*
X135898259Y-78000500D01*
X135957243Y-78000500D01*
X135966657Y-78000858D01*
X136025477Y-78005337D01*
X136055652Y-78001493D01*
X136071318Y-78000500D01*
X140534217Y-78000500D01*
X140601256Y-78020185D01*
X140621898Y-78036819D01*
X141963181Y-79378101D01*
X141996666Y-79439424D01*
X141999500Y-79465782D01*
X141999500Y-84985721D01*
X141999460Y-84988863D01*
X141997242Y-85076362D01*
X142007648Y-85134420D01*
X142008957Y-85143749D01*
X142014926Y-85202438D01*
X142024033Y-85231467D01*
X142027772Y-85246702D01*
X142033141Y-85276652D01*
X142055020Y-85331425D01*
X142058180Y-85340300D01*
X142075841Y-85396588D01*
X142090607Y-85423191D01*
X142097337Y-85437364D01*
X142108622Y-85465617D01*
X142141080Y-85514867D01*
X142145961Y-85522923D01*
X142174590Y-85574501D01*
X142194404Y-85597581D01*
X142203856Y-85610116D01*
X142220599Y-85635520D01*
X142262300Y-85677221D01*
X142268705Y-85684132D01*
X142307130Y-85728891D01*
X142307131Y-85728892D01*
X142307134Y-85728895D01*
X142331198Y-85747522D01*
X142342968Y-85757889D01*
X149372898Y-92787819D01*
X149406383Y-92849142D01*
X149401399Y-92918834D01*
X149359527Y-92974767D01*
X149294063Y-92999184D01*
X149285217Y-92999500D01*
X130124500Y-92999500D01*
X130057461Y-92979815D01*
X130011706Y-92927011D01*
X130000500Y-92875500D01*
X130000500Y-89519748D01*
X131759500Y-89519748D01*
X131771132Y-89578230D01*
X131815447Y-89644552D01*
X131881769Y-89688867D01*
X131940251Y-89700500D01*
X131940252Y-89700500D01*
X134979749Y-89700500D01*
X135008989Y-89694683D01*
X135038231Y-89688867D01*
X135104552Y-89644552D01*
X135148867Y-89578231D01*
X135160500Y-89519748D01*
X135160500Y-87999999D01*
X136534890Y-87999999D01*
X136555300Y-88285357D01*
X136616111Y-88564902D01*
X136716088Y-88832952D01*
X136853193Y-89084042D01*
X136959883Y-89226562D01*
X137855195Y-88331250D01*
X137877340Y-88382587D01*
X137983433Y-88525094D01*
X138119530Y-88639294D01*
X138209216Y-88684335D01*
X137313436Y-89580115D01*
X137455958Y-89686806D01*
X137707047Y-89823911D01*
X137975097Y-89923888D01*
X138254642Y-89984699D01*
X138540000Y-90005109D01*
X138825357Y-89984699D01*
X139104902Y-89923888D01*
X139372952Y-89823911D01*
X139624041Y-89686806D01*
X139766562Y-89580115D01*
X138873748Y-88687300D01*
X138883409Y-88683784D01*
X139031844Y-88586157D01*
X139153764Y-88456930D01*
X139225768Y-88332215D01*
X140120115Y-89226562D01*
X140226806Y-89084041D01*
X140363911Y-88832952D01*
X140463888Y-88564902D01*
X140524699Y-88285357D01*
X140545109Y-88000000D01*
X140524699Y-87714642D01*
X140463888Y-87435097D01*
X140363911Y-87167047D01*
X140226806Y-86915958D01*
X140120115Y-86773436D01*
X139224803Y-87668747D01*
X139202660Y-87617413D01*
X139096567Y-87474906D01*
X138960470Y-87360706D01*
X138870782Y-87315663D01*
X139766562Y-86419883D01*
X139624042Y-86313193D01*
X139372952Y-86176088D01*
X139104902Y-86076111D01*
X138825357Y-86015300D01*
X138540000Y-85994890D01*
X138254642Y-86015300D01*
X137975097Y-86076111D01*
X137707047Y-86176088D01*
X137455954Y-86313195D01*
X137313437Y-86419882D01*
X137313436Y-86419883D01*
X138206252Y-87312699D01*
X138196591Y-87316216D01*
X138048156Y-87413843D01*
X137926236Y-87543070D01*
X137854232Y-87667784D01*
X136959883Y-86773436D01*
X136959882Y-86773437D01*
X136853195Y-86915954D01*
X136716088Y-87167047D01*
X136616111Y-87435097D01*
X136555300Y-87714642D01*
X136534890Y-87999999D01*
X135160500Y-87999999D01*
X135160500Y-86480252D01*
X135148867Y-86421769D01*
X135143183Y-86413263D01*
X135104552Y-86355447D01*
X135038230Y-86311132D01*
X134979749Y-86299500D01*
X134979748Y-86299500D01*
X131940252Y-86299500D01*
X131940251Y-86299500D01*
X131881769Y-86311132D01*
X131815447Y-86355447D01*
X131771132Y-86421769D01*
X131759500Y-86480251D01*
X131759500Y-89519748D01*
X130000500Y-89519748D01*
X130000500Y-78707816D01*
X130000500Y-64523996D01*
X130020184Y-64456961D01*
X130072988Y-64411206D01*
X130124499Y-64400000D01*
X130749999Y-64400000D01*
X130749999Y-63374189D01*
X130802547Y-63410016D01*
G37*
%TD.AperFunction*%
%TA.AperFunction,Conductor*%
G36*
X158352255Y-39020185D02*
G01*
X158398010Y-39072989D01*
X158407954Y-39142147D01*
X158378929Y-39205703D01*
X158372897Y-39212181D01*
X152621899Y-44963181D01*
X152560576Y-44996666D01*
X152534218Y-44999500D01*
X149465783Y-44999500D01*
X149398744Y-44979815D01*
X149378102Y-44963181D01*
X148846467Y-44431546D01*
X148812982Y-44370223D01*
X148817966Y-44300531D01*
X148859838Y-44244598D01*
X148925302Y-44220181D01*
X148986553Y-44231483D01*
X149076509Y-44273430D01*
X149290000Y-44330634D01*
X149290000Y-43435501D01*
X149397685Y-43484680D01*
X149504237Y-43500000D01*
X149575763Y-43500000D01*
X149682315Y-43484680D01*
X149790000Y-43435501D01*
X149790000Y-44330633D01*
X150003490Y-44273430D01*
X150217576Y-44173600D01*
X150411081Y-44038106D01*
X150578109Y-43871078D01*
X150708119Y-43685405D01*
X150762696Y-43641780D01*
X150832194Y-43634586D01*
X150894549Y-43666109D01*
X150911265Y-43685400D01*
X151041505Y-43871401D01*
X151208599Y-44038495D01*
X151402170Y-44174035D01*
X151616337Y-44273903D01*
X151844592Y-44335063D01*
X152080000Y-44355659D01*
X152315408Y-44335063D01*
X152543663Y-44273903D01*
X152757830Y-44174035D01*
X152951401Y-44038495D01*
X153118495Y-43871401D01*
X153254035Y-43677830D01*
X153353903Y-43463663D01*
X153415063Y-43235408D01*
X153435659Y-43000000D01*
X153415063Y-42764592D01*
X153353903Y-42536337D01*
X153254035Y-42322171D01*
X153118495Y-42128599D01*
X152951401Y-41961505D01*
X152757830Y-41825965D01*
X152543663Y-41726097D01*
X152482501Y-41709709D01*
X152315407Y-41664936D01*
X152079999Y-41644340D01*
X151844592Y-41664936D01*
X151616336Y-41726097D01*
X151402170Y-41825965D01*
X151208598Y-41961505D01*
X151041508Y-42128595D01*
X150911269Y-42314596D01*
X150856692Y-42358220D01*
X150787193Y-42365413D01*
X150724839Y-42333891D01*
X150708119Y-42314595D01*
X150578109Y-42128921D01*
X150411081Y-41961893D01*
X150217576Y-41826399D01*
X150003492Y-41726569D01*
X149790000Y-41669364D01*
X149790000Y-42564498D01*
X149682315Y-42515320D01*
X149575763Y-42500000D01*
X149504237Y-42500000D01*
X149397685Y-42515320D01*
X149290000Y-42564498D01*
X149290000Y-41669364D01*
X149289999Y-41669364D01*
X149076507Y-41726569D01*
X148862421Y-41826400D01*
X148668921Y-41961890D01*
X148501893Y-42128918D01*
X148371880Y-42314596D01*
X148317303Y-42358220D01*
X148247804Y-42365413D01*
X148185450Y-42333891D01*
X148168730Y-42314595D01*
X148168425Y-42314159D01*
X148038495Y-42128599D01*
X147871401Y-41961505D01*
X147677830Y-41825965D01*
X147463663Y-41726097D01*
X147402502Y-41709709D01*
X147235407Y-41664936D01*
X147000000Y-41644340D01*
X146764592Y-41664936D01*
X146536336Y-41726097D01*
X146322170Y-41825965D01*
X146128598Y-41961505D01*
X145961505Y-42128598D01*
X145831575Y-42314159D01*
X145776998Y-42357784D01*
X145707500Y-42364978D01*
X145645145Y-42333455D01*
X145628425Y-42314159D01*
X145498494Y-42128598D01*
X145331404Y-41961508D01*
X145331401Y-41961505D01*
X145137830Y-41825965D01*
X144923663Y-41726097D01*
X144862502Y-41709709D01*
X144695407Y-41664936D01*
X144459999Y-41644340D01*
X144224592Y-41664936D01*
X143996336Y-41726097D01*
X143782170Y-41825965D01*
X143588598Y-41961505D01*
X143421505Y-42128598D01*
X143291575Y-42314159D01*
X143236998Y-42357784D01*
X143167500Y-42364978D01*
X143105145Y-42333455D01*
X143088425Y-42314159D01*
X142958494Y-42128598D01*
X142791404Y-41961508D01*
X142791401Y-41961505D01*
X142597830Y-41825965D01*
X142383663Y-41726097D01*
X142322502Y-41709709D01*
X142155407Y-41664936D01*
X141920000Y-41644340D01*
X141684592Y-41664936D01*
X141456336Y-41726097D01*
X141242170Y-41825965D01*
X141048601Y-41961503D01*
X140926673Y-42083431D01*
X140865350Y-42116915D01*
X140795658Y-42111931D01*
X140739725Y-42070059D01*
X140722810Y-42039082D01*
X140708420Y-42000500D01*
X140673796Y-41907669D01*
X140587546Y-41792454D01*
X140472331Y-41706204D01*
X140337483Y-41655909D01*
X140277873Y-41649500D01*
X140274550Y-41649500D01*
X138485439Y-41649500D01*
X138485420Y-41649500D01*
X138482128Y-41649501D01*
X138478848Y-41649853D01*
X138478840Y-41649854D01*
X138422515Y-41655909D01*
X138287669Y-41706204D01*
X138172454Y-41792454D01*
X138086204Y-41907668D01*
X138035909Y-42042516D01*
X138032907Y-42070443D01*
X138029500Y-42102127D01*
X138029500Y-42105449D01*
X138029500Y-43315218D01*
X138009815Y-43382257D01*
X137957011Y-43428012D01*
X137887853Y-43437956D01*
X137824297Y-43408931D01*
X137817819Y-43402899D01*
X135539342Y-41124422D01*
X135505857Y-41063099D01*
X135503447Y-41026499D01*
X135505643Y-40999998D01*
X135498797Y-40917392D01*
X135485108Y-40752179D01*
X135424063Y-40511119D01*
X135324173Y-40283393D01*
X135188164Y-40075215D01*
X135019744Y-39892262D01*
X134972114Y-39855190D01*
X134823514Y-39739529D01*
X134823510Y-39739526D01*
X134823509Y-39739526D01*
X134604810Y-39621172D01*
X134604806Y-39621170D01*
X134604805Y-39621170D01*
X134369615Y-39540429D01*
X134124335Y-39499500D01*
X133875665Y-39499500D01*
X133630384Y-39540429D01*
X133395194Y-39621170D01*
X133176485Y-39739529D01*
X132980259Y-39892259D01*
X132980256Y-39892261D01*
X132980256Y-39892262D01*
X132811836Y-40075215D01*
X132766499Y-40144607D01*
X132675825Y-40283395D01*
X132575936Y-40511121D01*
X132535326Y-40671482D01*
X132502802Y-40728722D01*
X131170343Y-42061181D01*
X131159980Y-42070443D01*
X131132335Y-42092491D01*
X131088736Y-42142391D01*
X131083052Y-42148472D01*
X131078024Y-42153501D01*
X131078015Y-42153510D01*
X131076055Y-42155471D01*
X131074280Y-42157596D01*
X131074269Y-42157609D01*
X131049929Y-42186763D01*
X131048124Y-42188876D01*
X130984235Y-42262003D01*
X130981986Y-42265767D01*
X130970739Y-42281617D01*
X130967932Y-42284979D01*
X130919978Y-42369490D01*
X130918604Y-42371849D01*
X130893171Y-42414420D01*
X130868782Y-42455241D01*
X130867246Y-42459335D01*
X130859009Y-42476944D01*
X130856847Y-42480753D01*
X130824762Y-42572444D01*
X130823814Y-42575057D01*
X130789691Y-42665978D01*
X130788910Y-42670282D01*
X130783950Y-42689077D01*
X130782501Y-42693217D01*
X130767304Y-42789166D01*
X130766838Y-42791907D01*
X130749500Y-42887450D01*
X130749500Y-42891829D01*
X130747973Y-42911227D01*
X130747290Y-42915537D01*
X130749469Y-43012639D01*
X130749500Y-43015421D01*
X130749500Y-44005856D01*
X130745275Y-44037949D01*
X130714364Y-44153309D01*
X130694531Y-44380000D01*
X130714364Y-44606689D01*
X130773261Y-44826497D01*
X130869432Y-45032735D01*
X130999953Y-45219140D01*
X131160859Y-45380046D01*
X131347264Y-45510567D01*
X131347265Y-45510567D01*
X131347266Y-45510568D01*
X131553504Y-45606739D01*
X131773308Y-45665635D01*
X132000000Y-45685468D01*
X132226692Y-45665635D01*
X132446496Y-45606739D01*
X132652734Y-45510568D01*
X132839139Y-45380047D01*
X133000047Y-45219139D01*
X133130568Y-45032734D01*
X133226739Y-44826496D01*
X133285635Y-44606692D01*
X133305468Y-44380000D01*
X133285635Y-44153308D01*
X133254725Y-44037949D01*
X133250500Y-44005856D01*
X133250500Y-43569335D01*
X133270185Y-43502296D01*
X133286815Y-43481658D01*
X134089095Y-42679377D01*
X134150418Y-42645893D01*
X134220110Y-42650877D01*
X134264457Y-42679378D01*
X141963181Y-50378101D01*
X141996666Y-50439424D01*
X141999500Y-50465782D01*
X141999500Y-51378332D01*
X141979815Y-51445371D01*
X141927011Y-51491126D01*
X141857853Y-51501070D01*
X141794297Y-51472045D01*
X141759318Y-51421666D01*
X141687574Y-51229311D01*
X141560716Y-50996989D01*
X141541655Y-50971527D01*
X141479788Y-50888882D01*
X141402087Y-50785085D01*
X141214915Y-50597913D01*
X141083028Y-50499184D01*
X141003009Y-50439282D01*
X140836898Y-50348579D01*
X140770689Y-50312426D01*
X140522678Y-50219923D01*
X140522673Y-50219921D01*
X140264027Y-50163657D01*
X140000000Y-50144772D01*
X139735972Y-50163657D01*
X139477326Y-50219921D01*
X139353316Y-50266174D01*
X139229311Y-50312426D01*
X139229308Y-50312427D01*
X139229307Y-50312428D01*
X138996987Y-50439284D01*
X138949588Y-50474767D01*
X138884124Y-50499184D01*
X138875278Y-50499500D01*
X134124722Y-50499500D01*
X134057683Y-50479815D01*
X134050412Y-50474767D01*
X134003012Y-50439284D01*
X133863288Y-50362989D01*
X133770689Y-50312426D01*
X133522678Y-50219923D01*
X133522673Y-50219921D01*
X133264027Y-50163657D01*
X133000000Y-50144772D01*
X132735972Y-50163657D01*
X132477326Y-50219921D01*
X132353316Y-50266174D01*
X132229311Y-50312426D01*
X132229308Y-50312427D01*
X132229307Y-50312428D01*
X131996990Y-50439282D01*
X131785082Y-50597915D01*
X131597915Y-50785082D01*
X131439282Y-50996990D01*
X131373967Y-51116607D01*
X131312426Y-51229311D01*
X131309706Y-51236604D01*
X131219921Y-51477326D01*
X131163657Y-51735972D01*
X131144772Y-52000000D01*
X131163657Y-52264027D01*
X131219921Y-52522673D01*
X131219923Y-52522678D01*
X131312426Y-52770689D01*
X131312428Y-52770692D01*
X131439282Y-53003009D01*
X131481945Y-53060000D01*
X131597913Y-53214915D01*
X131785085Y-53402087D01*
X131942846Y-53520185D01*
X131996990Y-53560717D01*
X132019465Y-53572989D01*
X132229311Y-53687574D01*
X132477322Y-53780077D01*
X132477325Y-53780077D01*
X132477326Y-53780078D01*
X132525667Y-53790593D01*
X132735974Y-53836343D01*
X132962230Y-53852525D01*
X132999998Y-53855227D01*
X132999998Y-53855226D01*
X133000000Y-53855227D01*
X133024477Y-53853476D01*
X133092749Y-53868327D01*
X133121005Y-53889479D01*
X134220151Y-54988625D01*
X134253636Y-55049948D01*
X134256470Y-55076306D01*
X134256471Y-59455081D01*
X134236786Y-59522120D01*
X134183982Y-59567875D01*
X134114824Y-59577819D01*
X134051268Y-59548794D01*
X134044790Y-59542762D01*
X133018939Y-58516911D01*
X133017126Y-58515098D01*
X132874894Y-58394634D01*
X132661274Y-58267344D01*
X132661272Y-58267343D01*
X132661270Y-58267342D01*
X132429616Y-58176951D01*
X132307925Y-58151434D01*
X132186237Y-58125919D01*
X132167951Y-58125162D01*
X131937780Y-58115642D01*
X131691017Y-58146401D01*
X131452687Y-58217355D01*
X131229283Y-58326571D01*
X131026901Y-58471069D01*
X130851069Y-58646901D01*
X130706571Y-58849283D01*
X130597355Y-59072687D01*
X130526401Y-59311017D01*
X130495642Y-59557780D01*
X130502951Y-59734478D01*
X130505919Y-59806237D01*
X130527049Y-59907009D01*
X130556951Y-60049616D01*
X130647342Y-60281270D01*
X130647344Y-60281274D01*
X130774634Y-60494894D01*
X130895098Y-60637126D01*
X130896911Y-60638939D01*
X131646291Y-61388319D01*
X131679776Y-61449642D01*
X131674792Y-61519334D01*
X131632920Y-61575267D01*
X131567456Y-61599684D01*
X131558610Y-61600000D01*
X131250000Y-61600000D01*
X131250000Y-62625810D01*
X131197453Y-62589984D01*
X131067827Y-62550000D01*
X130966276Y-62550000D01*
X130865862Y-62565135D01*
X130749999Y-62620931D01*
X130750000Y-61600000D01*
X130124499Y-61600000D01*
X130057460Y-61580315D01*
X130011705Y-61527511D01*
X130000499Y-61476004D01*
X130000500Y-39124500D01*
X130020185Y-39057461D01*
X130072989Y-39011706D01*
X130124500Y-39000500D01*
X158285216Y-39000500D01*
X158352255Y-39020185D01*
G37*
%TD.AperFunction*%
%TA.AperFunction,Conductor*%
G36*
X183674732Y-39020185D02*
G01*
X183720487Y-39072989D01*
X183730431Y-39142147D01*
X183701406Y-39205703D01*
X183671168Y-39231022D01*
X183665104Y-39234634D01*
X183647183Y-39249813D01*
X183634868Y-39258995D01*
X183615215Y-39271835D01*
X183548447Y-39333299D01*
X183544613Y-39336685D01*
X183522874Y-39355098D01*
X183521059Y-39356911D01*
X183521061Y-39356911D01*
X183502738Y-39375233D01*
X183499045Y-39378775D01*
X183432262Y-39440254D01*
X183417832Y-39458793D01*
X183407664Y-39470306D01*
X173010306Y-49867664D01*
X172998793Y-49877832D01*
X172980254Y-49892262D01*
X172918775Y-49959045D01*
X172915233Y-49962738D01*
X172895098Y-49982874D01*
X172893437Y-49984834D01*
X172893437Y-49984835D01*
X172876689Y-50004609D01*
X172873299Y-50008447D01*
X172811835Y-50075215D01*
X172798995Y-50094868D01*
X172789813Y-50107183D01*
X172774636Y-50125102D01*
X172728174Y-50203074D01*
X172725462Y-50207417D01*
X172675826Y-50283392D01*
X172666396Y-50304891D01*
X172659368Y-50318545D01*
X172647343Y-50338726D01*
X172614346Y-50423288D01*
X172612386Y-50428020D01*
X172575936Y-50511120D01*
X172570169Y-50533890D01*
X172565484Y-50548515D01*
X172556951Y-50570385D01*
X172538324Y-50659211D01*
X172537170Y-50664200D01*
X172514891Y-50752180D01*
X172512952Y-50775578D01*
X172510738Y-50790777D01*
X172505919Y-50813762D01*
X172502168Y-50904440D01*
X172501851Y-50909551D01*
X172499710Y-50935390D01*
X172499709Y-50935406D01*
X172499500Y-50937933D01*
X172499500Y-50940486D01*
X172499500Y-50966402D01*
X172499394Y-50971527D01*
X172495642Y-51062219D01*
X172498548Y-51085526D01*
X172499500Y-51100864D01*
X172499500Y-52442067D01*
X172505859Y-52518803D01*
X172514892Y-52627822D01*
X172564450Y-52823521D01*
X172561825Y-52893341D01*
X172521869Y-52950659D01*
X172457267Y-52977275D01*
X172388531Y-52964740D01*
X172356563Y-52941642D01*
X169036819Y-49621898D01*
X169003334Y-49560575D01*
X169000500Y-49534217D01*
X169000500Y-42014277D01*
X169000540Y-42011135D01*
X169002757Y-41923638D01*
X168992350Y-41865574D01*
X168991041Y-41856242D01*
X168987962Y-41825964D01*
X168985074Y-41797562D01*
X168975964Y-41768528D01*
X168972227Y-41753305D01*
X168966858Y-41723347D01*
X168944969Y-41668549D01*
X168941816Y-41659689D01*
X168924160Y-41603415D01*
X168924159Y-41603414D01*
X168924159Y-41603412D01*
X168909396Y-41576816D01*
X168902663Y-41562636D01*
X168891379Y-41534385D01*
X168885435Y-41525366D01*
X168858901Y-41485106D01*
X168854040Y-41477082D01*
X168825409Y-41425498D01*
X168825408Y-41425496D01*
X168805593Y-41402415D01*
X168796144Y-41389883D01*
X168779402Y-41364481D01*
X168737699Y-41322779D01*
X168731292Y-41315866D01*
X168692865Y-41271103D01*
X168668802Y-41252477D01*
X168657022Y-41242102D01*
X166627101Y-39212181D01*
X166593616Y-39150858D01*
X166598600Y-39081166D01*
X166640472Y-39025233D01*
X166705936Y-39000816D01*
X166714782Y-39000500D01*
X183607693Y-39000500D01*
X183674732Y-39020185D01*
G37*
%TD.AperFunction*%
%TA.AperFunction,Conductor*%
G36*
X191942539Y-39020185D02*
G01*
X191988294Y-39072989D01*
X191999500Y-39124500D01*
X191999500Y-92875500D01*
X191979815Y-92942539D01*
X191927011Y-92988294D01*
X191875500Y-92999500D01*
X178794782Y-92999500D01*
X178727743Y-92979815D01*
X178681988Y-92927011D01*
X178672044Y-92857853D01*
X178701069Y-92794297D01*
X178707101Y-92787819D01*
X178707100Y-92787818D01*
X180113031Y-91381888D01*
X180174352Y-91348405D01*
X180189896Y-91346044D01*
X180315408Y-91335063D01*
X180543663Y-91273903D01*
X180757830Y-91174035D01*
X180951401Y-91038495D01*
X181118495Y-90871401D01*
X181254035Y-90677830D01*
X181353903Y-90463663D01*
X181415063Y-90235408D01*
X181424503Y-90127505D01*
X181449955Y-90062439D01*
X181506546Y-90021460D01*
X181576307Y-90017581D01*
X181635712Y-90050633D01*
X183282431Y-91697351D01*
X183284624Y-91699600D01*
X183344942Y-91763054D01*
X183393362Y-91796755D01*
X183400871Y-91802416D01*
X183446593Y-91839698D01*
X183473562Y-91853785D01*
X183486982Y-91861916D01*
X183511949Y-91879294D01*
X183511950Y-91879294D01*
X183511951Y-91879295D01*
X183540105Y-91891377D01*
X183566163Y-91902559D01*
X183574663Y-91906595D01*
X183608286Y-91924159D01*
X183626951Y-91933909D01*
X183656196Y-91942277D01*
X183670986Y-91947543D01*
X183678464Y-91950752D01*
X183698942Y-91959540D01*
X183756737Y-91971416D01*
X183765854Y-91973654D01*
X183822582Y-91989887D01*
X183852916Y-91992196D01*
X183868453Y-91994374D01*
X183898259Y-92000500D01*
X183957242Y-92000500D01*
X183966656Y-92000858D01*
X184025476Y-92005337D01*
X184055651Y-92001493D01*
X184071317Y-92000500D01*
X186289049Y-92000500D01*
X186292190Y-92000539D01*
X186379691Y-92002757D01*
X186437760Y-91992348D01*
X186447064Y-91991043D01*
X186505766Y-91985074D01*
X186534795Y-91975965D01*
X186550028Y-91972226D01*
X186579981Y-91966858D01*
X186634754Y-91944978D01*
X186643629Y-91941819D01*
X186661003Y-91936367D01*
X186699916Y-91924159D01*
X186726522Y-91909390D01*
X186740690Y-91902662D01*
X186768945Y-91891377D01*
X186818207Y-91858909D01*
X186826238Y-91854043D01*
X186877830Y-91825409D01*
X186900915Y-91805589D01*
X186913442Y-91796144D01*
X186938847Y-91779402D01*
X186980579Y-91737668D01*
X186987451Y-91731300D01*
X187032223Y-91692866D01*
X187050847Y-91668803D01*
X187061208Y-91657039D01*
X189467666Y-89250582D01*
X189528990Y-89217097D01*
X189555348Y-89214263D01*
X189605613Y-89214263D01*
X189605614Y-89214263D01*
X189834546Y-89176061D01*
X190054068Y-89100699D01*
X190258191Y-88990233D01*
X190441349Y-88847676D01*
X190598544Y-88676916D01*
X190725489Y-88482612D01*
X190818722Y-88270063D01*
X190875699Y-88045068D01*
X190894865Y-87813763D01*
X190875699Y-87582458D01*
X190818722Y-87357463D01*
X190725489Y-87144914D01*
X190598544Y-86950610D01*
X190503396Y-86847251D01*
X190472475Y-86784598D01*
X190480335Y-86715172D01*
X190524482Y-86661017D01*
X190551294Y-86647088D01*
X190631653Y-86617115D01*
X190746753Y-86530951D01*
X190832917Y-86415852D01*
X190883164Y-86281134D01*
X190889210Y-86224895D01*
X190889565Y-86218281D01*
X190889565Y-85523763D01*
X189864843Y-85523763D01*
X189913190Y-85440023D01*
X189943375Y-85307771D01*
X189933238Y-85172498D01*
X189883678Y-85046222D01*
X189865768Y-85023763D01*
X190889565Y-85023763D01*
X190889565Y-84329244D01*
X190889210Y-84322630D01*
X190883164Y-84266391D01*
X190832917Y-84131673D01*
X190746753Y-84016574D01*
X190631654Y-83930410D01*
X190496936Y-83880163D01*
X190440697Y-83874117D01*
X190434083Y-83873763D01*
X189739565Y-83873763D01*
X189739565Y-84899573D01*
X189687018Y-84863747D01*
X189557392Y-84823763D01*
X189455841Y-84823763D01*
X189355427Y-84838898D01*
X189239565Y-84894694D01*
X189239565Y-83873763D01*
X188545047Y-83873763D01*
X188538432Y-83874117D01*
X188482193Y-83880163D01*
X188347475Y-83930410D01*
X188232376Y-84016574D01*
X188146212Y-84131673D01*
X188095965Y-84266391D01*
X188089919Y-84322630D01*
X188089565Y-84329244D01*
X188089565Y-85023763D01*
X189114287Y-85023763D01*
X189065940Y-85107503D01*
X189035755Y-85239755D01*
X189045892Y-85375028D01*
X189095452Y-85501304D01*
X189113362Y-85523763D01*
X188089565Y-85523763D01*
X188089565Y-86218281D01*
X188089919Y-86224895D01*
X188095965Y-86281134D01*
X188146212Y-86415852D01*
X188232376Y-86530951D01*
X188347475Y-86617115D01*
X188427836Y-86647088D01*
X188483769Y-86688960D01*
X188508186Y-86754424D01*
X188493334Y-86822697D01*
X188475732Y-86847252D01*
X188380587Y-86950607D01*
X188253641Y-87144913D01*
X188160409Y-87357459D01*
X188160407Y-87357463D01*
X188160408Y-87357463D01*
X188105266Y-87575214D01*
X188103430Y-87582463D01*
X188088887Y-87757973D01*
X188063734Y-87823158D01*
X188052992Y-87835414D01*
X187501142Y-88387264D01*
X187439819Y-88420749D01*
X187370127Y-88415765D01*
X187314194Y-88373893D01*
X187289885Y-88309823D01*
X187285385Y-88255520D01*
X187285108Y-88252179D01*
X187224063Y-88011119D01*
X187124173Y-87783393D01*
X186988164Y-87575215D01*
X186819744Y-87392262D01*
X186777685Y-87359526D01*
X186736992Y-87327853D01*
X186696179Y-87271143D01*
X186692504Y-87201370D01*
X186727136Y-87140687D01*
X186736992Y-87132147D01*
X186761256Y-87113260D01*
X186819744Y-87067738D01*
X186988164Y-86884785D01*
X187124173Y-86676607D01*
X187224063Y-86448881D01*
X187285108Y-86207821D01*
X187305643Y-85960000D01*
X187285108Y-85712179D01*
X187224063Y-85471119D01*
X187134016Y-85265833D01*
X187124174Y-85243395D01*
X187121796Y-85239755D01*
X186988164Y-85035215D01*
X186819744Y-84852262D01*
X186753207Y-84800474D01*
X186736992Y-84787853D01*
X186696179Y-84731143D01*
X186692504Y-84661370D01*
X186727136Y-84600687D01*
X186736992Y-84592147D01*
X186761256Y-84573260D01*
X186819744Y-84527738D01*
X186988164Y-84344785D01*
X187124173Y-84136607D01*
X187224063Y-83908881D01*
X187285108Y-83667821D01*
X187305643Y-83420000D01*
X187285108Y-83172179D01*
X187224063Y-82931119D01*
X187124173Y-82703393D01*
X186988164Y-82495215D01*
X186819744Y-82312262D01*
X186753207Y-82260474D01*
X186736992Y-82247853D01*
X186696179Y-82191143D01*
X186692504Y-82121370D01*
X186727136Y-82060687D01*
X186736992Y-82052147D01*
X186761256Y-82033260D01*
X186819744Y-81987738D01*
X186988164Y-81804785D01*
X187124173Y-81596607D01*
X187224063Y-81368881D01*
X187285108Y-81127821D01*
X187305643Y-80880000D01*
X187285108Y-80632179D01*
X187224063Y-80391119D01*
X187124173Y-80163393D01*
X186988164Y-79955215D01*
X186819744Y-79772262D01*
X186753207Y-79720474D01*
X186736992Y-79707853D01*
X186696179Y-79651143D01*
X186692504Y-79581370D01*
X186727136Y-79520687D01*
X186736992Y-79512147D01*
X186761256Y-79493260D01*
X186819744Y-79447738D01*
X186988164Y-79264785D01*
X187124173Y-79056607D01*
X187224063Y-78828881D01*
X187285108Y-78587821D01*
X187305643Y-78340000D01*
X187304215Y-78322772D01*
X187285108Y-78092183D01*
X187285108Y-78092179D01*
X187224063Y-77851119D01*
X187124173Y-77623393D01*
X186988164Y-77415215D01*
X186819744Y-77232262D01*
X186777685Y-77199526D01*
X186736991Y-77167852D01*
X186696178Y-77111141D01*
X186692505Y-77041368D01*
X186727136Y-76980685D01*
X186736974Y-76972160D01*
X186819744Y-76907738D01*
X186988164Y-76724785D01*
X187124173Y-76516607D01*
X187224063Y-76288881D01*
X187285108Y-76047821D01*
X187305643Y-75800000D01*
X187305170Y-75794297D01*
X187297260Y-75698828D01*
X187285108Y-75552179D01*
X187224063Y-75311119D01*
X187124173Y-75083393D01*
X186988164Y-74875215D01*
X186819744Y-74692262D01*
X186816614Y-74689826D01*
X186740143Y-74630306D01*
X186699330Y-74573596D01*
X186695656Y-74503823D01*
X186730288Y-74443140D01*
X186732298Y-74441247D01*
X186766837Y-74409450D01*
X186774625Y-74402854D01*
X186819744Y-74367738D01*
X186858468Y-74325671D01*
X186865671Y-74318468D01*
X186907738Y-74279744D01*
X186942854Y-74234625D01*
X186949442Y-74226846D01*
X186988164Y-74184785D01*
X187019420Y-74136941D01*
X187025365Y-74128616D01*
X187025929Y-74127890D01*
X187060474Y-74083509D01*
X187087685Y-74033225D01*
X187092911Y-74024455D01*
X187124173Y-73976607D01*
X187147126Y-73924275D01*
X187151617Y-73915089D01*
X187178828Y-73864810D01*
X187197387Y-73810745D01*
X187201103Y-73801220D01*
X187224063Y-73748881D01*
X187238091Y-73693482D01*
X187241014Y-73683666D01*
X187245135Y-73671664D01*
X187259571Y-73629614D01*
X187268978Y-73573237D01*
X187271079Y-73563219D01*
X187285107Y-73507825D01*
X187285107Y-73507824D01*
X187285108Y-73507821D01*
X187289827Y-73450859D01*
X187291094Y-73440696D01*
X187298684Y-73395215D01*
X187300500Y-73384335D01*
X187300500Y-73327189D01*
X187300924Y-73316948D01*
X187305643Y-73259999D01*
X187300924Y-73203050D01*
X187300500Y-73192809D01*
X187300500Y-73135666D01*
X187291094Y-73079301D01*
X187289826Y-73069130D01*
X187285108Y-73012179D01*
X187271077Y-72956773D01*
X187268976Y-72946749D01*
X187259571Y-72890386D01*
X187241008Y-72836315D01*
X187238088Y-72826506D01*
X187224063Y-72771119D01*
X187201105Y-72718782D01*
X187197389Y-72709261D01*
X187178828Y-72655190D01*
X187158609Y-72617829D01*
X187151623Y-72604920D01*
X187147126Y-72595723D01*
X187124173Y-72543393D01*
X187092911Y-72495544D01*
X187087676Y-72486757D01*
X187060474Y-72436491D01*
X187025369Y-72391388D01*
X187019416Y-72383050D01*
X186988165Y-72335216D01*
X186984510Y-72331246D01*
X186949458Y-72293169D01*
X186942843Y-72285358D01*
X186907739Y-72240257D01*
X186872539Y-72207853D01*
X186865685Y-72201543D01*
X186858455Y-72194313D01*
X186819744Y-72152262D01*
X186802231Y-72138631D01*
X186774646Y-72117160D01*
X186766825Y-72110536D01*
X186732323Y-72078774D01*
X186696333Y-72018887D01*
X186698434Y-71949048D01*
X186737959Y-71891433D01*
X186740066Y-71889753D01*
X186819744Y-71827738D01*
X186988164Y-71644785D01*
X187124173Y-71436607D01*
X187224063Y-71208881D01*
X187285108Y-70967821D01*
X187305643Y-70720000D01*
X187285108Y-70472179D01*
X187224063Y-70231119D01*
X187124173Y-70003393D01*
X186988164Y-69795215D01*
X186819744Y-69612262D01*
X186753207Y-69560474D01*
X186736992Y-69547853D01*
X186696179Y-69491143D01*
X186692504Y-69421370D01*
X186727136Y-69360687D01*
X186736992Y-69352147D01*
X186761256Y-69333260D01*
X186819744Y-69287738D01*
X186988164Y-69104785D01*
X187124173Y-68896607D01*
X187224063Y-68668881D01*
X187285108Y-68427821D01*
X187305643Y-68180000D01*
X187285108Y-67932179D01*
X187224063Y-67691119D01*
X187124173Y-67463393D01*
X186988164Y-67255215D01*
X186819744Y-67072262D01*
X186753207Y-67020474D01*
X186736992Y-67007853D01*
X186696179Y-66951143D01*
X186692504Y-66881370D01*
X186727136Y-66820687D01*
X186736992Y-66812147D01*
X186768477Y-66787641D01*
X186819744Y-66747738D01*
X186988164Y-66564785D01*
X187124173Y-66356607D01*
X187224063Y-66128881D01*
X187285108Y-65887821D01*
X187305643Y-65640000D01*
X187285108Y-65392179D01*
X187224063Y-65151119D01*
X187124173Y-64923393D01*
X186988164Y-64715215D01*
X186819744Y-64532262D01*
X186795353Y-64513278D01*
X186736992Y-64467853D01*
X186696179Y-64411143D01*
X186692504Y-64341370D01*
X186727136Y-64280687D01*
X186736992Y-64272147D01*
X186761256Y-64253260D01*
X186819744Y-64207738D01*
X186988164Y-64024785D01*
X187124173Y-63816607D01*
X187224063Y-63588881D01*
X187285108Y-63347821D01*
X187305643Y-63100000D01*
X187285108Y-62852179D01*
X187224063Y-62611119D01*
X187124173Y-62383393D01*
X186988164Y-62175215D01*
X186819744Y-61992262D01*
X186795348Y-61973274D01*
X186736992Y-61927853D01*
X186696179Y-61871143D01*
X186692504Y-61801370D01*
X186727136Y-61740687D01*
X186736992Y-61732147D01*
X186761256Y-61713260D01*
X186819744Y-61667738D01*
X186988164Y-61484785D01*
X187124173Y-61276607D01*
X187224063Y-61048881D01*
X187285108Y-60807821D01*
X187305643Y-60560000D01*
X187285108Y-60312179D01*
X187224063Y-60071119D01*
X187124173Y-59843393D01*
X186988164Y-59635215D01*
X186819744Y-59452262D01*
X186716253Y-59371712D01*
X186675442Y-59315003D01*
X186668655Y-59266176D01*
X186670056Y-59243609D01*
X185844400Y-58417953D01*
X185925148Y-58405165D01*
X186038045Y-58347641D01*
X186127641Y-58258045D01*
X186185165Y-58145148D01*
X186197953Y-58064400D01*
X187023434Y-58889882D01*
X187123730Y-58736369D01*
X187223586Y-58508721D01*
X187284613Y-58267732D01*
X187305141Y-58019999D01*
X187284613Y-57772267D01*
X187223586Y-57531278D01*
X187123730Y-57303630D01*
X187023434Y-57150116D01*
X186197953Y-57975598D01*
X186185165Y-57894852D01*
X186127641Y-57781955D01*
X186038045Y-57692359D01*
X185925148Y-57634835D01*
X185844401Y-57622046D01*
X186670056Y-56796390D01*
X186668655Y-56773825D01*
X186684147Y-56705694D01*
X186716250Y-56668290D01*
X186819744Y-56587738D01*
X186988164Y-56404785D01*
X187124173Y-56196607D01*
X187224063Y-55968881D01*
X187285108Y-55727821D01*
X187305643Y-55480000D01*
X187285108Y-55232179D01*
X187224063Y-54991119D01*
X187124173Y-54763393D01*
X186988164Y-54555215D01*
X186819744Y-54372262D01*
X186753207Y-54320474D01*
X186736992Y-54307853D01*
X186696179Y-54251143D01*
X186692504Y-54181370D01*
X186727136Y-54120687D01*
X186736992Y-54112147D01*
X186761256Y-54093260D01*
X186819744Y-54047738D01*
X186988164Y-53864785D01*
X187124173Y-53656607D01*
X187224063Y-53428881D01*
X187285108Y-53187821D01*
X187305643Y-52940000D01*
X187285108Y-52692179D01*
X187224063Y-52451119D01*
X187124173Y-52223393D01*
X186988164Y-52015215D01*
X186819744Y-51832262D01*
X186753207Y-51780474D01*
X186736992Y-51767853D01*
X186696179Y-51711143D01*
X186692504Y-51641370D01*
X186727136Y-51580687D01*
X186736992Y-51572147D01*
X186761256Y-51553260D01*
X186819744Y-51507738D01*
X186988164Y-51324785D01*
X187124173Y-51116607D01*
X187224063Y-50888881D01*
X187285108Y-50647821D01*
X187305643Y-50400000D01*
X187285108Y-50152179D01*
X187224063Y-49911119D01*
X187124173Y-49683393D01*
X186988164Y-49475215D01*
X186819744Y-49292262D01*
X186765445Y-49249999D01*
X186736992Y-49227853D01*
X186696179Y-49171143D01*
X186692504Y-49101370D01*
X186727136Y-49040687D01*
X186736992Y-49032147D01*
X186771438Y-49005336D01*
X186819744Y-48967738D01*
X186988164Y-48784785D01*
X187124173Y-48576607D01*
X187224063Y-48348881D01*
X187285108Y-48107821D01*
X187305643Y-47860000D01*
X187285108Y-47612179D01*
X187224063Y-47371119D01*
X187124173Y-47143393D01*
X186988164Y-46935215D01*
X186819744Y-46752262D01*
X186819743Y-46752261D01*
X186736991Y-46687852D01*
X186696178Y-46631141D01*
X186692505Y-46561368D01*
X186727136Y-46500685D01*
X186736974Y-46492160D01*
X186819744Y-46427738D01*
X186988164Y-46244785D01*
X187124173Y-46036607D01*
X187224063Y-45808881D01*
X187285108Y-45567821D01*
X187305643Y-45320000D01*
X187285108Y-45072179D01*
X187224063Y-44831119D01*
X187124173Y-44603393D01*
X186988164Y-44395215D01*
X186819744Y-44212262D01*
X186716253Y-44131712D01*
X186675442Y-44075003D01*
X186668655Y-44026176D01*
X186670056Y-44003609D01*
X185844400Y-43177953D01*
X185925148Y-43165165D01*
X186038045Y-43107641D01*
X186127641Y-43018045D01*
X186185165Y-42905148D01*
X186197953Y-42824401D01*
X187023434Y-43649882D01*
X187123730Y-43496369D01*
X187223586Y-43268721D01*
X187284613Y-43027732D01*
X187305141Y-42780000D01*
X187284613Y-42532267D01*
X187223586Y-42291278D01*
X187154734Y-42134310D01*
X187145831Y-42065010D01*
X187175808Y-42001898D01*
X187235148Y-41965011D01*
X187268290Y-41960500D01*
X188476000Y-41960500D01*
X188543039Y-41980185D01*
X188588794Y-42032989D01*
X188600000Y-42084500D01*
X188600000Y-42750000D01*
X189624722Y-42750000D01*
X189576375Y-42833740D01*
X189546190Y-42965992D01*
X189556327Y-43101265D01*
X189605887Y-43227541D01*
X189623797Y-43250000D01*
X188600000Y-43250000D01*
X188600000Y-43944518D01*
X188600354Y-43951132D01*
X188606400Y-44007371D01*
X188656647Y-44142089D01*
X188742811Y-44257188D01*
X188857910Y-44343352D01*
X188992628Y-44393599D01*
X189048867Y-44399645D01*
X189055482Y-44400000D01*
X189750000Y-44400000D01*
X189750000Y-43374189D01*
X189802547Y-43410016D01*
X189932173Y-43450000D01*
X190033724Y-43450000D01*
X190134138Y-43434865D01*
X190250000Y-43379068D01*
X190250000Y-44400000D01*
X190944518Y-44400000D01*
X190951132Y-44399645D01*
X191007371Y-44393599D01*
X191142089Y-44343352D01*
X191257188Y-44257188D01*
X191343352Y-44142089D01*
X191393599Y-44007371D01*
X191399645Y-43951132D01*
X191400000Y-43944518D01*
X191400000Y-43250000D01*
X190375278Y-43250000D01*
X190423625Y-43166260D01*
X190453810Y-43034008D01*
X190443673Y-42898735D01*
X190394113Y-42772459D01*
X190376203Y-42750000D01*
X191400000Y-42750000D01*
X191400000Y-42055481D01*
X191399645Y-42048867D01*
X191393599Y-41992628D01*
X191343352Y-41857910D01*
X191257188Y-41742811D01*
X191134534Y-41650992D01*
X191092663Y-41595058D01*
X191087679Y-41525366D01*
X191110990Y-41475565D01*
X191260474Y-41283509D01*
X191378828Y-41064810D01*
X191459571Y-40829614D01*
X191500500Y-40584335D01*
X191500500Y-40335665D01*
X191459571Y-40090386D01*
X191378828Y-39855190D01*
X191260474Y-39636491D01*
X191260471Y-39636487D01*
X191260470Y-39636485D01*
X191158649Y-39505667D01*
X191107738Y-39440256D01*
X190924785Y-39271836D01*
X190858160Y-39228307D01*
X190812805Y-39175162D01*
X190803381Y-39105931D01*
X190832883Y-39042595D01*
X190891943Y-39005264D01*
X190925983Y-39000500D01*
X191875500Y-39000500D01*
X191942539Y-39020185D01*
G37*
%TD.AperFunction*%
%TA.AperFunction,Conductor*%
G36*
X139841256Y-70260185D02*
G01*
X139861898Y-70276819D01*
X144963181Y-75378101D01*
X144996666Y-75439424D01*
X144999500Y-75465782D01*
X144999500Y-83985721D01*
X144999460Y-83988863D01*
X144997242Y-84076362D01*
X145007648Y-84134420D01*
X145008957Y-84143749D01*
X145014926Y-84202438D01*
X145024033Y-84231467D01*
X145027772Y-84246702D01*
X145033141Y-84276652D01*
X145055020Y-84331425D01*
X145058180Y-84340300D01*
X145075841Y-84396588D01*
X145090607Y-84423191D01*
X145097337Y-84437364D01*
X145108622Y-84465617D01*
X145141080Y-84514867D01*
X145145961Y-84522923D01*
X145174590Y-84574501D01*
X145194404Y-84597581D01*
X145203856Y-84610116D01*
X145220599Y-84635520D01*
X145262300Y-84677221D01*
X145268705Y-84684132D01*
X145307134Y-84728896D01*
X145331193Y-84747519D01*
X145342972Y-84757893D01*
X148545379Y-87960300D01*
X151572899Y-90987819D01*
X151606384Y-91049142D01*
X151601400Y-91118834D01*
X151559528Y-91174767D01*
X151494064Y-91199184D01*
X151485218Y-91199500D01*
X150665782Y-91199500D01*
X150598743Y-91179815D01*
X150578101Y-91163181D01*
X144036819Y-84621899D01*
X144003334Y-84560576D01*
X144000500Y-84534218D01*
X144000500Y-79014260D01*
X144000540Y-79011118D01*
X144002757Y-78923638D01*
X143993041Y-78869432D01*
X143992349Y-78865573D01*
X143991041Y-78856242D01*
X143985074Y-78797562D01*
X143975962Y-78768520D01*
X143972226Y-78753297D01*
X143966858Y-78723347D01*
X143944976Y-78668566D01*
X143941816Y-78659689D01*
X143924159Y-78603412D01*
X143909395Y-78576812D01*
X143902660Y-78562631D01*
X143891377Y-78534383D01*
X143858917Y-78485131D01*
X143854036Y-78477074D01*
X143844559Y-78460000D01*
X143825409Y-78425498D01*
X143805582Y-78402403D01*
X143796146Y-78389888D01*
X143779402Y-78364481D01*
X143779400Y-78364479D01*
X143779399Y-78364477D01*
X143737693Y-78322772D01*
X143731287Y-78315860D01*
X143692864Y-78271102D01*
X143668804Y-78252478D01*
X143657026Y-78242105D01*
X141717567Y-76302647D01*
X141715374Y-76300398D01*
X141655059Y-76236946D01*
X141606642Y-76203247D01*
X141599119Y-76197575D01*
X141553405Y-76160300D01*
X141526440Y-76146215D01*
X141513019Y-76138084D01*
X141488049Y-76120705D01*
X141488048Y-76120704D01*
X141488046Y-76120703D01*
X141433845Y-76097443D01*
X141425336Y-76093402D01*
X141373053Y-76066092D01*
X141367126Y-76064396D01*
X141343798Y-76057721D01*
X141329020Y-76052459D01*
X141301058Y-76040460D01*
X141243272Y-76028583D01*
X141234128Y-76026338D01*
X141177421Y-76010113D01*
X141147075Y-76007802D01*
X141131534Y-76005622D01*
X141101742Y-75999500D01*
X141101741Y-75999500D01*
X141042758Y-75999500D01*
X141033344Y-75999142D01*
X141024198Y-75998445D01*
X140974524Y-75994663D01*
X140974523Y-75994663D01*
X140974522Y-75994663D01*
X140944349Y-75998506D01*
X140928683Y-75999500D01*
X138392074Y-75999500D01*
X138325035Y-75979815D01*
X138279280Y-75927011D01*
X138269336Y-75857853D01*
X138298361Y-75794297D01*
X138351811Y-75758219D01*
X138401222Y-75741255D01*
X138524810Y-75698828D01*
X138743509Y-75580474D01*
X138939744Y-75427738D01*
X139108164Y-75244785D01*
X139244173Y-75036607D01*
X139344063Y-74808881D01*
X139405108Y-74567821D01*
X139425643Y-74320000D01*
X139405108Y-74072179D01*
X139344063Y-73831119D01*
X139244173Y-73603393D01*
X139108164Y-73395215D01*
X138939744Y-73212262D01*
X138914751Y-73192809D01*
X138856992Y-73147853D01*
X138816179Y-73091143D01*
X138812504Y-73021370D01*
X138847136Y-72960687D01*
X138856992Y-72952147D01*
X138881256Y-72933260D01*
X138939744Y-72887738D01*
X139108164Y-72704785D01*
X139244173Y-72496607D01*
X139344063Y-72268881D01*
X139405108Y-72027821D01*
X139425643Y-71780000D01*
X139405108Y-71532179D01*
X139344063Y-71291119D01*
X139244173Y-71063393D01*
X139108164Y-70855215D01*
X138939744Y-70672262D01*
X138901052Y-70642147D01*
X138856992Y-70607853D01*
X138816179Y-70551143D01*
X138812504Y-70481370D01*
X138847136Y-70420687D01*
X138856992Y-70412147D01*
X138881256Y-70393260D01*
X138939744Y-70347738D01*
X139001624Y-70280517D01*
X139061512Y-70244527D01*
X139092855Y-70240500D01*
X139774217Y-70240500D01*
X139841256Y-70260185D01*
G37*
%TD.AperFunction*%
%TA.AperFunction,Conductor*%
G36*
X163601256Y-42020185D02*
G01*
X163621898Y-42036819D01*
X164963181Y-43378101D01*
X164996666Y-43439424D01*
X164999500Y-43465782D01*
X164999500Y-51985721D01*
X164999460Y-51988863D01*
X164997242Y-52076362D01*
X165007648Y-52134420D01*
X165008957Y-52143749D01*
X165014926Y-52202438D01*
X165024033Y-52231467D01*
X165027772Y-52246702D01*
X165033141Y-52276652D01*
X165055020Y-52331425D01*
X165058180Y-52340300D01*
X165059150Y-52343393D01*
X165075841Y-52396588D01*
X165090607Y-52423191D01*
X165097337Y-52437364D01*
X165108622Y-52465617D01*
X165141080Y-52514867D01*
X165145961Y-52522923D01*
X165174590Y-52574501D01*
X165194404Y-52597581D01*
X165203856Y-52610116D01*
X165220599Y-52635520D01*
X165262300Y-52677221D01*
X165268705Y-52684132D01*
X165307130Y-52728891D01*
X165307131Y-52728892D01*
X165307134Y-52728895D01*
X165331198Y-52747522D01*
X165342968Y-52757889D01*
X168077898Y-55492819D01*
X168111383Y-55554142D01*
X168106399Y-55623834D01*
X168064527Y-55679767D01*
X167999063Y-55704184D01*
X167990217Y-55704500D01*
X165955439Y-55704500D01*
X165955420Y-55704500D01*
X165952128Y-55704501D01*
X165948848Y-55704853D01*
X165948840Y-55704854D01*
X165892515Y-55710909D01*
X165757669Y-55761204D01*
X165642454Y-55847454D01*
X165556204Y-55962668D01*
X165509130Y-56088882D01*
X165505909Y-56097517D01*
X165499500Y-56157127D01*
X165499501Y-58252872D01*
X165499853Y-58256152D01*
X165499854Y-58256159D01*
X165505909Y-58312484D01*
X165550628Y-58432381D01*
X165555612Y-58502073D01*
X165550628Y-58519047D01*
X165506400Y-58637626D01*
X165500354Y-58693867D01*
X165500000Y-58700481D01*
X165500000Y-59495000D01*
X166566314Y-59495000D01*
X166540507Y-59535156D01*
X166500000Y-59673111D01*
X166500000Y-59816889D01*
X166540507Y-59954844D01*
X166566314Y-59995000D01*
X165500000Y-59995000D01*
X165500000Y-60789518D01*
X165500354Y-60796132D01*
X165506400Y-60852373D01*
X165550628Y-60970952D01*
X165555612Y-61040643D01*
X165550628Y-61057618D01*
X165505909Y-61177514D01*
X165505909Y-61177517D01*
X165499500Y-61237127D01*
X165499500Y-61240448D01*
X165499500Y-61240449D01*
X165499500Y-63329560D01*
X165499500Y-63329578D01*
X165499501Y-63332872D01*
X165505909Y-63392483D01*
X165550362Y-63511668D01*
X165555346Y-63581357D01*
X165550362Y-63598332D01*
X165505909Y-63717514D01*
X165505909Y-63717517D01*
X165499500Y-63777127D01*
X165499500Y-63780448D01*
X165499500Y-63780449D01*
X165499500Y-65869560D01*
X165499500Y-65869578D01*
X165499501Y-65872872D01*
X165505909Y-65932483D01*
X165550362Y-66051668D01*
X165555346Y-66121357D01*
X165550362Y-66138332D01*
X165505909Y-66257514D01*
X165504852Y-66267344D01*
X165499500Y-66317127D01*
X165499500Y-66320448D01*
X165499500Y-66320449D01*
X165499500Y-68409560D01*
X165499500Y-68409578D01*
X165499501Y-68412872D01*
X165499853Y-68416152D01*
X165499854Y-68416159D01*
X165501413Y-68430663D01*
X165505909Y-68472483D01*
X165550362Y-68591668D01*
X165555346Y-68661357D01*
X165550362Y-68678332D01*
X165505909Y-68797514D01*
X165505909Y-68797517D01*
X165499500Y-68857127D01*
X165499500Y-68860448D01*
X165499500Y-68860449D01*
X165499500Y-70949560D01*
X165499500Y-70949578D01*
X165499501Y-70952872D01*
X165499853Y-70956152D01*
X165499854Y-70956159D01*
X165505909Y-71012484D01*
X165550361Y-71131666D01*
X165555345Y-71201358D01*
X165550361Y-71218332D01*
X165505909Y-71337514D01*
X165505909Y-71337517D01*
X165499500Y-71397127D01*
X165499500Y-71400448D01*
X165499500Y-71400449D01*
X165499500Y-73489560D01*
X165499500Y-73489578D01*
X165499501Y-73492872D01*
X165499853Y-73496152D01*
X165499854Y-73496159D01*
X165505909Y-73552484D01*
X165550361Y-73671666D01*
X165555345Y-73741358D01*
X165550361Y-73758332D01*
X165505909Y-73877514D01*
X165505909Y-73877517D01*
X165499500Y-73937127D01*
X165499500Y-73940448D01*
X165499500Y-73940449D01*
X165499500Y-76029560D01*
X165499500Y-76029578D01*
X165499501Y-76032872D01*
X165499853Y-76036152D01*
X165499854Y-76036159D01*
X165505909Y-76092484D01*
X165507065Y-76095583D01*
X165556204Y-76227331D01*
X165642454Y-76342546D01*
X165757669Y-76428796D01*
X165892517Y-76479091D01*
X165952127Y-76485500D01*
X168047872Y-76485499D01*
X168107483Y-76479091D01*
X168242331Y-76428796D01*
X168357546Y-76342546D01*
X168443796Y-76227331D01*
X168494091Y-76092483D01*
X168500500Y-76032873D01*
X168500499Y-73937128D01*
X168494091Y-73877517D01*
X168449636Y-73758328D01*
X168444653Y-73688641D01*
X168449632Y-73671681D01*
X168494091Y-73552483D01*
X168500500Y-73492873D01*
X168500499Y-71397128D01*
X168494091Y-71337517D01*
X168449637Y-71218332D01*
X168444654Y-71148642D01*
X168449635Y-71131674D01*
X168494091Y-71012483D01*
X168500500Y-70952873D01*
X168500499Y-68857128D01*
X168494091Y-68797517D01*
X168449636Y-68678328D01*
X168444653Y-68608641D01*
X168449632Y-68591681D01*
X168494091Y-68472483D01*
X168500500Y-68412873D01*
X168500499Y-66317128D01*
X168494091Y-66257517D01*
X168449637Y-66138332D01*
X168444654Y-66068642D01*
X168449635Y-66051674D01*
X168494091Y-65932483D01*
X168500500Y-65872873D01*
X168500499Y-63777128D01*
X168494091Y-63717517D01*
X168449637Y-63598332D01*
X168444654Y-63528642D01*
X168449635Y-63511674D01*
X168494091Y-63392483D01*
X168500500Y-63332873D01*
X168500499Y-61237128D01*
X168494091Y-61177517D01*
X168449370Y-61057615D01*
X168444387Y-60987927D01*
X168449371Y-60970951D01*
X168493599Y-60852371D01*
X168499645Y-60796132D01*
X168500000Y-60789518D01*
X168500000Y-59995000D01*
X167433686Y-59995000D01*
X167459493Y-59954844D01*
X167500000Y-59816889D01*
X167500000Y-59673111D01*
X167459493Y-59535156D01*
X167433686Y-59495000D01*
X168500000Y-59495000D01*
X168500000Y-58700481D01*
X168499645Y-58693867D01*
X168493599Y-58637628D01*
X168449371Y-58519049D01*
X168444387Y-58449357D01*
X168449367Y-58432393D01*
X168494091Y-58312483D01*
X168500500Y-58252873D01*
X168500499Y-56214781D01*
X168520184Y-56147743D01*
X168572987Y-56101988D01*
X168642146Y-56092044D01*
X168705702Y-56121069D01*
X168712180Y-56127101D01*
X180282449Y-67697370D01*
X180284642Y-67699619D01*
X180344941Y-67763053D01*
X180393370Y-67796760D01*
X180400862Y-67802409D01*
X180446592Y-67839697D01*
X180466939Y-67850325D01*
X180473557Y-67853782D01*
X180486981Y-67861915D01*
X180511950Y-67879295D01*
X180511951Y-67879295D01*
X180566165Y-67902560D01*
X180574675Y-67906602D01*
X180626951Y-67933909D01*
X180656200Y-67942277D01*
X180670970Y-67947535D01*
X180698942Y-67959540D01*
X180698945Y-67959540D01*
X180698946Y-67959541D01*
X180756726Y-67971414D01*
X180765869Y-67973657D01*
X180822582Y-67989886D01*
X180852920Y-67992196D01*
X180868448Y-67994373D01*
X180898259Y-68000500D01*
X180957244Y-68000500D01*
X180966659Y-68000858D01*
X180970806Y-68001173D01*
X181025476Y-68005337D01*
X181052278Y-68001923D01*
X181055652Y-68001494D01*
X181071317Y-68000500D01*
X184174531Y-68000500D01*
X184241570Y-68020185D01*
X184287325Y-68072989D01*
X184298107Y-68134740D01*
X184294356Y-68180000D01*
X184314891Y-68427816D01*
X184314891Y-68427819D01*
X184314892Y-68427821D01*
X184375937Y-68668881D01*
X184412009Y-68751117D01*
X184475825Y-68896604D01*
X184475827Y-68896607D01*
X184611836Y-69104785D01*
X184722304Y-69224785D01*
X184780256Y-69287738D01*
X184863008Y-69352147D01*
X184903821Y-69408858D01*
X184907494Y-69478631D01*
X184872863Y-69539314D01*
X184863008Y-69547853D01*
X184780256Y-69612261D01*
X184611837Y-69795214D01*
X184475825Y-70003395D01*
X184423190Y-70123393D01*
X184375937Y-70231119D01*
X184345549Y-70351117D01*
X184314891Y-70472183D01*
X184294356Y-70720000D01*
X184314891Y-70967816D01*
X184314891Y-70967819D01*
X184314892Y-70967821D01*
X184375937Y-71208881D01*
X184412009Y-71291117D01*
X184475825Y-71436604D01*
X184561460Y-71567678D01*
X184581647Y-71634568D01*
X184562467Y-71701754D01*
X184510009Y-71747904D01*
X184457651Y-71759500D01*
X180312889Y-71759500D01*
X180245850Y-71739815D01*
X180225208Y-71723181D01*
X177634362Y-69132335D01*
X175017126Y-66515098D01*
X174874894Y-66394634D01*
X174661274Y-66267344D01*
X174661272Y-66267343D01*
X174661270Y-66267342D01*
X174429616Y-66176951D01*
X174307925Y-66151434D01*
X174186237Y-66125919D01*
X174167951Y-66125162D01*
X173937780Y-66115642D01*
X173691017Y-66146401D01*
X173452687Y-66217355D01*
X173229283Y-66326571D01*
X173026901Y-66471069D01*
X172851069Y-66646901D01*
X172706571Y-66849283D01*
X172597355Y-67072687D01*
X172526401Y-67311017D01*
X172495642Y-67557780D01*
X172501934Y-67709883D01*
X172505919Y-67806237D01*
X172519739Y-67872147D01*
X172556951Y-68049616D01*
X172642392Y-68268583D01*
X172647344Y-68281274D01*
X172774634Y-68494894D01*
X172895098Y-68637126D01*
X172896910Y-68638938D01*
X172896911Y-68638939D01*
X178507665Y-74249692D01*
X178517830Y-74261202D01*
X178525536Y-74271102D01*
X178532262Y-74279744D01*
X178599057Y-74341233D01*
X178602755Y-74344782D01*
X178622874Y-74364901D01*
X178624824Y-74366552D01*
X178624843Y-74366570D01*
X178644609Y-74383309D01*
X178648410Y-74386665D01*
X178707677Y-74441225D01*
X178715216Y-74448165D01*
X178734873Y-74461007D01*
X178747194Y-74470194D01*
X178765106Y-74485365D01*
X178843100Y-74531839D01*
X178847367Y-74534502D01*
X178923393Y-74584173D01*
X178944895Y-74593604D01*
X178958554Y-74600636D01*
X178978719Y-74612651D01*
X178978726Y-74612655D01*
X179063286Y-74645650D01*
X179067983Y-74647596D01*
X179151119Y-74684063D01*
X179173889Y-74689829D01*
X179188508Y-74694512D01*
X179210386Y-74703049D01*
X179299203Y-74721672D01*
X179304170Y-74722821D01*
X179392179Y-74745108D01*
X179415587Y-74747046D01*
X179430790Y-74749262D01*
X179453763Y-74754080D01*
X179544451Y-74757830D01*
X179549540Y-74758147D01*
X179577933Y-74760500D01*
X179606411Y-74760500D01*
X179611536Y-74760606D01*
X179702219Y-74764357D01*
X179702219Y-74764356D01*
X179702221Y-74764357D01*
X179725525Y-74761452D01*
X179740864Y-74760500D01*
X184457651Y-74760500D01*
X184524690Y-74780185D01*
X184570445Y-74832989D01*
X184580389Y-74902147D01*
X184561460Y-74952320D01*
X184559500Y-74955322D01*
X184475825Y-75083395D01*
X184385780Y-75288678D01*
X184375937Y-75311119D01*
X184343446Y-75439424D01*
X184314891Y-75552183D01*
X184294356Y-75799999D01*
X184314891Y-76047816D01*
X184314891Y-76047819D01*
X184314892Y-76047821D01*
X184375937Y-76288881D01*
X184399477Y-76342546D01*
X184475825Y-76516604D01*
X184475827Y-76516607D01*
X184611836Y-76724785D01*
X184780255Y-76907737D01*
X184780256Y-76907738D01*
X184863008Y-76972147D01*
X184903821Y-77028858D01*
X184907494Y-77098631D01*
X184872863Y-77159314D01*
X184863008Y-77167853D01*
X184780256Y-77232261D01*
X184611837Y-77415214D01*
X184475825Y-77623395D01*
X184423190Y-77743393D01*
X184375937Y-77851119D01*
X184328911Y-78036819D01*
X184314891Y-78092183D01*
X184294356Y-78339999D01*
X184314891Y-78587816D01*
X184314891Y-78587819D01*
X184314892Y-78587821D01*
X184375937Y-78828881D01*
X184417501Y-78923637D01*
X184475825Y-79056604D01*
X184475827Y-79056607D01*
X184611836Y-79264785D01*
X184722304Y-79384785D01*
X184780256Y-79447738D01*
X184863008Y-79512147D01*
X184903821Y-79568858D01*
X184907494Y-79638631D01*
X184872863Y-79699314D01*
X184863008Y-79707853D01*
X184780256Y-79772261D01*
X184611837Y-79955214D01*
X184475825Y-80163395D01*
X184448061Y-80226692D01*
X184375937Y-80391119D01*
X184351180Y-80488881D01*
X184314891Y-80632183D01*
X184294356Y-80880000D01*
X184314891Y-81127816D01*
X184314891Y-81127819D01*
X184314892Y-81127821D01*
X184375937Y-81368881D01*
X184420960Y-81471523D01*
X184475825Y-81596604D01*
X184475827Y-81596607D01*
X184611836Y-81804785D01*
X184722304Y-81924785D01*
X184780256Y-81987738D01*
X184863008Y-82052147D01*
X184903821Y-82108858D01*
X184907494Y-82178631D01*
X184872863Y-82239314D01*
X184863008Y-82247853D01*
X184780256Y-82312261D01*
X184611837Y-82495214D01*
X184475825Y-82703395D01*
X184415741Y-82840374D01*
X184375937Y-82931119D01*
X184345549Y-83051117D01*
X184314891Y-83172183D01*
X184294356Y-83420000D01*
X184314891Y-83667816D01*
X184314891Y-83667819D01*
X184314892Y-83667821D01*
X184375937Y-83908881D01*
X184415885Y-83999953D01*
X184475825Y-84136604D01*
X184475827Y-84136607D01*
X184611836Y-84344785D01*
X184780256Y-84527738D01*
X184863008Y-84592146D01*
X184903820Y-84648856D01*
X184907495Y-84718629D01*
X184872863Y-84779312D01*
X184863009Y-84787851D01*
X184780257Y-84852260D01*
X184644254Y-85000000D01*
X184611836Y-85035215D01*
X184584953Y-85076363D01*
X184475825Y-85243395D01*
X184423190Y-85363393D01*
X184375937Y-85471119D01*
X184340738Y-85610116D01*
X184314891Y-85712183D01*
X184294356Y-85960000D01*
X184314891Y-86207816D01*
X184314891Y-86207819D01*
X184314892Y-86207821D01*
X184375937Y-86448881D01*
X184389698Y-86480252D01*
X184475825Y-86676604D01*
X184475827Y-86676607D01*
X184611836Y-86884785D01*
X184722304Y-87004785D01*
X184780256Y-87067738D01*
X184863008Y-87132147D01*
X184903821Y-87188858D01*
X184907494Y-87258631D01*
X184872863Y-87319314D01*
X184863008Y-87327853D01*
X184780256Y-87392261D01*
X184625215Y-87560680D01*
X184611836Y-87575215D01*
X184589853Y-87608863D01*
X184475825Y-87783395D01*
X184398228Y-87960300D01*
X184375937Y-88011119D01*
X184323179Y-88219454D01*
X184314891Y-88252183D01*
X184294356Y-88500000D01*
X184314891Y-88747816D01*
X184314891Y-88747819D01*
X184314892Y-88747821D01*
X184375937Y-88988881D01*
X184411771Y-89070575D01*
X184475825Y-89216604D01*
X184475827Y-89216607D01*
X184611836Y-89424785D01*
X184780256Y-89607738D01*
X184976491Y-89760474D01*
X184984100Y-89764592D01*
X184987526Y-89766446D01*
X185037116Y-89815665D01*
X185052224Y-89883882D01*
X185028053Y-89949437D01*
X184972277Y-89991518D01*
X184928508Y-89999500D01*
X184465782Y-89999500D01*
X184398743Y-89979815D01*
X184378101Y-89963181D01*
X181656819Y-87241899D01*
X181623334Y-87180576D01*
X181620500Y-87154218D01*
X181620500Y-85877588D01*
X181640185Y-85810549D01*
X181642925Y-85806465D01*
X181680832Y-85752328D01*
X181750568Y-85652734D01*
X181846739Y-85446496D01*
X181905635Y-85226692D01*
X181925468Y-85000000D01*
X181924355Y-84987284D01*
X181910049Y-84823763D01*
X181905635Y-84773308D01*
X181846739Y-84553504D01*
X181750568Y-84347266D01*
X181745691Y-84340300D01*
X181620046Y-84160859D01*
X181459140Y-83999953D01*
X181272735Y-83869432D01*
X181066497Y-83773261D01*
X180846689Y-83714364D01*
X180620000Y-83694531D01*
X180393310Y-83714364D01*
X180173502Y-83773261D01*
X179967264Y-83869432D01*
X179780859Y-83999953D01*
X179619953Y-84160859D01*
X179489432Y-84347264D01*
X179393261Y-84553502D01*
X179334364Y-84773310D01*
X179314531Y-84999999D01*
X179334364Y-85226689D01*
X179393261Y-85446497D01*
X179469559Y-85610116D01*
X179489432Y-85652734D01*
X179555796Y-85747513D01*
X179597075Y-85806465D01*
X179619402Y-85872671D01*
X179619500Y-85877588D01*
X179619500Y-87605721D01*
X179619460Y-87608863D01*
X179617242Y-87696362D01*
X179627648Y-87754420D01*
X179628957Y-87763749D01*
X179634926Y-87822438D01*
X179644033Y-87851467D01*
X179647772Y-87866702D01*
X179653141Y-87896652D01*
X179675020Y-87951425D01*
X179678180Y-87960300D01*
X179690635Y-87999998D01*
X179695841Y-88016588D01*
X179710607Y-88043191D01*
X179717337Y-88057364D01*
X179728622Y-88085617D01*
X179761080Y-88134867D01*
X179765961Y-88142923D01*
X179794590Y-88194501D01*
X179814404Y-88217581D01*
X179823856Y-88230116D01*
X179838399Y-88252183D01*
X179840599Y-88255520D01*
X179882300Y-88297221D01*
X179888705Y-88304132D01*
X179927134Y-88348896D01*
X179951193Y-88367519D01*
X179962972Y-88377893D01*
X180029366Y-88444287D01*
X180062851Y-88505610D01*
X180057867Y-88575302D01*
X180015995Y-88631235D01*
X179952493Y-88655496D01*
X179844592Y-88664936D01*
X179616336Y-88726097D01*
X179402170Y-88825965D01*
X179208598Y-88961505D01*
X179041505Y-89128598D01*
X178911575Y-89314159D01*
X178856998Y-89357784D01*
X178787500Y-89364978D01*
X178725145Y-89333455D01*
X178708425Y-89314159D01*
X178640462Y-89217097D01*
X178578495Y-89128599D01*
X178411401Y-88961505D01*
X178217830Y-88825965D01*
X178003663Y-88726097D01*
X177942502Y-88709709D01*
X177775407Y-88664936D01*
X177540000Y-88644340D01*
X177304592Y-88664936D01*
X177076336Y-88726097D01*
X176862170Y-88825965D01*
X176668598Y-88961505D01*
X176501505Y-89128598D01*
X176371575Y-89314159D01*
X176316998Y-89357784D01*
X176247500Y-89364978D01*
X176185145Y-89333455D01*
X176168425Y-89314159D01*
X176100462Y-89217097D01*
X176038495Y-89128599D01*
X175871401Y-88961505D01*
X175677830Y-88825965D01*
X175463663Y-88726097D01*
X175402502Y-88709709D01*
X175235407Y-88664936D01*
X174999999Y-88644340D01*
X174764592Y-88664936D01*
X174536336Y-88726097D01*
X174322170Y-88825965D01*
X174128598Y-88961505D01*
X173961508Y-89128595D01*
X173961505Y-89128598D01*
X173961505Y-89128599D01*
X173936073Y-89164919D01*
X173881498Y-89208542D01*
X173811999Y-89215735D01*
X173749645Y-89184213D01*
X173714231Y-89123983D01*
X173710500Y-89093794D01*
X173710500Y-83537175D01*
X173711280Y-83523290D01*
X173715237Y-83488171D01*
X173710781Y-83422075D01*
X173710500Y-83413734D01*
X173710500Y-83406621D01*
X173710500Y-83403845D01*
X173706843Y-83363215D01*
X173706626Y-83360452D01*
X173700096Y-83263587D01*
X173699027Y-83259345D01*
X173695768Y-83240157D01*
X173695377Y-83235812D01*
X173669534Y-83142173D01*
X173668840Y-83139547D01*
X173645096Y-83045316D01*
X173643290Y-83041340D01*
X173636655Y-83023040D01*
X173635493Y-83018830D01*
X173593346Y-82931311D01*
X173592189Y-82928839D01*
X173569709Y-82879346D01*
X173552008Y-82840375D01*
X173551062Y-82839010D01*
X173549517Y-82836780D01*
X173539724Y-82819962D01*
X173539343Y-82819172D01*
X173537829Y-82816027D01*
X173480740Y-82737450D01*
X173479162Y-82735228D01*
X173423820Y-82655346D01*
X173420734Y-82652260D01*
X173408091Y-82637458D01*
X173405522Y-82633922D01*
X173335299Y-82566782D01*
X173333310Y-82564836D01*
X168493358Y-77724884D01*
X168484092Y-77714516D01*
X168471309Y-77698487D01*
X168462050Y-77686876D01*
X168462048Y-77686874D01*
X168412145Y-77643274D01*
X168406049Y-77637575D01*
X168401048Y-77632574D01*
X168399071Y-77630597D01*
X168396936Y-77628814D01*
X168396919Y-77628799D01*
X168367797Y-77604487D01*
X168365681Y-77602680D01*
X168292539Y-77538778D01*
X168292538Y-77538777D01*
X168288778Y-77536530D01*
X168272912Y-77525272D01*
X168269560Y-77522473D01*
X168185090Y-77474543D01*
X168182687Y-77473143D01*
X168099307Y-77423327D01*
X168095213Y-77421791D01*
X168077588Y-77413545D01*
X168073787Y-77411389D01*
X168073786Y-77411388D01*
X168073785Y-77411388D01*
X167982110Y-77379309D01*
X167979496Y-77378361D01*
X167888570Y-77344236D01*
X167888567Y-77344235D01*
X167888566Y-77344235D01*
X167884263Y-77343453D01*
X167865459Y-77338490D01*
X167861324Y-77337043D01*
X167765389Y-77321848D01*
X167762648Y-77321382D01*
X167667092Y-77304042D01*
X167667089Y-77304042D01*
X167662712Y-77304042D01*
X167643315Y-77302515D01*
X167639002Y-77301832D01*
X167541900Y-77304011D01*
X167539120Y-77304042D01*
X162095359Y-77304042D01*
X162028320Y-77284357D01*
X162019198Y-77277896D01*
X162011251Y-77271710D01*
X161970440Y-77214999D01*
X161963655Y-77166176D01*
X161965056Y-77143609D01*
X161139400Y-76317953D01*
X161220148Y-76305165D01*
X161333045Y-76247641D01*
X161422641Y-76158045D01*
X161480165Y-76045148D01*
X161492953Y-75964401D01*
X162318434Y-76789882D01*
X162418730Y-76636369D01*
X162518586Y-76408721D01*
X162579613Y-76167732D01*
X162600141Y-75919999D01*
X162579613Y-75672267D01*
X162518586Y-75431278D01*
X162418730Y-75203630D01*
X162318434Y-75050116D01*
X161492953Y-75875598D01*
X161480165Y-75794852D01*
X161422641Y-75681955D01*
X161333045Y-75592359D01*
X161220148Y-75534835D01*
X161139399Y-75522046D01*
X161965056Y-74696389D01*
X161963655Y-74673823D01*
X161979148Y-74605693D01*
X162011250Y-74568290D01*
X162114744Y-74487738D01*
X162283164Y-74304785D01*
X162419173Y-74096607D01*
X162519063Y-73868881D01*
X162580108Y-73627821D01*
X162600643Y-73380000D01*
X162580108Y-73132179D01*
X162519063Y-72891119D01*
X162419173Y-72663393D01*
X162283164Y-72455215D01*
X162114744Y-72272262D01*
X162098437Y-72259570D01*
X162031992Y-72207853D01*
X161991179Y-72151143D01*
X161987504Y-72081370D01*
X162022136Y-72020687D01*
X162031992Y-72012147D01*
X162060446Y-71990000D01*
X162114744Y-71947738D01*
X162283164Y-71764785D01*
X162419173Y-71556607D01*
X162519063Y-71328881D01*
X162580108Y-71087821D01*
X162600643Y-70840000D01*
X162580108Y-70592179D01*
X162519063Y-70351119D01*
X162419173Y-70123393D01*
X162283164Y-69915215D01*
X162114744Y-69732262D01*
X162038462Y-69672889D01*
X162031992Y-69667853D01*
X161991179Y-69611143D01*
X161987504Y-69541370D01*
X162022136Y-69480687D01*
X162031992Y-69472147D01*
X162060446Y-69450000D01*
X162114744Y-69407738D01*
X162283164Y-69224785D01*
X162419173Y-69016607D01*
X162519063Y-68788881D01*
X162580108Y-68547821D01*
X162600643Y-68300000D01*
X162580108Y-68052179D01*
X162519063Y-67811119D01*
X162419173Y-67583393D01*
X162283164Y-67375215D01*
X162114744Y-67192262D01*
X162094320Y-67176365D01*
X162031992Y-67127853D01*
X161991179Y-67071143D01*
X161987504Y-67001370D01*
X162022136Y-66940687D01*
X162031992Y-66932147D01*
X162060446Y-66910000D01*
X162114744Y-66867738D01*
X162283164Y-66684785D01*
X162419173Y-66476607D01*
X162519063Y-66248881D01*
X162580108Y-66007821D01*
X162600643Y-65760000D01*
X162580108Y-65512179D01*
X162519063Y-65271119D01*
X162426976Y-65061181D01*
X162419174Y-65043395D01*
X162408945Y-65027738D01*
X162283164Y-64835215D01*
X162114744Y-64652262D01*
X162114743Y-64652261D01*
X162031991Y-64587852D01*
X161991178Y-64531141D01*
X161987505Y-64461368D01*
X162022136Y-64400685D01*
X162031974Y-64392160D01*
X162114744Y-64327738D01*
X162283164Y-64144785D01*
X162419173Y-63936607D01*
X162519063Y-63708881D01*
X162580108Y-63467821D01*
X162600643Y-63220000D01*
X162580108Y-62972179D01*
X162519063Y-62731119D01*
X162419173Y-62503393D01*
X162283164Y-62295215D01*
X162114744Y-62112262D01*
X162098437Y-62099570D01*
X162031992Y-62047853D01*
X161991179Y-61991143D01*
X161987504Y-61921370D01*
X162022136Y-61860687D01*
X162031992Y-61852147D01*
X162060447Y-61829999D01*
X162114744Y-61787738D01*
X162283164Y-61604785D01*
X162419173Y-61396607D01*
X162519063Y-61168881D01*
X162580108Y-60927821D01*
X162600643Y-60680000D01*
X162580108Y-60432179D01*
X162519063Y-60191119D01*
X162419173Y-59963393D01*
X162283164Y-59755215D01*
X162114744Y-59572262D01*
X162084234Y-59548515D01*
X162031992Y-59507853D01*
X161991179Y-59451143D01*
X161987504Y-59381370D01*
X162022136Y-59320687D01*
X162031992Y-59312147D01*
X162056256Y-59293260D01*
X162114744Y-59247738D01*
X162283164Y-59064785D01*
X162419173Y-58856607D01*
X162519063Y-58628881D01*
X162580108Y-58387821D01*
X162600643Y-58140000D01*
X162580108Y-57892179D01*
X162519063Y-57651119D01*
X162419173Y-57423393D01*
X162283164Y-57215215D01*
X162114744Y-57032262D01*
X162083350Y-57007827D01*
X162031992Y-56967853D01*
X161991179Y-56911143D01*
X161987504Y-56841370D01*
X162022136Y-56780687D01*
X162031992Y-56772147D01*
X162056256Y-56753260D01*
X162114744Y-56707738D01*
X162283164Y-56524785D01*
X162419173Y-56316607D01*
X162519063Y-56088881D01*
X162580108Y-55847821D01*
X162600643Y-55600000D01*
X162580108Y-55352179D01*
X162519063Y-55111119D01*
X162419173Y-54883393D01*
X162283164Y-54675215D01*
X162114744Y-54492262D01*
X162084916Y-54469046D01*
X162031992Y-54427853D01*
X161991179Y-54371143D01*
X161987504Y-54301370D01*
X162022136Y-54240687D01*
X162031992Y-54232147D01*
X162060447Y-54209999D01*
X162114744Y-54167738D01*
X162283164Y-53984785D01*
X162419173Y-53776607D01*
X162519063Y-53548881D01*
X162580108Y-53307821D01*
X162600643Y-53060000D01*
X162580108Y-52812179D01*
X162519063Y-52571119D01*
X162419173Y-52343393D01*
X162283164Y-52135215D01*
X162114744Y-51952262D01*
X162098437Y-51939570D01*
X162031992Y-51887853D01*
X161991179Y-51831143D01*
X161987504Y-51761370D01*
X162022136Y-51700687D01*
X162031992Y-51692147D01*
X162060446Y-51670000D01*
X162114744Y-51627738D01*
X162283164Y-51444785D01*
X162419173Y-51236607D01*
X162519063Y-51008881D01*
X162580108Y-50767821D01*
X162600643Y-50520000D01*
X162580108Y-50272179D01*
X162519063Y-50031119D01*
X162419173Y-49803393D01*
X162283164Y-49595215D01*
X162114744Y-49412262D01*
X162085984Y-49389877D01*
X162031991Y-49347852D01*
X161991178Y-49291141D01*
X161987505Y-49221368D01*
X162022136Y-49160685D01*
X162031974Y-49152160D01*
X162114744Y-49087738D01*
X162283164Y-48904785D01*
X162419173Y-48696607D01*
X162519063Y-48468881D01*
X162580108Y-48227821D01*
X162600643Y-47980000D01*
X162580108Y-47732179D01*
X162519063Y-47491119D01*
X162419173Y-47263393D01*
X162283164Y-47055215D01*
X162114744Y-46872262D01*
X162072906Y-46839698D01*
X162031992Y-46807853D01*
X161991179Y-46751143D01*
X161987504Y-46681370D01*
X162022136Y-46620687D01*
X162031992Y-46612147D01*
X162060447Y-46589999D01*
X162114744Y-46547738D01*
X162283164Y-46364785D01*
X162419173Y-46156607D01*
X162519063Y-45928881D01*
X162580108Y-45687821D01*
X162600643Y-45440000D01*
X162580108Y-45192179D01*
X162519063Y-44951119D01*
X162419173Y-44723393D01*
X162283164Y-44515215D01*
X162114744Y-44332262D01*
X162113669Y-44331425D01*
X162031991Y-44267852D01*
X161991178Y-44211141D01*
X161987505Y-44141368D01*
X162022136Y-44080685D01*
X162031974Y-44072160D01*
X162114744Y-44007738D01*
X162283164Y-43824785D01*
X162419173Y-43616607D01*
X162519063Y-43388881D01*
X162580108Y-43147821D01*
X162600643Y-42900000D01*
X162580108Y-42652179D01*
X162519063Y-42411119D01*
X162419173Y-42183393D01*
X162419169Y-42183387D01*
X162415188Y-42174311D01*
X162406285Y-42105010D01*
X162436262Y-42041898D01*
X162495601Y-42005011D01*
X162528744Y-42000500D01*
X163534217Y-42000500D01*
X163601256Y-42020185D01*
G37*
%TD.AperFunction*%
%TA.AperFunction,Conductor*%
G36*
X143274855Y-43666545D02*
G01*
X143291571Y-43685837D01*
X143421505Y-43871401D01*
X143423179Y-43873075D01*
X143424957Y-43876331D01*
X143427728Y-43880288D01*
X143427286Y-43880596D01*
X143456665Y-43934392D01*
X143459500Y-43960757D01*
X143459500Y-46985721D01*
X143459460Y-46988863D01*
X143457242Y-47076362D01*
X143467648Y-47134420D01*
X143468957Y-47143749D01*
X143474926Y-47202438D01*
X143484033Y-47231467D01*
X143487772Y-47246702D01*
X143493141Y-47276652D01*
X143515020Y-47331425D01*
X143518180Y-47340300D01*
X143535841Y-47396588D01*
X143550607Y-47423191D01*
X143557337Y-47437364D01*
X143568622Y-47465617D01*
X143601080Y-47514867D01*
X143605961Y-47522923D01*
X143634590Y-47574501D01*
X143654404Y-47597581D01*
X143663856Y-47610116D01*
X143680599Y-47635520D01*
X143722300Y-47677221D01*
X143728705Y-47684132D01*
X143767130Y-47728891D01*
X143767131Y-47728892D01*
X143767134Y-47728895D01*
X143791198Y-47747522D01*
X143802968Y-47757889D01*
X144742449Y-48697370D01*
X144744642Y-48699619D01*
X144804941Y-48763053D01*
X144853358Y-48796752D01*
X144860865Y-48802413D01*
X144906593Y-48839698D01*
X144933556Y-48853782D01*
X144946980Y-48861915D01*
X144971951Y-48879295D01*
X145026163Y-48902559D01*
X145034663Y-48906595D01*
X145068286Y-48924159D01*
X145086951Y-48933909D01*
X145116196Y-48942277D01*
X145130986Y-48947543D01*
X145138464Y-48950752D01*
X145158942Y-48959540D01*
X145216737Y-48971416D01*
X145225854Y-48973654D01*
X145282582Y-48989887D01*
X145312916Y-48992196D01*
X145328453Y-48994374D01*
X145358259Y-49000500D01*
X145417243Y-49000500D01*
X145426657Y-49000858D01*
X145485477Y-49005337D01*
X145515652Y-49001493D01*
X145531318Y-49000500D01*
X157985721Y-49000500D01*
X157988862Y-49000539D01*
X158076363Y-49002757D01*
X158134432Y-48992348D01*
X158143736Y-48991043D01*
X158202438Y-48985074D01*
X158231467Y-48975965D01*
X158246700Y-48972226D01*
X158276653Y-48966858D01*
X158331426Y-48944978D01*
X158340301Y-48941819D01*
X158357675Y-48936367D01*
X158396588Y-48924159D01*
X158423194Y-48909390D01*
X158437362Y-48902662D01*
X158465617Y-48891377D01*
X158514879Y-48858909D01*
X158522910Y-48854043D01*
X158574502Y-48825409D01*
X158597587Y-48805589D01*
X158610114Y-48796144D01*
X158635519Y-48779402D01*
X158677251Y-48737668D01*
X158684123Y-48731300D01*
X158728895Y-48692866D01*
X158747519Y-48668803D01*
X158757880Y-48657039D01*
X159388375Y-48026544D01*
X159449696Y-47993061D01*
X159519388Y-47998045D01*
X159575321Y-48039917D01*
X159599630Y-48103987D01*
X159609891Y-48227816D01*
X159609891Y-48227819D01*
X159609892Y-48227821D01*
X159670937Y-48468881D01*
X159715960Y-48571523D01*
X159770825Y-48696604D01*
X159770827Y-48696607D01*
X159906836Y-48904785D01*
X159995863Y-49001494D01*
X160075256Y-49087738D01*
X160158008Y-49152147D01*
X160198821Y-49208858D01*
X160202494Y-49278631D01*
X160167863Y-49339314D01*
X160158008Y-49347853D01*
X160075256Y-49412261D01*
X159906837Y-49595214D01*
X159770825Y-49803395D01*
X159692894Y-49981061D01*
X159670937Y-50031119D01*
X159626292Y-50207417D01*
X159609891Y-50272183D01*
X159589356Y-50519999D01*
X159609891Y-50767816D01*
X159609891Y-50767819D01*
X159609892Y-50767821D01*
X159670937Y-51008881D01*
X159694334Y-51062221D01*
X159770825Y-51236604D01*
X159770827Y-51236607D01*
X159906836Y-51444785D01*
X160036446Y-51585579D01*
X160075256Y-51627738D01*
X160158008Y-51692147D01*
X160198821Y-51748858D01*
X160202494Y-51818631D01*
X160167863Y-51879314D01*
X160158008Y-51887853D01*
X160075256Y-51952261D01*
X159961014Y-52076362D01*
X159906836Y-52135215D01*
X159862917Y-52202438D01*
X159770825Y-52343395D01*
X159703017Y-52497983D01*
X159670937Y-52571119D01*
X159623640Y-52757889D01*
X159609891Y-52812183D01*
X159589356Y-53060000D01*
X159609891Y-53307816D01*
X159609891Y-53307819D01*
X159609892Y-53307821D01*
X159670937Y-53548881D01*
X159711847Y-53642147D01*
X159770825Y-53776604D01*
X159770827Y-53776607D01*
X159906836Y-53984785D01*
X160005796Y-54092284D01*
X160075256Y-54167738D01*
X160158008Y-54232147D01*
X160198821Y-54288858D01*
X160202494Y-54358631D01*
X160167863Y-54419314D01*
X160158008Y-54427853D01*
X160075256Y-54492261D01*
X159906837Y-54675214D01*
X159770825Y-54883395D01*
X159708736Y-55024945D01*
X159670937Y-55111119D01*
X159609892Y-55352179D01*
X159609891Y-55352183D01*
X159589356Y-55600000D01*
X159609891Y-55847816D01*
X159609891Y-55847819D01*
X159609892Y-55847821D01*
X159670937Y-56088881D01*
X159699428Y-56153833D01*
X159770825Y-56316604D01*
X159770827Y-56316607D01*
X159906836Y-56524785D01*
X160049019Y-56679237D01*
X160051118Y-56681517D01*
X160082040Y-56744172D01*
X160074180Y-56813598D01*
X160030033Y-56867753D01*
X159963615Y-56889444D01*
X159959888Y-56889500D01*
X156317186Y-56889500D01*
X156303302Y-56888720D01*
X156268173Y-56884761D01*
X156207050Y-56888883D01*
X156202065Y-56889219D01*
X156193726Y-56889500D01*
X156183845Y-56889500D01*
X156181099Y-56889747D01*
X156181079Y-56889748D01*
X156143253Y-56893153D01*
X156140481Y-56893371D01*
X156043586Y-56899904D01*
X156039344Y-56900973D01*
X156020181Y-56904229D01*
X156015817Y-56904622D01*
X156015814Y-56904622D01*
X156015812Y-56904623D01*
X155922137Y-56930475D01*
X155919495Y-56931172D01*
X155825316Y-56954903D01*
X155821328Y-56956715D01*
X155803054Y-56963340D01*
X155798832Y-56964505D01*
X155711317Y-57006649D01*
X155708800Y-57007827D01*
X155620369Y-57047995D01*
X155616774Y-57050486D01*
X155599972Y-57060270D01*
X155596028Y-57062169D01*
X155517461Y-57119250D01*
X155515195Y-57120858D01*
X155435342Y-57176182D01*
X155432242Y-57179282D01*
X155417462Y-57191906D01*
X155413920Y-57194479D01*
X155346803Y-57264677D01*
X155344859Y-57266665D01*
X152731345Y-59880179D01*
X152670022Y-59913664D01*
X152664074Y-59914807D01*
X152630383Y-59920429D01*
X152395194Y-60001170D01*
X152176485Y-60119529D01*
X151980259Y-60272259D01*
X151980256Y-60272261D01*
X151980256Y-60272262D01*
X151811836Y-60455215D01*
X151766499Y-60524607D01*
X151675825Y-60663395D01*
X151622704Y-60784500D01*
X151575937Y-60891119D01*
X151551422Y-60987927D01*
X151514891Y-61132183D01*
X151494356Y-61380000D01*
X151514891Y-61627816D01*
X151514891Y-61627819D01*
X151514892Y-61627821D01*
X151575937Y-61868881D01*
X151598059Y-61919314D01*
X151675825Y-62096604D01*
X151675827Y-62096607D01*
X151811836Y-62304785D01*
X151884200Y-62383393D01*
X151980256Y-62487738D01*
X152063008Y-62552147D01*
X152103821Y-62608858D01*
X152107494Y-62678631D01*
X152072863Y-62739314D01*
X152063008Y-62747853D01*
X151980256Y-62812261D01*
X151870820Y-62931141D01*
X151811836Y-62995215D01*
X151768160Y-63062067D01*
X151675825Y-63203395D01*
X151618713Y-63333599D01*
X151575937Y-63431119D01*
X151515161Y-63671117D01*
X151514891Y-63672183D01*
X151494356Y-63920000D01*
X151514891Y-64167816D01*
X151514891Y-64167819D01*
X151514892Y-64167821D01*
X151575937Y-64408881D01*
X151598172Y-64459571D01*
X151675825Y-64636604D01*
X151675827Y-64636607D01*
X151811836Y-64844785D01*
X151980256Y-65027738D01*
X152068800Y-65096655D01*
X152083744Y-65108286D01*
X152124557Y-65164996D01*
X152131343Y-65213823D01*
X152129941Y-65236389D01*
X152955599Y-66062046D01*
X152874852Y-66074835D01*
X152761955Y-66132359D01*
X152672359Y-66221955D01*
X152614835Y-66334852D01*
X152602046Y-66415598D01*
X151776564Y-65590116D01*
X151676266Y-65743634D01*
X151576413Y-65971278D01*
X151515386Y-66212267D01*
X151494858Y-66460000D01*
X151515386Y-66707732D01*
X151576413Y-66948721D01*
X151676266Y-67176365D01*
X151762057Y-67307678D01*
X151782244Y-67374568D01*
X151763064Y-67441754D01*
X151710606Y-67487904D01*
X151658248Y-67499500D01*
X149672890Y-67499500D01*
X149605851Y-67479815D01*
X149585208Y-67463180D01*
X149536818Y-67414789D01*
X149503334Y-67353466D01*
X149500500Y-67327109D01*
X149500500Y-60672888D01*
X149520185Y-60605849D01*
X149536814Y-60585212D01*
X156265961Y-53856064D01*
X156327279Y-53822582D01*
X156522678Y-53780077D01*
X156770689Y-53687574D01*
X157003011Y-53560716D01*
X157214915Y-53402087D01*
X157402087Y-53214915D01*
X157560716Y-53003011D01*
X157687574Y-52770689D01*
X157780077Y-52522678D01*
X157836343Y-52264026D01*
X157855227Y-52000000D01*
X157836343Y-51735974D01*
X157780077Y-51477322D01*
X157687574Y-51229311D01*
X157596336Y-51062221D01*
X157560717Y-50996990D01*
X157479788Y-50888882D01*
X157402087Y-50785085D01*
X157214915Y-50597913D01*
X157083028Y-50499184D01*
X157003009Y-50439282D01*
X156836898Y-50348579D01*
X156770689Y-50312426D01*
X156522678Y-50219923D01*
X156522673Y-50219921D01*
X156264027Y-50163657D01*
X156000000Y-50144772D01*
X155735972Y-50163657D01*
X155477326Y-50219921D01*
X155353316Y-50266174D01*
X155229311Y-50312426D01*
X155229308Y-50312427D01*
X155229307Y-50312428D01*
X154996987Y-50439284D01*
X154949588Y-50474767D01*
X154884124Y-50499184D01*
X154875278Y-50499500D01*
X150124722Y-50499500D01*
X150057683Y-50479815D01*
X150050412Y-50474767D01*
X150003012Y-50439284D01*
X149863288Y-50362989D01*
X149770689Y-50312426D01*
X149522678Y-50219923D01*
X149522673Y-50219921D01*
X149264027Y-50163657D01*
X149000000Y-50144772D01*
X148735972Y-50163657D01*
X148477326Y-50219921D01*
X148353316Y-50266174D01*
X148229311Y-50312426D01*
X148229308Y-50312427D01*
X148229307Y-50312428D01*
X147996990Y-50439282D01*
X147785082Y-50597915D01*
X147597915Y-50785082D01*
X147439282Y-50996990D01*
X147373967Y-51116607D01*
X147312426Y-51229311D01*
X147309706Y-51236604D01*
X147219921Y-51477326D01*
X147163657Y-51735972D01*
X147144772Y-52000000D01*
X147163657Y-52264027D01*
X147219921Y-52522673D01*
X147219923Y-52522678D01*
X147312426Y-52770689D01*
X147312428Y-52770692D01*
X147439282Y-53003009D01*
X147481945Y-53060000D01*
X147597913Y-53214915D01*
X147785085Y-53402087D01*
X147942846Y-53520185D01*
X147996990Y-53560717D01*
X148019465Y-53572989D01*
X148229311Y-53687574D01*
X148477322Y-53780077D01*
X148477325Y-53780077D01*
X148477326Y-53780078D01*
X148525667Y-53790593D01*
X148735974Y-53836343D01*
X148979660Y-53853772D01*
X148999999Y-53855227D01*
X148999999Y-53855226D01*
X149000000Y-53855227D01*
X149264026Y-53836343D01*
X149522678Y-53780077D01*
X149770689Y-53687574D01*
X150003011Y-53560716D01*
X150012428Y-53553666D01*
X150050412Y-53525233D01*
X150115876Y-53500816D01*
X150124722Y-53500500D01*
X152078111Y-53500500D01*
X152145150Y-53520185D01*
X152190905Y-53572989D01*
X152200849Y-53642147D01*
X152171824Y-53705703D01*
X152165792Y-53712181D01*
X147010306Y-58867664D01*
X146998793Y-58877832D01*
X146980254Y-58892262D01*
X146918775Y-58959045D01*
X146915233Y-58962738D01*
X146895098Y-58982874D01*
X146893437Y-58984834D01*
X146893437Y-58984835D01*
X146876689Y-59004609D01*
X146873299Y-59008447D01*
X146811835Y-59075215D01*
X146798995Y-59094868D01*
X146789813Y-59107183D01*
X146774636Y-59125102D01*
X146728174Y-59203074D01*
X146725462Y-59207417D01*
X146675826Y-59283392D01*
X146666396Y-59304891D01*
X146659368Y-59318545D01*
X146647343Y-59338726D01*
X146614346Y-59423288D01*
X146612386Y-59428020D01*
X146575936Y-59511120D01*
X146570169Y-59533890D01*
X146565484Y-59548515D01*
X146556951Y-59570385D01*
X146538324Y-59659211D01*
X146537170Y-59664200D01*
X146514891Y-59752180D01*
X146512952Y-59775578D01*
X146510738Y-59790777D01*
X146505919Y-59813762D01*
X146502168Y-59904440D01*
X146501851Y-59909551D01*
X146499710Y-59935390D01*
X146499709Y-59935406D01*
X146499500Y-59937933D01*
X146499500Y-59940486D01*
X146499500Y-59966402D01*
X146499394Y-59971527D01*
X146495642Y-60062219D01*
X146498548Y-60085526D01*
X146499500Y-60100864D01*
X146499500Y-67899135D01*
X146498548Y-67914473D01*
X146495642Y-67937780D01*
X146499394Y-68028471D01*
X146499500Y-68033596D01*
X146499500Y-68062067D01*
X146499709Y-68064594D01*
X146499710Y-68064609D01*
X146501851Y-68090448D01*
X146502168Y-68095559D01*
X146505919Y-68186237D01*
X146510738Y-68209220D01*
X146512952Y-68224421D01*
X146514891Y-68247819D01*
X146537171Y-68335803D01*
X146538325Y-68340793D01*
X146556950Y-68429614D01*
X146565484Y-68451485D01*
X146570171Y-68466114D01*
X146575936Y-68488880D01*
X146612393Y-68571993D01*
X146614349Y-68576717D01*
X146620182Y-68591664D01*
X146647344Y-68661275D01*
X146659364Y-68681448D01*
X146666395Y-68695107D01*
X146675824Y-68716603D01*
X146675827Y-68716607D01*
X146725481Y-68792609D01*
X146728153Y-68796890D01*
X146774634Y-68874894D01*
X146789808Y-68892811D01*
X146798991Y-68905125D01*
X146811837Y-68924788D01*
X146873293Y-68991546D01*
X146876687Y-68995388D01*
X146895098Y-69017126D01*
X146896911Y-69018939D01*
X146915227Y-69037255D01*
X146918776Y-69040953D01*
X146980258Y-69107740D01*
X146998787Y-69122162D01*
X147010307Y-69132335D01*
X147238659Y-69360687D01*
X147463181Y-69585208D01*
X147496666Y-69646531D01*
X147499500Y-69672889D01*
X147499500Y-75932809D01*
X147499076Y-75943050D01*
X147494356Y-75999999D01*
X147499076Y-76056948D01*
X147499500Y-76067189D01*
X147499500Y-79899135D01*
X147498548Y-79914473D01*
X147495642Y-79937780D01*
X147499394Y-80028471D01*
X147499500Y-80033596D01*
X147499500Y-80062067D01*
X147499709Y-80064594D01*
X147499710Y-80064609D01*
X147501851Y-80090448D01*
X147502168Y-80095559D01*
X147505919Y-80186235D01*
X147510738Y-80209220D01*
X147512952Y-80224421D01*
X147514891Y-80247819D01*
X147537171Y-80335803D01*
X147538325Y-80340793D01*
X147556950Y-80429614D01*
X147565484Y-80451485D01*
X147570171Y-80466114D01*
X147575936Y-80488880D01*
X147612393Y-80571993D01*
X147614354Y-80576728D01*
X147647344Y-80661275D01*
X147659364Y-80681448D01*
X147666395Y-80695107D01*
X147675824Y-80716603D01*
X147675827Y-80716607D01*
X147725481Y-80792609D01*
X147728153Y-80796890D01*
X147774634Y-80874894D01*
X147789808Y-80892811D01*
X147798991Y-80905125D01*
X147811837Y-80924788D01*
X147873293Y-80991546D01*
X147876687Y-80995388D01*
X147895098Y-81017126D01*
X147896911Y-81018939D01*
X147915227Y-81037255D01*
X147918776Y-81040953D01*
X147980258Y-81107740D01*
X147998787Y-81122162D01*
X148010307Y-81132335D01*
X156504527Y-89626555D01*
X156538012Y-89687878D01*
X156533028Y-89757570D01*
X156491156Y-89813503D01*
X156425692Y-89837920D01*
X156416846Y-89838236D01*
X153304519Y-89838236D01*
X153237480Y-89818551D01*
X153216838Y-89801917D01*
X147036819Y-83621897D01*
X147003334Y-83560574D01*
X147000500Y-83534216D01*
X147000500Y-75014260D01*
X147000540Y-75011118D01*
X147000701Y-75004785D01*
X147002757Y-74923637D01*
X146992349Y-74865573D01*
X146991041Y-74856242D01*
X146989703Y-74843086D01*
X146985074Y-74797562D01*
X146975962Y-74768520D01*
X146972226Y-74753297D01*
X146966858Y-74723347D01*
X146944976Y-74668566D01*
X146941816Y-74659689D01*
X146924159Y-74603412D01*
X146909395Y-74576812D01*
X146902660Y-74562631D01*
X146891377Y-74534383D01*
X146858917Y-74485131D01*
X146854036Y-74477074D01*
X146837990Y-74448165D01*
X146825409Y-74425498D01*
X146805582Y-74402403D01*
X146796146Y-74389888D01*
X146779402Y-74364481D01*
X146779400Y-74364479D01*
X146779399Y-74364477D01*
X146737693Y-74322772D01*
X146731287Y-74315860D01*
X146692864Y-74271102D01*
X146668804Y-74252478D01*
X146657026Y-74242105D01*
X140957567Y-68542647D01*
X140955412Y-68540438D01*
X140895059Y-68476947D01*
X140846640Y-68443246D01*
X140839118Y-68437575D01*
X140830641Y-68430663D01*
X140819230Y-68421358D01*
X140793405Y-68400300D01*
X140766440Y-68386215D01*
X140753019Y-68378084D01*
X140728049Y-68360705D01*
X140728048Y-68360704D01*
X140728046Y-68360703D01*
X140673845Y-68337443D01*
X140665336Y-68333402D01*
X140613053Y-68306092D01*
X140607126Y-68304396D01*
X140583798Y-68297721D01*
X140569020Y-68292459D01*
X140541058Y-68280460D01*
X140483272Y-68268583D01*
X140474128Y-68266338D01*
X140417421Y-68250113D01*
X140390617Y-68248071D01*
X140387074Y-68247801D01*
X140371534Y-68245622D01*
X140341742Y-68239500D01*
X140341741Y-68239500D01*
X140282758Y-68239500D01*
X140273344Y-68239142D01*
X140264198Y-68238445D01*
X140214524Y-68234663D01*
X140214523Y-68234663D01*
X140214522Y-68234663D01*
X140184349Y-68238506D01*
X140168683Y-68239500D01*
X139092855Y-68239500D01*
X139025816Y-68219815D01*
X139001625Y-68199483D01*
X138989429Y-68186235D01*
X138939744Y-68132262D01*
X138892588Y-68095559D01*
X138856992Y-68067853D01*
X138816179Y-68011143D01*
X138812504Y-67941370D01*
X138847136Y-67880687D01*
X138856992Y-67872147D01*
X138898683Y-67839697D01*
X138939744Y-67807738D01*
X139108164Y-67624785D01*
X139244173Y-67416607D01*
X139344063Y-67188881D01*
X139405108Y-66947821D01*
X139425643Y-66700000D01*
X139405108Y-66452179D01*
X139344063Y-66211119D01*
X139244173Y-65983393D01*
X139108164Y-65775215D01*
X138939744Y-65592262D01*
X138914282Y-65572444D01*
X138856992Y-65527853D01*
X138816179Y-65471143D01*
X138812504Y-65401370D01*
X138847136Y-65340687D01*
X138856992Y-65332147D01*
X138885283Y-65310127D01*
X138939744Y-65267738D01*
X139108164Y-65084785D01*
X139244173Y-64876607D01*
X139344063Y-64648881D01*
X139405108Y-64407821D01*
X139425643Y-64160000D01*
X139405108Y-63912179D01*
X139344063Y-63671119D01*
X139244173Y-63443393D01*
X139108164Y-63235215D01*
X138939744Y-63052262D01*
X138939743Y-63052261D01*
X138856991Y-62987852D01*
X138816178Y-62931141D01*
X138812505Y-62861368D01*
X138847136Y-62800685D01*
X138856974Y-62792160D01*
X138939744Y-62727738D01*
X139108164Y-62544785D01*
X139244173Y-62336607D01*
X139344063Y-62108881D01*
X139405108Y-61867821D01*
X139425643Y-61620000D01*
X139424382Y-61604785D01*
X139423447Y-61593500D01*
X139437527Y-61525063D01*
X139459339Y-61495580D01*
X143697389Y-57257529D01*
X143699559Y-57255413D01*
X143763053Y-57195059D01*
X143796759Y-57146630D01*
X143802428Y-57139113D01*
X143839698Y-57093407D01*
X143853783Y-57066439D01*
X143861918Y-57053015D01*
X143868373Y-57043740D01*
X143879295Y-57028049D01*
X143902568Y-56973815D01*
X143906598Y-56965331D01*
X143907029Y-56964507D01*
X143933909Y-56913049D01*
X143942278Y-56883797D01*
X143947534Y-56869032D01*
X143959540Y-56841058D01*
X143971418Y-56783256D01*
X143973651Y-56774156D01*
X143989887Y-56717418D01*
X143992197Y-56687077D01*
X143994376Y-56671535D01*
X144000500Y-56641741D01*
X144000500Y-56582757D01*
X144000858Y-56573342D01*
X144005337Y-56514524D01*
X144001493Y-56484339D01*
X144000500Y-56468676D01*
X144000500Y-50014260D01*
X144000540Y-50011118D01*
X144002757Y-49923638D01*
X143992350Y-49865574D01*
X143991041Y-49856242D01*
X143985074Y-49797562D01*
X143975962Y-49768520D01*
X143972226Y-49753297D01*
X143966858Y-49723347D01*
X143950899Y-49683395D01*
X143944976Y-49668566D01*
X143941816Y-49659689D01*
X143924159Y-49603412D01*
X143909395Y-49576812D01*
X143902660Y-49562631D01*
X143901839Y-49560575D01*
X143891377Y-49534383D01*
X143858917Y-49485131D01*
X143854036Y-49477074D01*
X143853004Y-49475214D01*
X143825409Y-49425498D01*
X143805582Y-49402403D01*
X143796146Y-49389888D01*
X143779402Y-49364481D01*
X143779400Y-49364479D01*
X143779399Y-49364477D01*
X143737693Y-49322772D01*
X143731287Y-49315860D01*
X143692864Y-49271102D01*
X143668804Y-49252478D01*
X143657026Y-49242105D01*
X138977101Y-44562180D01*
X138943616Y-44500857D01*
X138948600Y-44431165D01*
X138990472Y-44375232D01*
X139055936Y-44350815D01*
X139064782Y-44350499D01*
X140274561Y-44350499D01*
X140277872Y-44350499D01*
X140337483Y-44344091D01*
X140472331Y-44293796D01*
X140587546Y-44207546D01*
X140673796Y-44092331D01*
X140722810Y-43960916D01*
X140764681Y-43904983D01*
X140830146Y-43880566D01*
X140898419Y-43895418D01*
X140926673Y-43916569D01*
X141048599Y-44038495D01*
X141242170Y-44174035D01*
X141456337Y-44273903D01*
X141684592Y-44335063D01*
X141920000Y-44355659D01*
X142155408Y-44335063D01*
X142383663Y-44273903D01*
X142597830Y-44174035D01*
X142791401Y-44038495D01*
X142958495Y-43871401D01*
X143088426Y-43685839D01*
X143143002Y-43642216D01*
X143212500Y-43635022D01*
X143274855Y-43666545D01*
G37*
%TD.AperFunction*%
%TA.AperFunction,Conductor*%
G36*
X151724690Y-70520185D02*
G01*
X151770445Y-70572989D01*
X151780389Y-70642147D01*
X151761460Y-70692322D01*
X151675825Y-70823395D01*
X151617590Y-70956159D01*
X151575937Y-71051119D01*
X151515161Y-71291117D01*
X151514891Y-71292183D01*
X151494356Y-71540000D01*
X151514891Y-71787816D01*
X151514891Y-71787819D01*
X151514892Y-71787821D01*
X151575937Y-72028881D01*
X151593473Y-72068858D01*
X151675825Y-72256604D01*
X151675827Y-72256607D01*
X151811836Y-72464785D01*
X151943093Y-72607368D01*
X151980256Y-72647738D01*
X152063008Y-72712147D01*
X152103821Y-72768858D01*
X152107494Y-72838631D01*
X152072863Y-72899314D01*
X152063008Y-72907853D01*
X151980256Y-72972261D01*
X151870818Y-73091143D01*
X151811836Y-73155215D01*
X151766499Y-73224607D01*
X151675825Y-73363395D01*
X151617590Y-73496159D01*
X151575937Y-73591119D01*
X151522737Y-73801199D01*
X151514891Y-73832183D01*
X151494356Y-74080000D01*
X151514891Y-74327816D01*
X151514891Y-74327819D01*
X151514892Y-74327821D01*
X151575937Y-74568881D01*
X151602881Y-74630306D01*
X151675825Y-74796604D01*
X151675827Y-74796607D01*
X151811836Y-75004785D01*
X151980256Y-75187738D01*
X151980259Y-75187740D01*
X152176485Y-75340470D01*
X152176487Y-75340471D01*
X152176491Y-75340474D01*
X152395190Y-75458828D01*
X152630386Y-75539571D01*
X152875665Y-75580500D01*
X153124335Y-75580500D01*
X153369614Y-75539571D01*
X153604810Y-75458828D01*
X153814324Y-75345444D01*
X153873340Y-75330500D01*
X154337027Y-75330500D01*
X154350911Y-75331280D01*
X154386039Y-75335238D01*
X154386039Y-75335237D01*
X154386040Y-75335238D01*
X154452147Y-75330780D01*
X154460487Y-75330500D01*
X154467593Y-75330500D01*
X154470368Y-75330500D01*
X154473144Y-75330250D01*
X154473146Y-75330250D01*
X154510975Y-75326845D01*
X154513718Y-75326628D01*
X154610625Y-75320096D01*
X154614865Y-75319027D01*
X154634050Y-75315768D01*
X154638401Y-75315377D01*
X154732069Y-75289525D01*
X154734679Y-75288836D01*
X154828896Y-75265096D01*
X154832871Y-75263290D01*
X154851174Y-75256655D01*
X154855380Y-75255494D01*
X154855380Y-75255493D01*
X154855383Y-75255493D01*
X154942952Y-75213321D01*
X154945378Y-75212187D01*
X155033839Y-75172007D01*
X155037422Y-75169524D01*
X155054252Y-75159723D01*
X155058186Y-75157829D01*
X155136821Y-75100696D01*
X155138994Y-75099155D01*
X155218867Y-75043820D01*
X155221953Y-75040732D01*
X155236756Y-75028089D01*
X155240291Y-75025522D01*
X155307452Y-74955275D01*
X155309309Y-74953376D01*
X159387439Y-70875246D01*
X159448760Y-70841763D01*
X159518452Y-70846747D01*
X159574385Y-70888619D01*
X159598694Y-70952689D01*
X159609891Y-71087816D01*
X159609891Y-71087819D01*
X159609892Y-71087821D01*
X159670937Y-71328881D01*
X159699428Y-71393833D01*
X159770825Y-71556604D01*
X159770827Y-71556607D01*
X159906836Y-71764785D01*
X160008238Y-71874937D01*
X160075256Y-71947738D01*
X160158008Y-72012147D01*
X160198821Y-72068858D01*
X160202494Y-72138631D01*
X160167863Y-72199314D01*
X160158008Y-72207853D01*
X160075256Y-72272261D01*
X159965590Y-72391391D01*
X159906836Y-72455215D01*
X159880482Y-72495553D01*
X159770825Y-72663395D01*
X159697097Y-72831480D01*
X159670937Y-72891119D01*
X159623283Y-73079301D01*
X159609891Y-73132183D01*
X159589356Y-73380000D01*
X159609891Y-73627816D01*
X159609891Y-73627819D01*
X159609892Y-73627821D01*
X159670937Y-73868881D01*
X159691198Y-73915071D01*
X159770825Y-74096604D01*
X159770827Y-74096607D01*
X159906836Y-74304785D01*
X160050951Y-74461336D01*
X160075256Y-74487738D01*
X160178744Y-74568286D01*
X160219557Y-74624996D01*
X160226343Y-74673823D01*
X160224941Y-74696389D01*
X161050597Y-75522046D01*
X160969852Y-75534835D01*
X160856955Y-75592359D01*
X160767359Y-75681955D01*
X160709835Y-75794852D01*
X160697046Y-75875598D01*
X159871564Y-75050116D01*
X159771266Y-75203634D01*
X159671413Y-75431278D01*
X159610386Y-75672267D01*
X159589858Y-75919999D01*
X159610386Y-76167732D01*
X159671413Y-76408721D01*
X159771268Y-76636370D01*
X159871563Y-76789882D01*
X159871564Y-76789882D01*
X160697046Y-75964400D01*
X160709835Y-76045148D01*
X160767359Y-76158045D01*
X160856955Y-76247641D01*
X160969852Y-76305165D01*
X161050599Y-76317953D01*
X160224942Y-77143610D01*
X160226343Y-77166178D01*
X160210850Y-77234308D01*
X160178744Y-77271714D01*
X160075256Y-77352261D01*
X160011250Y-77421791D01*
X159906836Y-77535215D01*
X159862759Y-77602680D01*
X159770825Y-77743395D01*
X159681278Y-77947543D01*
X159670937Y-77971119D01*
X159609892Y-78212179D01*
X159609891Y-78212183D01*
X159589356Y-78459999D01*
X159609891Y-78707816D01*
X159609891Y-78707819D01*
X159609892Y-78707821D01*
X159670937Y-78948881D01*
X159698237Y-79011118D01*
X159770825Y-79176604D01*
X159770827Y-79176607D01*
X159906836Y-79384785D01*
X160024081Y-79512147D01*
X160075256Y-79567738D01*
X160158008Y-79632147D01*
X160198821Y-79688858D01*
X160202494Y-79758631D01*
X160167863Y-79819314D01*
X160158008Y-79827853D01*
X160075256Y-79892261D01*
X159906837Y-80075214D01*
X159770825Y-80283395D01*
X159706688Y-80429614D01*
X159670937Y-80511119D01*
X159632912Y-80661275D01*
X159609891Y-80752183D01*
X159589356Y-81000000D01*
X159609891Y-81247816D01*
X159609891Y-81247819D01*
X159609892Y-81247821D01*
X159670937Y-81488881D01*
X159715960Y-81591523D01*
X159770825Y-81716604D01*
X159770827Y-81716607D01*
X159906836Y-81924785D01*
X160024081Y-82052147D01*
X160075256Y-82107738D01*
X160158008Y-82172147D01*
X160198821Y-82228858D01*
X160202494Y-82298631D01*
X160167863Y-82359314D01*
X160158008Y-82367853D01*
X160075256Y-82432261D01*
X159953213Y-82564836D01*
X159906836Y-82615215D01*
X159880619Y-82655344D01*
X159770825Y-82823395D01*
X159685100Y-83018830D01*
X159670937Y-83051119D01*
X159624166Y-83235812D01*
X159609891Y-83292183D01*
X159589356Y-83540000D01*
X159609891Y-83787816D01*
X159609891Y-83787819D01*
X159609892Y-83787821D01*
X159670937Y-84028881D01*
X159691764Y-84076362D01*
X159770825Y-84256604D01*
X159770827Y-84256607D01*
X159906836Y-84464785D01*
X160031943Y-84600687D01*
X160075256Y-84647738D01*
X160158008Y-84712147D01*
X160198821Y-84768858D01*
X160202494Y-84838631D01*
X160167863Y-84899314D01*
X160158008Y-84907853D01*
X160075256Y-84972261D01*
X160007171Y-85046222D01*
X159906836Y-85155215D01*
X159875984Y-85202438D01*
X159770825Y-85363395D01*
X159688033Y-85552143D01*
X159670937Y-85591119D01*
X159609892Y-85832179D01*
X159609891Y-85832183D01*
X159589356Y-86080000D01*
X159609891Y-86327816D01*
X159609891Y-86327819D01*
X159609892Y-86327821D01*
X159670937Y-86568881D01*
X159705242Y-86647088D01*
X159770825Y-86796604D01*
X159770827Y-86796607D01*
X159906836Y-87004785D01*
X160024081Y-87132147D01*
X160075256Y-87187738D01*
X160158008Y-87252147D01*
X160198821Y-87308858D01*
X160202494Y-87378631D01*
X160167863Y-87439314D01*
X160158008Y-87447853D01*
X160125246Y-87473353D01*
X160060252Y-87498996D01*
X160049083Y-87499500D01*
X158672890Y-87499500D01*
X158605851Y-87479815D01*
X158585209Y-87463181D01*
X150536819Y-79414790D01*
X150503334Y-79353467D01*
X150500500Y-79327109D01*
X150500500Y-76067189D01*
X150500924Y-76056948D01*
X150503194Y-76029560D01*
X150505643Y-76000000D01*
X150500923Y-75943049D01*
X150500500Y-75932809D01*
X150500500Y-70624500D01*
X150520185Y-70557461D01*
X150572989Y-70511706D01*
X150624500Y-70500500D01*
X151657651Y-70500500D01*
X151724690Y-70520185D01*
G37*
%TD.AperFunction*%
%TA.AperFunction,Conductor*%
G36*
X167052245Y-79824727D02*
G01*
X167072887Y-79841361D01*
X171173181Y-83941654D01*
X171206666Y-84002977D01*
X171209500Y-84029335D01*
X171209500Y-89094666D01*
X171189815Y-89161705D01*
X171137011Y-89207460D01*
X171067853Y-89217404D01*
X171004297Y-89188379D01*
X170983926Y-89165791D01*
X170958108Y-89128920D01*
X170791081Y-88961893D01*
X170597576Y-88826399D01*
X170383492Y-88726569D01*
X170170000Y-88669364D01*
X170170000Y-89564498D01*
X170062315Y-89515320D01*
X169955763Y-89500000D01*
X169884237Y-89500000D01*
X169777685Y-89515320D01*
X169670000Y-89564498D01*
X169670000Y-88669364D01*
X169669999Y-88669364D01*
X169456507Y-88726569D01*
X169242421Y-88826400D01*
X169048924Y-88961888D01*
X168926865Y-89083947D01*
X168865542Y-89117431D01*
X168795850Y-89112447D01*
X168739917Y-89070575D01*
X168723002Y-89039598D01*
X168713766Y-89014834D01*
X168673796Y-88907669D01*
X168587546Y-88792454D01*
X168472331Y-88706204D01*
X168337483Y-88655909D01*
X168277873Y-88649500D01*
X168274550Y-88649500D01*
X166485439Y-88649500D01*
X166485420Y-88649500D01*
X166482128Y-88649501D01*
X166478848Y-88649853D01*
X166478840Y-88649854D01*
X166422515Y-88655909D01*
X166287669Y-88706204D01*
X166172454Y-88792454D01*
X166147369Y-88825964D01*
X166086203Y-88907671D01*
X166082039Y-88918835D01*
X166040167Y-88974768D01*
X165974702Y-88999184D01*
X165965858Y-88999500D01*
X164014279Y-88999500D01*
X164011137Y-88999460D01*
X163923637Y-88997242D01*
X163865580Y-89007648D01*
X163856251Y-89008957D01*
X163798466Y-89014834D01*
X163729779Y-89002033D01*
X163678916Y-88954130D01*
X163662025Y-88886332D01*
X163684471Y-88820166D01*
X163698232Y-88803795D01*
X166484902Y-86017126D01*
X166605366Y-85874894D01*
X166732656Y-85661274D01*
X166823049Y-85429614D01*
X166874080Y-85186237D01*
X166884357Y-84937779D01*
X166853598Y-84691019D01*
X166782644Y-84452687D01*
X166673429Y-84229284D01*
X166528932Y-84026904D01*
X166528930Y-84026901D01*
X166353098Y-83851069D01*
X166150716Y-83706571D01*
X165927311Y-83597355D01*
X165688981Y-83526402D01*
X165442219Y-83495642D01*
X165202906Y-83505541D01*
X165193763Y-83505920D01*
X164950386Y-83556951D01*
X164950383Y-83556951D01*
X164950383Y-83556952D01*
X164718729Y-83647342D01*
X164505106Y-83774634D01*
X164364824Y-83893446D01*
X164364818Y-83893451D01*
X164362874Y-83895098D01*
X164361072Y-83896899D01*
X164361060Y-83896911D01*
X162692456Y-85565514D01*
X162631133Y-85598999D01*
X162561441Y-85594015D01*
X162505508Y-85552143D01*
X162491219Y-85527642D01*
X162485615Y-85514867D01*
X162419173Y-85363393D01*
X162283164Y-85155215D01*
X162114744Y-84972262D01*
X162070442Y-84937780D01*
X162031992Y-84907853D01*
X161991179Y-84851143D01*
X161987504Y-84781370D01*
X162022136Y-84720687D01*
X162031992Y-84712147D01*
X162072570Y-84680563D01*
X162114744Y-84647738D01*
X162283164Y-84464785D01*
X162419173Y-84256607D01*
X162519063Y-84028881D01*
X162580108Y-83787821D01*
X162600643Y-83540000D01*
X162580108Y-83292179D01*
X162519063Y-83051119D01*
X162419173Y-82823393D01*
X162283164Y-82615215D01*
X162114744Y-82432262D01*
X162098437Y-82419570D01*
X162031992Y-82367853D01*
X161991179Y-82311143D01*
X161987504Y-82241370D01*
X162022136Y-82180687D01*
X162031992Y-82172147D01*
X162060446Y-82150000D01*
X162114744Y-82107738D01*
X162283164Y-81924785D01*
X162419173Y-81716607D01*
X162519063Y-81488881D01*
X162580108Y-81247821D01*
X162600643Y-81000000D01*
X162580108Y-80752179D01*
X162519063Y-80511119D01*
X162419173Y-80283393D01*
X162283164Y-80075215D01*
X162225913Y-80013024D01*
X162194992Y-79950370D01*
X162202852Y-79880944D01*
X162247000Y-79826789D01*
X162313417Y-79805098D01*
X162317144Y-79805042D01*
X166985206Y-79805042D01*
X167052245Y-79824727D01*
G37*
%TD.AperFunction*%
%TA.AperFunction,Conductor*%
G36*
X158112773Y-61950185D02*
G01*
X158158528Y-62002989D01*
X158168472Y-62072147D01*
X158139447Y-62135703D01*
X158118617Y-62154820D01*
X158057409Y-62199288D01*
X158055143Y-62200895D01*
X157975342Y-62256182D01*
X157972239Y-62259285D01*
X157957464Y-62271904D01*
X157953921Y-62274478D01*
X157886803Y-62344677D01*
X157884859Y-62346665D01*
X155170343Y-65061181D01*
X155159980Y-65070443D01*
X155132335Y-65092491D01*
X155088736Y-65142391D01*
X155083052Y-65148472D01*
X155078024Y-65153501D01*
X155078015Y-65153510D01*
X155076055Y-65155471D01*
X155074280Y-65157596D01*
X155074269Y-65157609D01*
X155049929Y-65186763D01*
X155048124Y-65188876D01*
X154984235Y-65262003D01*
X154981986Y-65265767D01*
X154970739Y-65281617D01*
X154967932Y-65284979D01*
X154919978Y-65369490D01*
X154918604Y-65371849D01*
X154878171Y-65439526D01*
X154868782Y-65455241D01*
X154867246Y-65459335D01*
X154859009Y-65476944D01*
X154856847Y-65480753D01*
X154824762Y-65572444D01*
X154823814Y-65575057D01*
X154789691Y-65665978D01*
X154788910Y-65670282D01*
X154783950Y-65689077D01*
X154782501Y-65693217D01*
X154767304Y-65789166D01*
X154766838Y-65791907D01*
X154749500Y-65887450D01*
X154749500Y-65891829D01*
X154747973Y-65911227D01*
X154747290Y-65915537D01*
X154749469Y-66012639D01*
X154749500Y-66015421D01*
X154749500Y-66410930D01*
X154734759Y-66461130D01*
X154746956Y-66484078D01*
X154749500Y-66509069D01*
X154749500Y-68430663D01*
X154729815Y-68497702D01*
X154713181Y-68518344D01*
X154638257Y-68593268D01*
X154576934Y-68626753D01*
X154507242Y-68621769D01*
X154451309Y-68579897D01*
X154430370Y-68536027D01*
X154424063Y-68511119D01*
X154401105Y-68458782D01*
X154397389Y-68449261D01*
X154378828Y-68395190D01*
X154372001Y-68382575D01*
X154351623Y-68344920D01*
X154347126Y-68335723D01*
X154324173Y-68283393D01*
X154292911Y-68235544D01*
X154287676Y-68226757D01*
X154260474Y-68176491D01*
X154225369Y-68131388D01*
X154219416Y-68123050D01*
X154188165Y-68075216D01*
X154166961Y-68052183D01*
X154149458Y-68033169D01*
X154142843Y-68025358D01*
X154107739Y-67980257D01*
X154086249Y-67960474D01*
X154065685Y-67941543D01*
X154058455Y-67934313D01*
X154019744Y-67892262D01*
X153974646Y-67857160D01*
X153966826Y-67850537D01*
X153917226Y-67804877D01*
X153918104Y-67803922D01*
X153879594Y-67758799D01*
X153869010Y-67700450D01*
X153870055Y-67683608D01*
X153044400Y-66857953D01*
X153125148Y-66845165D01*
X153238045Y-66787641D01*
X153327641Y-66698045D01*
X153385165Y-66585148D01*
X153397953Y-66504401D01*
X154223434Y-67329882D01*
X154323730Y-67176369D01*
X154423586Y-66948721D01*
X154484613Y-66707732D01*
X154501924Y-66498829D01*
X154516419Y-66461263D01*
X154506523Y-66445865D01*
X154501924Y-66421170D01*
X154484613Y-66212267D01*
X154423586Y-65971278D01*
X154323730Y-65743630D01*
X154223434Y-65590116D01*
X153397953Y-66415598D01*
X153385165Y-66334852D01*
X153327641Y-66221955D01*
X153238045Y-66132359D01*
X153125148Y-66074835D01*
X153044401Y-66062046D01*
X153899628Y-65206819D01*
X153960951Y-65173334D01*
X153987309Y-65170500D01*
X154002814Y-65170500D01*
X154016698Y-65171280D01*
X154051826Y-65175238D01*
X154051826Y-65175237D01*
X154051827Y-65175238D01*
X154117934Y-65170780D01*
X154126274Y-65170500D01*
X154133380Y-65170500D01*
X154136155Y-65170500D01*
X154138931Y-65170250D01*
X154138933Y-65170250D01*
X154176762Y-65166845D01*
X154179505Y-65166628D01*
X154276412Y-65160096D01*
X154280652Y-65159027D01*
X154299837Y-65155768D01*
X154304188Y-65155377D01*
X154397856Y-65129525D01*
X154400466Y-65128836D01*
X154494683Y-65105096D01*
X154498658Y-65103290D01*
X154516961Y-65096655D01*
X154521167Y-65095494D01*
X154521167Y-65095493D01*
X154521170Y-65095493D01*
X154608739Y-65053321D01*
X154611165Y-65052187D01*
X154699626Y-65012007D01*
X154703209Y-65009524D01*
X154720039Y-64999723D01*
X154723973Y-64997829D01*
X154802608Y-64940696D01*
X154804781Y-64939155D01*
X154884654Y-64883820D01*
X154887740Y-64880732D01*
X154902543Y-64868089D01*
X154906078Y-64865522D01*
X154973239Y-64795275D01*
X154975096Y-64793376D01*
X157801654Y-61966819D01*
X157862978Y-61933334D01*
X157889336Y-61930500D01*
X158045734Y-61930500D01*
X158112773Y-61950185D01*
G37*
%TD.AperFunction*%
%TA.AperFunction,Conductor*%
G36*
X141934927Y-52512835D02*
G01*
X141984332Y-52562240D01*
X141999500Y-52621667D01*
X141999500Y-56074217D01*
X141979815Y-56141256D01*
X141963181Y-56161898D01*
X138041899Y-60083181D01*
X137980576Y-60116666D01*
X137954218Y-60119500D01*
X137795665Y-60119500D01*
X137550384Y-60160429D01*
X137315194Y-60241170D01*
X137315190Y-60241171D01*
X137315190Y-60241172D01*
X137241088Y-60281274D01*
X137096489Y-60359527D01*
X136957633Y-60467603D01*
X136892639Y-60493245D01*
X136824099Y-60479678D01*
X136773774Y-60431210D01*
X136757471Y-60369749D01*
X136757471Y-54584146D01*
X136758251Y-54570261D01*
X136759947Y-54555214D01*
X136762208Y-54535143D01*
X136757752Y-54469046D01*
X136757471Y-54460705D01*
X136757471Y-54453592D01*
X136757471Y-54450816D01*
X136753814Y-54410186D01*
X136753597Y-54407423D01*
X136747067Y-54310558D01*
X136745998Y-54306316D01*
X136742739Y-54287128D01*
X136742348Y-54282783D01*
X136716505Y-54189144D01*
X136715811Y-54186518D01*
X136692067Y-54092287D01*
X136690261Y-54088311D01*
X136683626Y-54070011D01*
X136682464Y-54065801D01*
X136640317Y-53978282D01*
X136639160Y-53975810D01*
X136600659Y-53891045D01*
X136598979Y-53887346D01*
X136598033Y-53885981D01*
X136596488Y-53883751D01*
X136586695Y-53866933D01*
X136584801Y-53863000D01*
X136584800Y-53862998D01*
X136527675Y-53784373D01*
X136526134Y-53782200D01*
X136470791Y-53702316D01*
X136470790Y-53702315D01*
X136465802Y-53695115D01*
X136443806Y-53628798D01*
X136461155Y-53561116D01*
X136512341Y-53513559D01*
X136567731Y-53500500D01*
X138875278Y-53500500D01*
X138942317Y-53520185D01*
X138949588Y-53525233D01*
X138996987Y-53560715D01*
X139019465Y-53572989D01*
X139229311Y-53687574D01*
X139477322Y-53780077D01*
X139477325Y-53780077D01*
X139477326Y-53780078D01*
X139525667Y-53790593D01*
X139735974Y-53836343D01*
X140000000Y-53855227D01*
X140264026Y-53836343D01*
X140522678Y-53780077D01*
X140770689Y-53687574D01*
X141003011Y-53560716D01*
X141214915Y-53402087D01*
X141402087Y-53214915D01*
X141560716Y-53003011D01*
X141687574Y-52770689D01*
X141759318Y-52578332D01*
X141801189Y-52522400D01*
X141866654Y-52497983D01*
X141934927Y-52512835D01*
G37*
%TD.AperFunction*%
%TA.AperFunction,Conductor*%
G36*
X185414835Y-42905148D02*
G01*
X185472359Y-43018045D01*
X185561955Y-43107641D01*
X185674852Y-43165165D01*
X185755599Y-43177953D01*
X184929942Y-44003610D01*
X184931343Y-44026178D01*
X184915850Y-44094308D01*
X184883744Y-44131714D01*
X184780256Y-44212261D01*
X184671288Y-44330633D01*
X184611836Y-44395215D01*
X184610939Y-44396588D01*
X184475825Y-44603395D01*
X184375938Y-44831117D01*
X184314891Y-45072183D01*
X184294356Y-45320000D01*
X184314891Y-45567816D01*
X184314891Y-45567819D01*
X184314892Y-45567821D01*
X184375937Y-45808881D01*
X184420960Y-45911523D01*
X184475825Y-46036604D01*
X184475827Y-46036607D01*
X184611836Y-46244785D01*
X184722304Y-46364785D01*
X184780256Y-46427738D01*
X184863008Y-46492147D01*
X184903821Y-46548858D01*
X184907494Y-46618631D01*
X184872863Y-46679314D01*
X184863008Y-46687853D01*
X184780256Y-46752261D01*
X184669791Y-46872259D01*
X184611836Y-46935215D01*
X184579262Y-46985074D01*
X184475825Y-47143395D01*
X184393348Y-47331425D01*
X184375937Y-47371119D01*
X184324433Y-47574502D01*
X184314891Y-47612183D01*
X184294356Y-47860000D01*
X184314891Y-48107816D01*
X184314891Y-48107819D01*
X184314892Y-48107821D01*
X184375937Y-48348881D01*
X184420960Y-48451523D01*
X184475825Y-48576604D01*
X184475827Y-48576607D01*
X184611836Y-48784785D01*
X184726548Y-48909395D01*
X184780256Y-48967738D01*
X184863008Y-49032147D01*
X184903821Y-49088858D01*
X184907494Y-49158631D01*
X184872863Y-49219314D01*
X184863008Y-49227853D01*
X184780256Y-49292261D01*
X184690395Y-49389877D01*
X184611836Y-49475215D01*
X184605357Y-49485132D01*
X184475825Y-49683395D01*
X184425747Y-49797563D01*
X184375937Y-49911119D01*
X184352262Y-50004609D01*
X184314891Y-50152183D01*
X184294356Y-50400000D01*
X184314891Y-50647816D01*
X184314891Y-50647819D01*
X184314892Y-50647821D01*
X184375937Y-50888881D01*
X184398573Y-50940486D01*
X184475825Y-51116604D01*
X184475827Y-51116607D01*
X184611836Y-51324785D01*
X184780256Y-51507738D01*
X184863008Y-51572146D01*
X184903820Y-51628856D01*
X184907495Y-51698629D01*
X184872863Y-51759312D01*
X184863009Y-51767851D01*
X184780257Y-51832260D01*
X184611837Y-52015214D01*
X184475825Y-52223395D01*
X184388191Y-52423183D01*
X184375937Y-52451119D01*
X184329240Y-52635519D01*
X184314891Y-52692183D01*
X184294356Y-52939999D01*
X184314891Y-53187816D01*
X184314891Y-53187819D01*
X184314892Y-53187821D01*
X184375937Y-53428881D01*
X184401754Y-53487738D01*
X184475825Y-53656604D01*
X184475827Y-53656607D01*
X184611836Y-53864785D01*
X184722304Y-53984785D01*
X184780256Y-54047738D01*
X184863008Y-54112147D01*
X184903821Y-54168858D01*
X184907494Y-54238631D01*
X184872863Y-54299314D01*
X184863008Y-54307853D01*
X184780256Y-54372261D01*
X184694996Y-54464879D01*
X184611836Y-54555215D01*
X184592935Y-54584146D01*
X184475825Y-54763395D01*
X184423190Y-54883393D01*
X184375937Y-54991119D01*
X184354365Y-55076306D01*
X184314891Y-55232183D01*
X184294356Y-55479999D01*
X184314891Y-55727816D01*
X184314891Y-55727819D01*
X184314892Y-55727821D01*
X184375937Y-55968881D01*
X184420960Y-56071523D01*
X184475825Y-56196604D01*
X184475827Y-56196607D01*
X184611836Y-56404785D01*
X184670652Y-56468676D01*
X184780256Y-56587738D01*
X184883744Y-56668286D01*
X184924557Y-56724996D01*
X184931343Y-56773823D01*
X184929941Y-56796389D01*
X185755599Y-57622046D01*
X185674852Y-57634835D01*
X185561955Y-57692359D01*
X185472359Y-57781955D01*
X185414835Y-57894852D01*
X185402046Y-57975598D01*
X184576564Y-57150116D01*
X184476266Y-57303634D01*
X184376413Y-57531278D01*
X184315386Y-57772267D01*
X184294858Y-58019999D01*
X184315386Y-58267732D01*
X184376413Y-58508721D01*
X184476268Y-58736370D01*
X184576563Y-58889882D01*
X184576564Y-58889882D01*
X185402046Y-58064400D01*
X185414835Y-58145148D01*
X185472359Y-58258045D01*
X185561955Y-58347641D01*
X185674852Y-58405165D01*
X185755599Y-58417953D01*
X184929942Y-59243610D01*
X184931343Y-59266178D01*
X184915850Y-59334308D01*
X184883744Y-59371714D01*
X184780256Y-59452261D01*
X184718375Y-59519483D01*
X184658488Y-59555473D01*
X184627145Y-59559500D01*
X179025783Y-59559500D01*
X178958744Y-59539815D01*
X178938102Y-59523181D01*
X173436981Y-54022060D01*
X173403496Y-53960737D01*
X173408480Y-53891045D01*
X173450352Y-53835112D01*
X173515816Y-53810695D01*
X173564923Y-53817097D01*
X173630386Y-53839571D01*
X173875665Y-53880500D01*
X174124335Y-53880500D01*
X174369614Y-53839571D01*
X174604810Y-53758828D01*
X174823509Y-53640474D01*
X175019744Y-53487738D01*
X175188164Y-53304785D01*
X175324173Y-53096607D01*
X175424063Y-52868881D01*
X175485108Y-52627821D01*
X175500500Y-52442067D01*
X175500500Y-51672889D01*
X175520185Y-51605850D01*
X175536814Y-51585213D01*
X184116401Y-43005626D01*
X184177720Y-42972144D01*
X184247412Y-42977128D01*
X184303345Y-43019000D01*
X184324284Y-43062869D01*
X184376413Y-43268721D01*
X184476268Y-43496370D01*
X184576563Y-43649882D01*
X184576564Y-43649882D01*
X185402046Y-42824399D01*
X185414835Y-42905148D01*
G37*
%TD.AperFunction*%
%TD*%
M02*
