%TF.GenerationSoftware,KiCad,Pcbnew,7.0.2*%
%TF.CreationDate,2023-08-19T23:37:56-03:00*%
%TF.ProjectId,Placa v1.1,506c6163-6120-4763-912e-312e6b696361,rev?*%
%TF.SameCoordinates,Original*%
%TF.FileFunction,Copper,L1,Top*%
%TF.FilePolarity,Positive*%
%FSLAX46Y46*%
G04 Gerber Fmt 4.6, Leading zero omitted, Abs format (unit mm)*
G04 Created by KiCad (PCBNEW 7.0.2) date 2023-08-19 23:37:56*
%MOMM*%
%LPD*%
G01*
G04 APERTURE LIST*
%TA.AperFunction,ComponentPad*%
%ADD10R,1.800000X1.800000*%
%TD*%
%TA.AperFunction,ComponentPad*%
%ADD11C,1.800000*%
%TD*%
%TA.AperFunction,ComponentPad*%
%ADD12C,2.700000*%
%TD*%
%TA.AperFunction,ComponentPad*%
%ADD13R,1.600000X1.600000*%
%TD*%
%TA.AperFunction,ComponentPad*%
%ADD14O,1.600000X1.600000*%
%TD*%
%TA.AperFunction,ComponentPad*%
%ADD15C,1.600000*%
%TD*%
%TA.AperFunction,ComponentPad*%
%ADD16C,2.000000*%
%TD*%
%TA.AperFunction,ComponentPad*%
%ADD17R,1.700000X1.700000*%
%TD*%
%TA.AperFunction,ComponentPad*%
%ADD18O,1.700000X1.700000*%
%TD*%
%TA.AperFunction,SMDPad,CuDef*%
%ADD19R,2.000000X1.500000*%
%TD*%
%TA.AperFunction,SMDPad,CuDef*%
%ADD20R,2.000000X3.800000*%
%TD*%
%TA.AperFunction,ComponentPad*%
%ADD21R,3.000000X3.000000*%
%TD*%
%TA.AperFunction,ComponentPad*%
%ADD22C,3.000000*%
%TD*%
%TA.AperFunction,ComponentPad*%
%ADD23R,2.000000X2.000000*%
%TD*%
%TA.AperFunction,ViaPad*%
%ADD24C,1.500000*%
%TD*%
%TA.AperFunction,ViaPad*%
%ADD25C,2.000000*%
%TD*%
%TA.AperFunction,Conductor*%
%ADD26C,2.000000*%
%TD*%
%TA.AperFunction,Conductor*%
%ADD27C,1.500000*%
%TD*%
%TA.AperFunction,Conductor*%
%ADD28C,1.000000*%
%TD*%
G04 APERTURE END LIST*
D10*
%TO.P,D2,1,K*%
%TO.N,Earth*%
X190000000Y-43000000D03*
D11*
%TO.P,D2,2,A*%
%TO.N,Net-(D2-A)*%
X190000000Y-40460000D03*
%TD*%
D10*
%TO.P,D4,1,K*%
%TO.N,Earth*%
X189489565Y-85273763D03*
D11*
%TO.P,D4,2,A*%
%TO.N,Net-(D4-A)*%
X189489565Y-87813763D03*
%TD*%
D12*
%TO.P,FUS\u00CDVEL,A1,A1*%
%TO.N,7.4V*%
X133000000Y-52000000D03*
%TO.P,FUS\u00CDVEL,A2,A2*%
X140000000Y-52000000D03*
%TO.P,FUS\u00CDVEL,A3,A3*%
X149000000Y-52000000D03*
%TO.P,FUS\u00CDVEL,A4,A4*%
X156000000Y-52000000D03*
%TD*%
D13*
%TO.P,B1,1,1*%
%TO.N,7.4V*%
X132232500Y-80000000D03*
D14*
%TO.P,B1,2,2*%
%TO.N,Net-(J1-Pin_1)*%
X139852500Y-80000000D03*
%TD*%
D15*
%TO.P,R2,1*%
%TO.N,3v3*%
X132000000Y-44380000D03*
D14*
%TO.P,R2,2*%
%TO.N,Net-(D3-A)*%
X132000000Y-59620000D03*
%TD*%
D16*
%TO.P,U3,A0,3V3*%
%TO.N,unconnected-(U3-3V3-PadA0)*%
X161095000Y-42900000D03*
%TO.P,U3,A1,EN*%
%TO.N,unconnected-(U3-EN-PadA1)*%
X161095000Y-45440000D03*
%TO.P,U3,A2,SP*%
%TO.N,unconnected-(U3-SP-PadA2)*%
X161095000Y-47980000D03*
%TO.P,U3,A3,SN*%
%TO.N,unconnected-(U3-SN-PadA3)*%
X161095000Y-50520000D03*
%TO.P,U3,A4,G34*%
%TO.N,unconnected-(U3-G34-PadA4)*%
X161095000Y-53060000D03*
%TO.P,U3,A5,G35*%
%TO.N,unconnected-(U3-G35-PadA5)*%
X161095000Y-55600000D03*
%TO.P,U3,A6,G32*%
%TO.N,IN4*%
X161095000Y-58140000D03*
%TO.P,U3,A7,G33*%
%TO.N,IN3*%
X161095000Y-60680000D03*
%TO.P,U3,A8,G25*%
%TO.N,IN2*%
X161095000Y-63220000D03*
%TO.P,U3,A9,G26*%
%TO.N,IN1*%
X161095000Y-65760000D03*
%TO.P,U3,A10,G27*%
%TO.N,unconnected-(U3-G27-PadA10)*%
X161095000Y-68300000D03*
%TO.P,U3,A11,G14*%
%TO.N,unconnected-(U3-G14-PadA11)*%
X161095000Y-70840000D03*
%TO.P,U3,A12,G12*%
%TO.N,unconnected-(U3-G12-PadA12)*%
X161095000Y-73380000D03*
%TO.P,U3,A13,GND*%
%TO.N,Earth*%
X161095000Y-75920000D03*
%TO.P,U3,A14,G13*%
%TO.N,C2_2*%
X161095000Y-78460000D03*
%TO.P,U3,A15,SD2*%
%TO.N,unconnected-(U3-SD2-PadA15)*%
X161095000Y-81000000D03*
%TO.P,U3,A16,SD3*%
%TO.N,unconnected-(U3-SD3-PadA16)*%
X161095000Y-83540000D03*
%TO.P,U3,A17,CMD*%
%TO.N,unconnected-(U3-CMD-PadA17)*%
X161095000Y-86080000D03*
%TO.P,U3,A18,5V*%
%TO.N,7.4V*%
X161095000Y-88620000D03*
%TO.P,U3,A19,GND*%
%TO.N,Earth*%
X185800000Y-42780000D03*
%TO.P,U3,A20,G23*%
%TO.N,unconnected-(U3-G23-PadA20)*%
X185800000Y-45320000D03*
%TO.P,U3,A21,G22*%
%TO.N,SCL*%
X185800000Y-47860000D03*
%TO.P,U3,A22,TXD*%
%TO.N,unconnected-(U3-TXD-PadA22)*%
X185800000Y-50400000D03*
%TO.P,U3,A23,RXD*%
%TO.N,unconnected-(U3-RXD-PadA23)*%
X185800000Y-52940000D03*
%TO.P,U3,A24,G21*%
%TO.N,SDA*%
X185800000Y-55480000D03*
%TO.P,U3,A25,GND*%
%TO.N,Earth*%
X185800000Y-58020000D03*
%TO.P,U3,A26,G19*%
%TO.N,C2_1*%
X185800000Y-60560000D03*
%TO.P,U3,A27,G18*%
%TO.N,C1_2*%
X185800000Y-63100000D03*
%TO.P,U3,A28,G5*%
%TO.N,C1_1*%
X185800000Y-65640000D03*
%TO.P,U3,A29,G17*%
%TO.N,unconnected-(U3-G17-PadA29)*%
X185800000Y-68180000D03*
%TO.P,U3,A30,G16*%
%TO.N,unconnected-(U3-G16-PadA30)*%
X185800000Y-70720000D03*
%TO.P,U3,A31,G4*%
%TO.N,LED*%
X185800000Y-73260000D03*
%TO.P,U3,A32,G0*%
%TO.N,unconnected-(U3-G0-PadA32)*%
X185800000Y-75800000D03*
%TO.P,U3,A33,G2*%
%TO.N,unconnected-(U3-G2-PadA33)*%
X185800000Y-78340000D03*
%TO.P,U3,A34,G15*%
%TO.N,unconnected-(U3-G15-PadA34)*%
X185800000Y-80880000D03*
%TO.P,U3,A35,SD1*%
%TO.N,unconnected-(U3-SD1-PadA35)*%
X185800000Y-83420000D03*
%TO.P,U3,A36,SD0*%
%TO.N,unconnected-(U3-SD0-PadA36)*%
X185800000Y-85960000D03*
%TO.P,U3,A37,CLK*%
%TO.N,unconnected-(U3-CLK-PadA37)*%
X185800000Y-88500000D03*
%TD*%
D17*
%TO.P,MOTOR2,1,Pin_1*%
%TO.N,SAIDA 4 PONTE H *%
X167380000Y-90000000D03*
D18*
%TO.P,MOTOR2,2,Pin_2*%
%TO.N,Earth*%
X169920000Y-90000000D03*
%TO.P,MOTOR2,3,Pin_3*%
%TO.N,C2_2*%
X172460000Y-90000000D03*
%TO.P,MOTOR2,4,Pin_4*%
%TO.N,C1_2*%
X175000000Y-90000000D03*
%TO.P,MOTOR2,5,Pin_5*%
%TO.N,3v3*%
X177540000Y-90000000D03*
%TO.P,MOTOR2,6,Pin_6*%
%TO.N,SAIDA 3 PONTE H *%
X180080000Y-90000000D03*
%TD*%
D15*
%TO.P,R1,1*%
%TO.N,LED*%
X174000000Y-67620000D03*
D14*
%TO.P,R1,2*%
%TO.N,Net-(D2-A)*%
X174000000Y-52380000D03*
%TD*%
D19*
%TO.P,3V3,1,GND*%
%TO.N,Earth*%
X154000000Y-89000000D03*
%TO.P,3V3,2,VO*%
%TO.N,3v3*%
X154000000Y-86700000D03*
D20*
X147700000Y-86700000D03*
D19*
%TO.P,3V3,3,VI*%
%TO.N,7.4V*%
X154000000Y-84400000D03*
%TD*%
D17*
%TO.P,MOTOR1,1,Pin_1*%
%TO.N,SAIDA 1 PONTE H *%
X139380000Y-43000000D03*
D18*
%TO.P,MOTOR1,2,Pin_2*%
%TO.N,3v3*%
X141920000Y-43000000D03*
%TO.P,MOTOR1,3,Pin_3*%
%TO.N,C1_1*%
X144460000Y-43000000D03*
%TO.P,MOTOR1,4,Pin_4*%
%TO.N,C2_1*%
X147000000Y-43000000D03*
%TO.P,MOTOR1,5,Pin_5*%
%TO.N,Earth*%
X149540000Y-43000000D03*
%TO.P,MOTOR1,6,Pin_6*%
%TO.N,SAIDA 2 PONTE H *%
X152080000Y-43000000D03*
%TD*%
D10*
%TO.P,D3,1,K*%
%TO.N,Earth*%
X131000000Y-63000000D03*
D11*
%TO.P,D3,2,A*%
%TO.N,Net-(D3-A)*%
X133540000Y-63000000D03*
%TD*%
D21*
%TO.P,BATERIA,*%
%TO.N,Net-(J1-Pin_1)*%
X133460000Y-88000000D03*
D22*
%TO.P,BATERIA,2,Pin_2*%
%TO.N,Earth*%
X138540000Y-88000000D03*
%TD*%
D15*
%TO.P,R3,1*%
%TO.N,7.4V*%
X165380000Y-85000000D03*
D14*
%TO.P,R3,2*%
%TO.N,Net-(D4-A)*%
X180620000Y-85000000D03*
%TD*%
D16*
%TO.P,DRV8833,A0,EEP*%
%TO.N,3v3*%
X137920000Y-61620000D03*
%TO.P,DRV8833,A1,OUT1*%
%TO.N,SAIDA 1 PONTE H *%
X137920000Y-64160000D03*
%TO.P,DRV8833,A2,OUT2*%
%TO.N,SAIDA 2 PONTE H *%
X137920000Y-66700000D03*
%TO.P,DRV8833,A3,OUT3*%
%TO.N,SAIDA 4 PONTE H *%
X137920000Y-69240000D03*
%TO.P,DRV8833,A4,OUT4*%
%TO.N,SAIDA 3 PONTE H *%
X137920000Y-71780000D03*
%TO.P,DRV8833,A5,ULT*%
%TO.N,unconnected-(DRV1-ULT-PadA5)*%
X137920000Y-74320000D03*
%TO.P,DRV8833,A6,IN4*%
%TO.N,IN4*%
X153000000Y-61380000D03*
%TO.P,DRV8833,A7,IN3*%
%TO.N,IN3*%
X153000000Y-63920000D03*
%TO.P,DRV8833,A8,GND*%
%TO.N,Earth*%
X153000000Y-66460000D03*
%TO.P,DRV8833,A9,VCC*%
%TO.N,7.4V*%
X153000000Y-69000000D03*
%TO.P,DRV8833,A10,IN2*%
%TO.N,IN2*%
X153000000Y-71540000D03*
%TO.P,DRV8833,A11,IN1*%
%TO.N,IN1*%
X153000000Y-74080000D03*
%TD*%
D23*
%TO.P,MPU6050,A0,VCC*%
%TO.N,3v3*%
X167000000Y-57205000D03*
%TO.P,MPU6050,A1,GND*%
%TO.N,Earth*%
X167000000Y-59745000D03*
%TO.P,MPU6050,A2,SCL*%
%TO.N,SCL*%
X167000000Y-62285000D03*
%TO.P,MPU6050,A3,SDA*%
%TO.N,SDA*%
X167000000Y-64825000D03*
%TO.P,MPU6050,A4,XDA*%
%TO.N,unconnected-(M1-XDA-PadA4)*%
X167000000Y-67365000D03*
%TO.P,MPU6050,A5,XCL*%
%TO.N,unconnected-(M1-XCL-PadA5)*%
X167000000Y-69905000D03*
%TO.P,MPU6050,A6,AD0*%
%TO.N,unconnected-(M1-AD0-PadA6)*%
X167000000Y-72445000D03*
%TO.P,MPU6050,A7,INT*%
%TO.N,unconnected-(M1-INT-PadA7)*%
X167000000Y-74985000D03*
%TD*%
D24*
%TO.N,Earth*%
X170599219Y-60335500D03*
X144000000Y-69000000D03*
X182589354Y-53116603D03*
X144457851Y-60028615D03*
X172287706Y-45197211D03*
X146000000Y-70000000D03*
X179000000Y-78000000D03*
X171000000Y-76000000D03*
X158118883Y-86000000D03*
X190000000Y-54000000D03*
X139000000Y-83000000D03*
X171000000Y-70000000D03*
X180000000Y-80000000D03*
X182524969Y-45841064D03*
X148410389Y-82358365D03*
X171000000Y-73000000D03*
X139356146Y-56670467D03*
X190000000Y-62000000D03*
X155000000Y-77000000D03*
X178000000Y-76000000D03*
X136566117Y-47570677D03*
X190000000Y-72000000D03*
X154446641Y-56683904D03*
X143000000Y-89000000D03*
X168000000Y-86000000D03*
X165000000Y-82000000D03*
X140772623Y-73668186D03*
X149000000Y-55000000D03*
D25*
%TO.N,3v3*%
X134000000Y-41000000D03*
%TO.N,7.4V*%
X149000000Y-76000000D03*
%TD*%
D26*
%TO.N,Net-(J1-Pin_1)*%
X133460000Y-88000000D02*
X133460000Y-83540000D01*
X133460000Y-83540000D02*
X137000000Y-80000000D01*
X137000000Y-80000000D02*
X139852500Y-80000000D01*
D27*
%TO.N,Earth*%
X167399390Y-77550000D02*
X166000000Y-78949390D01*
D28*
X191089565Y-89910435D02*
X189000000Y-92000000D01*
X185000000Y-92000000D02*
X183000000Y-90000000D01*
X183000000Y-90000000D02*
X183000000Y-83000000D01*
X149540000Y-46485306D02*
X148225306Y-47800000D01*
D27*
X169920000Y-84920000D02*
X169920000Y-90000000D01*
D28*
X191089565Y-86873763D02*
X191089565Y-89910435D01*
D27*
X169450000Y-77550000D02*
X167399390Y-77550000D01*
X168360000Y-59745000D02*
X171000000Y-57105000D01*
X171000000Y-76000000D02*
X169450000Y-77550000D01*
X149540000Y-66460000D02*
X146000000Y-70000000D01*
D28*
X183000000Y-83000000D02*
X180000000Y-80000000D01*
X144457851Y-50845093D02*
X144457851Y-60028615D01*
X148225306Y-47800000D02*
X147502944Y-47800000D01*
X189000000Y-92000000D02*
X185000000Y-92000000D01*
X144457851Y-60028615D02*
X144457851Y-60000000D01*
D27*
X171000000Y-46484917D02*
X172287706Y-45197211D01*
D28*
X149540000Y-43000000D02*
X149540000Y-46485306D01*
X189489565Y-85273763D02*
X191089565Y-86873763D01*
D27*
X153000000Y-66460000D02*
X149540000Y-66460000D01*
X167000000Y-59745000D02*
X168360000Y-59745000D01*
X171000000Y-57105000D02*
X171000000Y-46484917D01*
X166000000Y-78949390D02*
X166000000Y-81000000D01*
X166000000Y-81000000D02*
X169920000Y-84920000D01*
D28*
X147502944Y-47800000D02*
X144457851Y-50845093D01*
D27*
%TO.N,3v3*%
X166000000Y-56205000D02*
X166000000Y-53000000D01*
X155950000Y-84750000D02*
X158513533Y-82186467D01*
X155350000Y-86700000D02*
X155950000Y-86100000D01*
X162000000Y-40000000D02*
X155000000Y-40000000D01*
X167000000Y-57205000D02*
X166000000Y-56205000D01*
X158513533Y-43513533D02*
X155000000Y-40000000D01*
X158513533Y-82186467D02*
X158513533Y-43513533D01*
X155950000Y-86100000D02*
X155950000Y-84750000D01*
X153000000Y-92000000D02*
X176000000Y-92000000D01*
X141920000Y-41797919D02*
X141920000Y-43000000D01*
X176000000Y-92000000D02*
X177540000Y-90460000D01*
X154000000Y-86700000D02*
X155350000Y-86700000D01*
X143717919Y-40000000D02*
X141920000Y-41797919D01*
X134000000Y-41000000D02*
X135000000Y-40000000D01*
X155000000Y-40000000D02*
X143717919Y-40000000D01*
X166000000Y-53000000D02*
X165000000Y-52000000D01*
X165000000Y-43000000D02*
X162000000Y-40000000D01*
X165000000Y-52000000D02*
X165000000Y-43000000D01*
X147700000Y-86700000D02*
X153000000Y-92000000D01*
X135000000Y-40000000D02*
X143717919Y-40000000D01*
X177540000Y-90460000D02*
X177540000Y-90000000D01*
D26*
%TO.N,SCL*%
X171510836Y-62285000D02*
X180000000Y-53795836D01*
X180000000Y-53795836D02*
X180000000Y-52000000D01*
X180000000Y-52000000D02*
X184140000Y-47860000D01*
X184140000Y-47860000D02*
X185800000Y-47860000D01*
X167000000Y-62285000D02*
X171510836Y-62285000D01*
%TO.N,SDA*%
X184520000Y-55480000D02*
X185800000Y-55480000D01*
X167000000Y-64825000D02*
X175175000Y-64825000D01*
X175175000Y-64825000D02*
X184520000Y-55480000D01*
D27*
%TO.N,C1_2*%
X182900000Y-63100000D02*
X175000000Y-71000000D01*
X185800000Y-63100000D02*
X182900000Y-63100000D01*
X175000000Y-71000000D02*
X175000000Y-90000000D01*
D28*
%TO.N,SAIDA 1 PONTE H *%
X142515762Y-47515762D02*
X142515762Y-62484238D01*
X142515762Y-62484238D02*
X140840000Y-64160000D01*
X139380000Y-43000000D02*
X139380000Y-44380000D01*
X140840000Y-64160000D02*
X137920000Y-64160000D01*
X139380000Y-44380000D02*
X142515762Y-47515762D01*
%TO.N,SAIDA 2 PONTE H *%
X148596468Y-49000000D02*
X146000000Y-51596468D01*
X154000000Y-47000000D02*
X152000000Y-49000000D01*
X142300000Y-66700000D02*
X137920000Y-66700000D01*
X146000000Y-63000000D02*
X142300000Y-66700000D01*
X154000000Y-44920000D02*
X154000000Y-47000000D01*
X152000000Y-49000000D02*
X148596468Y-49000000D01*
X152080000Y-43000000D02*
X154000000Y-44920000D01*
X146000000Y-51596468D02*
X146000000Y-63000000D01*
D26*
%TO.N,7.4V*%
X154000000Y-81000000D02*
X154000000Y-84400000D01*
X149000000Y-76000000D02*
X154000000Y-81000000D01*
%TD*%
%TA.AperFunction,Conductor*%
%TO.N,Earth*%
G36*
X133998702Y-39020185D02*
G01*
X134044457Y-39072989D01*
X134054401Y-39142147D01*
X134025376Y-39205703D01*
X134019344Y-39212181D01*
X133731345Y-39500179D01*
X133670022Y-39533664D01*
X133664074Y-39534807D01*
X133630383Y-39540429D01*
X133395194Y-39621170D01*
X133176485Y-39739529D01*
X132980259Y-39892259D01*
X132811837Y-40075214D01*
X132675825Y-40283395D01*
X132598360Y-40459999D01*
X132575937Y-40511119D01*
X132514892Y-40752179D01*
X132514891Y-40752183D01*
X132494356Y-41000000D01*
X132514891Y-41247816D01*
X132514891Y-41247819D01*
X132514892Y-41247821D01*
X132575937Y-41488881D01*
X132605549Y-41556389D01*
X132675825Y-41716604D01*
X132675827Y-41716607D01*
X132811836Y-41924785D01*
X132980256Y-42107738D01*
X132980259Y-42107740D01*
X133176485Y-42260470D01*
X133176487Y-42260471D01*
X133176491Y-42260474D01*
X133395190Y-42378828D01*
X133630386Y-42459571D01*
X133875665Y-42500500D01*
X134124335Y-42500500D01*
X134369614Y-42459571D01*
X134604810Y-42378828D01*
X134823509Y-42260474D01*
X135019744Y-42107738D01*
X135188164Y-41924785D01*
X135324173Y-41716607D01*
X135424063Y-41488881D01*
X135460736Y-41344058D01*
X135496276Y-41283904D01*
X135558696Y-41252512D01*
X135580942Y-41250500D01*
X140610798Y-41250500D01*
X140677837Y-41270185D01*
X140723592Y-41322989D01*
X140733536Y-41392147D01*
X140726891Y-41418071D01*
X140709690Y-41463900D01*
X140708910Y-41468201D01*
X140703950Y-41486996D01*
X140702501Y-41491136D01*
X140687304Y-41587085D01*
X140686838Y-41589828D01*
X140678391Y-41636373D01*
X140647052Y-41698820D01*
X140586927Y-41734411D01*
X140517104Y-41731845D01*
X140482075Y-41713499D01*
X140472331Y-41706204D01*
X140337483Y-41655909D01*
X140337483Y-41655908D01*
X140281166Y-41649854D01*
X140281165Y-41649853D01*
X140277873Y-41649500D01*
X140274550Y-41649500D01*
X138485439Y-41649500D01*
X138485420Y-41649500D01*
X138482128Y-41649501D01*
X138478848Y-41649853D01*
X138478840Y-41649854D01*
X138422515Y-41655909D01*
X138287669Y-41706204D01*
X138172454Y-41792454D01*
X138086204Y-41907668D01*
X138035909Y-42042516D01*
X138033639Y-42063634D01*
X138029500Y-42102127D01*
X138029500Y-42105448D01*
X138029500Y-42105449D01*
X138029500Y-43894560D01*
X138029500Y-43894578D01*
X138029501Y-43897872D01*
X138029853Y-43901152D01*
X138029854Y-43901159D01*
X138035909Y-43957484D01*
X138054653Y-44007738D01*
X138086204Y-44092331D01*
X138172454Y-44207546D01*
X138287669Y-44293796D01*
X138297614Y-44297505D01*
X138353549Y-44339374D01*
X138377968Y-44404838D01*
X138378244Y-44416829D01*
X138377242Y-44456361D01*
X138387648Y-44514420D01*
X138388957Y-44523749D01*
X138394926Y-44582438D01*
X138404033Y-44611467D01*
X138407772Y-44626702D01*
X138413141Y-44656652D01*
X138435020Y-44711425D01*
X138438180Y-44720300D01*
X138439150Y-44723393D01*
X138455841Y-44776588D01*
X138470607Y-44803191D01*
X138477337Y-44817364D01*
X138488622Y-44845617D01*
X138521080Y-44894867D01*
X138525961Y-44902923D01*
X138554590Y-44954501D01*
X138574404Y-44977581D01*
X138583856Y-44990116D01*
X138600599Y-45015520D01*
X138642300Y-45057221D01*
X138648705Y-45064132D01*
X138687134Y-45108896D01*
X138711193Y-45127519D01*
X138722972Y-45137893D01*
X140112523Y-46527444D01*
X141478943Y-47893863D01*
X141512428Y-47955186D01*
X141515262Y-47981544D01*
X141515262Y-50598898D01*
X141495577Y-50665937D01*
X141442773Y-50711692D01*
X141373615Y-50721636D01*
X141310059Y-50692611D01*
X141303581Y-50686579D01*
X141214917Y-50597915D01*
X141214917Y-50597914D01*
X141214915Y-50597913D01*
X141108963Y-50518598D01*
X141003009Y-50439282D01*
X140836898Y-50348579D01*
X140770689Y-50312426D01*
X140522678Y-50219923D01*
X140522673Y-50219921D01*
X140264027Y-50163657D01*
X140000000Y-50144772D01*
X139735972Y-50163657D01*
X139477326Y-50219921D01*
X139353316Y-50266174D01*
X139229311Y-50312426D01*
X139229308Y-50312427D01*
X139229307Y-50312428D01*
X138996990Y-50439282D01*
X138785082Y-50597915D01*
X138597915Y-50785082D01*
X138439282Y-50996990D01*
X138324381Y-51207417D01*
X138312426Y-51229311D01*
X138266225Y-51353181D01*
X138219921Y-51477326D01*
X138163657Y-51735972D01*
X138144772Y-52000000D01*
X138163657Y-52264027D01*
X138219921Y-52522673D01*
X138219923Y-52522678D01*
X138312426Y-52770689D01*
X138340742Y-52822545D01*
X138439282Y-53003009D01*
X138489599Y-53070224D01*
X138597913Y-53214915D01*
X138785085Y-53402087D01*
X138902660Y-53490102D01*
X138996990Y-53560717D01*
X139012773Y-53569335D01*
X139229311Y-53687574D01*
X139477322Y-53780077D01*
X139477325Y-53780077D01*
X139477326Y-53780078D01*
X139512314Y-53787689D01*
X139735974Y-53836343D01*
X140000000Y-53855227D01*
X140264026Y-53836343D01*
X140522678Y-53780077D01*
X140770689Y-53687574D01*
X141003011Y-53560716D01*
X141214915Y-53402087D01*
X141303581Y-53313420D01*
X141364904Y-53279936D01*
X141434596Y-53284920D01*
X141490529Y-53326792D01*
X141514946Y-53392256D01*
X141515262Y-53401102D01*
X141515262Y-62018455D01*
X141495577Y-62085494D01*
X141478943Y-62106136D01*
X140461899Y-63123181D01*
X140400576Y-63156666D01*
X140374218Y-63159500D01*
X139092855Y-63159500D01*
X139025816Y-63139815D01*
X139001625Y-63119483D01*
X138939743Y-63052261D01*
X138856991Y-62987852D01*
X138816178Y-62931141D01*
X138812505Y-62861368D01*
X138847136Y-62800685D01*
X138856974Y-62792160D01*
X138939744Y-62727738D01*
X139108164Y-62544785D01*
X139244173Y-62336607D01*
X139344063Y-62108881D01*
X139405108Y-61867821D01*
X139425643Y-61620000D01*
X139405108Y-61372179D01*
X139344063Y-61131119D01*
X139253856Y-60925468D01*
X139244174Y-60903395D01*
X139236154Y-60891119D01*
X139108164Y-60695215D01*
X138939744Y-60512262D01*
X138836859Y-60432183D01*
X138743514Y-60359529D01*
X138743510Y-60359526D01*
X138743509Y-60359526D01*
X138524810Y-60241172D01*
X138524806Y-60241170D01*
X138524805Y-60241170D01*
X138289615Y-60160429D01*
X138044335Y-60119500D01*
X137795665Y-60119500D01*
X137550384Y-60160429D01*
X137315194Y-60241170D01*
X137315190Y-60241171D01*
X137315190Y-60241172D01*
X137257746Y-60272259D01*
X137096485Y-60359529D01*
X136900259Y-60512259D01*
X136731837Y-60695214D01*
X136595825Y-60903395D01*
X136505780Y-61108678D01*
X136495937Y-61131119D01*
X136469926Y-61233833D01*
X136434891Y-61372183D01*
X136414356Y-61620000D01*
X136434891Y-61867816D01*
X136434891Y-61867819D01*
X136434892Y-61867821D01*
X136495937Y-62108881D01*
X136525034Y-62175215D01*
X136595825Y-62336604D01*
X136595827Y-62336607D01*
X136731836Y-62544785D01*
X136855050Y-62678631D01*
X136900256Y-62727738D01*
X136983008Y-62792147D01*
X137023821Y-62848858D01*
X137027494Y-62918631D01*
X136992863Y-62979314D01*
X136983008Y-62987853D01*
X136900256Y-63052261D01*
X136764627Y-63199594D01*
X136731836Y-63235215D01*
X136720863Y-63252011D01*
X136595825Y-63443395D01*
X136527864Y-63598332D01*
X136495937Y-63671119D01*
X136469926Y-63773833D01*
X136434891Y-63912183D01*
X136414356Y-64160000D01*
X136434891Y-64407816D01*
X136434891Y-64407819D01*
X136434892Y-64407821D01*
X136495937Y-64648881D01*
X136525034Y-64715215D01*
X136595825Y-64876604D01*
X136595827Y-64876607D01*
X136731836Y-65084785D01*
X136819924Y-65180474D01*
X136900256Y-65267738D01*
X136983008Y-65332147D01*
X137023821Y-65388858D01*
X137027494Y-65458631D01*
X136992863Y-65519314D01*
X136983008Y-65527853D01*
X136900256Y-65592261D01*
X136731837Y-65775214D01*
X136595825Y-65983395D01*
X136530484Y-66132359D01*
X136495937Y-66211119D01*
X136464134Y-66336706D01*
X136434891Y-66452183D01*
X136414356Y-66699999D01*
X136434891Y-66947816D01*
X136434891Y-66947819D01*
X136434892Y-66947821D01*
X136495937Y-67188881D01*
X136525034Y-67255215D01*
X136595825Y-67416604D01*
X136595827Y-67416607D01*
X136731836Y-67624785D01*
X136838375Y-67740517D01*
X136900256Y-67807738D01*
X136983008Y-67872147D01*
X137023821Y-67928858D01*
X137027494Y-67998631D01*
X136992863Y-68059314D01*
X136983008Y-68067853D01*
X136900256Y-68132261D01*
X136731837Y-68315214D01*
X136595825Y-68523395D01*
X136527864Y-68678332D01*
X136495937Y-68751119D01*
X136468251Y-68860449D01*
X136434891Y-68992183D01*
X136414356Y-69240000D01*
X136434891Y-69487816D01*
X136434891Y-69487819D01*
X136434892Y-69487821D01*
X136495937Y-69728881D01*
X136525034Y-69795215D01*
X136595825Y-69956604D01*
X136595827Y-69956607D01*
X136731836Y-70164785D01*
X136842484Y-70284981D01*
X136900256Y-70347738D01*
X136983008Y-70412147D01*
X137023821Y-70468858D01*
X137027494Y-70538631D01*
X136992863Y-70599314D01*
X136983008Y-70607853D01*
X136900256Y-70672261D01*
X136792638Y-70789166D01*
X136731836Y-70855215D01*
X136695242Y-70911227D01*
X136595825Y-71063395D01*
X136527864Y-71218332D01*
X136495937Y-71291119D01*
X136442459Y-71502297D01*
X136434891Y-71532183D01*
X136414356Y-71780000D01*
X136434891Y-72027816D01*
X136434891Y-72027819D01*
X136434892Y-72027821D01*
X136495937Y-72268881D01*
X136525034Y-72335215D01*
X136595825Y-72496604D01*
X136595827Y-72496607D01*
X136731836Y-72704785D01*
X136855050Y-72838631D01*
X136900256Y-72887738D01*
X136983008Y-72952147D01*
X137023821Y-73008858D01*
X137027494Y-73078631D01*
X136992863Y-73139314D01*
X136983008Y-73147853D01*
X136900256Y-73212261D01*
X136731837Y-73395214D01*
X136595825Y-73603395D01*
X136527864Y-73758332D01*
X136495937Y-73831119D01*
X136468251Y-73940449D01*
X136434891Y-74072183D01*
X136414356Y-74320000D01*
X136434891Y-74567816D01*
X136434891Y-74567819D01*
X136434892Y-74567821D01*
X136495937Y-74808881D01*
X136525034Y-74875215D01*
X136595825Y-75036604D01*
X136595827Y-75036607D01*
X136731836Y-75244785D01*
X136900256Y-75427738D01*
X136940202Y-75458829D01*
X137096485Y-75580470D01*
X137096487Y-75580471D01*
X137096491Y-75580474D01*
X137315190Y-75698828D01*
X137550386Y-75779571D01*
X137795665Y-75820500D01*
X138044335Y-75820500D01*
X138289614Y-75779571D01*
X138524810Y-75698828D01*
X138743509Y-75580474D01*
X138939744Y-75427738D01*
X139108164Y-75244785D01*
X139244173Y-75036607D01*
X139344063Y-74808881D01*
X139405108Y-74567821D01*
X139425643Y-74320000D01*
X139405756Y-74080000D01*
X151494356Y-74080000D01*
X151514891Y-74327816D01*
X151514891Y-74327819D01*
X151514892Y-74327821D01*
X151575937Y-74568881D01*
X151601805Y-74627853D01*
X151675825Y-74796604D01*
X151675827Y-74796607D01*
X151811836Y-75004785D01*
X151980256Y-75187738D01*
X151980259Y-75187740D01*
X152176485Y-75340470D01*
X152176487Y-75340471D01*
X152176491Y-75340474D01*
X152395190Y-75458828D01*
X152630386Y-75539571D01*
X152875665Y-75580500D01*
X153124335Y-75580500D01*
X153369614Y-75539571D01*
X153604810Y-75458828D01*
X153823509Y-75340474D01*
X154019744Y-75187738D01*
X154188164Y-75004785D01*
X154324173Y-74796607D01*
X154424063Y-74568881D01*
X154485108Y-74327821D01*
X154505643Y-74080000D01*
X154485108Y-73832179D01*
X154424063Y-73591119D01*
X154324173Y-73363393D01*
X154188164Y-73155215D01*
X154019744Y-72972262D01*
X153993900Y-72952147D01*
X153936992Y-72907853D01*
X153896179Y-72851143D01*
X153892504Y-72781370D01*
X153927136Y-72720687D01*
X153936992Y-72712147D01*
X153961256Y-72693260D01*
X154019744Y-72647738D01*
X154188164Y-72464785D01*
X154324173Y-72256607D01*
X154424063Y-72028881D01*
X154485108Y-71787821D01*
X154505643Y-71540000D01*
X154485108Y-71292179D01*
X154424063Y-71051119D01*
X154324173Y-70823393D01*
X154188164Y-70615215D01*
X154019744Y-70432262D01*
X153939095Y-70369490D01*
X153936992Y-70367853D01*
X153896179Y-70311143D01*
X153892504Y-70241370D01*
X153927136Y-70180687D01*
X153936992Y-70172147D01*
X153967409Y-70148472D01*
X154019744Y-70107738D01*
X154188164Y-69924785D01*
X154324173Y-69716607D01*
X154424063Y-69488881D01*
X154485108Y-69247821D01*
X154505643Y-69000000D01*
X154485108Y-68752179D01*
X154424063Y-68511119D01*
X154324173Y-68283393D01*
X154188164Y-68075215D01*
X154019744Y-67892262D01*
X153916253Y-67811712D01*
X153875442Y-67755003D01*
X153868655Y-67706176D01*
X153870056Y-67683609D01*
X153044400Y-66857953D01*
X153125148Y-66845165D01*
X153238045Y-66787641D01*
X153327641Y-66698045D01*
X153385165Y-66585148D01*
X153397953Y-66504401D01*
X154223434Y-67329882D01*
X154323730Y-67176369D01*
X154423586Y-66948721D01*
X154484613Y-66707732D01*
X154505141Y-66460000D01*
X154484613Y-66212267D01*
X154423586Y-65971278D01*
X154323730Y-65743630D01*
X154223434Y-65590116D01*
X153397953Y-66415598D01*
X153385165Y-66334852D01*
X153327641Y-66221955D01*
X153238045Y-66132359D01*
X153125148Y-66074835D01*
X153044401Y-66062046D01*
X153870056Y-65236390D01*
X153868655Y-65213825D01*
X153884147Y-65145694D01*
X153916250Y-65108290D01*
X154019744Y-65027738D01*
X154188164Y-64844785D01*
X154324173Y-64636607D01*
X154424063Y-64408881D01*
X154485108Y-64167821D01*
X154505643Y-63920000D01*
X154485108Y-63672179D01*
X154424063Y-63431119D01*
X154324173Y-63203393D01*
X154188164Y-62995215D01*
X154019744Y-62812262D01*
X153963776Y-62768700D01*
X153936992Y-62747853D01*
X153896179Y-62691143D01*
X153892504Y-62621370D01*
X153927136Y-62560687D01*
X153936992Y-62552147D01*
X153961256Y-62533260D01*
X154019744Y-62487738D01*
X154188164Y-62304785D01*
X154324173Y-62096607D01*
X154424063Y-61868881D01*
X154485108Y-61627821D01*
X154505643Y-61380000D01*
X154485108Y-61132179D01*
X154424063Y-60891119D01*
X154324173Y-60663393D01*
X154188164Y-60455215D01*
X154019744Y-60272262D01*
X153915492Y-60191119D01*
X153823514Y-60119529D01*
X153823510Y-60119526D01*
X153823509Y-60119526D01*
X153604810Y-60001172D01*
X153604806Y-60001170D01*
X153604805Y-60001170D01*
X153369615Y-59920429D01*
X153124335Y-59879500D01*
X152875665Y-59879500D01*
X152630384Y-59920429D01*
X152395194Y-60001170D01*
X152176485Y-60119529D01*
X151980259Y-60272259D01*
X151980256Y-60272261D01*
X151980256Y-60272262D01*
X151811836Y-60455215D01*
X151766499Y-60524607D01*
X151675825Y-60663395D01*
X151622704Y-60784500D01*
X151575937Y-60891119D01*
X151538072Y-61040643D01*
X151514891Y-61132183D01*
X151494356Y-61380000D01*
X151514891Y-61627816D01*
X151514891Y-61627819D01*
X151514892Y-61627821D01*
X151575937Y-61868881D01*
X151600336Y-61924505D01*
X151675825Y-62096604D01*
X151675827Y-62096607D01*
X151811836Y-62304785D01*
X151953582Y-62458762D01*
X151980256Y-62487738D01*
X152063008Y-62552147D01*
X152103821Y-62608858D01*
X152107494Y-62678631D01*
X152072863Y-62739314D01*
X152063008Y-62747853D01*
X151980256Y-62812261D01*
X151838738Y-62965992D01*
X151811836Y-62995215D01*
X151766499Y-63064607D01*
X151675825Y-63203395D01*
X151622704Y-63324500D01*
X151575937Y-63431119D01*
X151537559Y-63582669D01*
X151514891Y-63672183D01*
X151494356Y-63920000D01*
X151514891Y-64167816D01*
X151514891Y-64167819D01*
X151514892Y-64167821D01*
X151575937Y-64408881D01*
X151593472Y-64448856D01*
X151675825Y-64636604D01*
X151675827Y-64636607D01*
X151811836Y-64844785D01*
X151967640Y-65014033D01*
X151980256Y-65027738D01*
X152083744Y-65108286D01*
X152124557Y-65164996D01*
X152131343Y-65213823D01*
X152129941Y-65236389D01*
X152955599Y-66062046D01*
X152874852Y-66074835D01*
X152761955Y-66132359D01*
X152672359Y-66221955D01*
X152614835Y-66334852D01*
X152602046Y-66415598D01*
X151776564Y-65590116D01*
X151676266Y-65743634D01*
X151576413Y-65971278D01*
X151515386Y-66212267D01*
X151494858Y-66460000D01*
X151515386Y-66707732D01*
X151576413Y-66948721D01*
X151676268Y-67176370D01*
X151776563Y-67329882D01*
X151776564Y-67329882D01*
X152602046Y-66504400D01*
X152614835Y-66585148D01*
X152672359Y-66698045D01*
X152761955Y-66787641D01*
X152874852Y-66845165D01*
X152955599Y-66857953D01*
X152129942Y-67683610D01*
X152131343Y-67706178D01*
X152115850Y-67774308D01*
X152083744Y-67811714D01*
X151980256Y-67892261D01*
X151882336Y-67998631D01*
X151811836Y-68075215D01*
X151766499Y-68144607D01*
X151675825Y-68283395D01*
X151598737Y-68459140D01*
X151575937Y-68511119D01*
X151515300Y-68750567D01*
X151514891Y-68752183D01*
X151494356Y-68999999D01*
X151514891Y-69247816D01*
X151514891Y-69247819D01*
X151514892Y-69247821D01*
X151575937Y-69488881D01*
X151593473Y-69528858D01*
X151675825Y-69716604D01*
X151675827Y-69716607D01*
X151811836Y-69924785D01*
X151941934Y-70066109D01*
X151980256Y-70107738D01*
X152063008Y-70172147D01*
X152103821Y-70228858D01*
X152107494Y-70298631D01*
X152072863Y-70359314D01*
X152063008Y-70367853D01*
X151980256Y-70432261D01*
X151882336Y-70538631D01*
X151811836Y-70615215D01*
X151769592Y-70679875D01*
X151675825Y-70823395D01*
X151617590Y-70956159D01*
X151575937Y-71051119D01*
X151515161Y-71291117D01*
X151514891Y-71292183D01*
X151494356Y-71540000D01*
X151514891Y-71787816D01*
X151514891Y-71787819D01*
X151514892Y-71787821D01*
X151575937Y-72028881D01*
X151593473Y-72068858D01*
X151675825Y-72256604D01*
X151675827Y-72256607D01*
X151811836Y-72464785D01*
X151884200Y-72543393D01*
X151980256Y-72647738D01*
X152063008Y-72712147D01*
X152103821Y-72768858D01*
X152107494Y-72838631D01*
X152072863Y-72899314D01*
X152063008Y-72907853D01*
X151980256Y-72972261D01*
X151882336Y-73078631D01*
X151811836Y-73155215D01*
X151766499Y-73224607D01*
X151675825Y-73363395D01*
X151617590Y-73496159D01*
X151575937Y-73591119D01*
X151515161Y-73831117D01*
X151514891Y-73832183D01*
X151494356Y-74080000D01*
X139405756Y-74080000D01*
X139405108Y-74072179D01*
X139344063Y-73831119D01*
X139244173Y-73603393D01*
X139108164Y-73395215D01*
X138939744Y-73212262D01*
X138923437Y-73199570D01*
X138856992Y-73147853D01*
X138816179Y-73091143D01*
X138812504Y-73021370D01*
X138847136Y-72960687D01*
X138856992Y-72952147D01*
X138881256Y-72933260D01*
X138939744Y-72887738D01*
X139108164Y-72704785D01*
X139244173Y-72496607D01*
X139344063Y-72268881D01*
X139405108Y-72027821D01*
X139425643Y-71780000D01*
X139405108Y-71532179D01*
X139344063Y-71291119D01*
X139244173Y-71063393D01*
X139108164Y-70855215D01*
X138939744Y-70672262D01*
X138923437Y-70659570D01*
X138856992Y-70607853D01*
X138816179Y-70551143D01*
X138812504Y-70481370D01*
X138847136Y-70420687D01*
X138856992Y-70412147D01*
X138881256Y-70393260D01*
X138939744Y-70347738D01*
X139108164Y-70164785D01*
X139244173Y-69956607D01*
X139344063Y-69728881D01*
X139405108Y-69487821D01*
X139425643Y-69240000D01*
X139405108Y-68992179D01*
X139344063Y-68751119D01*
X139244173Y-68523393D01*
X139108164Y-68315215D01*
X138939744Y-68132262D01*
X138923437Y-68119570D01*
X138856992Y-68067853D01*
X138816179Y-68011143D01*
X138812504Y-67941370D01*
X138847136Y-67880687D01*
X138856992Y-67872147D01*
X138889700Y-67846689D01*
X138939744Y-67807738D01*
X139001624Y-67740517D01*
X139061512Y-67704527D01*
X139092855Y-67700500D01*
X142285721Y-67700500D01*
X142288862Y-67700539D01*
X142376363Y-67702757D01*
X142434432Y-67692348D01*
X142443736Y-67691043D01*
X142502438Y-67685074D01*
X142531467Y-67675965D01*
X142546700Y-67672226D01*
X142576653Y-67666858D01*
X142631426Y-67644978D01*
X142640301Y-67641819D01*
X142657675Y-67636367D01*
X142696588Y-67624159D01*
X142723194Y-67609390D01*
X142737362Y-67602662D01*
X142765617Y-67591377D01*
X142814879Y-67558909D01*
X142822910Y-67554043D01*
X142874502Y-67525409D01*
X142897587Y-67505589D01*
X142910114Y-67496144D01*
X142935519Y-67479402D01*
X142977251Y-67437668D01*
X142984123Y-67431300D01*
X143028895Y-67392866D01*
X143047524Y-67368798D01*
X143057883Y-67357036D01*
X146697405Y-63717514D01*
X146699559Y-63715413D01*
X146763053Y-63655059D01*
X146796759Y-63606630D01*
X146802428Y-63599113D01*
X146803065Y-63598332D01*
X146839698Y-63553407D01*
X146853783Y-63526439D01*
X146861918Y-63513015D01*
X146868373Y-63503740D01*
X146879295Y-63488049D01*
X146902568Y-63433815D01*
X146906588Y-63425350D01*
X146933909Y-63373049D01*
X146942275Y-63343808D01*
X146947539Y-63329019D01*
X146959540Y-63301058D01*
X146971417Y-63243256D01*
X146973652Y-63234148D01*
X146989886Y-63177418D01*
X146992196Y-63147078D01*
X146994376Y-63131540D01*
X147000500Y-63101742D01*
X147000500Y-63042754D01*
X147000858Y-63033339D01*
X147003114Y-63003709D01*
X147005337Y-62974524D01*
X147001493Y-62944339D01*
X147000500Y-62928676D01*
X147000500Y-52621667D01*
X147020185Y-52554628D01*
X147072989Y-52508873D01*
X147142147Y-52498929D01*
X147205703Y-52527954D01*
X147240681Y-52578332D01*
X147294891Y-52723676D01*
X147312426Y-52770689D01*
X147439282Y-53003009D01*
X147489599Y-53070224D01*
X147597913Y-53214915D01*
X147785085Y-53402087D01*
X147902660Y-53490102D01*
X147996990Y-53560717D01*
X148012773Y-53569335D01*
X148229311Y-53687574D01*
X148477322Y-53780077D01*
X148477325Y-53780077D01*
X148477326Y-53780078D01*
X148512314Y-53787689D01*
X148735974Y-53836343D01*
X148979660Y-53853772D01*
X148999999Y-53855227D01*
X148999999Y-53855226D01*
X149000000Y-53855227D01*
X149264026Y-53836343D01*
X149522678Y-53780077D01*
X149770689Y-53687574D01*
X150003011Y-53560716D01*
X150214915Y-53402087D01*
X150402087Y-53214915D01*
X150560716Y-53003011D01*
X150687574Y-52770689D01*
X150780077Y-52522678D01*
X150836343Y-52264026D01*
X150855227Y-52000000D01*
X150836343Y-51735974D01*
X150783863Y-51494726D01*
X150780078Y-51477326D01*
X150780077Y-51477322D01*
X150687574Y-51229311D01*
X150600602Y-51070034D01*
X150560717Y-50996990D01*
X150515262Y-50936269D01*
X150402087Y-50785085D01*
X150214915Y-50597913D01*
X150108963Y-50518598D01*
X150003009Y-50439282D01*
X149886850Y-50375855D01*
X149770689Y-50312426D01*
X149578332Y-50240681D01*
X149522401Y-50198810D01*
X149497984Y-50133346D01*
X149512836Y-50065073D01*
X149562241Y-50015668D01*
X149621668Y-50000500D01*
X151985721Y-50000500D01*
X151988862Y-50000539D01*
X152076363Y-50002757D01*
X152134432Y-49992348D01*
X152143736Y-49991043D01*
X152202438Y-49985074D01*
X152231467Y-49975965D01*
X152246700Y-49972226D01*
X152276653Y-49966858D01*
X152331426Y-49944978D01*
X152340301Y-49941819D01*
X152357675Y-49936367D01*
X152396588Y-49924159D01*
X152423194Y-49909390D01*
X152437362Y-49902662D01*
X152465617Y-49891377D01*
X152514879Y-49858909D01*
X152522910Y-49854043D01*
X152574502Y-49825409D01*
X152597587Y-49805589D01*
X152610114Y-49796144D01*
X152635519Y-49779402D01*
X152677251Y-49737668D01*
X152684123Y-49731300D01*
X152728895Y-49692866D01*
X152747524Y-49668798D01*
X152757883Y-49657036D01*
X154697390Y-47717528D01*
X154699560Y-47715412D01*
X154763053Y-47655059D01*
X154796759Y-47606630D01*
X154802428Y-47599113D01*
X154839698Y-47553407D01*
X154853783Y-47526439D01*
X154861918Y-47513015D01*
X154877158Y-47491119D01*
X154879295Y-47488049D01*
X154902568Y-47433815D01*
X154906588Y-47425350D01*
X154933909Y-47373049D01*
X154934462Y-47371118D01*
X154942275Y-47343808D01*
X154947539Y-47329019D01*
X154959540Y-47301058D01*
X154971417Y-47243256D01*
X154973652Y-47234148D01*
X154989886Y-47177418D01*
X154992196Y-47147078D01*
X154994376Y-47131540D01*
X155000500Y-47101742D01*
X155000500Y-47042754D01*
X155000858Y-47033339D01*
X155005337Y-46974524D01*
X155001493Y-46944339D01*
X155000500Y-46928676D01*
X155000500Y-44934260D01*
X155000540Y-44931118D01*
X155002757Y-44843638D01*
X154992350Y-44785574D01*
X154991041Y-44776242D01*
X154985074Y-44717562D01*
X154975962Y-44688520D01*
X154972226Y-44673297D01*
X154966858Y-44643347D01*
X154950899Y-44603395D01*
X154944976Y-44588566D01*
X154941816Y-44579689D01*
X154924159Y-44523412D01*
X154909395Y-44496812D01*
X154902660Y-44482631D01*
X154897786Y-44470428D01*
X154891377Y-44454383D01*
X154858917Y-44405131D01*
X154854036Y-44397074D01*
X154844559Y-44380000D01*
X154825409Y-44345498D01*
X154805582Y-44322403D01*
X154796146Y-44309888D01*
X154779402Y-44284481D01*
X154779400Y-44284479D01*
X154779399Y-44284477D01*
X154737693Y-44242772D01*
X154731287Y-44235860D01*
X154692864Y-44191102D01*
X154668804Y-44172478D01*
X154657026Y-44162105D01*
X153461890Y-42966969D01*
X153428405Y-42905646D01*
X153426043Y-42890095D01*
X153424246Y-42869560D01*
X153415063Y-42764592D01*
X153353903Y-42536337D01*
X153254035Y-42322171D01*
X153118495Y-42128599D01*
X152951401Y-41961505D01*
X152757830Y-41825965D01*
X152543663Y-41726097D01*
X152482501Y-41709709D01*
X152315407Y-41664936D01*
X152079999Y-41644340D01*
X151844592Y-41664936D01*
X151616336Y-41726097D01*
X151402170Y-41825965D01*
X151208598Y-41961505D01*
X151041508Y-42128595D01*
X151041505Y-42128598D01*
X151041505Y-42128599D01*
X150949168Y-42260470D01*
X150911269Y-42314596D01*
X150856692Y-42358220D01*
X150787193Y-42365413D01*
X150724839Y-42333891D01*
X150708119Y-42314595D01*
X150578109Y-42128921D01*
X150411081Y-41961893D01*
X150217576Y-41826399D01*
X150003492Y-41726569D01*
X149790000Y-41669364D01*
X149790000Y-42564498D01*
X149682315Y-42515320D01*
X149575763Y-42500000D01*
X149504237Y-42500000D01*
X149397685Y-42515320D01*
X149290000Y-42564498D01*
X149290000Y-41669364D01*
X149289999Y-41669364D01*
X149076507Y-41726569D01*
X148862421Y-41826400D01*
X148668921Y-41961890D01*
X148501893Y-42128918D01*
X148371880Y-42314596D01*
X148317303Y-42358220D01*
X148247804Y-42365413D01*
X148185450Y-42333891D01*
X148168730Y-42314595D01*
X148168425Y-42314159D01*
X148038495Y-42128599D01*
X147871401Y-41961505D01*
X147677830Y-41825965D01*
X147463663Y-41726097D01*
X147402502Y-41709709D01*
X147235407Y-41664936D01*
X147000000Y-41644340D01*
X146764592Y-41664936D01*
X146536336Y-41726097D01*
X146322170Y-41825965D01*
X146128598Y-41961505D01*
X145961505Y-42128598D01*
X145831575Y-42314159D01*
X145776998Y-42357784D01*
X145707500Y-42364978D01*
X145645145Y-42333455D01*
X145628425Y-42314159D01*
X145590832Y-42260470D01*
X145498495Y-42128599D01*
X145331401Y-41961505D01*
X145137830Y-41825965D01*
X144923663Y-41726097D01*
X144862502Y-41709709D01*
X144695407Y-41664936D01*
X144459999Y-41644340D01*
X144224591Y-41664936D01*
X144120903Y-41692719D01*
X144051053Y-41691056D01*
X143993191Y-41651893D01*
X143965687Y-41587664D01*
X143977274Y-41518762D01*
X144001126Y-41485266D01*
X144199574Y-41286818D01*
X144260897Y-41253334D01*
X144287255Y-41250500D01*
X154430664Y-41250500D01*
X154497703Y-41270185D01*
X154518345Y-41286819D01*
X157226714Y-43995187D01*
X157260199Y-44056510D01*
X157263033Y-44082868D01*
X157263033Y-50386213D01*
X157243348Y-50453252D01*
X157190544Y-50499007D01*
X157121386Y-50508951D01*
X157064723Y-50485480D01*
X157003012Y-50439284D01*
X156863288Y-50362989D01*
X156770689Y-50312426D01*
X156522678Y-50219923D01*
X156522673Y-50219921D01*
X156264027Y-50163657D01*
X156000000Y-50144772D01*
X155735972Y-50163657D01*
X155477326Y-50219921D01*
X155353316Y-50266174D01*
X155229311Y-50312426D01*
X155229308Y-50312427D01*
X155229307Y-50312428D01*
X154996990Y-50439282D01*
X154785082Y-50597915D01*
X154597915Y-50785082D01*
X154439282Y-50996990D01*
X154324381Y-51207417D01*
X154312426Y-51229311D01*
X154266225Y-51353181D01*
X154219921Y-51477326D01*
X154163657Y-51735972D01*
X154144772Y-52000000D01*
X154163657Y-52264027D01*
X154219921Y-52522673D01*
X154219923Y-52522678D01*
X154312426Y-52770689D01*
X154340742Y-52822545D01*
X154439282Y-53003009D01*
X154489599Y-53070224D01*
X154597913Y-53214915D01*
X154785085Y-53402087D01*
X154902660Y-53490102D01*
X154996990Y-53560717D01*
X155012773Y-53569335D01*
X155229311Y-53687574D01*
X155477322Y-53780077D01*
X155477325Y-53780077D01*
X155477326Y-53780078D01*
X155512314Y-53787689D01*
X155735974Y-53836343D01*
X156000000Y-53855227D01*
X156264026Y-53836343D01*
X156522678Y-53780077D01*
X156770689Y-53687574D01*
X157003011Y-53560716D01*
X157064724Y-53514518D01*
X157130186Y-53490102D01*
X157198459Y-53504953D01*
X157247865Y-53554358D01*
X157263033Y-53613786D01*
X157263033Y-81617131D01*
X157243348Y-81684170D01*
X157226714Y-81704812D01*
X155712181Y-83219345D01*
X155650858Y-83252830D01*
X155581166Y-83247846D01*
X155525233Y-83205974D01*
X155500816Y-83140510D01*
X155500500Y-83131664D01*
X155500500Y-81100864D01*
X155501452Y-81085526D01*
X155504357Y-81062219D01*
X155500606Y-80971527D01*
X155500500Y-80966402D01*
X155500500Y-80940501D01*
X155500500Y-80937933D01*
X155498148Y-80909557D01*
X155497831Y-80904449D01*
X155495491Y-80847873D01*
X155494081Y-80813763D01*
X155489262Y-80790781D01*
X155487047Y-80775573D01*
X155485108Y-80752184D01*
X155485108Y-80752183D01*
X155485108Y-80752179D01*
X155462827Y-80664193D01*
X155461675Y-80659213D01*
X155443050Y-80570386D01*
X155434514Y-80548511D01*
X155429825Y-80533876D01*
X155424063Y-80511119D01*
X155387596Y-80427985D01*
X155385657Y-80423302D01*
X155352656Y-80338727D01*
X155340633Y-80318549D01*
X155333609Y-80304906D01*
X155324173Y-80283393D01*
X155274529Y-80207407D01*
X155271827Y-80203078D01*
X155225366Y-80125106D01*
X155210187Y-80107184D01*
X155201006Y-80094873D01*
X155188164Y-80075215D01*
X155126694Y-80008441D01*
X155123301Y-80004598D01*
X155106567Y-79984839D01*
X155106557Y-79984828D01*
X155104902Y-79982874D01*
X155084771Y-79962743D01*
X155081222Y-79959045D01*
X155019743Y-79892261D01*
X155001211Y-79877837D01*
X154989693Y-79867665D01*
X150084771Y-74962743D01*
X150081222Y-74959045D01*
X150019743Y-74892261D01*
X149948120Y-74836514D01*
X149944162Y-74833300D01*
X149874894Y-74774634D01*
X149854723Y-74762614D01*
X149842039Y-74753947D01*
X149823511Y-74739527D01*
X149743699Y-74696335D01*
X149739242Y-74693803D01*
X149691888Y-74665586D01*
X149661274Y-74647344D01*
X149661272Y-74647343D01*
X149661270Y-74647342D01*
X149639401Y-74638808D01*
X149625465Y-74632349D01*
X149604810Y-74621172D01*
X149518958Y-74591698D01*
X149514149Y-74589935D01*
X149429612Y-74556950D01*
X149406645Y-74552134D01*
X149391836Y-74548056D01*
X149369619Y-74540429D01*
X149280093Y-74525490D01*
X149275057Y-74524542D01*
X149186237Y-74505919D01*
X149162768Y-74504948D01*
X149147487Y-74503363D01*
X149124335Y-74499500D01*
X149033596Y-74499500D01*
X149028473Y-74499394D01*
X149024701Y-74499238D01*
X148937780Y-74495642D01*
X148914473Y-74498548D01*
X148899135Y-74499500D01*
X148875664Y-74499500D01*
X148786169Y-74514433D01*
X148781100Y-74515172D01*
X148691018Y-74526401D01*
X148668513Y-74533101D01*
X148653545Y-74536563D01*
X148630388Y-74540427D01*
X148544565Y-74569891D01*
X148539685Y-74571454D01*
X148452688Y-74597355D01*
X148431585Y-74607671D01*
X148417393Y-74613549D01*
X148395190Y-74621171D01*
X148315369Y-74664368D01*
X148310813Y-74666713D01*
X148229280Y-74706572D01*
X148210167Y-74720218D01*
X148197140Y-74728351D01*
X148176487Y-74739528D01*
X148104873Y-74795266D01*
X148100769Y-74798326D01*
X148026907Y-74851065D01*
X148010304Y-74867667D01*
X147998794Y-74877831D01*
X147980254Y-74892262D01*
X147918787Y-74959032D01*
X147915242Y-74962727D01*
X147851068Y-75026903D01*
X147837421Y-75046016D01*
X147827741Y-75057936D01*
X147811838Y-75075212D01*
X147762194Y-75151197D01*
X147759304Y-75155427D01*
X147706569Y-75229287D01*
X147696256Y-75250382D01*
X147688668Y-75263737D01*
X147675828Y-75283390D01*
X147639375Y-75366491D01*
X147637222Y-75371136D01*
X147597355Y-75452687D01*
X147590653Y-75475199D01*
X147585366Y-75489620D01*
X147575937Y-75511115D01*
X147553664Y-75599073D01*
X147552303Y-75604015D01*
X147526401Y-75691017D01*
X147523496Y-75714324D01*
X147520654Y-75729424D01*
X147514891Y-75752181D01*
X147507398Y-75842604D01*
X147506870Y-75847700D01*
X147495642Y-75937781D01*
X147496612Y-75961239D01*
X147496295Y-75976594D01*
X147494356Y-75999996D01*
X147501851Y-76090448D01*
X147502168Y-76095561D01*
X147505919Y-76186235D01*
X147510738Y-76209220D01*
X147512952Y-76224421D01*
X147514891Y-76247819D01*
X147537171Y-76335803D01*
X147538325Y-76340793D01*
X147556950Y-76429614D01*
X147565484Y-76451485D01*
X147570171Y-76466114D01*
X147575936Y-76488880D01*
X147612393Y-76571993D01*
X147614354Y-76576728D01*
X147647344Y-76661275D01*
X147659364Y-76681448D01*
X147666395Y-76695107D01*
X147675824Y-76716603D01*
X147675827Y-76716607D01*
X147725481Y-76792609D01*
X147728153Y-76796890D01*
X147774634Y-76874894D01*
X147789808Y-76892811D01*
X147798991Y-76905125D01*
X147811837Y-76924788D01*
X147873293Y-76991546D01*
X147876687Y-76995388D01*
X147895098Y-77017126D01*
X147896911Y-77018939D01*
X147915227Y-77037255D01*
X147918776Y-77040953D01*
X147971872Y-77098631D01*
X147980258Y-77107740D01*
X147998787Y-77122162D01*
X148010307Y-77132335D01*
X152463181Y-81585208D01*
X152496666Y-81646531D01*
X152499500Y-81672889D01*
X152499500Y-85194560D01*
X152499500Y-85194578D01*
X152499501Y-85197872D01*
X152499853Y-85201152D01*
X152499854Y-85201159D01*
X152505909Y-85257483D01*
X152556204Y-85392331D01*
X152596752Y-85446496D01*
X152618606Y-85475689D01*
X152643023Y-85541154D01*
X152628171Y-85609427D01*
X152618606Y-85624311D01*
X152556204Y-85707668D01*
X152507169Y-85839140D01*
X152505909Y-85842517D01*
X152499500Y-85902127D01*
X152499500Y-85905448D01*
X152499500Y-85905449D01*
X152499500Y-87494560D01*
X152499500Y-87494578D01*
X152499501Y-87497872D01*
X152499853Y-87501152D01*
X152499854Y-87501159D01*
X152505909Y-87557484D01*
X152515224Y-87582458D01*
X152556204Y-87692331D01*
X152618918Y-87776106D01*
X152643335Y-87841569D01*
X152628484Y-87909842D01*
X152618918Y-87924726D01*
X152556648Y-88007908D01*
X152506400Y-88142628D01*
X152500354Y-88198867D01*
X152500000Y-88205481D01*
X152500000Y-88750000D01*
X155500000Y-88750000D01*
X155500000Y-88205481D01*
X155499645Y-88198867D01*
X155493599Y-88142628D01*
X155478219Y-88101393D01*
X155473235Y-88031702D01*
X155506719Y-87970378D01*
X155563681Y-87939273D01*
X155563426Y-87938347D01*
X155567375Y-87937256D01*
X155568042Y-87936893D01*
X155569506Y-87936668D01*
X155574181Y-87935377D01*
X155574188Y-87935377D01*
X155667856Y-87909525D01*
X155670466Y-87908836D01*
X155764683Y-87885096D01*
X155768658Y-87883290D01*
X155786961Y-87876655D01*
X155791167Y-87875494D01*
X155791167Y-87875493D01*
X155791170Y-87875493D01*
X155878739Y-87833321D01*
X155881165Y-87832187D01*
X155969626Y-87792007D01*
X155973209Y-87789524D01*
X155990039Y-87779723D01*
X155993973Y-87777829D01*
X156072608Y-87720696D01*
X156074781Y-87719155D01*
X156154654Y-87663820D01*
X156157740Y-87660732D01*
X156172543Y-87648089D01*
X156176078Y-87645522D01*
X156243236Y-87575278D01*
X156245093Y-87573379D01*
X156779667Y-87038806D01*
X156790017Y-87029556D01*
X156817666Y-87007508D01*
X156861276Y-86957590D01*
X156866936Y-86951537D01*
X156873945Y-86944530D01*
X156900114Y-86913183D01*
X156901858Y-86911141D01*
X156965765Y-86837996D01*
X156968008Y-86834240D01*
X156979269Y-86818371D01*
X156982068Y-86815019D01*
X157030008Y-86730529D01*
X157031375Y-86728182D01*
X157054809Y-86688960D01*
X157081215Y-86644764D01*
X157082749Y-86640674D01*
X157090998Y-86623041D01*
X157093153Y-86619245D01*
X157125253Y-86527507D01*
X157126153Y-86525023D01*
X157160307Y-86434024D01*
X157161087Y-86429723D01*
X157166052Y-86410913D01*
X157167498Y-86406783D01*
X157182708Y-86310746D01*
X157183144Y-86308181D01*
X157200500Y-86212547D01*
X157200500Y-86208170D01*
X157202027Y-86188771D01*
X157202710Y-86184460D01*
X157200531Y-86087378D01*
X157200500Y-86084596D01*
X157200500Y-85319336D01*
X157220185Y-85252297D01*
X157236819Y-85231655D01*
X158255585Y-84212889D01*
X159343205Y-83125268D01*
X159353554Y-83116020D01*
X159381199Y-83093975D01*
X159424809Y-83044057D01*
X159430469Y-83038004D01*
X159437478Y-83030997D01*
X159437478Y-83030996D01*
X159437486Y-83030989D01*
X159434740Y-83033862D01*
X159494360Y-82997693D01*
X159564207Y-82999502D01*
X159621987Y-83038786D01*
X159649357Y-83103072D01*
X159646409Y-83147975D01*
X159609891Y-83292183D01*
X159589356Y-83540000D01*
X159609891Y-83787816D01*
X159609891Y-83787819D01*
X159609892Y-83787821D01*
X159670937Y-84028881D01*
X159713190Y-84125208D01*
X159770825Y-84256604D01*
X159770827Y-84256607D01*
X159906836Y-84464785D01*
X159988506Y-84553502D01*
X160075256Y-84647738D01*
X160158008Y-84712147D01*
X160198821Y-84768858D01*
X160202494Y-84838631D01*
X160167863Y-84899314D01*
X160158008Y-84907853D01*
X160075256Y-84972261D01*
X160007171Y-85046222D01*
X159906836Y-85155215D01*
X159861499Y-85224607D01*
X159770825Y-85363395D01*
X159700482Y-85523763D01*
X159670937Y-85591119D01*
X159637347Y-85723763D01*
X159609891Y-85832183D01*
X159589356Y-86080000D01*
X159609891Y-86327816D01*
X159609891Y-86327819D01*
X159609892Y-86327821D01*
X159670937Y-86568881D01*
X159704223Y-86644765D01*
X159770825Y-86796604D01*
X159770827Y-86796607D01*
X159906836Y-87004785D01*
X160024081Y-87132147D01*
X160075256Y-87187738D01*
X160158008Y-87252147D01*
X160198821Y-87308858D01*
X160202494Y-87378631D01*
X160167863Y-87439314D01*
X160158008Y-87447853D01*
X160075256Y-87512261D01*
X159906837Y-87695214D01*
X159770825Y-87903395D01*
X159683976Y-88101393D01*
X159670937Y-88131119D01*
X159627393Y-88303070D01*
X159609891Y-88372183D01*
X159589356Y-88619999D01*
X159609891Y-88867816D01*
X159609891Y-88867819D01*
X159609892Y-88867821D01*
X159670937Y-89108881D01*
X159700405Y-89176061D01*
X159770825Y-89336604D01*
X159770827Y-89336607D01*
X159906836Y-89544785D01*
X160075256Y-89727738D01*
X160075259Y-89727740D01*
X160271485Y-89880470D01*
X160271487Y-89880471D01*
X160271491Y-89880474D01*
X160490190Y-89998828D01*
X160725386Y-90079571D01*
X160970665Y-90120500D01*
X161219335Y-90120500D01*
X161464614Y-90079571D01*
X161699810Y-89998828D01*
X161918509Y-89880474D01*
X162114744Y-89727738D01*
X162283164Y-89544785D01*
X162419173Y-89336607D01*
X162519063Y-89108881D01*
X162580108Y-88867821D01*
X162600643Y-88620000D01*
X162580108Y-88372179D01*
X162519063Y-88131119D01*
X162419173Y-87903393D01*
X162283164Y-87695215D01*
X162114744Y-87512262D01*
X162096256Y-87497872D01*
X162031992Y-87447853D01*
X161991179Y-87391143D01*
X161987504Y-87321370D01*
X162022136Y-87260687D01*
X162031992Y-87252147D01*
X162060447Y-87229999D01*
X162114744Y-87187738D01*
X162283164Y-87004785D01*
X162419173Y-86796607D01*
X162519063Y-86568881D01*
X162580108Y-86327821D01*
X162600643Y-86080000D01*
X162580108Y-85832179D01*
X162519063Y-85591119D01*
X162419173Y-85363393D01*
X162283164Y-85155215D01*
X162140278Y-84999999D01*
X164074531Y-84999999D01*
X164094364Y-85226689D01*
X164153261Y-85446497D01*
X164249432Y-85652735D01*
X164379953Y-85839140D01*
X164540859Y-86000046D01*
X164727264Y-86130567D01*
X164727265Y-86130567D01*
X164727266Y-86130568D01*
X164933504Y-86226739D01*
X165153308Y-86285635D01*
X165304435Y-86298856D01*
X165379999Y-86305468D01*
X165379999Y-86305467D01*
X165380000Y-86305468D01*
X165606692Y-86285635D01*
X165826496Y-86226739D01*
X166032734Y-86130568D01*
X166219139Y-86000047D01*
X166380047Y-85839139D01*
X166510568Y-85652734D01*
X166606739Y-85446496D01*
X166665635Y-85226692D01*
X166685468Y-85000000D01*
X166665635Y-84773308D01*
X166606739Y-84553504D01*
X166510568Y-84347266D01*
X166477123Y-84299500D01*
X166380046Y-84160859D01*
X166219140Y-83999953D01*
X166032735Y-83869432D01*
X165826497Y-83773261D01*
X165606689Y-83714364D01*
X165379999Y-83694531D01*
X165153310Y-83714364D01*
X164933502Y-83773261D01*
X164727264Y-83869432D01*
X164540859Y-83999953D01*
X164379953Y-84160859D01*
X164249432Y-84347264D01*
X164153261Y-84553502D01*
X164094364Y-84773310D01*
X164074531Y-84999999D01*
X162140278Y-84999999D01*
X162114744Y-84972262D01*
X162073505Y-84940164D01*
X162031992Y-84907853D01*
X161991179Y-84851143D01*
X161987504Y-84781370D01*
X162022136Y-84720687D01*
X162031992Y-84712147D01*
X162060446Y-84690000D01*
X162114744Y-84647738D01*
X162283164Y-84464785D01*
X162419173Y-84256607D01*
X162519063Y-84028881D01*
X162580108Y-83787821D01*
X162600643Y-83540000D01*
X162580108Y-83292179D01*
X162519063Y-83051119D01*
X162419173Y-82823393D01*
X162283164Y-82615215D01*
X162114744Y-82432262D01*
X162069866Y-82397332D01*
X162031992Y-82367853D01*
X161991179Y-82311143D01*
X161987504Y-82241370D01*
X162022136Y-82180687D01*
X162031992Y-82172147D01*
X162060446Y-82150000D01*
X162114744Y-82107738D01*
X162283164Y-81924785D01*
X162419173Y-81716607D01*
X162519063Y-81488881D01*
X162580108Y-81247821D01*
X162600643Y-81000000D01*
X162580108Y-80752179D01*
X162519063Y-80511119D01*
X162419173Y-80283393D01*
X162283164Y-80075215D01*
X162114744Y-79892262D01*
X162083142Y-79867665D01*
X162031992Y-79827853D01*
X161991179Y-79771143D01*
X161987504Y-79701370D01*
X162022136Y-79640687D01*
X162031992Y-79632147D01*
X162060446Y-79610000D01*
X162114744Y-79567738D01*
X162283164Y-79384785D01*
X162419173Y-79176607D01*
X162519063Y-78948881D01*
X162580108Y-78707821D01*
X162600643Y-78460000D01*
X162580108Y-78212179D01*
X162519063Y-77971119D01*
X162419173Y-77743393D01*
X162283164Y-77535215D01*
X162114744Y-77352262D01*
X162011253Y-77271712D01*
X161970442Y-77215003D01*
X161963655Y-77166176D01*
X161965056Y-77143609D01*
X161139400Y-76317953D01*
X161220148Y-76305165D01*
X161333045Y-76247641D01*
X161422641Y-76158045D01*
X161480165Y-76045148D01*
X161492953Y-75964401D01*
X162318434Y-76789882D01*
X162418730Y-76636369D01*
X162518586Y-76408721D01*
X162579613Y-76167732D01*
X162600141Y-75919999D01*
X162579613Y-75672267D01*
X162518586Y-75431278D01*
X162418730Y-75203630D01*
X162318434Y-75050116D01*
X161492953Y-75875598D01*
X161480165Y-75794852D01*
X161422641Y-75681955D01*
X161333045Y-75592359D01*
X161220148Y-75534835D01*
X161139399Y-75522046D01*
X161965056Y-74696389D01*
X161963655Y-74673823D01*
X161979148Y-74605693D01*
X162011250Y-74568290D01*
X162114744Y-74487738D01*
X162283164Y-74304785D01*
X162419173Y-74096607D01*
X162519063Y-73868881D01*
X162580108Y-73627821D01*
X162600643Y-73380000D01*
X162580108Y-73132179D01*
X162519063Y-72891119D01*
X162419173Y-72663393D01*
X162283164Y-72455215D01*
X162114744Y-72272262D01*
X162098437Y-72259570D01*
X162031992Y-72207853D01*
X161991179Y-72151143D01*
X161987504Y-72081370D01*
X162022136Y-72020687D01*
X162031992Y-72012147D01*
X162060446Y-71990000D01*
X162114744Y-71947738D01*
X162283164Y-71764785D01*
X162419173Y-71556607D01*
X162519063Y-71328881D01*
X162580108Y-71087821D01*
X162600643Y-70840000D01*
X162580108Y-70592179D01*
X162519063Y-70351119D01*
X162419173Y-70123393D01*
X162283164Y-69915215D01*
X162114744Y-69732262D01*
X162098437Y-69719570D01*
X162031992Y-69667853D01*
X161991179Y-69611143D01*
X161987504Y-69541370D01*
X162022136Y-69480687D01*
X162031992Y-69472147D01*
X162060446Y-69450000D01*
X162114744Y-69407738D01*
X162283164Y-69224785D01*
X162419173Y-69016607D01*
X162519063Y-68788881D01*
X162580108Y-68547821D01*
X162600643Y-68300000D01*
X162580108Y-68052179D01*
X162519063Y-67811119D01*
X162419173Y-67583393D01*
X162283164Y-67375215D01*
X162114744Y-67192262D01*
X162090641Y-67173502D01*
X162031992Y-67127853D01*
X161991179Y-67071143D01*
X161987504Y-67001370D01*
X162022136Y-66940687D01*
X162031992Y-66932147D01*
X162060446Y-66910000D01*
X162114744Y-66867738D01*
X162283164Y-66684785D01*
X162419173Y-66476607D01*
X162519063Y-66248881D01*
X162580108Y-66007821D01*
X162600643Y-65760000D01*
X162580108Y-65512179D01*
X162519063Y-65271119D01*
X162419173Y-65043393D01*
X162283164Y-64835215D01*
X162114744Y-64652262D01*
X162114743Y-64652261D01*
X162031991Y-64587852D01*
X161991178Y-64531141D01*
X161987505Y-64461368D01*
X162022136Y-64400685D01*
X162031974Y-64392160D01*
X162114744Y-64327738D01*
X162283164Y-64144785D01*
X162419173Y-63936607D01*
X162519063Y-63708881D01*
X162580108Y-63467821D01*
X162600643Y-63220000D01*
X162580108Y-62972179D01*
X162519063Y-62731119D01*
X162419173Y-62503393D01*
X162283164Y-62295215D01*
X162114744Y-62112262D01*
X162098437Y-62099570D01*
X162031992Y-62047853D01*
X161991179Y-61991143D01*
X161987504Y-61921370D01*
X162022136Y-61860687D01*
X162031992Y-61852147D01*
X162068758Y-61823530D01*
X162114744Y-61787738D01*
X162283164Y-61604785D01*
X162419173Y-61396607D01*
X162519063Y-61168881D01*
X162580108Y-60927821D01*
X162600643Y-60680000D01*
X162580108Y-60432179D01*
X162519063Y-60191119D01*
X162419173Y-59963393D01*
X162283164Y-59755215D01*
X162114744Y-59572262D01*
X162098437Y-59559570D01*
X162031992Y-59507853D01*
X161991179Y-59451143D01*
X161987504Y-59381370D01*
X162022136Y-59320687D01*
X162031992Y-59312147D01*
X162056256Y-59293260D01*
X162114744Y-59247738D01*
X162283164Y-59064785D01*
X162419173Y-58856607D01*
X162519063Y-58628881D01*
X162580108Y-58387821D01*
X162600643Y-58140000D01*
X162580108Y-57892179D01*
X162519063Y-57651119D01*
X162419173Y-57423393D01*
X162283164Y-57215215D01*
X162114744Y-57032262D01*
X162085695Y-57009652D01*
X162031992Y-56967853D01*
X161991179Y-56911143D01*
X161987504Y-56841370D01*
X162022136Y-56780687D01*
X162031992Y-56772147D01*
X162056256Y-56753260D01*
X162114744Y-56707738D01*
X162283164Y-56524785D01*
X162419173Y-56316607D01*
X162519063Y-56088881D01*
X162580108Y-55847821D01*
X162600643Y-55600000D01*
X162580108Y-55352179D01*
X162519063Y-55111119D01*
X162419173Y-54883393D01*
X162283164Y-54675215D01*
X162114744Y-54492262D01*
X162073620Y-54460254D01*
X162031992Y-54427853D01*
X161991179Y-54371143D01*
X161987504Y-54301370D01*
X162022136Y-54240687D01*
X162031992Y-54232147D01*
X162064476Y-54206863D01*
X162114744Y-54167738D01*
X162283164Y-53984785D01*
X162419173Y-53776607D01*
X162519063Y-53548881D01*
X162580108Y-53307821D01*
X162600643Y-53060000D01*
X162598005Y-53028170D01*
X162595921Y-53003009D01*
X162580108Y-52812179D01*
X162519063Y-52571119D01*
X162424715Y-52356027D01*
X162419174Y-52343395D01*
X162402468Y-52317824D01*
X162283164Y-52135215D01*
X162114744Y-51952262D01*
X162056603Y-51907009D01*
X162031992Y-51887853D01*
X161991179Y-51831143D01*
X161987504Y-51761370D01*
X162022136Y-51700687D01*
X162031992Y-51692147D01*
X162060446Y-51670000D01*
X162114744Y-51627738D01*
X162283164Y-51444785D01*
X162419173Y-51236607D01*
X162519063Y-51008881D01*
X162580108Y-50767821D01*
X162600643Y-50520000D01*
X162599727Y-50508951D01*
X162593955Y-50439284D01*
X162580108Y-50272179D01*
X162519063Y-50031119D01*
X162419173Y-49803393D01*
X162283164Y-49595215D01*
X162114744Y-49412262D01*
X162114743Y-49412261D01*
X162031991Y-49347852D01*
X161991178Y-49291141D01*
X161987505Y-49221368D01*
X162022136Y-49160685D01*
X162031974Y-49152160D01*
X162114744Y-49087738D01*
X162283164Y-48904785D01*
X162419173Y-48696607D01*
X162519063Y-48468881D01*
X162580108Y-48227821D01*
X162600643Y-47980000D01*
X162580108Y-47732179D01*
X162519063Y-47491119D01*
X162419173Y-47263393D01*
X162283164Y-47055215D01*
X162114744Y-46872262D01*
X162073620Y-46840254D01*
X162031992Y-46807853D01*
X161991179Y-46751143D01*
X161987504Y-46681370D01*
X162022136Y-46620687D01*
X162031992Y-46612147D01*
X162066276Y-46585462D01*
X162114744Y-46547738D01*
X162283164Y-46364785D01*
X162419173Y-46156607D01*
X162519063Y-45928881D01*
X162580108Y-45687821D01*
X162600643Y-45440000D01*
X162580108Y-45192179D01*
X162519063Y-44951119D01*
X162419173Y-44723393D01*
X162283164Y-44515215D01*
X162114744Y-44332262D01*
X162114743Y-44332261D01*
X162031991Y-44267852D01*
X161991178Y-44211141D01*
X161987505Y-44141368D01*
X162022136Y-44080685D01*
X162031974Y-44072160D01*
X162114744Y-44007738D01*
X162283164Y-43824785D01*
X162419173Y-43616607D01*
X162519063Y-43388881D01*
X162580108Y-43147821D01*
X162600643Y-42900000D01*
X162580612Y-42658263D01*
X162594693Y-42589828D01*
X162643538Y-42539869D01*
X162711639Y-42524248D01*
X162777374Y-42547925D01*
X162791869Y-42560343D01*
X163713181Y-43481654D01*
X163746666Y-43542977D01*
X163749500Y-43569335D01*
X163749500Y-51922814D01*
X163748720Y-51936698D01*
X163744761Y-51971826D01*
X163749219Y-52037931D01*
X163749500Y-52046273D01*
X163749500Y-52056155D01*
X163749747Y-52058900D01*
X163749748Y-52058921D01*
X163753153Y-52096749D01*
X163753371Y-52099521D01*
X163759904Y-52196414D01*
X163760973Y-52200657D01*
X163764229Y-52219820D01*
X163764622Y-52224185D01*
X163790465Y-52317824D01*
X163791158Y-52320447D01*
X163806259Y-52380375D01*
X163814904Y-52414684D01*
X163816712Y-52418664D01*
X163823342Y-52436950D01*
X163824506Y-52441168D01*
X163866657Y-52528699D01*
X163867835Y-52531217D01*
X163907992Y-52619625D01*
X163910483Y-52623220D01*
X163920271Y-52640029D01*
X163922170Y-52643974D01*
X163979258Y-52722548D01*
X163980868Y-52724817D01*
X164036178Y-52804652D01*
X164039268Y-52807742D01*
X164051905Y-52822537D01*
X164054478Y-52826078D01*
X164054479Y-52826079D01*
X164124699Y-52893216D01*
X164126688Y-52895162D01*
X164421511Y-53189985D01*
X164713181Y-53481654D01*
X164746666Y-53542977D01*
X164749500Y-53569335D01*
X164749500Y-56127814D01*
X164748720Y-56141698D01*
X164744761Y-56176826D01*
X164749219Y-56242931D01*
X164749500Y-56251273D01*
X164749500Y-56261155D01*
X164749747Y-56263900D01*
X164749748Y-56263921D01*
X164753153Y-56301749D01*
X164753371Y-56304521D01*
X164759904Y-56401414D01*
X164760973Y-56405657D01*
X164764229Y-56424820D01*
X164764622Y-56429185D01*
X164790465Y-56522824D01*
X164791158Y-56525447D01*
X164806854Y-56587737D01*
X164814904Y-56619684D01*
X164816712Y-56623664D01*
X164823342Y-56641950D01*
X164824506Y-56646168D01*
X164866657Y-56733699D01*
X164867835Y-56736217D01*
X164907992Y-56824625D01*
X164910483Y-56828220D01*
X164920271Y-56845029D01*
X164922170Y-56848974D01*
X164979258Y-56927548D01*
X164980868Y-56929817D01*
X165036178Y-57009652D01*
X165039268Y-57012742D01*
X165051905Y-57027537D01*
X165054478Y-57031078D01*
X165054479Y-57031079D01*
X165124699Y-57098216D01*
X165126688Y-57100162D01*
X165463181Y-57436655D01*
X165496666Y-57497978D01*
X165499500Y-57524336D01*
X165499501Y-58252872D01*
X165499853Y-58256152D01*
X165499854Y-58256159D01*
X165505909Y-58312484D01*
X165550628Y-58432381D01*
X165555612Y-58502073D01*
X165550628Y-58519047D01*
X165506400Y-58637626D01*
X165500354Y-58693867D01*
X165500000Y-58700481D01*
X165500000Y-59495000D01*
X166566314Y-59495000D01*
X166540507Y-59535156D01*
X166500000Y-59673111D01*
X166500000Y-59816889D01*
X166540507Y-59954844D01*
X166566314Y-59995000D01*
X165500000Y-59995000D01*
X165500000Y-60789518D01*
X165500354Y-60796132D01*
X165506400Y-60852373D01*
X165550628Y-60970952D01*
X165555612Y-61040643D01*
X165550628Y-61057618D01*
X165505909Y-61177514D01*
X165505909Y-61177517D01*
X165499500Y-61237127D01*
X165499500Y-61240448D01*
X165499500Y-61240449D01*
X165499500Y-63329560D01*
X165499500Y-63329578D01*
X165499501Y-63332872D01*
X165499853Y-63336152D01*
X165499854Y-63336159D01*
X165501107Y-63347816D01*
X165505909Y-63392483D01*
X165550362Y-63511668D01*
X165555346Y-63581357D01*
X165550362Y-63598332D01*
X165505909Y-63717514D01*
X165505909Y-63717517D01*
X165499500Y-63777127D01*
X165499500Y-63780449D01*
X165499500Y-65869560D01*
X165499500Y-65869578D01*
X165499501Y-65872872D01*
X165505909Y-65932483D01*
X165550362Y-66051668D01*
X165555346Y-66121357D01*
X165550362Y-66138332D01*
X165505909Y-66257514D01*
X165500046Y-66312046D01*
X165499500Y-66317127D01*
X165499500Y-66320448D01*
X165499500Y-66320449D01*
X165499500Y-68409560D01*
X165499500Y-68409578D01*
X165499501Y-68412872D01*
X165505909Y-68472483D01*
X165550362Y-68591668D01*
X165555346Y-68661357D01*
X165550362Y-68678332D01*
X165505909Y-68797514D01*
X165505909Y-68797517D01*
X165499500Y-68857127D01*
X165499500Y-68860448D01*
X165499500Y-68860449D01*
X165499500Y-70949560D01*
X165499500Y-70949578D01*
X165499501Y-70952872D01*
X165499853Y-70956152D01*
X165499854Y-70956159D01*
X165505909Y-71012484D01*
X165550361Y-71131666D01*
X165555345Y-71201358D01*
X165550361Y-71218332D01*
X165505909Y-71337514D01*
X165505909Y-71337517D01*
X165499500Y-71397127D01*
X165499500Y-71400448D01*
X165499500Y-71400449D01*
X165499500Y-73489560D01*
X165499500Y-73489578D01*
X165499501Y-73492872D01*
X165499853Y-73496152D01*
X165499854Y-73496159D01*
X165505909Y-73552484D01*
X165550361Y-73671666D01*
X165555345Y-73741358D01*
X165550361Y-73758332D01*
X165505909Y-73877514D01*
X165505909Y-73877517D01*
X165499500Y-73937127D01*
X165499500Y-73940448D01*
X165499500Y-73940449D01*
X165499500Y-76029560D01*
X165499500Y-76029578D01*
X165499501Y-76032872D01*
X165499853Y-76036152D01*
X165499854Y-76036159D01*
X165501107Y-76047816D01*
X165505909Y-76092483D01*
X165556204Y-76227331D01*
X165642454Y-76342546D01*
X165757669Y-76428796D01*
X165892517Y-76479091D01*
X165952127Y-76485500D01*
X168047872Y-76485499D01*
X168107483Y-76479091D01*
X168242331Y-76428796D01*
X168357546Y-76342546D01*
X168443796Y-76227331D01*
X168494091Y-76092483D01*
X168500500Y-76032873D01*
X168500499Y-73937128D01*
X168494091Y-73877517D01*
X168449636Y-73758328D01*
X168444653Y-73688641D01*
X168449632Y-73671681D01*
X168494091Y-73552483D01*
X168500500Y-73492873D01*
X168500499Y-71397128D01*
X168494091Y-71337517D01*
X168449637Y-71218332D01*
X168444654Y-71148642D01*
X168449635Y-71131674D01*
X168494091Y-71012483D01*
X168500500Y-70952873D01*
X168500499Y-68857128D01*
X168494091Y-68797517D01*
X168449636Y-68678328D01*
X168444653Y-68608641D01*
X168449632Y-68591681D01*
X168494091Y-68472483D01*
X168500500Y-68412873D01*
X168500499Y-66449499D01*
X168520184Y-66382461D01*
X168572987Y-66336706D01*
X168624499Y-66325500D01*
X173188106Y-66325500D01*
X173255145Y-66345185D01*
X173300900Y-66397989D01*
X173310844Y-66467147D01*
X173281819Y-66530703D01*
X173259229Y-66551075D01*
X173160859Y-66619953D01*
X172999953Y-66780859D01*
X172869432Y-66967264D01*
X172773261Y-67173502D01*
X172714364Y-67393310D01*
X172694531Y-67619999D01*
X172714364Y-67846689D01*
X172773261Y-68066497D01*
X172869432Y-68272735D01*
X172999953Y-68459140D01*
X173160859Y-68620046D01*
X173347264Y-68750567D01*
X173347265Y-68750567D01*
X173347266Y-68750568D01*
X173553504Y-68846739D01*
X173773308Y-68905635D01*
X174000000Y-68925468D01*
X174226692Y-68905635D01*
X174446496Y-68846739D01*
X174652734Y-68750568D01*
X174839139Y-68620047D01*
X175000047Y-68459139D01*
X175130568Y-68272734D01*
X175226739Y-68066496D01*
X175285635Y-67846692D01*
X175305468Y-67620000D01*
X175302265Y-67583395D01*
X175285635Y-67393310D01*
X175285635Y-67393308D01*
X175226739Y-67173504D01*
X175130568Y-66967266D01*
X175111958Y-66940687D01*
X175000046Y-66780859D01*
X174839140Y-66619953D01*
X174740771Y-66551075D01*
X174697146Y-66496498D01*
X174689952Y-66427000D01*
X174721475Y-66364645D01*
X174781704Y-66329231D01*
X174811894Y-66325500D01*
X175074135Y-66325500D01*
X175089473Y-66326452D01*
X175112779Y-66329357D01*
X175112779Y-66329356D01*
X175112780Y-66329357D01*
X175183017Y-66326452D01*
X175203473Y-66325605D01*
X175208596Y-66325500D01*
X175234498Y-66325500D01*
X175237067Y-66325500D01*
X175265447Y-66323147D01*
X175270540Y-66322831D01*
X175361237Y-66319081D01*
X175384209Y-66314263D01*
X175399413Y-66312047D01*
X175422821Y-66310108D01*
X175510838Y-66287818D01*
X175515754Y-66286680D01*
X175604614Y-66268049D01*
X175626496Y-66259510D01*
X175641116Y-66254827D01*
X175663881Y-66249063D01*
X175747008Y-66212599D01*
X175751699Y-66210656D01*
X175836274Y-66177656D01*
X175856456Y-66165628D01*
X175870101Y-66158605D01*
X175891607Y-66149173D01*
X175967593Y-66099528D01*
X175971916Y-66096830D01*
X176049894Y-66050366D01*
X176067813Y-66035188D01*
X176080126Y-66026006D01*
X176099785Y-66013164D01*
X176132124Y-65983393D01*
X176166551Y-65951701D01*
X176170383Y-65948315D01*
X176192126Y-65929902D01*
X176212313Y-65909714D01*
X176215939Y-65906235D01*
X176282738Y-65844744D01*
X176297167Y-65826203D01*
X176307325Y-65814701D01*
X184090943Y-58031084D01*
X184152260Y-57997603D01*
X184221952Y-58002587D01*
X184277885Y-58044459D01*
X184302194Y-58108529D01*
X184315385Y-58267732D01*
X184376413Y-58508721D01*
X184476268Y-58736370D01*
X184576563Y-58889882D01*
X184576564Y-58889882D01*
X185402046Y-58064399D01*
X185414835Y-58145148D01*
X185472359Y-58258045D01*
X185561955Y-58347641D01*
X185674852Y-58405165D01*
X185755599Y-58417953D01*
X184929942Y-59243610D01*
X184931343Y-59266178D01*
X184915850Y-59334308D01*
X184883744Y-59371714D01*
X184780256Y-59452261D01*
X184669791Y-59572259D01*
X184611836Y-59635215D01*
X184566499Y-59704607D01*
X184475825Y-59843395D01*
X184385780Y-60048678D01*
X184375937Y-60071119D01*
X184324881Y-60272734D01*
X184314891Y-60312183D01*
X184294356Y-60560000D01*
X184314891Y-60807816D01*
X184314891Y-60807819D01*
X184314892Y-60807821D01*
X184375937Y-61048881D01*
X184412009Y-61131117D01*
X184475825Y-61276604D01*
X184475827Y-61276607D01*
X184611836Y-61484785D01*
X184736310Y-61620000D01*
X184756118Y-61641517D01*
X184787040Y-61704172D01*
X184779180Y-61773598D01*
X184735033Y-61827753D01*
X184668615Y-61849444D01*
X184664888Y-61849500D01*
X182977176Y-61849500D01*
X182963293Y-61848720D01*
X182958815Y-61848215D01*
X182928171Y-61844762D01*
X182862077Y-61849219D01*
X182853736Y-61849500D01*
X182843845Y-61849500D01*
X182841085Y-61849748D01*
X182841070Y-61849749D01*
X182803236Y-61853153D01*
X182800469Y-61853371D01*
X182703586Y-61859904D01*
X182699344Y-61860973D01*
X182680181Y-61864229D01*
X182675814Y-61864622D01*
X182582147Y-61890471D01*
X182579461Y-61891180D01*
X182485311Y-61914904D01*
X182481328Y-61916714D01*
X182463050Y-61923341D01*
X182458833Y-61924505D01*
X182371323Y-61966646D01*
X182368806Y-61967823D01*
X182280374Y-62007992D01*
X182276774Y-62010486D01*
X182259972Y-62020270D01*
X182256028Y-62022169D01*
X182177461Y-62079250D01*
X182175195Y-62080858D01*
X182095342Y-62136182D01*
X182092242Y-62139282D01*
X182077462Y-62151906D01*
X182073920Y-62154479D01*
X182006803Y-62224677D01*
X182004859Y-62226665D01*
X174170343Y-70061181D01*
X174159980Y-70070443D01*
X174132335Y-70092491D01*
X174088736Y-70142391D01*
X174083052Y-70148472D01*
X174078024Y-70153501D01*
X174078015Y-70153510D01*
X174076055Y-70155471D01*
X174074280Y-70157596D01*
X174074269Y-70157609D01*
X174049929Y-70186763D01*
X174048124Y-70188876D01*
X173984235Y-70262003D01*
X173981986Y-70265767D01*
X173970739Y-70281617D01*
X173967932Y-70284979D01*
X173919978Y-70369490D01*
X173918604Y-70371849D01*
X173882513Y-70432259D01*
X173868782Y-70455241D01*
X173867246Y-70459335D01*
X173859009Y-70476944D01*
X173856847Y-70480753D01*
X173824762Y-70572444D01*
X173823814Y-70575057D01*
X173789691Y-70665978D01*
X173788910Y-70670282D01*
X173783950Y-70689077D01*
X173782501Y-70693217D01*
X173767304Y-70789166D01*
X173766838Y-70791907D01*
X173749500Y-70887450D01*
X173749500Y-70891829D01*
X173747973Y-70911227D01*
X173747290Y-70915537D01*
X173749469Y-71012639D01*
X173749500Y-71015421D01*
X173749500Y-89093794D01*
X173729815Y-89160833D01*
X173677011Y-89206588D01*
X173607853Y-89216532D01*
X173544297Y-89187507D01*
X173523928Y-89164921D01*
X173498495Y-89128599D01*
X173331401Y-88961505D01*
X173137830Y-88825965D01*
X172923663Y-88726097D01*
X172862502Y-88709709D01*
X172695407Y-88664936D01*
X172459999Y-88644340D01*
X172224592Y-88664936D01*
X171996336Y-88726097D01*
X171782170Y-88825965D01*
X171588598Y-88961505D01*
X171421508Y-89128595D01*
X171421505Y-89128598D01*
X171421505Y-89128599D01*
X171317258Y-89277479D01*
X171291269Y-89314596D01*
X171236692Y-89358220D01*
X171167193Y-89365413D01*
X171104839Y-89333891D01*
X171088119Y-89314595D01*
X170958109Y-89128921D01*
X170791081Y-88961893D01*
X170597576Y-88826399D01*
X170383492Y-88726569D01*
X170170000Y-88669364D01*
X170170000Y-89564498D01*
X170062315Y-89515320D01*
X169955763Y-89500000D01*
X169884237Y-89500000D01*
X169777685Y-89515320D01*
X169670000Y-89564498D01*
X169670000Y-88669364D01*
X169669999Y-88669364D01*
X169456507Y-88726569D01*
X169242421Y-88826400D01*
X169048924Y-88961888D01*
X168926865Y-89083947D01*
X168865542Y-89117431D01*
X168795850Y-89112447D01*
X168739917Y-89070575D01*
X168723002Y-89039598D01*
X168704590Y-88990233D01*
X168673796Y-88907669D01*
X168587546Y-88792454D01*
X168472331Y-88706204D01*
X168337483Y-88655909D01*
X168337483Y-88655908D01*
X168281166Y-88649854D01*
X168281165Y-88649853D01*
X168277873Y-88649500D01*
X168274550Y-88649500D01*
X166485439Y-88649500D01*
X166485420Y-88649500D01*
X166482128Y-88649501D01*
X166478848Y-88649853D01*
X166478840Y-88649854D01*
X166422515Y-88655909D01*
X166287669Y-88706204D01*
X166172454Y-88792454D01*
X166086204Y-88907668D01*
X166035909Y-89042516D01*
X166031445Y-89084041D01*
X166029500Y-89102127D01*
X166029500Y-89923888D01*
X166029501Y-90625500D01*
X166009816Y-90692539D01*
X165957013Y-90738294D01*
X165905501Y-90749500D01*
X153569336Y-90749500D01*
X153502297Y-90729815D01*
X153481655Y-90713181D01*
X153230155Y-90461681D01*
X153196670Y-90400358D01*
X153201654Y-90330666D01*
X153243526Y-90274733D01*
X153308990Y-90250316D01*
X153317836Y-90250000D01*
X153750000Y-90250000D01*
X153750000Y-89250000D01*
X154250000Y-89250000D01*
X154250000Y-90250000D01*
X155044518Y-90250000D01*
X155051132Y-90249645D01*
X155107371Y-90243599D01*
X155242089Y-90193352D01*
X155357188Y-90107188D01*
X155443352Y-89992089D01*
X155493599Y-89857371D01*
X155499645Y-89801132D01*
X155500000Y-89794518D01*
X155500000Y-89250000D01*
X154250000Y-89250000D01*
X153750000Y-89250000D01*
X152500000Y-89250000D01*
X152500000Y-89432163D01*
X152480315Y-89499202D01*
X152427511Y-89544957D01*
X152358353Y-89554901D01*
X152294797Y-89525876D01*
X152288319Y-89519844D01*
X149236818Y-86468343D01*
X149203333Y-86407020D01*
X149200499Y-86380662D01*
X149200499Y-84755439D01*
X149200499Y-84755438D01*
X149200499Y-84752128D01*
X149194091Y-84692517D01*
X149143796Y-84557669D01*
X149057546Y-84442454D01*
X148942331Y-84356204D01*
X148807483Y-84305909D01*
X148747873Y-84299500D01*
X148744550Y-84299500D01*
X146655439Y-84299500D01*
X146655420Y-84299500D01*
X146652128Y-84299501D01*
X146648848Y-84299853D01*
X146648840Y-84299854D01*
X146592515Y-84305909D01*
X146457669Y-84356204D01*
X146342454Y-84442454D01*
X146256204Y-84557668D01*
X146205909Y-84692516D01*
X146203102Y-84718629D01*
X146199500Y-84752127D01*
X146199500Y-84755448D01*
X146199500Y-84755449D01*
X146199500Y-88644560D01*
X146199500Y-88644578D01*
X146199501Y-88647872D01*
X146199853Y-88651152D01*
X146199854Y-88651159D01*
X146205909Y-88707484D01*
X146231056Y-88774906D01*
X146256204Y-88842331D01*
X146342454Y-88957546D01*
X146457669Y-89043796D01*
X146592517Y-89094091D01*
X146652127Y-89100500D01*
X148280663Y-89100499D01*
X148347702Y-89120184D01*
X148368344Y-89136818D01*
X152019345Y-92787819D01*
X152052830Y-92849142D01*
X152047846Y-92918834D01*
X152005974Y-92974767D01*
X151940510Y-92999184D01*
X151931664Y-92999500D01*
X130124500Y-92999500D01*
X130057461Y-92979815D01*
X130011706Y-92927011D01*
X130000500Y-92875500D01*
X130000500Y-89519748D01*
X131759500Y-89519748D01*
X131771132Y-89578230D01*
X131815447Y-89644552D01*
X131881769Y-89688867D01*
X131940251Y-89700500D01*
X131940252Y-89700500D01*
X134979749Y-89700500D01*
X135008989Y-89694683D01*
X135038231Y-89688867D01*
X135104552Y-89644552D01*
X135148867Y-89578231D01*
X135160500Y-89519748D01*
X135160500Y-87999999D01*
X136534890Y-87999999D01*
X136555300Y-88285357D01*
X136616111Y-88564902D01*
X136716088Y-88832952D01*
X136853193Y-89084042D01*
X136959883Y-89226562D01*
X137855195Y-88331250D01*
X137877340Y-88382587D01*
X137983433Y-88525094D01*
X138119530Y-88639294D01*
X138209216Y-88684335D01*
X137313436Y-89580115D01*
X137455958Y-89686806D01*
X137707047Y-89823911D01*
X137975097Y-89923888D01*
X138254642Y-89984699D01*
X138540000Y-90005109D01*
X138825357Y-89984699D01*
X139104902Y-89923888D01*
X139372952Y-89823911D01*
X139624041Y-89686806D01*
X139766562Y-89580115D01*
X138873748Y-88687300D01*
X138883409Y-88683784D01*
X139031844Y-88586157D01*
X139153764Y-88456930D01*
X139225768Y-88332215D01*
X140120115Y-89226562D01*
X140226806Y-89084041D01*
X140363911Y-88832952D01*
X140463888Y-88564902D01*
X140524699Y-88285357D01*
X140545109Y-88000000D01*
X140524699Y-87714642D01*
X140463888Y-87435097D01*
X140363911Y-87167047D01*
X140226806Y-86915958D01*
X140120115Y-86773436D01*
X139224803Y-87668747D01*
X139202660Y-87617413D01*
X139096567Y-87474906D01*
X138960470Y-87360706D01*
X138870782Y-87315663D01*
X139766562Y-86419883D01*
X139624042Y-86313193D01*
X139372952Y-86176088D01*
X139104902Y-86076111D01*
X138825357Y-86015300D01*
X138540000Y-85994890D01*
X138254642Y-86015300D01*
X137975097Y-86076111D01*
X137707047Y-86176088D01*
X137455954Y-86313195D01*
X137313437Y-86419882D01*
X137313436Y-86419883D01*
X138206252Y-87312699D01*
X138196591Y-87316216D01*
X138048156Y-87413843D01*
X137926236Y-87543070D01*
X137854232Y-87667784D01*
X136959883Y-86773436D01*
X136959882Y-86773437D01*
X136853195Y-86915954D01*
X136716088Y-87167047D01*
X136616111Y-87435097D01*
X136555300Y-87714642D01*
X136534890Y-87999999D01*
X135160500Y-87999999D01*
X135160500Y-86480252D01*
X135151304Y-86434023D01*
X135148867Y-86421769D01*
X135104552Y-86355447D01*
X135017723Y-86297430D01*
X135019794Y-86294329D01*
X134998377Y-86283120D01*
X134963817Y-86222396D01*
X134960500Y-86193907D01*
X134960500Y-84212889D01*
X134980185Y-84145850D01*
X134996819Y-84125208D01*
X137585209Y-81536819D01*
X137646532Y-81503334D01*
X137672890Y-81500500D01*
X139911997Y-81500500D01*
X139914567Y-81500500D01*
X140100321Y-81485108D01*
X140341381Y-81424063D01*
X140569107Y-81324173D01*
X140777285Y-81188164D01*
X140960238Y-81019744D01*
X141112974Y-80823509D01*
X141231328Y-80604810D01*
X141312071Y-80369614D01*
X141353000Y-80124335D01*
X141353000Y-79875665D01*
X141312071Y-79630386D01*
X141231328Y-79395190D01*
X141112974Y-79176491D01*
X141112971Y-79176487D01*
X141112970Y-79176485D01*
X140960240Y-78980259D01*
X140960238Y-78980256D01*
X140777285Y-78811836D01*
X140569107Y-78675827D01*
X140569104Y-78675825D01*
X140444023Y-78620960D01*
X140341381Y-78575937D01*
X140161367Y-78530351D01*
X140100322Y-78514892D01*
X140066354Y-78512077D01*
X139914567Y-78499500D01*
X139911997Y-78499500D01*
X137100865Y-78499500D01*
X137085527Y-78498548D01*
X137062219Y-78495642D01*
X136975160Y-78499243D01*
X136971526Y-78499394D01*
X136966404Y-78499500D01*
X136937933Y-78499500D01*
X136935406Y-78499709D01*
X136935390Y-78499710D01*
X136909551Y-78501851D01*
X136904440Y-78502168D01*
X136813762Y-78505919D01*
X136790777Y-78510738D01*
X136775578Y-78512952D01*
X136752180Y-78514891D01*
X136664200Y-78537170D01*
X136659211Y-78538324D01*
X136570385Y-78556951D01*
X136548515Y-78565484D01*
X136533890Y-78570169D01*
X136511120Y-78575936D01*
X136428020Y-78612386D01*
X136423288Y-78614346D01*
X136338726Y-78647343D01*
X136318545Y-78659368D01*
X136304891Y-78666396D01*
X136283392Y-78675826D01*
X136207417Y-78725462D01*
X136203074Y-78728174D01*
X136125102Y-78774636D01*
X136107183Y-78789813D01*
X136094868Y-78798995D01*
X136075215Y-78811835D01*
X136008447Y-78873299D01*
X136004613Y-78876685D01*
X135982874Y-78895098D01*
X135981059Y-78896911D01*
X135981061Y-78896911D01*
X135962738Y-78915233D01*
X135959045Y-78918775D01*
X135892262Y-78980254D01*
X135877832Y-78998793D01*
X135867664Y-79010306D01*
X133632261Y-81245709D01*
X133570938Y-81279194D01*
X133504093Y-81274413D01*
X133514212Y-81320924D01*
X133489796Y-81386389D01*
X133478209Y-81399761D01*
X132470306Y-82407664D01*
X132458793Y-82417832D01*
X132440254Y-82432262D01*
X132378775Y-82499045D01*
X132375233Y-82502738D01*
X132355098Y-82522874D01*
X132353437Y-82524834D01*
X132353437Y-82524835D01*
X132336689Y-82544609D01*
X132333299Y-82548447D01*
X132271835Y-82615215D01*
X132258995Y-82634868D01*
X132249813Y-82647183D01*
X132234636Y-82665102D01*
X132188174Y-82743074D01*
X132185462Y-82747417D01*
X132135826Y-82823392D01*
X132126396Y-82844891D01*
X132119368Y-82858545D01*
X132107343Y-82878726D01*
X132074346Y-82963288D01*
X132072386Y-82968020D01*
X132035936Y-83051120D01*
X132030169Y-83073890D01*
X132025484Y-83088515D01*
X132016951Y-83110385D01*
X131998324Y-83199211D01*
X131997170Y-83204200D01*
X131974891Y-83292180D01*
X131972952Y-83315578D01*
X131970738Y-83330777D01*
X131965919Y-83353762D01*
X131962168Y-83444440D01*
X131961851Y-83449551D01*
X131959710Y-83475390D01*
X131959709Y-83475406D01*
X131959500Y-83477933D01*
X131959500Y-83480486D01*
X131959500Y-83506402D01*
X131959394Y-83511527D01*
X131955642Y-83602219D01*
X131958548Y-83625526D01*
X131959500Y-83640864D01*
X131959500Y-86193907D01*
X131939815Y-86260946D01*
X131900602Y-86294923D01*
X131902277Y-86297430D01*
X131815447Y-86355447D01*
X131771132Y-86421769D01*
X131759500Y-86480251D01*
X131759500Y-89519748D01*
X130000500Y-89519748D01*
X130000500Y-80844578D01*
X130932000Y-80844578D01*
X130932001Y-80847872D01*
X130932353Y-80851152D01*
X130932354Y-80851159D01*
X130938083Y-80904449D01*
X130938409Y-80907483D01*
X130988704Y-81042331D01*
X131074954Y-81157546D01*
X131190169Y-81243796D01*
X131325017Y-81294091D01*
X131384627Y-81300500D01*
X133080372Y-81300499D01*
X133139983Y-81294091D01*
X133274831Y-81243796D01*
X133316219Y-81212812D01*
X133381680Y-81188396D01*
X133433094Y-81199579D01*
X133420896Y-81166874D01*
X133435748Y-81098601D01*
X133445306Y-81083727D01*
X133476296Y-81042331D01*
X133526591Y-80907483D01*
X133533000Y-80847873D01*
X133532999Y-79152128D01*
X133526591Y-79092517D01*
X133476296Y-78957669D01*
X133390046Y-78842454D01*
X133274831Y-78756204D01*
X133139983Y-78705909D01*
X133080373Y-78699500D01*
X133077050Y-78699500D01*
X131387939Y-78699500D01*
X131387920Y-78699500D01*
X131384628Y-78699501D01*
X131381348Y-78699853D01*
X131381340Y-78699854D01*
X131325015Y-78705909D01*
X131190169Y-78756204D01*
X131074954Y-78842454D01*
X130988704Y-78957668D01*
X130938410Y-79092515D01*
X130938409Y-79092517D01*
X130932000Y-79152127D01*
X130932000Y-79155448D01*
X130932000Y-79155449D01*
X130932000Y-80844560D01*
X130932000Y-80844578D01*
X130000500Y-80844578D01*
X130000500Y-78699854D01*
X130000500Y-64523996D01*
X130020184Y-64456961D01*
X130072988Y-64411206D01*
X130124499Y-64400000D01*
X130749999Y-64400000D01*
X130749999Y-63374189D01*
X130802547Y-63410016D01*
X130932173Y-63450000D01*
X131033724Y-63450000D01*
X131134138Y-63434865D01*
X131250000Y-63379068D01*
X131250000Y-64400000D01*
X131944518Y-64400000D01*
X131951132Y-64399645D01*
X132007371Y-64393599D01*
X132142089Y-64343352D01*
X132257188Y-64257188D01*
X132343352Y-64142088D01*
X132372075Y-64065080D01*
X132413946Y-64009146D01*
X132479410Y-63984729D01*
X132547683Y-63999581D01*
X132579487Y-64024431D01*
X132588212Y-64033910D01*
X132588215Y-64033912D01*
X132588216Y-64033913D01*
X132771374Y-64176470D01*
X132975497Y-64286936D01*
X133035235Y-64307444D01*
X133195015Y-64362297D01*
X133195017Y-64362297D01*
X133195019Y-64362298D01*
X133423951Y-64400500D01*
X133423952Y-64400500D01*
X133656048Y-64400500D01*
X133656049Y-64400500D01*
X133884981Y-64362298D01*
X134104503Y-64286936D01*
X134308626Y-64176470D01*
X134491784Y-64033913D01*
X134648979Y-63863153D01*
X134775924Y-63668849D01*
X134869157Y-63456300D01*
X134926134Y-63231305D01*
X134945300Y-63000000D01*
X134944903Y-62995214D01*
X134933475Y-62857287D01*
X134926134Y-62768695D01*
X134869157Y-62543700D01*
X134775924Y-62331151D01*
X134648979Y-62136847D01*
X134491784Y-61966087D01*
X134308626Y-61823530D01*
X134104503Y-61713064D01*
X134104499Y-61713062D01*
X134104498Y-61713062D01*
X133884984Y-61637702D01*
X133687720Y-61604785D01*
X133656049Y-61599500D01*
X133423951Y-61599500D01*
X133392280Y-61604785D01*
X133195015Y-61637702D01*
X132975501Y-61713062D01*
X132975497Y-61713063D01*
X132975497Y-61713064D01*
X132875012Y-61767444D01*
X132771372Y-61823531D01*
X132588214Y-61966088D01*
X132579485Y-61975571D01*
X132519597Y-62011560D01*
X132449759Y-62009458D01*
X132392144Y-61969933D01*
X132372075Y-61934919D01*
X132343352Y-61857911D01*
X132257188Y-61742811D01*
X132142089Y-61656647D01*
X132007371Y-61606400D01*
X131951132Y-61600354D01*
X131944518Y-61600000D01*
X131250000Y-61600000D01*
X131250000Y-62625810D01*
X131197453Y-62589984D01*
X131067827Y-62550000D01*
X130966276Y-62550000D01*
X130865862Y-62565135D01*
X130749999Y-62620931D01*
X130750000Y-61600000D01*
X130124499Y-61600000D01*
X130057460Y-61580315D01*
X130011705Y-61527511D01*
X130000499Y-61476004D01*
X130000499Y-59619999D01*
X130694531Y-59619999D01*
X130714364Y-59846689D01*
X130773261Y-60066497D01*
X130869432Y-60272735D01*
X130999953Y-60459140D01*
X131160859Y-60620046D01*
X131347264Y-60750567D01*
X131347265Y-60750567D01*
X131347266Y-60750568D01*
X131553504Y-60846739D01*
X131773308Y-60905635D01*
X132000000Y-60925468D01*
X132226692Y-60905635D01*
X132446496Y-60846739D01*
X132652734Y-60750568D01*
X132839139Y-60620047D01*
X133000047Y-60459139D01*
X133130568Y-60272734D01*
X133226739Y-60066496D01*
X133285635Y-59846692D01*
X133305468Y-59620000D01*
X133285635Y-59393308D01*
X133226739Y-59173504D01*
X133130568Y-58967266D01*
X133053085Y-58856607D01*
X133000046Y-58780859D01*
X132839140Y-58619953D01*
X132652735Y-58489432D01*
X132446497Y-58393261D01*
X132226689Y-58334364D01*
X132000000Y-58314531D01*
X131773310Y-58334364D01*
X131553502Y-58393261D01*
X131347264Y-58489432D01*
X131160859Y-58619953D01*
X130999953Y-58780859D01*
X130869432Y-58967264D01*
X130773261Y-59173502D01*
X130714364Y-59393310D01*
X130694531Y-59619999D01*
X130000499Y-59619999D01*
X130000499Y-52000000D01*
X131144772Y-52000000D01*
X131163657Y-52264027D01*
X131219921Y-52522673D01*
X131219923Y-52522678D01*
X131312426Y-52770689D01*
X131340742Y-52822545D01*
X131439282Y-53003009D01*
X131489599Y-53070224D01*
X131597913Y-53214915D01*
X131785085Y-53402087D01*
X131902660Y-53490102D01*
X131996990Y-53560717D01*
X132012773Y-53569335D01*
X132229311Y-53687574D01*
X132477322Y-53780077D01*
X132477325Y-53780077D01*
X132477326Y-53780078D01*
X132512314Y-53787689D01*
X132735974Y-53836343D01*
X132979660Y-53853772D01*
X132999999Y-53855227D01*
X132999999Y-53855226D01*
X133000000Y-53855227D01*
X133264026Y-53836343D01*
X133522678Y-53780077D01*
X133770689Y-53687574D01*
X134003011Y-53560716D01*
X134214915Y-53402087D01*
X134402087Y-53214915D01*
X134560716Y-53003011D01*
X134687574Y-52770689D01*
X134780077Y-52522678D01*
X134836343Y-52264026D01*
X134855227Y-52000000D01*
X134836343Y-51735974D01*
X134783863Y-51494726D01*
X134780078Y-51477326D01*
X134780077Y-51477322D01*
X134687574Y-51229311D01*
X134600602Y-51070034D01*
X134560717Y-50996990D01*
X134515262Y-50936269D01*
X134402087Y-50785085D01*
X134214915Y-50597913D01*
X134108963Y-50518598D01*
X134003009Y-50439282D01*
X133836898Y-50348579D01*
X133770689Y-50312426D01*
X133522678Y-50219923D01*
X133522673Y-50219921D01*
X133264027Y-50163657D01*
X133000000Y-50144772D01*
X132735972Y-50163657D01*
X132477326Y-50219921D01*
X132353316Y-50266174D01*
X132229311Y-50312426D01*
X132229308Y-50312427D01*
X132229307Y-50312428D01*
X131996990Y-50439282D01*
X131785082Y-50597915D01*
X131597915Y-50785082D01*
X131439282Y-50996990D01*
X131324381Y-51207417D01*
X131312426Y-51229311D01*
X131266225Y-51353181D01*
X131219921Y-51477326D01*
X131163657Y-51735972D01*
X131144772Y-52000000D01*
X130000499Y-52000000D01*
X130000500Y-44380000D01*
X130694531Y-44380000D01*
X130714364Y-44606689D01*
X130773261Y-44826497D01*
X130869432Y-45032735D01*
X130999953Y-45219140D01*
X131160859Y-45380046D01*
X131347264Y-45510567D01*
X131347265Y-45510567D01*
X131347266Y-45510568D01*
X131553504Y-45606739D01*
X131773308Y-45665635D01*
X132000000Y-45685468D01*
X132226692Y-45665635D01*
X132446496Y-45606739D01*
X132652734Y-45510568D01*
X132839139Y-45380047D01*
X133000047Y-45219139D01*
X133130568Y-45032734D01*
X133226739Y-44826496D01*
X133285635Y-44606692D01*
X133305468Y-44380000D01*
X133285635Y-44153308D01*
X133226739Y-43933504D01*
X133130568Y-43727266D01*
X133101563Y-43685841D01*
X133000046Y-43540859D01*
X132839140Y-43379953D01*
X132652735Y-43249432D01*
X132446497Y-43153261D01*
X132226689Y-43094364D01*
X131999999Y-43074531D01*
X131773310Y-43094364D01*
X131553502Y-43153261D01*
X131347264Y-43249432D01*
X131160859Y-43379953D01*
X130999953Y-43540859D01*
X130869432Y-43727264D01*
X130773261Y-43933502D01*
X130714364Y-44153310D01*
X130694531Y-44380000D01*
X130000500Y-44380000D01*
X130000500Y-39124500D01*
X130020185Y-39057461D01*
X130072989Y-39011706D01*
X130124500Y-39000500D01*
X133931663Y-39000500D01*
X133998702Y-39020185D01*
G37*
%TD.AperFunction*%
%TA.AperFunction,Conductor*%
G36*
X189331742Y-39020185D02*
G01*
X189377497Y-39072989D01*
X189387441Y-39142147D01*
X189358416Y-39205703D01*
X189323723Y-39233552D01*
X189240314Y-39278691D01*
X189231372Y-39283531D01*
X189048215Y-39426087D01*
X188891020Y-39596848D01*
X188764076Y-39791150D01*
X188670844Y-40003696D01*
X188613865Y-40228700D01*
X188594699Y-40459999D01*
X188613865Y-40691299D01*
X188613865Y-40691301D01*
X188613866Y-40691305D01*
X188670843Y-40916300D01*
X188764076Y-41128849D01*
X188891021Y-41323153D01*
X188963265Y-41401631D01*
X188986167Y-41426509D01*
X189017089Y-41489164D01*
X189009229Y-41558590D01*
X188965082Y-41612745D01*
X188938272Y-41626673D01*
X188857913Y-41656646D01*
X188742811Y-41742811D01*
X188656647Y-41857910D01*
X188606400Y-41992628D01*
X188600354Y-42048867D01*
X188600000Y-42055481D01*
X188600000Y-42750000D01*
X189624722Y-42750000D01*
X189576375Y-42833740D01*
X189546190Y-42965992D01*
X189556327Y-43101265D01*
X189605887Y-43227541D01*
X189623797Y-43250000D01*
X188600000Y-43250000D01*
X188600000Y-43944518D01*
X188600354Y-43951132D01*
X188606400Y-44007371D01*
X188656647Y-44142089D01*
X188742811Y-44257188D01*
X188857910Y-44343352D01*
X188992628Y-44393599D01*
X189048867Y-44399645D01*
X189055482Y-44400000D01*
X189750000Y-44400000D01*
X189750000Y-43374189D01*
X189802547Y-43410016D01*
X189932173Y-43450000D01*
X190033724Y-43450000D01*
X190134138Y-43434865D01*
X190250000Y-43379068D01*
X190250000Y-44400000D01*
X190944518Y-44400000D01*
X190951132Y-44399645D01*
X191007371Y-44393599D01*
X191142089Y-44343352D01*
X191257188Y-44257188D01*
X191343352Y-44142089D01*
X191393599Y-44007371D01*
X191399645Y-43951132D01*
X191400000Y-43944518D01*
X191400000Y-43250000D01*
X190375278Y-43250000D01*
X190423625Y-43166260D01*
X190453810Y-43034008D01*
X190443673Y-42898735D01*
X190394113Y-42772459D01*
X190376203Y-42750000D01*
X191400000Y-42750000D01*
X191400000Y-42055481D01*
X191399645Y-42048867D01*
X191393599Y-41992628D01*
X191343352Y-41857910D01*
X191257188Y-41742811D01*
X191142088Y-41656647D01*
X191061728Y-41626674D01*
X191005794Y-41584802D01*
X190981378Y-41519337D01*
X190996230Y-41451065D01*
X191013826Y-41426516D01*
X191108979Y-41323153D01*
X191235924Y-41128849D01*
X191329157Y-40916300D01*
X191386134Y-40691305D01*
X191405300Y-40460000D01*
X191386134Y-40228695D01*
X191329157Y-40003700D01*
X191235924Y-39791151D01*
X191108979Y-39596847D01*
X190951784Y-39426087D01*
X190768626Y-39283530D01*
X190676277Y-39233553D01*
X190626689Y-39184335D01*
X190611581Y-39116119D01*
X190635751Y-39050563D01*
X190691527Y-39008482D01*
X190735297Y-39000500D01*
X191875500Y-39000500D01*
X191942539Y-39020185D01*
X191988294Y-39072989D01*
X191999500Y-39124500D01*
X191999500Y-92875500D01*
X191979815Y-92942539D01*
X191927011Y-92988294D01*
X191875500Y-92999500D01*
X177068335Y-92999500D01*
X177001296Y-92979815D01*
X176955541Y-92927011D01*
X176945597Y-92857853D01*
X176974622Y-92794297D01*
X176980654Y-92787819D01*
X176980653Y-92787818D01*
X178369667Y-91398805D01*
X178380016Y-91389557D01*
X178407666Y-91367508D01*
X178451269Y-91317599D01*
X178456943Y-91311529D01*
X178463945Y-91304529D01*
X178490126Y-91273167D01*
X178491781Y-91271229D01*
X178555765Y-91197996D01*
X178558002Y-91194251D01*
X178569269Y-91178370D01*
X178572068Y-91175019D01*
X178620008Y-91090529D01*
X178621375Y-91088182D01*
X178633153Y-91068467D01*
X178671215Y-91004764D01*
X178672749Y-91000674D01*
X178680998Y-90983041D01*
X178683153Y-90979245D01*
X178715261Y-90887484D01*
X178716141Y-90885057D01*
X178750307Y-90794024D01*
X178750307Y-90794018D01*
X178750327Y-90793968D01*
X178792313Y-90738121D01*
X178857827Y-90713838D01*
X178926070Y-90728830D01*
X178967993Y-90766415D01*
X179041505Y-90871401D01*
X179208599Y-91038495D01*
X179402170Y-91174035D01*
X179616337Y-91273903D01*
X179844592Y-91335063D01*
X180080000Y-91355659D01*
X180315408Y-91335063D01*
X180543663Y-91273903D01*
X180757830Y-91174035D01*
X180951401Y-91038495D01*
X181118495Y-90871401D01*
X181254035Y-90677830D01*
X181353903Y-90463663D01*
X181415063Y-90235408D01*
X181435659Y-90000000D01*
X181415063Y-89764592D01*
X181353903Y-89536337D01*
X181254035Y-89322171D01*
X181118495Y-89128599D01*
X180951401Y-88961505D01*
X180757830Y-88825965D01*
X180543663Y-88726097D01*
X180482502Y-88709709D01*
X180315407Y-88664936D01*
X180080000Y-88644340D01*
X179844592Y-88664936D01*
X179616336Y-88726097D01*
X179402170Y-88825965D01*
X179208598Y-88961505D01*
X179041505Y-89128598D01*
X178911575Y-89314159D01*
X178856998Y-89357784D01*
X178787500Y-89364978D01*
X178725145Y-89333455D01*
X178708425Y-89314159D01*
X178693449Y-89292771D01*
X178578495Y-89128599D01*
X178411401Y-88961505D01*
X178217830Y-88825965D01*
X178003663Y-88726097D01*
X177942502Y-88709709D01*
X177775407Y-88664936D01*
X177540000Y-88644340D01*
X177304592Y-88664936D01*
X177076336Y-88726097D01*
X176862170Y-88825965D01*
X176668598Y-88961505D01*
X176501508Y-89128595D01*
X176501505Y-89128598D01*
X176501505Y-89128599D01*
X176476073Y-89164919D01*
X176421498Y-89208542D01*
X176351999Y-89215735D01*
X176289645Y-89184213D01*
X176254231Y-89123983D01*
X176250500Y-89093794D01*
X176250500Y-84999999D01*
X179314531Y-84999999D01*
X179334364Y-85226689D01*
X179393261Y-85446497D01*
X179489432Y-85652735D01*
X179619953Y-85839140D01*
X179780859Y-86000046D01*
X179967264Y-86130567D01*
X179967265Y-86130567D01*
X179967266Y-86130568D01*
X180173504Y-86226739D01*
X180393308Y-86285635D01*
X180620000Y-86305468D01*
X180846692Y-86285635D01*
X181066496Y-86226739D01*
X181272734Y-86130568D01*
X181459139Y-86000047D01*
X181620047Y-85839139D01*
X181750568Y-85652734D01*
X181846739Y-85446496D01*
X181905635Y-85226692D01*
X181925468Y-85000000D01*
X181905635Y-84773308D01*
X181846739Y-84553504D01*
X181750568Y-84347266D01*
X181717123Y-84299500D01*
X181620046Y-84160859D01*
X181459140Y-83999953D01*
X181272735Y-83869432D01*
X181066497Y-83773261D01*
X180846689Y-83714364D01*
X180620000Y-83694531D01*
X180393310Y-83714364D01*
X180173502Y-83773261D01*
X179967264Y-83869432D01*
X179780859Y-83999953D01*
X179619953Y-84160859D01*
X179489432Y-84347264D01*
X179393261Y-84553502D01*
X179334364Y-84773310D01*
X179314531Y-84999999D01*
X176250500Y-84999999D01*
X176250500Y-71569336D01*
X176270185Y-71502297D01*
X176286819Y-71481655D01*
X183381656Y-64386819D01*
X183442979Y-64353334D01*
X183469337Y-64350500D01*
X184664888Y-64350500D01*
X184731927Y-64370185D01*
X184777682Y-64422989D01*
X184787626Y-64492147D01*
X184758601Y-64555703D01*
X184756121Y-64558478D01*
X184611836Y-64715215D01*
X184566499Y-64784607D01*
X184475825Y-64923395D01*
X184396175Y-65104980D01*
X184375937Y-65151119D01*
X184345549Y-65271117D01*
X184314891Y-65392183D01*
X184294356Y-65640000D01*
X184314891Y-65887816D01*
X184314891Y-65887819D01*
X184314892Y-65887821D01*
X184375937Y-66128881D01*
X184397332Y-66177656D01*
X184475825Y-66356604D01*
X184475827Y-66356607D01*
X184611836Y-66564785D01*
X184736309Y-66699999D01*
X184780256Y-66747738D01*
X184863008Y-66812147D01*
X184903821Y-66868858D01*
X184907494Y-66938631D01*
X184872863Y-66999314D01*
X184863008Y-67007853D01*
X184780256Y-67072261D01*
X184672900Y-67188882D01*
X184611836Y-67255215D01*
X184566499Y-67324607D01*
X184475825Y-67463395D01*
X184396175Y-67644980D01*
X184375937Y-67691119D01*
X184315733Y-67928858D01*
X184314891Y-67932183D01*
X184294356Y-68180000D01*
X184314891Y-68427816D01*
X184314891Y-68427819D01*
X184314892Y-68427821D01*
X184375937Y-68668881D01*
X184411768Y-68750567D01*
X184475825Y-68896604D01*
X184475827Y-68896607D01*
X184611836Y-69104785D01*
X184722304Y-69224785D01*
X184780256Y-69287738D01*
X184863008Y-69352147D01*
X184903821Y-69408858D01*
X184907494Y-69478631D01*
X184872863Y-69539314D01*
X184863008Y-69547853D01*
X184780256Y-69612261D01*
X184672900Y-69728882D01*
X184611836Y-69795215D01*
X184566499Y-69864607D01*
X184475825Y-70003395D01*
X184385780Y-70208678D01*
X184375937Y-70231119D01*
X184319183Y-70455236D01*
X184314891Y-70472183D01*
X184294356Y-70720000D01*
X184314891Y-70967816D01*
X184314891Y-70967819D01*
X184314892Y-70967821D01*
X184375937Y-71208881D01*
X184412009Y-71291117D01*
X184475825Y-71436604D01*
X184475827Y-71436607D01*
X184611836Y-71644785D01*
X184780256Y-71827738D01*
X184863008Y-71892146D01*
X184903820Y-71948856D01*
X184907495Y-72018629D01*
X184872863Y-72079312D01*
X184863009Y-72087851D01*
X184780257Y-72152260D01*
X184672900Y-72268882D01*
X184611836Y-72335215D01*
X184566499Y-72404607D01*
X184475825Y-72543395D01*
X184385780Y-72748678D01*
X184375937Y-72771119D01*
X184315733Y-73008858D01*
X184314891Y-73012183D01*
X184294356Y-73259999D01*
X184314891Y-73507816D01*
X184314891Y-73507819D01*
X184314892Y-73507821D01*
X184375937Y-73748881D01*
X184412009Y-73831117D01*
X184475825Y-73976604D01*
X184475827Y-73976607D01*
X184611836Y-74184785D01*
X184722304Y-74304785D01*
X184780256Y-74367738D01*
X184863008Y-74432147D01*
X184903821Y-74488858D01*
X184907494Y-74558631D01*
X184872863Y-74619314D01*
X184863008Y-74627853D01*
X184780256Y-74692261D01*
X184634068Y-74851065D01*
X184611836Y-74875215D01*
X184600699Y-74892262D01*
X184475825Y-75083395D01*
X184396721Y-75263737D01*
X184375937Y-75311119D01*
X184340087Y-75452687D01*
X184314891Y-75552183D01*
X184294356Y-75799999D01*
X184314891Y-76047816D01*
X184314891Y-76047819D01*
X184314892Y-76047821D01*
X184375937Y-76288881D01*
X184399477Y-76342546D01*
X184475825Y-76516604D01*
X184475827Y-76516607D01*
X184611836Y-76724785D01*
X184726383Y-76849216D01*
X184780256Y-76907738D01*
X184863008Y-76972147D01*
X184903821Y-77028858D01*
X184907494Y-77098631D01*
X184872863Y-77159314D01*
X184863008Y-77167853D01*
X184780256Y-77232261D01*
X184669789Y-77352261D01*
X184611836Y-77415215D01*
X184566499Y-77484607D01*
X184475825Y-77623395D01*
X184375938Y-77851117D01*
X184314891Y-78092183D01*
X184294356Y-78339999D01*
X184314891Y-78587816D01*
X184314891Y-78587819D01*
X184314892Y-78587821D01*
X184375937Y-78828881D01*
X184381891Y-78842454D01*
X184475825Y-79056604D01*
X184475827Y-79056607D01*
X184611836Y-79264785D01*
X184722304Y-79384785D01*
X184780256Y-79447738D01*
X184863008Y-79512147D01*
X184903821Y-79568858D01*
X184907494Y-79638631D01*
X184872863Y-79699314D01*
X184863008Y-79707853D01*
X184780256Y-79772261D01*
X184692431Y-79867665D01*
X184611836Y-79955215D01*
X184579573Y-80004598D01*
X184475825Y-80163395D01*
X184423191Y-80283390D01*
X184375937Y-80391119D01*
X184345549Y-80511117D01*
X184314891Y-80632183D01*
X184294356Y-80880000D01*
X184314891Y-81127816D01*
X184314891Y-81127819D01*
X184314892Y-81127821D01*
X184375937Y-81368881D01*
X184400141Y-81424061D01*
X184475825Y-81596604D01*
X184475827Y-81596607D01*
X184611836Y-81804785D01*
X184722304Y-81924785D01*
X184780256Y-81987738D01*
X184863008Y-82052147D01*
X184903821Y-82108858D01*
X184907494Y-82178631D01*
X184872863Y-82239314D01*
X184863008Y-82247853D01*
X184780256Y-82312261D01*
X184692432Y-82407664D01*
X184611836Y-82495215D01*
X184578288Y-82546564D01*
X184475825Y-82703395D01*
X184407771Y-82858545D01*
X184375937Y-82931119D01*
X184330540Y-83110386D01*
X184314891Y-83172183D01*
X184294356Y-83420000D01*
X184314891Y-83667816D01*
X184314891Y-83667819D01*
X184314892Y-83667821D01*
X184375937Y-83908881D01*
X184385381Y-83930410D01*
X184475825Y-84136604D01*
X184475827Y-84136607D01*
X184611836Y-84344785D01*
X184780256Y-84527738D01*
X184863008Y-84592146D01*
X184903820Y-84648856D01*
X184907495Y-84718629D01*
X184872863Y-84779312D01*
X184863009Y-84787851D01*
X184780257Y-84852260D01*
X184611837Y-85035214D01*
X184475825Y-85243395D01*
X184389577Y-85440023D01*
X184375937Y-85471119D01*
X184330696Y-85649770D01*
X184314891Y-85712183D01*
X184294356Y-85960000D01*
X184314891Y-86207816D01*
X184314891Y-86207819D01*
X184314892Y-86207821D01*
X184375937Y-86448881D01*
X184409876Y-86526253D01*
X184475825Y-86676604D01*
X184475827Y-86676607D01*
X184611836Y-86884785D01*
X184745099Y-87029547D01*
X184780256Y-87067738D01*
X184863008Y-87132147D01*
X184903821Y-87188858D01*
X184907494Y-87258631D01*
X184872863Y-87319314D01*
X184863008Y-87327853D01*
X184780256Y-87392261D01*
X184611837Y-87575214D01*
X184475825Y-87783395D01*
X184405338Y-87944091D01*
X184375937Y-88011119D01*
X184345549Y-88131117D01*
X184314891Y-88252183D01*
X184294356Y-88500000D01*
X184314891Y-88747816D01*
X184314891Y-88747819D01*
X184314892Y-88747821D01*
X184375937Y-88988881D01*
X184398184Y-89039598D01*
X184475825Y-89216604D01*
X184475827Y-89216607D01*
X184611836Y-89424785D01*
X184780256Y-89607738D01*
X184780259Y-89607740D01*
X184976485Y-89760470D01*
X184976487Y-89760471D01*
X184976491Y-89760474D01*
X185195190Y-89878828D01*
X185430386Y-89959571D01*
X185675665Y-90000500D01*
X185924335Y-90000500D01*
X186169614Y-89959571D01*
X186404810Y-89878828D01*
X186623509Y-89760474D01*
X186819744Y-89607738D01*
X186988164Y-89424785D01*
X187124173Y-89216607D01*
X187224063Y-88988881D01*
X187285108Y-88747821D01*
X187305643Y-88500000D01*
X187285108Y-88252179D01*
X187224063Y-88011119D01*
X187137494Y-87813763D01*
X188084264Y-87813763D01*
X188103430Y-88045062D01*
X188103430Y-88045064D01*
X188103431Y-88045068D01*
X188147592Y-88219454D01*
X188160409Y-88270066D01*
X188174886Y-88303070D01*
X188253641Y-88482612D01*
X188380586Y-88676916D01*
X188537781Y-88847676D01*
X188720939Y-88990233D01*
X188925062Y-89100699D01*
X189006329Y-89128598D01*
X189144580Y-89176060D01*
X189144582Y-89176060D01*
X189144584Y-89176061D01*
X189373516Y-89214263D01*
X189373517Y-89214263D01*
X189605613Y-89214263D01*
X189605614Y-89214263D01*
X189834546Y-89176061D01*
X190054068Y-89100699D01*
X190258191Y-88990233D01*
X190441349Y-88847676D01*
X190598544Y-88676916D01*
X190725489Y-88482612D01*
X190818722Y-88270063D01*
X190875699Y-88045068D01*
X190894865Y-87813763D01*
X190875699Y-87582458D01*
X190818722Y-87357463D01*
X190725489Y-87144914D01*
X190598544Y-86950610D01*
X190503396Y-86847251D01*
X190472475Y-86784598D01*
X190480335Y-86715172D01*
X190524482Y-86661017D01*
X190551294Y-86647088D01*
X190631653Y-86617115D01*
X190746753Y-86530951D01*
X190832917Y-86415852D01*
X190883164Y-86281134D01*
X190889210Y-86224895D01*
X190889565Y-86218281D01*
X190889565Y-85523763D01*
X189864843Y-85523763D01*
X189913190Y-85440023D01*
X189943375Y-85307771D01*
X189933238Y-85172498D01*
X189883678Y-85046222D01*
X189865768Y-85023763D01*
X190889565Y-85023763D01*
X190889565Y-84329244D01*
X190889210Y-84322630D01*
X190883164Y-84266391D01*
X190832917Y-84131673D01*
X190746753Y-84016574D01*
X190631654Y-83930410D01*
X190496936Y-83880163D01*
X190440697Y-83874117D01*
X190434083Y-83873763D01*
X189739565Y-83873763D01*
X189739565Y-84899573D01*
X189687018Y-84863747D01*
X189557392Y-84823763D01*
X189455841Y-84823763D01*
X189355427Y-84838898D01*
X189239565Y-84894694D01*
X189239565Y-83873763D01*
X188545047Y-83873763D01*
X188538432Y-83874117D01*
X188482193Y-83880163D01*
X188347475Y-83930410D01*
X188232376Y-84016574D01*
X188146212Y-84131673D01*
X188095965Y-84266391D01*
X188089919Y-84322630D01*
X188089565Y-84329244D01*
X188089565Y-85023763D01*
X189114287Y-85023763D01*
X189065940Y-85107503D01*
X189035755Y-85239755D01*
X189045892Y-85375028D01*
X189095452Y-85501304D01*
X189113362Y-85523763D01*
X188089565Y-85523763D01*
X188089565Y-86218281D01*
X188089919Y-86224895D01*
X188095965Y-86281134D01*
X188146212Y-86415852D01*
X188232376Y-86530951D01*
X188347475Y-86617115D01*
X188427836Y-86647088D01*
X188483769Y-86688960D01*
X188508186Y-86754424D01*
X188493334Y-86822697D01*
X188475732Y-86847252D01*
X188380587Y-86950607D01*
X188253641Y-87144913D01*
X188160409Y-87357459D01*
X188160407Y-87357463D01*
X188160408Y-87357463D01*
X188105238Y-87575325D01*
X188103430Y-87582463D01*
X188084264Y-87813763D01*
X187137494Y-87813763D01*
X187134016Y-87805833D01*
X187124174Y-87783395D01*
X187120538Y-87777829D01*
X186988164Y-87575215D01*
X186819744Y-87392262D01*
X186777685Y-87359526D01*
X186736992Y-87327853D01*
X186696179Y-87271143D01*
X186692504Y-87201370D01*
X186727136Y-87140687D01*
X186736992Y-87132147D01*
X186761256Y-87113260D01*
X186819744Y-87067738D01*
X186988164Y-86884785D01*
X187124173Y-86676607D01*
X187224063Y-86448881D01*
X187285108Y-86207821D01*
X187305643Y-85960000D01*
X187285108Y-85712179D01*
X187224063Y-85471119D01*
X187124173Y-85243393D01*
X186988164Y-85035215D01*
X186819744Y-84852262D01*
X186753207Y-84800474D01*
X186736992Y-84787853D01*
X186696179Y-84731143D01*
X186692504Y-84661370D01*
X186727136Y-84600687D01*
X186736992Y-84592147D01*
X186761256Y-84573260D01*
X186819744Y-84527738D01*
X186988164Y-84344785D01*
X187124173Y-84136607D01*
X187224063Y-83908881D01*
X187285108Y-83667821D01*
X187305643Y-83420000D01*
X187285108Y-83172179D01*
X187224063Y-82931119D01*
X187124173Y-82703393D01*
X186988164Y-82495215D01*
X186819744Y-82312262D01*
X186753207Y-82260474D01*
X186736992Y-82247853D01*
X186696179Y-82191143D01*
X186692504Y-82121370D01*
X186727136Y-82060687D01*
X186736992Y-82052147D01*
X186777773Y-82020405D01*
X186819744Y-81987738D01*
X186988164Y-81804785D01*
X187124173Y-81596607D01*
X187224063Y-81368881D01*
X187285108Y-81127821D01*
X187305643Y-80880000D01*
X187285108Y-80632179D01*
X187224063Y-80391119D01*
X187124173Y-80163393D01*
X186988164Y-79955215D01*
X186819744Y-79772262D01*
X186753207Y-79720474D01*
X186736992Y-79707853D01*
X186696179Y-79651143D01*
X186692504Y-79581370D01*
X186727136Y-79520687D01*
X186736992Y-79512147D01*
X186777773Y-79480405D01*
X186819744Y-79447738D01*
X186988164Y-79264785D01*
X187124173Y-79056607D01*
X187224063Y-78828881D01*
X187285108Y-78587821D01*
X187305643Y-78340000D01*
X187285108Y-78092179D01*
X187224063Y-77851119D01*
X187124173Y-77623393D01*
X186988164Y-77415215D01*
X186819744Y-77232262D01*
X186777685Y-77199526D01*
X186736991Y-77167852D01*
X186696178Y-77111141D01*
X186692505Y-77041368D01*
X186727136Y-76980685D01*
X186736974Y-76972160D01*
X186819744Y-76907738D01*
X186988164Y-76724785D01*
X187124173Y-76516607D01*
X187224063Y-76288881D01*
X187285108Y-76047821D01*
X187305643Y-75800000D01*
X187285108Y-75552179D01*
X187224063Y-75311119D01*
X187124173Y-75083393D01*
X186988164Y-74875215D01*
X186819744Y-74692262D01*
X186783906Y-74664368D01*
X186736992Y-74627853D01*
X186696179Y-74571143D01*
X186692504Y-74501370D01*
X186727136Y-74440687D01*
X186736992Y-74432147D01*
X186777773Y-74400405D01*
X186819744Y-74367738D01*
X186988164Y-74184785D01*
X187124173Y-73976607D01*
X187224063Y-73748881D01*
X187285108Y-73507821D01*
X187305643Y-73260000D01*
X187285108Y-73012179D01*
X187224063Y-72771119D01*
X187124173Y-72543393D01*
X186988164Y-72335215D01*
X186819744Y-72152262D01*
X186753207Y-72100474D01*
X186736992Y-72087853D01*
X186696179Y-72031143D01*
X186692504Y-71961370D01*
X186727136Y-71900687D01*
X186736992Y-71892147D01*
X186777773Y-71860405D01*
X186819744Y-71827738D01*
X186988164Y-71644785D01*
X187124173Y-71436607D01*
X187224063Y-71208881D01*
X187285108Y-70967821D01*
X187305643Y-70720000D01*
X187285108Y-70472179D01*
X187224063Y-70231119D01*
X187124173Y-70003393D01*
X186988164Y-69795215D01*
X186819744Y-69612262D01*
X186753207Y-69560474D01*
X186736992Y-69547853D01*
X186696179Y-69491143D01*
X186692504Y-69421370D01*
X186727136Y-69360687D01*
X186736992Y-69352147D01*
X186777773Y-69320405D01*
X186819744Y-69287738D01*
X186988164Y-69104785D01*
X187124173Y-68896607D01*
X187224063Y-68668881D01*
X187285108Y-68427821D01*
X187305643Y-68180000D01*
X187285108Y-67932179D01*
X187224063Y-67691119D01*
X187124173Y-67463393D01*
X186988164Y-67255215D01*
X186819744Y-67072262D01*
X186753207Y-67020474D01*
X186736992Y-67007853D01*
X186696179Y-66951143D01*
X186692504Y-66881370D01*
X186727136Y-66820687D01*
X186736992Y-66812147D01*
X186768477Y-66787641D01*
X186819744Y-66747738D01*
X186988164Y-66564785D01*
X187124173Y-66356607D01*
X187224063Y-66128881D01*
X187285108Y-65887821D01*
X187305643Y-65640000D01*
X187285108Y-65392179D01*
X187224063Y-65151119D01*
X187124173Y-64923393D01*
X186988164Y-64715215D01*
X186819744Y-64532262D01*
X186777685Y-64499526D01*
X186736992Y-64467853D01*
X186696179Y-64411143D01*
X186692504Y-64341370D01*
X186727136Y-64280687D01*
X186736992Y-64272147D01*
X186777773Y-64240405D01*
X186819744Y-64207738D01*
X186988164Y-64024785D01*
X187124173Y-63816607D01*
X187224063Y-63588881D01*
X187285108Y-63347821D01*
X187305643Y-63100000D01*
X187285108Y-62852179D01*
X187224063Y-62611119D01*
X187124173Y-62383393D01*
X186988164Y-62175215D01*
X186819744Y-61992262D01*
X186786116Y-61966088D01*
X186736992Y-61927853D01*
X186696179Y-61871143D01*
X186692504Y-61801370D01*
X186727136Y-61740687D01*
X186736992Y-61732147D01*
X186761512Y-61713062D01*
X186819744Y-61667738D01*
X186988164Y-61484785D01*
X187124173Y-61276607D01*
X187224063Y-61048881D01*
X187285108Y-60807821D01*
X187305643Y-60560000D01*
X187285108Y-60312179D01*
X187224063Y-60071119D01*
X187124173Y-59843393D01*
X186988164Y-59635215D01*
X186819744Y-59452262D01*
X186716253Y-59371712D01*
X186675442Y-59315003D01*
X186668655Y-59266176D01*
X186670056Y-59243609D01*
X185844400Y-58417953D01*
X185925148Y-58405165D01*
X186038045Y-58347641D01*
X186127641Y-58258045D01*
X186185165Y-58145148D01*
X186197953Y-58064400D01*
X187023434Y-58889882D01*
X187123730Y-58736369D01*
X187223586Y-58508721D01*
X187284613Y-58267732D01*
X187305141Y-58019999D01*
X187284613Y-57772267D01*
X187223586Y-57531278D01*
X187123730Y-57303630D01*
X187023434Y-57150116D01*
X186197953Y-57975598D01*
X186185165Y-57894852D01*
X186127641Y-57781955D01*
X186038045Y-57692359D01*
X185925148Y-57634835D01*
X185844399Y-57622046D01*
X186670056Y-56796390D01*
X186669011Y-56779549D01*
X186684503Y-56711419D01*
X186717786Y-56675738D01*
X186717223Y-56675126D01*
X186729484Y-56663837D01*
X186766846Y-56629442D01*
X186774625Y-56622854D01*
X186819744Y-56587738D01*
X186858468Y-56545671D01*
X186865671Y-56538468D01*
X186907738Y-56499744D01*
X186942854Y-56454625D01*
X186949442Y-56446846D01*
X186988164Y-56404785D01*
X187019420Y-56356941D01*
X187025365Y-56348616D01*
X187025929Y-56347890D01*
X187060474Y-56303509D01*
X187087685Y-56253225D01*
X187092911Y-56244455D01*
X187124173Y-56196607D01*
X187147126Y-56144275D01*
X187151617Y-56135089D01*
X187178828Y-56084810D01*
X187197387Y-56030745D01*
X187201103Y-56021220D01*
X187224063Y-55968881D01*
X187238091Y-55913482D01*
X187241014Y-55903666D01*
X187259571Y-55849614D01*
X187259931Y-55847454D01*
X187268978Y-55793237D01*
X187271079Y-55783219D01*
X187285107Y-55727825D01*
X187285107Y-55727824D01*
X187285108Y-55727821D01*
X187289827Y-55670859D01*
X187291094Y-55660696D01*
X187295881Y-55632011D01*
X187300500Y-55604335D01*
X187300500Y-55547189D01*
X187300924Y-55536948D01*
X187305643Y-55479999D01*
X187300924Y-55423050D01*
X187300500Y-55412809D01*
X187300500Y-55355666D01*
X187291094Y-55299301D01*
X187289826Y-55289130D01*
X187285108Y-55232179D01*
X187271077Y-55176773D01*
X187268976Y-55166749D01*
X187259571Y-55110388D01*
X187259571Y-55110386D01*
X187241008Y-55056315D01*
X187238088Y-55046506D01*
X187224063Y-54991119D01*
X187201105Y-54938782D01*
X187197389Y-54929261D01*
X187178828Y-54875190D01*
X187178826Y-54875186D01*
X187151623Y-54824920D01*
X187147126Y-54815723D01*
X187124173Y-54763393D01*
X187092911Y-54715544D01*
X187087676Y-54706757D01*
X187060474Y-54656491D01*
X187025369Y-54611388D01*
X187019416Y-54603050D01*
X186988165Y-54555216D01*
X186961733Y-54526504D01*
X186949458Y-54513169D01*
X186942843Y-54505358D01*
X186907739Y-54460257D01*
X186872539Y-54427853D01*
X186865685Y-54421543D01*
X186858455Y-54414313D01*
X186819744Y-54372262D01*
X186799736Y-54356689D01*
X186774646Y-54337160D01*
X186766825Y-54330536D01*
X186732323Y-54298774D01*
X186696333Y-54238887D01*
X186698434Y-54169048D01*
X186737959Y-54111433D01*
X186740066Y-54109753D01*
X186819744Y-54047738D01*
X186988164Y-53864785D01*
X187124173Y-53656607D01*
X187224063Y-53428881D01*
X187285108Y-53187821D01*
X187305643Y-52940000D01*
X187285108Y-52692179D01*
X187224063Y-52451119D01*
X187124522Y-52224188D01*
X187124174Y-52223395D01*
X187124173Y-52223393D01*
X186988164Y-52015215D01*
X186819744Y-51832262D01*
X186753207Y-51780474D01*
X186736992Y-51767853D01*
X186696179Y-51711143D01*
X186692504Y-51641370D01*
X186727136Y-51580687D01*
X186736992Y-51572147D01*
X186767354Y-51548515D01*
X186819744Y-51507738D01*
X186988164Y-51324785D01*
X187124173Y-51116607D01*
X187224063Y-50888881D01*
X187285108Y-50647821D01*
X187305643Y-50400000D01*
X187285108Y-50152179D01*
X187224063Y-49911119D01*
X187124173Y-49683393D01*
X186988164Y-49475215D01*
X186819744Y-49292262D01*
X186740142Y-49230305D01*
X186699330Y-49173596D01*
X186695656Y-49103823D01*
X186730288Y-49043140D01*
X186732298Y-49041247D01*
X186766837Y-49009450D01*
X186774625Y-49002854D01*
X186819744Y-48967738D01*
X186858468Y-48925671D01*
X186865671Y-48918468D01*
X186907738Y-48879744D01*
X186942854Y-48834625D01*
X186949442Y-48826846D01*
X186988164Y-48784785D01*
X187019420Y-48736941D01*
X187025365Y-48728616D01*
X187025929Y-48727890D01*
X187060474Y-48683509D01*
X187087685Y-48633225D01*
X187092911Y-48624455D01*
X187124173Y-48576607D01*
X187147126Y-48524275D01*
X187151617Y-48515089D01*
X187178828Y-48464810D01*
X187197387Y-48410745D01*
X187201103Y-48401220D01*
X187224063Y-48348881D01*
X187238091Y-48293482D01*
X187241014Y-48283666D01*
X187259571Y-48229614D01*
X187261075Y-48220598D01*
X187268978Y-48173237D01*
X187271079Y-48163219D01*
X187285107Y-48107825D01*
X187285107Y-48107824D01*
X187285108Y-48107821D01*
X187289827Y-48050859D01*
X187291094Y-48040696D01*
X187292355Y-48033142D01*
X187300500Y-47984335D01*
X187300500Y-47927189D01*
X187300924Y-47916948D01*
X187305643Y-47859999D01*
X187300924Y-47803050D01*
X187300500Y-47792809D01*
X187300500Y-47735666D01*
X187297293Y-47716451D01*
X187291093Y-47679299D01*
X187289826Y-47669130D01*
X187285108Y-47612179D01*
X187271077Y-47556773D01*
X187268976Y-47546749D01*
X187265924Y-47528460D01*
X187259571Y-47490386D01*
X187241008Y-47436315D01*
X187238088Y-47426506D01*
X187224063Y-47371119D01*
X187201105Y-47318782D01*
X187197389Y-47309261D01*
X187178828Y-47255190D01*
X187178826Y-47255186D01*
X187151623Y-47204920D01*
X187147126Y-47195723D01*
X187124173Y-47143393D01*
X187092911Y-47095544D01*
X187087676Y-47086757D01*
X187060474Y-47036491D01*
X187025369Y-46991388D01*
X187019416Y-46983050D01*
X186988165Y-46935216D01*
X186960937Y-46905639D01*
X186949458Y-46893169D01*
X186942843Y-46885358D01*
X186907739Y-46840257D01*
X186905867Y-46838534D01*
X186865685Y-46801543D01*
X186858455Y-46794313D01*
X186819744Y-46752262D01*
X186799736Y-46736689D01*
X186774646Y-46717160D01*
X186766825Y-46710536D01*
X186732323Y-46678774D01*
X186696333Y-46618887D01*
X186698434Y-46549048D01*
X186737959Y-46491433D01*
X186740066Y-46489753D01*
X186819744Y-46427738D01*
X186988164Y-46244785D01*
X187124173Y-46036607D01*
X187224063Y-45808881D01*
X187285108Y-45567821D01*
X187305643Y-45320000D01*
X187285108Y-45072179D01*
X187224063Y-44831119D01*
X187124173Y-44603393D01*
X186988164Y-44395215D01*
X186819744Y-44212262D01*
X186716253Y-44131712D01*
X186675442Y-44075003D01*
X186668655Y-44026176D01*
X186670056Y-44003609D01*
X185844400Y-43177953D01*
X185925148Y-43165165D01*
X186038045Y-43107641D01*
X186127641Y-43018045D01*
X186185165Y-42905148D01*
X186197953Y-42824401D01*
X187023434Y-43649882D01*
X187123730Y-43496369D01*
X187223586Y-43268721D01*
X187284613Y-43027732D01*
X187305141Y-42780000D01*
X187284613Y-42532267D01*
X187223586Y-42291278D01*
X187123730Y-42063630D01*
X187023434Y-41910116D01*
X186197953Y-42735598D01*
X186185165Y-42654852D01*
X186127641Y-42541955D01*
X186038045Y-42452359D01*
X185925148Y-42394835D01*
X185844399Y-42382045D01*
X186670056Y-41556389D01*
X186670056Y-41556387D01*
X186623235Y-41519947D01*
X186404606Y-41401631D01*
X186169493Y-41320916D01*
X185924293Y-41280000D01*
X185675707Y-41280000D01*
X185430506Y-41320916D01*
X185195393Y-41401631D01*
X184976764Y-41519946D01*
X184929942Y-41556388D01*
X184929942Y-41556390D01*
X185755599Y-42382046D01*
X185674852Y-42394835D01*
X185561955Y-42452359D01*
X185472359Y-42541955D01*
X185414835Y-42654852D01*
X185402046Y-42735598D01*
X184576564Y-41910116D01*
X184476266Y-42063634D01*
X184376413Y-42291278D01*
X184315386Y-42532267D01*
X184294858Y-42780000D01*
X184315386Y-43027732D01*
X184376413Y-43268721D01*
X184476268Y-43496370D01*
X184576563Y-43649882D01*
X184576564Y-43649882D01*
X185402045Y-42824399D01*
X185414835Y-42905148D01*
X185472359Y-43018045D01*
X185561955Y-43107641D01*
X185674852Y-43165165D01*
X185755599Y-43177953D01*
X184929942Y-44003610D01*
X184931343Y-44026178D01*
X184915850Y-44094308D01*
X184883744Y-44131714D01*
X184780256Y-44212261D01*
X184701784Y-44297505D01*
X184611836Y-44395215D01*
X184571886Y-44456363D01*
X184475825Y-44603395D01*
X184397951Y-44780932D01*
X184375937Y-44831119D01*
X184344692Y-44954502D01*
X184314891Y-45072183D01*
X184294356Y-45320000D01*
X184314891Y-45567816D01*
X184314891Y-45567819D01*
X184314892Y-45567821D01*
X184375937Y-45808881D01*
X184420960Y-45911523D01*
X184475825Y-46036604D01*
X184561460Y-46167678D01*
X184581647Y-46234568D01*
X184562467Y-46301754D01*
X184510009Y-46347904D01*
X184457651Y-46359500D01*
X184240864Y-46359500D01*
X184225526Y-46358548D01*
X184202219Y-46355642D01*
X184111536Y-46359394D01*
X184106411Y-46359500D01*
X184077933Y-46359500D01*
X184075406Y-46359709D01*
X184075389Y-46359710D01*
X184049538Y-46361852D01*
X184044428Y-46362169D01*
X183953761Y-46365920D01*
X183930781Y-46370738D01*
X183915581Y-46372952D01*
X183892180Y-46374891D01*
X183804191Y-46397172D01*
X183799202Y-46398326D01*
X183710386Y-46416950D01*
X183688515Y-46425484D01*
X183673890Y-46430169D01*
X183651120Y-46435936D01*
X183568020Y-46472386D01*
X183563288Y-46474346D01*
X183478726Y-46507343D01*
X183458545Y-46519368D01*
X183444891Y-46526396D01*
X183423392Y-46535826D01*
X183347417Y-46585462D01*
X183343074Y-46588174D01*
X183265102Y-46634636D01*
X183247183Y-46649813D01*
X183234868Y-46658995D01*
X183215215Y-46671835D01*
X183148447Y-46733299D01*
X183144609Y-46736689D01*
X183127544Y-46751143D01*
X183122874Y-46755098D01*
X183121059Y-46756911D01*
X183121061Y-46756911D01*
X183102738Y-46775233D01*
X183099045Y-46778775D01*
X183032262Y-46840254D01*
X183017832Y-46858793D01*
X183007664Y-46870306D01*
X179010306Y-50867664D01*
X178998793Y-50877832D01*
X178980254Y-50892262D01*
X178918775Y-50959045D01*
X178915233Y-50962738D01*
X178895098Y-50982874D01*
X178893437Y-50984834D01*
X178893437Y-50984835D01*
X178876689Y-51004609D01*
X178873299Y-51008447D01*
X178811835Y-51075215D01*
X178798995Y-51094868D01*
X178789813Y-51107183D01*
X178774636Y-51125102D01*
X178728174Y-51203074D01*
X178725462Y-51207417D01*
X178675826Y-51283392D01*
X178666396Y-51304891D01*
X178659368Y-51318545D01*
X178647343Y-51338726D01*
X178614346Y-51423288D01*
X178612386Y-51428020D01*
X178575936Y-51511120D01*
X178570169Y-51533890D01*
X178565484Y-51548515D01*
X178556951Y-51570385D01*
X178538324Y-51659211D01*
X178537170Y-51664200D01*
X178514891Y-51752180D01*
X178512952Y-51775578D01*
X178510738Y-51790777D01*
X178505919Y-51813762D01*
X178502168Y-51904440D01*
X178501851Y-51909551D01*
X178499710Y-51935390D01*
X178499709Y-51935406D01*
X178499500Y-51937933D01*
X178499500Y-51940486D01*
X178499500Y-51966402D01*
X178499394Y-51971527D01*
X178495642Y-52062219D01*
X178498548Y-52085526D01*
X178499500Y-52100864D01*
X178499500Y-53122946D01*
X178479815Y-53189985D01*
X178463181Y-53210627D01*
X170925627Y-60748181D01*
X170864304Y-60781666D01*
X170837946Y-60784500D01*
X168624000Y-60784500D01*
X168556961Y-60764815D01*
X168511206Y-60712011D01*
X168500000Y-60660500D01*
X168500000Y-59995000D01*
X167433686Y-59995000D01*
X167459493Y-59954844D01*
X167500000Y-59816889D01*
X167500000Y-59673111D01*
X167459493Y-59535156D01*
X167433686Y-59495000D01*
X168500000Y-59495000D01*
X168500000Y-58700481D01*
X168499645Y-58693867D01*
X168493599Y-58637628D01*
X168449371Y-58519049D01*
X168444387Y-58449357D01*
X168449367Y-58432393D01*
X168494091Y-58312483D01*
X168500500Y-58252873D01*
X168500499Y-56157128D01*
X168494091Y-56097517D01*
X168443796Y-55962669D01*
X168357546Y-55847454D01*
X168242331Y-55761204D01*
X168107483Y-55710909D01*
X168047873Y-55704500D01*
X168044551Y-55704500D01*
X167374499Y-55704500D01*
X167307460Y-55684815D01*
X167261705Y-55632011D01*
X167250499Y-55580500D01*
X167250499Y-54395233D01*
X167250499Y-53077167D01*
X167251277Y-53063322D01*
X167255238Y-53028173D01*
X167250781Y-52962061D01*
X167250500Y-52953720D01*
X167250500Y-52946621D01*
X167250500Y-52946620D01*
X167250500Y-52943845D01*
X167246844Y-52903230D01*
X167246630Y-52900498D01*
X167240097Y-52803588D01*
X167239028Y-52799346D01*
X167235768Y-52780155D01*
X167235377Y-52775814D01*
X167235377Y-52775812D01*
X167209513Y-52682100D01*
X167208855Y-52679609D01*
X167185096Y-52585317D01*
X167183285Y-52581331D01*
X167176656Y-52563046D01*
X167175493Y-52558830D01*
X167133332Y-52471283D01*
X167132181Y-52468823D01*
X167092007Y-52380375D01*
X167091747Y-52380000D01*
X172694531Y-52380000D01*
X172714364Y-52606689D01*
X172773261Y-52826497D01*
X172869432Y-53032735D01*
X172999953Y-53219140D01*
X173160859Y-53380046D01*
X173347264Y-53510567D01*
X173347265Y-53510567D01*
X173347266Y-53510568D01*
X173553504Y-53606739D01*
X173773308Y-53665635D01*
X174000000Y-53685468D01*
X174226692Y-53665635D01*
X174446496Y-53606739D01*
X174652734Y-53510568D01*
X174839139Y-53380047D01*
X175000047Y-53219139D01*
X175130568Y-53032734D01*
X175226739Y-52826496D01*
X175285635Y-52606692D01*
X175305468Y-52380000D01*
X175285635Y-52153308D01*
X175226739Y-51933504D01*
X175130568Y-51727266D01*
X175111958Y-51700687D01*
X175000046Y-51540859D01*
X174839140Y-51379953D01*
X174652735Y-51249432D01*
X174446497Y-51153261D01*
X174226689Y-51094364D01*
X173999999Y-51074531D01*
X173773310Y-51094364D01*
X173553502Y-51153261D01*
X173347264Y-51249432D01*
X173160859Y-51379953D01*
X172999953Y-51540859D01*
X172869432Y-51727264D01*
X172773261Y-51933502D01*
X172714364Y-52153310D01*
X172694531Y-52380000D01*
X167091747Y-52380000D01*
X167089519Y-52376784D01*
X167079723Y-52359961D01*
X167079203Y-52358881D01*
X167077829Y-52356027D01*
X167020706Y-52277404D01*
X167019128Y-52275180D01*
X167011401Y-52264027D01*
X166963820Y-52195346D01*
X166960734Y-52192260D01*
X166948091Y-52177458D01*
X166945522Y-52173922D01*
X166875299Y-52106782D01*
X166873310Y-52104836D01*
X166286819Y-51518344D01*
X166253334Y-51457021D01*
X166250500Y-51430663D01*
X166250500Y-43077185D01*
X166251280Y-43063300D01*
X166254581Y-43034008D01*
X166255238Y-43028173D01*
X166250781Y-42962061D01*
X166250500Y-42953720D01*
X166250500Y-42946621D01*
X166250500Y-42946620D01*
X166250500Y-42943845D01*
X166246844Y-42903230D01*
X166246630Y-42900498D01*
X166240097Y-42803588D01*
X166239028Y-42799346D01*
X166235768Y-42780155D01*
X166235377Y-42775814D01*
X166235377Y-42775812D01*
X166209512Y-42682094D01*
X166208855Y-42679609D01*
X166185096Y-42585317D01*
X166183285Y-42581331D01*
X166176656Y-42563046D01*
X166175493Y-42558830D01*
X166133332Y-42471283D01*
X166132181Y-42468823D01*
X166092007Y-42380375D01*
X166089519Y-42376784D01*
X166079723Y-42359961D01*
X166078675Y-42357784D01*
X166077829Y-42356027D01*
X166020706Y-42277404D01*
X166019128Y-42275180D01*
X165963820Y-42195346D01*
X165960734Y-42192260D01*
X165948091Y-42177458D01*
X165945522Y-42173922D01*
X165875299Y-42106782D01*
X165873310Y-42104836D01*
X162980655Y-39212181D01*
X162947170Y-39150858D01*
X162952154Y-39081166D01*
X162994026Y-39025233D01*
X163059490Y-39000816D01*
X163068336Y-39000500D01*
X189264703Y-39000500D01*
X189331742Y-39020185D01*
G37*
%TD.AperFunction*%
%TA.AperFunction,Conductor*%
G36*
X160709835Y-76045148D02*
G01*
X160767359Y-76158045D01*
X160856955Y-76247641D01*
X160969852Y-76305165D01*
X161050599Y-76317953D01*
X160224942Y-77143610D01*
X160226343Y-77166178D01*
X160210850Y-77234308D01*
X160178744Y-77271714D01*
X160075256Y-77352261D01*
X159979263Y-77456538D01*
X159919375Y-77492529D01*
X159849537Y-77490428D01*
X159791921Y-77450904D01*
X159764820Y-77386504D01*
X159764033Y-77372555D01*
X159764033Y-76916255D01*
X159783718Y-76849216D01*
X159836522Y-76803461D01*
X159862195Y-76799251D01*
X160697046Y-75964400D01*
X160709835Y-76045148D01*
G37*
%TD.AperFunction*%
%TA.AperFunction,Conductor*%
G36*
X159969236Y-74373731D02*
G01*
X159979256Y-74383454D01*
X160075256Y-74487738D01*
X160164179Y-74556950D01*
X160178744Y-74568286D01*
X160219557Y-74624996D01*
X160226343Y-74673823D01*
X160224941Y-74696389D01*
X161050597Y-75522046D01*
X160969852Y-75534835D01*
X160856955Y-75592359D01*
X160767359Y-75681955D01*
X160709835Y-75794852D01*
X160697046Y-75875598D01*
X159861232Y-75039784D01*
X159832109Y-75034416D01*
X159781152Y-74986612D01*
X159764033Y-74923743D01*
X159764033Y-74467444D01*
X159783718Y-74400405D01*
X159836522Y-74354650D01*
X159905680Y-74344706D01*
X159969236Y-74373731D01*
G37*
%TD.AperFunction*%
%TA.AperFunction,Conductor*%
G36*
X149790000Y-44330633D02*
G01*
X150003490Y-44273430D01*
X150217576Y-44173600D01*
X150411081Y-44038106D01*
X150578109Y-43871078D01*
X150708119Y-43685405D01*
X150762696Y-43641780D01*
X150832194Y-43634586D01*
X150894549Y-43666109D01*
X150911265Y-43685400D01*
X151041505Y-43871401D01*
X151208599Y-44038495D01*
X151402170Y-44174035D01*
X151616337Y-44273903D01*
X151844592Y-44335063D01*
X151970096Y-44346043D01*
X152035164Y-44371495D01*
X152046969Y-44381890D01*
X152963181Y-45298101D01*
X152996666Y-45359424D01*
X152999500Y-45385782D01*
X152999500Y-46534217D01*
X152979815Y-46601256D01*
X152963181Y-46621898D01*
X151621899Y-47963181D01*
X151560576Y-47996666D01*
X151534218Y-47999500D01*
X148610707Y-47999500D01*
X148607565Y-47999460D01*
X148520103Y-47997243D01*
X148462057Y-48007646D01*
X148452732Y-48008954D01*
X148394030Y-48014925D01*
X148364996Y-48024034D01*
X148349756Y-48027775D01*
X148319813Y-48033142D01*
X148265036Y-48055021D01*
X148256166Y-48058179D01*
X148199878Y-48075841D01*
X148173277Y-48090605D01*
X148159107Y-48097335D01*
X148130853Y-48108622D01*
X148081589Y-48141087D01*
X148073538Y-48145964D01*
X148021966Y-48174590D01*
X147998882Y-48194407D01*
X147986355Y-48203853D01*
X147960949Y-48220598D01*
X147919243Y-48262303D01*
X147912336Y-48268704D01*
X147867571Y-48307135D01*
X147848948Y-48331193D01*
X147838576Y-48342969D01*
X145302646Y-50878900D01*
X145300399Y-50881091D01*
X145236948Y-50941407D01*
X145203244Y-50989830D01*
X145197573Y-50997350D01*
X145160301Y-51043061D01*
X145146210Y-51070034D01*
X145138082Y-51083451D01*
X145120705Y-51108418D01*
X145097439Y-51162633D01*
X145093399Y-51171139D01*
X145066090Y-51223420D01*
X145057720Y-51252669D01*
X145052459Y-51267446D01*
X145040460Y-51295410D01*
X145028587Y-51353181D01*
X145026342Y-51362328D01*
X145010113Y-51419048D01*
X145007802Y-51449393D01*
X145005622Y-51464934D01*
X144999500Y-51494726D01*
X144999500Y-51553709D01*
X144999142Y-51563123D01*
X144994663Y-51621945D01*
X144998506Y-51652119D01*
X144999500Y-51667785D01*
X144999500Y-62534217D01*
X144979815Y-62601256D01*
X144963181Y-62621898D01*
X141921899Y-65663181D01*
X141860576Y-65696666D01*
X141834218Y-65699500D01*
X139092855Y-65699500D01*
X139025816Y-65679815D01*
X139001625Y-65659483D01*
X138999475Y-65657147D01*
X138939744Y-65592262D01*
X138923437Y-65579570D01*
X138856992Y-65527853D01*
X138816179Y-65471143D01*
X138812504Y-65401370D01*
X138847136Y-65340687D01*
X138856992Y-65332147D01*
X138881256Y-65313260D01*
X138939744Y-65267738D01*
X139001624Y-65200517D01*
X139061512Y-65164527D01*
X139092855Y-65160500D01*
X140825721Y-65160500D01*
X140828862Y-65160539D01*
X140916363Y-65162757D01*
X140974432Y-65152348D01*
X140983736Y-65151043D01*
X141042438Y-65145074D01*
X141071467Y-65135965D01*
X141086700Y-65132226D01*
X141116653Y-65126858D01*
X141171426Y-65104978D01*
X141180301Y-65101819D01*
X141197675Y-65096367D01*
X141236588Y-65084159D01*
X141263194Y-65069390D01*
X141277362Y-65062662D01*
X141305617Y-65051377D01*
X141354879Y-65018909D01*
X141362910Y-65014043D01*
X141414502Y-64985409D01*
X141437587Y-64965589D01*
X141450114Y-64956144D01*
X141475519Y-64939402D01*
X141517251Y-64897668D01*
X141524123Y-64891300D01*
X141568895Y-64852866D01*
X141587519Y-64828803D01*
X141597880Y-64817039D01*
X143213171Y-63201748D01*
X143215341Y-63199632D01*
X143278815Y-63139297D01*
X143312519Y-63090871D01*
X143318188Y-63083354D01*
X143355460Y-63037645D01*
X143369545Y-63010677D01*
X143377680Y-62997253D01*
X143390166Y-62979314D01*
X143395057Y-62972287D01*
X143418330Y-62918053D01*
X143422350Y-62909588D01*
X143449671Y-62857287D01*
X143451133Y-62852179D01*
X143458037Y-62828046D01*
X143463301Y-62813257D01*
X143475302Y-62785296D01*
X143487179Y-62727494D01*
X143489414Y-62718386D01*
X143505648Y-62661656D01*
X143507958Y-62631316D01*
X143510138Y-62615778D01*
X143516262Y-62585980D01*
X143516262Y-62526992D01*
X143516620Y-62517577D01*
X143518892Y-62487738D01*
X143521099Y-62458762D01*
X143517255Y-62428577D01*
X143516262Y-62412914D01*
X143516262Y-47530022D01*
X143516302Y-47526880D01*
X143518519Y-47439400D01*
X143517099Y-47431480D01*
X143508111Y-47381335D01*
X143506803Y-47372004D01*
X143506713Y-47371118D01*
X143500836Y-47313324D01*
X143491724Y-47284282D01*
X143487988Y-47269059D01*
X143482620Y-47239109D01*
X143460738Y-47184328D01*
X143457578Y-47175451D01*
X143439921Y-47119174D01*
X143425157Y-47092574D01*
X143418422Y-47078393D01*
X143409164Y-47055215D01*
X143407139Y-47050145D01*
X143374679Y-47000893D01*
X143369798Y-46992836D01*
X143357625Y-46970904D01*
X143341171Y-46941260D01*
X143321344Y-46918165D01*
X143311908Y-46905650D01*
X143295164Y-46880243D01*
X143295162Y-46880241D01*
X143295161Y-46880239D01*
X143253455Y-46838534D01*
X143247049Y-46831622D01*
X143208626Y-46786864D01*
X143184566Y-46768240D01*
X143172788Y-46757867D01*
X141982737Y-45567816D01*
X140678471Y-44263551D01*
X140644987Y-44202229D01*
X140649971Y-44132537D01*
X140666889Y-44101557D01*
X140673796Y-44092331D01*
X140722810Y-43960916D01*
X140764681Y-43904983D01*
X140830145Y-43880566D01*
X140898418Y-43895417D01*
X140926673Y-43916569D01*
X141048599Y-44038495D01*
X141242170Y-44174035D01*
X141456337Y-44273903D01*
X141684592Y-44335063D01*
X141920000Y-44355659D01*
X142155408Y-44335063D01*
X142383663Y-44273903D01*
X142597830Y-44174035D01*
X142791401Y-44038495D01*
X142958495Y-43871401D01*
X143088426Y-43685839D01*
X143143002Y-43642216D01*
X143212500Y-43635022D01*
X143274855Y-43666545D01*
X143291571Y-43685837D01*
X143421505Y-43871401D01*
X143588599Y-44038495D01*
X143782170Y-44174035D01*
X143996337Y-44273903D01*
X144224591Y-44335063D01*
X144224592Y-44335063D01*
X144459999Y-44355659D01*
X144459999Y-44355658D01*
X144460000Y-44355659D01*
X144695408Y-44335063D01*
X144923663Y-44273903D01*
X145137830Y-44174035D01*
X145331401Y-44038495D01*
X145498495Y-43871401D01*
X145628426Y-43685839D01*
X145683002Y-43642216D01*
X145752500Y-43635022D01*
X145814855Y-43666545D01*
X145831571Y-43685837D01*
X145961505Y-43871401D01*
X146128599Y-44038495D01*
X146322170Y-44174035D01*
X146536337Y-44273903D01*
X146764592Y-44335063D01*
X147000000Y-44355659D01*
X147235408Y-44335063D01*
X147463663Y-44273903D01*
X147677830Y-44174035D01*
X147871401Y-44038495D01*
X148038495Y-43871401D01*
X148168732Y-43685403D01*
X148223307Y-43641780D01*
X148292805Y-43634586D01*
X148355160Y-43666109D01*
X148371880Y-43685404D01*
X148501893Y-43871081D01*
X148668918Y-44038106D01*
X148862423Y-44173600D01*
X149076509Y-44273430D01*
X149290000Y-44330634D01*
X149290000Y-43435501D01*
X149397685Y-43484680D01*
X149504237Y-43500000D01*
X149575763Y-43500000D01*
X149682315Y-43484680D01*
X149790000Y-43435501D01*
X149790000Y-44330633D01*
G37*
%TD.AperFunction*%
%TA.AperFunction,Conductor*%
G36*
X184244475Y-49980065D02*
G01*
X184300408Y-50021937D01*
X184324825Y-50087401D01*
X184321347Y-50126685D01*
X184314891Y-50152179D01*
X184294356Y-50400000D01*
X184314891Y-50647816D01*
X184314891Y-50647819D01*
X184314892Y-50647821D01*
X184375937Y-50888881D01*
X184398977Y-50941407D01*
X184475825Y-51116604D01*
X184475827Y-51116607D01*
X184611836Y-51324785D01*
X184780256Y-51507738D01*
X184863008Y-51572146D01*
X184903820Y-51628856D01*
X184907495Y-51698629D01*
X184872863Y-51759312D01*
X184863009Y-51767851D01*
X184780257Y-51832260D01*
X184651778Y-51971826D01*
X184611836Y-52015215D01*
X184583282Y-52058921D01*
X184475825Y-52223395D01*
X184406968Y-52380375D01*
X184375937Y-52451119D01*
X184327099Y-52643974D01*
X184314891Y-52692183D01*
X184294356Y-52939999D01*
X184314891Y-53187816D01*
X184314891Y-53187819D01*
X184314892Y-53187821D01*
X184375937Y-53428881D01*
X184402791Y-53490102D01*
X184475825Y-53656604D01*
X184561467Y-53787689D01*
X184581654Y-53854579D01*
X184562474Y-53921765D01*
X184510016Y-53967915D01*
X184462781Y-53979405D01*
X184460478Y-53979500D01*
X184457933Y-53979500D01*
X184455408Y-53979709D01*
X184455388Y-53979710D01*
X184429551Y-53981851D01*
X184424440Y-53982168D01*
X184333762Y-53985919D01*
X184333763Y-53985919D01*
X184310776Y-53990738D01*
X184295579Y-53992952D01*
X184272180Y-53994891D01*
X184184215Y-54017166D01*
X184179225Y-54018320D01*
X184090385Y-54036949D01*
X184068501Y-54045488D01*
X184053874Y-54050174D01*
X184031116Y-54055937D01*
X183948023Y-54092385D01*
X183943291Y-54094346D01*
X183858723Y-54127345D01*
X183838547Y-54139367D01*
X183824895Y-54146394D01*
X183803396Y-54155825D01*
X183727410Y-54205468D01*
X183723065Y-54208180D01*
X183645104Y-54254635D01*
X183627183Y-54269813D01*
X183614868Y-54278995D01*
X183595215Y-54291835D01*
X183528447Y-54353299D01*
X183524609Y-54356689D01*
X183507544Y-54371143D01*
X183502874Y-54375098D01*
X183501059Y-54376911D01*
X183501061Y-54376911D01*
X183482738Y-54395233D01*
X183479045Y-54398775D01*
X183412262Y-54460254D01*
X183397832Y-54478793D01*
X183387664Y-54490306D01*
X174589791Y-63288181D01*
X174528468Y-63321666D01*
X174502110Y-63324500D01*
X172892725Y-63324500D01*
X172825686Y-63304815D01*
X172779931Y-63252011D01*
X172769987Y-63182853D01*
X172799012Y-63119297D01*
X172805044Y-63112819D01*
X176858363Y-59059500D01*
X180989701Y-54928161D01*
X181001203Y-54918003D01*
X181019744Y-54903574D01*
X181081235Y-54836775D01*
X181084714Y-54833149D01*
X181104902Y-54812962D01*
X181123315Y-54791219D01*
X181126701Y-54787387D01*
X181188160Y-54720625D01*
X181188164Y-54720621D01*
X181201006Y-54700962D01*
X181210188Y-54688649D01*
X181225366Y-54670730D01*
X181271848Y-54592720D01*
X181274505Y-54588463D01*
X181324173Y-54512443D01*
X181333607Y-54490935D01*
X181340631Y-54477288D01*
X181352656Y-54457109D01*
X181385667Y-54372505D01*
X181387587Y-54367870D01*
X181424063Y-54284717D01*
X181429827Y-54261953D01*
X181434515Y-54247320D01*
X181437103Y-54240687D01*
X181443049Y-54225450D01*
X181461680Y-54136590D01*
X181462818Y-54131674D01*
X181485108Y-54043657D01*
X181487047Y-54020249D01*
X181489264Y-54005043D01*
X181494081Y-53982073D01*
X181497831Y-53891385D01*
X181498149Y-53886263D01*
X181500500Y-53857903D01*
X181500500Y-53829432D01*
X181500606Y-53824307D01*
X181504357Y-53733616D01*
X181501452Y-53710309D01*
X181500500Y-53694971D01*
X181500500Y-52672889D01*
X181520185Y-52605850D01*
X181536814Y-52585213D01*
X184113462Y-50008564D01*
X184174783Y-49975081D01*
X184244475Y-49980065D01*
G37*
%TD.AperFunction*%
%TD*%
M02*
