%TF.GenerationSoftware,KiCad,Pcbnew,7.0.2*%
%TF.CreationDate,2023-08-19T23:37:56-03:00*%
%TF.ProjectId,Placa v1.1,506c6163-6120-4763-912e-312e6b696361,rev?*%
%TF.SameCoordinates,Original*%
%TF.FileFunction,Legend,Top*%
%TF.FilePolarity,Positive*%
%FSLAX46Y46*%
G04 Gerber Fmt 4.6, Leading zero omitted, Abs format (unit mm)*
G04 Created by KiCad (PCBNEW 7.0.2) date 2023-08-19 23:37:56*
%MOMM*%
%LPD*%
G01*
G04 APERTURE LIST*
%ADD10C,0.150000*%
%ADD11C,0.120000*%
G04 APERTURE END LIST*
D10*
G36*
X143191173Y-80170097D02*
G01*
X142850942Y-80170097D01*
X142440859Y-80861793D01*
X142030531Y-80170097D01*
X141690300Y-80170097D01*
X141690300Y-81150000D01*
X141942359Y-81150000D01*
X141942359Y-80478087D01*
X142349756Y-81150000D01*
X142531717Y-81150000D01*
X142939114Y-80478087D01*
X142939114Y-81150000D01*
X143191173Y-81150000D01*
X143191173Y-80170097D01*
G37*
G36*
X143889317Y-80309398D02*
G01*
X143920290Y-80310390D01*
X143950378Y-80312063D01*
X143979573Y-80314433D01*
X144007865Y-80317517D01*
X144035248Y-80321332D01*
X144061712Y-80325893D01*
X144087250Y-80331217D01*
X144111853Y-80337321D01*
X144135512Y-80344222D01*
X144158221Y-80351934D01*
X144179969Y-80360475D01*
X144200750Y-80369862D01*
X144220554Y-80380110D01*
X144239374Y-80391237D01*
X144257201Y-80403258D01*
X144274027Y-80416189D01*
X144289844Y-80430048D01*
X144304643Y-80444851D01*
X144318416Y-80460614D01*
X144331155Y-80477354D01*
X144342851Y-80495086D01*
X144353497Y-80513828D01*
X144363084Y-80533595D01*
X144371604Y-80554405D01*
X144379048Y-80576274D01*
X144385408Y-80599217D01*
X144390676Y-80623252D01*
X144394844Y-80648395D01*
X144397904Y-80674662D01*
X144399846Y-80702070D01*
X144400663Y-80730635D01*
X144400663Y-81151709D01*
X144159840Y-81151709D01*
X144159840Y-81049616D01*
X144146147Y-81056223D01*
X144132361Y-81062672D01*
X144118478Y-81068957D01*
X144104494Y-81075077D01*
X144090407Y-81081028D01*
X144076214Y-81086806D01*
X144061910Y-81092408D01*
X144047492Y-81097831D01*
X144032957Y-81103071D01*
X144018302Y-81108126D01*
X144003523Y-81112992D01*
X143988617Y-81117665D01*
X143973581Y-81122143D01*
X143958411Y-81126421D01*
X143943104Y-81130497D01*
X143927656Y-81134368D01*
X143912065Y-81138030D01*
X143896326Y-81141479D01*
X143880437Y-81144713D01*
X143864394Y-81147728D01*
X143848194Y-81150521D01*
X143831833Y-81153088D01*
X143815308Y-81155426D01*
X143798616Y-81157533D01*
X143781753Y-81159404D01*
X143764716Y-81161036D01*
X143747502Y-81162426D01*
X143730107Y-81163571D01*
X143712528Y-81164467D01*
X143694762Y-81165112D01*
X143676805Y-81165501D01*
X143658653Y-81165631D01*
X143637249Y-81165413D01*
X143616364Y-81164754D01*
X143596009Y-81163647D01*
X143576196Y-81162083D01*
X143556933Y-81160057D01*
X143538233Y-81157560D01*
X143520105Y-81154585D01*
X143502559Y-81151125D01*
X143485607Y-81147173D01*
X143469258Y-81142720D01*
X143453524Y-81137760D01*
X143438414Y-81132285D01*
X143423939Y-81126288D01*
X143410110Y-81119761D01*
X143396937Y-81112697D01*
X143384430Y-81105089D01*
X143372600Y-81096930D01*
X143361457Y-81088211D01*
X143351012Y-81078926D01*
X143341276Y-81069067D01*
X143332258Y-81058627D01*
X143323970Y-81047598D01*
X143316421Y-81035973D01*
X143309623Y-81023745D01*
X143303585Y-81010906D01*
X143298318Y-80997449D01*
X143293833Y-80983367D01*
X143290140Y-80968652D01*
X143287249Y-80953296D01*
X143285171Y-80937293D01*
X143283917Y-80920635D01*
X143283496Y-80903314D01*
X143283847Y-80893056D01*
X143522854Y-80893056D01*
X143523087Y-80901176D01*
X143524931Y-80916027D01*
X143528570Y-80929120D01*
X143533952Y-80940564D01*
X143541025Y-80950469D01*
X143549738Y-80958945D01*
X143560040Y-80966101D01*
X143571879Y-80972048D01*
X143585203Y-80976896D01*
X143599961Y-80980753D01*
X143616102Y-80983731D01*
X143633574Y-80985939D01*
X143652325Y-80987486D01*
X143662164Y-80988046D01*
X143672304Y-80988483D01*
X143682738Y-80988809D01*
X143693460Y-80989039D01*
X143704462Y-80989186D01*
X143715740Y-80989265D01*
X143727286Y-80989288D01*
X143739631Y-80989167D01*
X143752244Y-80988808D01*
X143765107Y-80988216D01*
X143778199Y-80987397D01*
X143791502Y-80986355D01*
X143804996Y-80985095D01*
X143818663Y-80983624D01*
X143832482Y-80981945D01*
X143846434Y-80980065D01*
X143860501Y-80977988D01*
X143874662Y-80975720D01*
X143888899Y-80973265D01*
X143903193Y-80970629D01*
X143917524Y-80967818D01*
X143931872Y-80964836D01*
X143946219Y-80961688D01*
X143960545Y-80958380D01*
X143974831Y-80954917D01*
X143989058Y-80951305D01*
X144003206Y-80947547D01*
X144017256Y-80943650D01*
X144031190Y-80939618D01*
X144044987Y-80935458D01*
X144058628Y-80931173D01*
X144072094Y-80926770D01*
X144085366Y-80922253D01*
X144098424Y-80917627D01*
X144111250Y-80912899D01*
X144123824Y-80908072D01*
X144136126Y-80903153D01*
X144148138Y-80898146D01*
X144159840Y-80893056D01*
X144159840Y-80827110D01*
X144151877Y-80824556D01*
X144135428Y-80819518D01*
X144118271Y-80814600D01*
X144100390Y-80809834D01*
X144081770Y-80805250D01*
X144072179Y-80803036D01*
X144062398Y-80800879D01*
X144052425Y-80798783D01*
X144042258Y-80796752D01*
X144031896Y-80794789D01*
X144021336Y-80792899D01*
X144010577Y-80791085D01*
X143999617Y-80789351D01*
X143988454Y-80787701D01*
X143977086Y-80786139D01*
X143965512Y-80784668D01*
X143953729Y-80783294D01*
X143941736Y-80782018D01*
X143929531Y-80780846D01*
X143917112Y-80779781D01*
X143904477Y-80778827D01*
X143891625Y-80777987D01*
X143878553Y-80777266D01*
X143865260Y-80776668D01*
X143851744Y-80776195D01*
X143838004Y-80775853D01*
X143824036Y-80775645D01*
X143809840Y-80775575D01*
X143793243Y-80775668D01*
X143777073Y-80775950D01*
X143761335Y-80776425D01*
X143746037Y-80777097D01*
X143731184Y-80777970D01*
X143716784Y-80779050D01*
X143702843Y-80780339D01*
X143689367Y-80781842D01*
X143676363Y-80783563D01*
X143663839Y-80785507D01*
X143651800Y-80787677D01*
X143640253Y-80790078D01*
X143629205Y-80792714D01*
X143618662Y-80795590D01*
X143608631Y-80798709D01*
X143599119Y-80802076D01*
X143581677Y-80809569D01*
X143566389Y-80818103D01*
X143553307Y-80827712D01*
X143542485Y-80838430D01*
X143533976Y-80850289D01*
X143527833Y-80863324D01*
X143524108Y-80877569D01*
X143522854Y-80893056D01*
X143283847Y-80893056D01*
X143284179Y-80883372D01*
X143286202Y-80864293D01*
X143289526Y-80846063D01*
X143294114Y-80828667D01*
X143299928Y-80812088D01*
X143306928Y-80796313D01*
X143315078Y-80781325D01*
X143324338Y-80767111D01*
X143334671Y-80753654D01*
X143346039Y-80740940D01*
X143358403Y-80728953D01*
X143371724Y-80717679D01*
X143385966Y-80707102D01*
X143401089Y-80697208D01*
X143417056Y-80687980D01*
X143433828Y-80679405D01*
X143451367Y-80671466D01*
X143469635Y-80664149D01*
X143488593Y-80657438D01*
X143508205Y-80651320D01*
X143528430Y-80645777D01*
X143549231Y-80640796D01*
X143570571Y-80636361D01*
X143592410Y-80632457D01*
X143614711Y-80629068D01*
X143637435Y-80626181D01*
X143660544Y-80623779D01*
X143684000Y-80621848D01*
X143707765Y-80620373D01*
X143731801Y-80619337D01*
X143756068Y-80618727D01*
X143780531Y-80618527D01*
X143793755Y-80618593D01*
X143806912Y-80618788D01*
X143819998Y-80619113D01*
X143833013Y-80619564D01*
X143845954Y-80620140D01*
X143858818Y-80620841D01*
X143871605Y-80621663D01*
X143884311Y-80622607D01*
X143896935Y-80623669D01*
X143909474Y-80624849D01*
X143921927Y-80626145D01*
X143934292Y-80627556D01*
X143946566Y-80629079D01*
X143958748Y-80630714D01*
X143970834Y-80632459D01*
X143982825Y-80634311D01*
X143994716Y-80636271D01*
X144006507Y-80638335D01*
X144018195Y-80640503D01*
X144029777Y-80642772D01*
X144041253Y-80645143D01*
X144052620Y-80647611D01*
X144063876Y-80650178D01*
X144075019Y-80652839D01*
X144086046Y-80655595D01*
X144096956Y-80658444D01*
X144107747Y-80661383D01*
X144118417Y-80664412D01*
X144128963Y-80667528D01*
X144139383Y-80670731D01*
X144149676Y-80674019D01*
X144159840Y-80677390D01*
X144159258Y-80663218D01*
X144157549Y-80649860D01*
X144154766Y-80637292D01*
X144150962Y-80625489D01*
X144146191Y-80614429D01*
X144140505Y-80604086D01*
X144133958Y-80594437D01*
X144126604Y-80585459D01*
X144118494Y-80577127D01*
X144109684Y-80569418D01*
X144100225Y-80562308D01*
X144090172Y-80555772D01*
X144079577Y-80549788D01*
X144068494Y-80544331D01*
X144056976Y-80539378D01*
X144045076Y-80534904D01*
X144032848Y-80530887D01*
X144020345Y-80527301D01*
X144007619Y-80524123D01*
X143994725Y-80521329D01*
X143981716Y-80518896D01*
X143968645Y-80516800D01*
X143955564Y-80515016D01*
X143942528Y-80513522D01*
X143929590Y-80512292D01*
X143916803Y-80511304D01*
X143904220Y-80510533D01*
X143891894Y-80509956D01*
X143879879Y-80509548D01*
X143868229Y-80509287D01*
X143856995Y-80509147D01*
X143846232Y-80509106D01*
X143836063Y-80509136D01*
X143825752Y-80509228D01*
X143815296Y-80509389D01*
X143804691Y-80509623D01*
X143793936Y-80509937D01*
X143783028Y-80510336D01*
X143771965Y-80510826D01*
X143760743Y-80511411D01*
X143749361Y-80512098D01*
X143737815Y-80512893D01*
X143726104Y-80513800D01*
X143714225Y-80514825D01*
X143702175Y-80515974D01*
X143689951Y-80517252D01*
X143677551Y-80518666D01*
X143664973Y-80520219D01*
X143652214Y-80521919D01*
X143639271Y-80523770D01*
X143626142Y-80525778D01*
X143612825Y-80527949D01*
X143599316Y-80530288D01*
X143585614Y-80532801D01*
X143571715Y-80535493D01*
X143557617Y-80538370D01*
X143543318Y-80541437D01*
X143528815Y-80544700D01*
X143514105Y-80548164D01*
X143499186Y-80551835D01*
X143484056Y-80555719D01*
X143468711Y-80559821D01*
X143453150Y-80564147D01*
X143437369Y-80568702D01*
X143352129Y-80394312D01*
X143367852Y-80389276D01*
X143383564Y-80384379D01*
X143399264Y-80379624D01*
X143414955Y-80375012D01*
X143430639Y-80370543D01*
X143446317Y-80366220D01*
X143461990Y-80362044D01*
X143477662Y-80358015D01*
X143493332Y-80354136D01*
X143509004Y-80350407D01*
X143524678Y-80346830D01*
X143540357Y-80343406D01*
X143556042Y-80340136D01*
X143571734Y-80337023D01*
X143587436Y-80334066D01*
X143603149Y-80331267D01*
X143618875Y-80328628D01*
X143634616Y-80326150D01*
X143650373Y-80323834D01*
X143666148Y-80321681D01*
X143681942Y-80319693D01*
X143697758Y-80317871D01*
X143713597Y-80316217D01*
X143729461Y-80314731D01*
X143745351Y-80313415D01*
X143761270Y-80312270D01*
X143777218Y-80311298D01*
X143793198Y-80310500D01*
X143809211Y-80309877D01*
X143825259Y-80309430D01*
X143841344Y-80309161D01*
X143857467Y-80309071D01*
X143889317Y-80309398D01*
G37*
G36*
X145169051Y-80309071D02*
G01*
X145154650Y-80309199D01*
X145140301Y-80309584D01*
X145126005Y-80310231D01*
X145111765Y-80311145D01*
X145097584Y-80312330D01*
X145083465Y-80313790D01*
X145069410Y-80315530D01*
X145055421Y-80317555D01*
X145041501Y-80319868D01*
X145027653Y-80322475D01*
X145013879Y-80325379D01*
X145000182Y-80328585D01*
X144986563Y-80332097D01*
X144973027Y-80335920D01*
X144959575Y-80340059D01*
X144946210Y-80344517D01*
X144932934Y-80349300D01*
X144919751Y-80354411D01*
X144906662Y-80359855D01*
X144893670Y-80365636D01*
X144880777Y-80371759D01*
X144867987Y-80378229D01*
X144855302Y-80385049D01*
X144842724Y-80392225D01*
X144830255Y-80399760D01*
X144817899Y-80407659D01*
X144805658Y-80415926D01*
X144793535Y-80424566D01*
X144781531Y-80433584D01*
X144769651Y-80442983D01*
X144757895Y-80452768D01*
X144746267Y-80462944D01*
X144746267Y-80322993D01*
X144506909Y-80322993D01*
X144506909Y-81147557D01*
X144746267Y-81147557D01*
X144746267Y-80653454D01*
X144759938Y-80643069D01*
X144773654Y-80633157D01*
X144787410Y-80623708D01*
X144801200Y-80614714D01*
X144815020Y-80606164D01*
X144828864Y-80598049D01*
X144842727Y-80590361D01*
X144856603Y-80583089D01*
X144870489Y-80576224D01*
X144884377Y-80569757D01*
X144898264Y-80563678D01*
X144912144Y-80557979D01*
X144926012Y-80552649D01*
X144939862Y-80547679D01*
X144953690Y-80543059D01*
X144967490Y-80538782D01*
X144981257Y-80534836D01*
X144994986Y-80531213D01*
X145008672Y-80527903D01*
X145022309Y-80524897D01*
X145035892Y-80522186D01*
X145049417Y-80519759D01*
X145062878Y-80517608D01*
X145076269Y-80515724D01*
X145089586Y-80514096D01*
X145102824Y-80512716D01*
X145115977Y-80511574D01*
X145129039Y-80510660D01*
X145142007Y-80509966D01*
X145154874Y-80509482D01*
X145167635Y-80509199D01*
X145180286Y-80509106D01*
X145193352Y-80509207D01*
X145206285Y-80509512D01*
X145219117Y-80510024D01*
X145231883Y-80510747D01*
X145244614Y-80511685D01*
X145257343Y-80512841D01*
X145270104Y-80514220D01*
X145282929Y-80515823D01*
X145295852Y-80517655D01*
X145308905Y-80519720D01*
X145322121Y-80522021D01*
X145335533Y-80524562D01*
X145349174Y-80527346D01*
X145363077Y-80530377D01*
X145377275Y-80533659D01*
X145391801Y-80537194D01*
X145391801Y-80336915D01*
X145381160Y-80334308D01*
X145370198Y-80331722D01*
X145358888Y-80329176D01*
X145347207Y-80326691D01*
X145335130Y-80324288D01*
X145322631Y-80321987D01*
X145309686Y-80319808D01*
X145296271Y-80317773D01*
X145282361Y-80315900D01*
X145267931Y-80314210D01*
X145252956Y-80312725D01*
X145237412Y-80311464D01*
X145221275Y-80310448D01*
X145204518Y-80309697D01*
X145187119Y-80309231D01*
X145169051Y-80309071D01*
G37*
G36*
X146009345Y-80309398D02*
G01*
X146040318Y-80310390D01*
X146070406Y-80312063D01*
X146099601Y-80314433D01*
X146127893Y-80317517D01*
X146155276Y-80321332D01*
X146181740Y-80325893D01*
X146207278Y-80331217D01*
X146231881Y-80337321D01*
X146255540Y-80344222D01*
X146278249Y-80351934D01*
X146299997Y-80360475D01*
X146320778Y-80369862D01*
X146340582Y-80380110D01*
X146359402Y-80391237D01*
X146377229Y-80403258D01*
X146394055Y-80416189D01*
X146409872Y-80430048D01*
X146424671Y-80444851D01*
X146438444Y-80460614D01*
X146451183Y-80477354D01*
X146462879Y-80495086D01*
X146473525Y-80513828D01*
X146483112Y-80533595D01*
X146491632Y-80554405D01*
X146499076Y-80576274D01*
X146505436Y-80599217D01*
X146510704Y-80623252D01*
X146514872Y-80648395D01*
X146517931Y-80674662D01*
X146519874Y-80702070D01*
X146520691Y-80730635D01*
X146520691Y-81151709D01*
X146279868Y-81151709D01*
X146279868Y-81049616D01*
X146266175Y-81056223D01*
X146252389Y-81062672D01*
X146238506Y-81068957D01*
X146224522Y-81075077D01*
X146210435Y-81081028D01*
X146196242Y-81086806D01*
X146181937Y-81092408D01*
X146167520Y-81097831D01*
X146152985Y-81103071D01*
X146138330Y-81108126D01*
X146123551Y-81112992D01*
X146108645Y-81117665D01*
X146093609Y-81122143D01*
X146078439Y-81126421D01*
X146063132Y-81130497D01*
X146047684Y-81134368D01*
X146032093Y-81138030D01*
X146016354Y-81141479D01*
X146000465Y-81144713D01*
X145984422Y-81147728D01*
X145968222Y-81150521D01*
X145951861Y-81153088D01*
X145935336Y-81155426D01*
X145918644Y-81157533D01*
X145901781Y-81159404D01*
X145884744Y-81161036D01*
X145867530Y-81162426D01*
X145850135Y-81163571D01*
X145832556Y-81164467D01*
X145814790Y-81165112D01*
X145796833Y-81165501D01*
X145778681Y-81165631D01*
X145757276Y-81165413D01*
X145736392Y-81164754D01*
X145716037Y-81163647D01*
X145696224Y-81162083D01*
X145676961Y-81160057D01*
X145658261Y-81157560D01*
X145640133Y-81154585D01*
X145622587Y-81151125D01*
X145605635Y-81147173D01*
X145589286Y-81142720D01*
X145573552Y-81137760D01*
X145558442Y-81132285D01*
X145543967Y-81126288D01*
X145530138Y-81119761D01*
X145516964Y-81112697D01*
X145504458Y-81105089D01*
X145492628Y-81096930D01*
X145481485Y-81088211D01*
X145471040Y-81078926D01*
X145461304Y-81069067D01*
X145452286Y-81058627D01*
X145443998Y-81047598D01*
X145436449Y-81035973D01*
X145429651Y-81023745D01*
X145423613Y-81010906D01*
X145418346Y-80997449D01*
X145413861Y-80983367D01*
X145410167Y-80968652D01*
X145407277Y-80953296D01*
X145405199Y-80937293D01*
X145403945Y-80920635D01*
X145403524Y-80903314D01*
X145403875Y-80893056D01*
X145642882Y-80893056D01*
X145643115Y-80901176D01*
X145644959Y-80916027D01*
X145648598Y-80929120D01*
X145653979Y-80940564D01*
X145661053Y-80950469D01*
X145669766Y-80958945D01*
X145680068Y-80966101D01*
X145691907Y-80972048D01*
X145705231Y-80976896D01*
X145719989Y-80980753D01*
X145736130Y-80983731D01*
X145753602Y-80985939D01*
X145772353Y-80987486D01*
X145782192Y-80988046D01*
X145792332Y-80988483D01*
X145802766Y-80988809D01*
X145813487Y-80989039D01*
X145824490Y-80989186D01*
X145835768Y-80989265D01*
X145847313Y-80989288D01*
X145859659Y-80989167D01*
X145872272Y-80988808D01*
X145885135Y-80988216D01*
X145898227Y-80987397D01*
X145911530Y-80986355D01*
X145925024Y-80985095D01*
X145938691Y-80983624D01*
X145952510Y-80981945D01*
X145966462Y-80980065D01*
X145980529Y-80977988D01*
X145994690Y-80975720D01*
X146008927Y-80973265D01*
X146023221Y-80970629D01*
X146037551Y-80967818D01*
X146051900Y-80964836D01*
X146066247Y-80961688D01*
X146080573Y-80958380D01*
X146094859Y-80954917D01*
X146109086Y-80951305D01*
X146123234Y-80947547D01*
X146137284Y-80943650D01*
X146151218Y-80939618D01*
X146165014Y-80935458D01*
X146178656Y-80931173D01*
X146192122Y-80926770D01*
X146205394Y-80922253D01*
X146218452Y-80917627D01*
X146231278Y-80912899D01*
X146243852Y-80908072D01*
X146256154Y-80903153D01*
X146268166Y-80898146D01*
X146279868Y-80893056D01*
X146279868Y-80827110D01*
X146271905Y-80824556D01*
X146255456Y-80819518D01*
X146238299Y-80814600D01*
X146220417Y-80809834D01*
X146201798Y-80805250D01*
X146192207Y-80803036D01*
X146182426Y-80800879D01*
X146172453Y-80798783D01*
X146162286Y-80796752D01*
X146151924Y-80794789D01*
X146141364Y-80792899D01*
X146130605Y-80791085D01*
X146119645Y-80789351D01*
X146108482Y-80787701D01*
X146097114Y-80786139D01*
X146085539Y-80784668D01*
X146073757Y-80783294D01*
X146061764Y-80782018D01*
X146049559Y-80780846D01*
X146037140Y-80779781D01*
X146024505Y-80778827D01*
X146011653Y-80777987D01*
X145998581Y-80777266D01*
X145985288Y-80776668D01*
X145971772Y-80776195D01*
X145958031Y-80775853D01*
X145944064Y-80775645D01*
X145929868Y-80775575D01*
X145913271Y-80775668D01*
X145897101Y-80775950D01*
X145881363Y-80776425D01*
X145866065Y-80777097D01*
X145851212Y-80777970D01*
X145836812Y-80779050D01*
X145822870Y-80780339D01*
X145809395Y-80781842D01*
X145796391Y-80783563D01*
X145783867Y-80785507D01*
X145771828Y-80787677D01*
X145760281Y-80790078D01*
X145749233Y-80792714D01*
X145738690Y-80795590D01*
X145728659Y-80798709D01*
X145719147Y-80802076D01*
X145701705Y-80809569D01*
X145686417Y-80818103D01*
X145673335Y-80827712D01*
X145662513Y-80838430D01*
X145654004Y-80850289D01*
X145647861Y-80863324D01*
X145644136Y-80877569D01*
X145642882Y-80893056D01*
X145403875Y-80893056D01*
X145404207Y-80883372D01*
X145406230Y-80864293D01*
X145409554Y-80846063D01*
X145414142Y-80828667D01*
X145419956Y-80812088D01*
X145426956Y-80796313D01*
X145435106Y-80781325D01*
X145444366Y-80767111D01*
X145454699Y-80753654D01*
X145466067Y-80740940D01*
X145478430Y-80728953D01*
X145491752Y-80717679D01*
X145505994Y-80707102D01*
X145521117Y-80697208D01*
X145537084Y-80687980D01*
X145553856Y-80679405D01*
X145571395Y-80671466D01*
X145589663Y-80664149D01*
X145608621Y-80657438D01*
X145628232Y-80651320D01*
X145648458Y-80645777D01*
X145669259Y-80640796D01*
X145690599Y-80636361D01*
X145712438Y-80632457D01*
X145734739Y-80629068D01*
X145757463Y-80626181D01*
X145780572Y-80623779D01*
X145804028Y-80621848D01*
X145827793Y-80620373D01*
X145851829Y-80619337D01*
X145876096Y-80618727D01*
X145900558Y-80618527D01*
X145913783Y-80618593D01*
X145926940Y-80618788D01*
X145940026Y-80619113D01*
X145953041Y-80619564D01*
X145965982Y-80620140D01*
X145978846Y-80620841D01*
X145991633Y-80621663D01*
X146004339Y-80622607D01*
X146016963Y-80623669D01*
X146029502Y-80624849D01*
X146041955Y-80626145D01*
X146054320Y-80627556D01*
X146066594Y-80629079D01*
X146078775Y-80630714D01*
X146090862Y-80632459D01*
X146102853Y-80634311D01*
X146114744Y-80636271D01*
X146126535Y-80638335D01*
X146138223Y-80640503D01*
X146149805Y-80642772D01*
X146161281Y-80645143D01*
X146172648Y-80647611D01*
X146183904Y-80650178D01*
X146195047Y-80652839D01*
X146206074Y-80655595D01*
X146216984Y-80658444D01*
X146227775Y-80661383D01*
X146238445Y-80664412D01*
X146248991Y-80667528D01*
X146259411Y-80670731D01*
X146269704Y-80674019D01*
X146279868Y-80677390D01*
X146279286Y-80663218D01*
X146277577Y-80649860D01*
X146274794Y-80637292D01*
X146270990Y-80625489D01*
X146266219Y-80614429D01*
X146260533Y-80604086D01*
X146253986Y-80594437D01*
X146246631Y-80585459D01*
X146238522Y-80577127D01*
X146229712Y-80569418D01*
X146220253Y-80562308D01*
X146210200Y-80555772D01*
X146199605Y-80549788D01*
X146188522Y-80544331D01*
X146177004Y-80539378D01*
X146165104Y-80534904D01*
X146152876Y-80530887D01*
X146140372Y-80527301D01*
X146127647Y-80524123D01*
X146114753Y-80521329D01*
X146101744Y-80518896D01*
X146088672Y-80516800D01*
X146075592Y-80515016D01*
X146062556Y-80513522D01*
X146049618Y-80512292D01*
X146036831Y-80511304D01*
X146024248Y-80510533D01*
X146011922Y-80509956D01*
X145999907Y-80509548D01*
X145988256Y-80509287D01*
X145977023Y-80509147D01*
X145966260Y-80509106D01*
X145956091Y-80509136D01*
X145945780Y-80509228D01*
X145935323Y-80509389D01*
X145924719Y-80509623D01*
X145913964Y-80509937D01*
X145903056Y-80510336D01*
X145891993Y-80510826D01*
X145880771Y-80511411D01*
X145869389Y-80512098D01*
X145857843Y-80512893D01*
X145846132Y-80513800D01*
X145834253Y-80514825D01*
X145822202Y-80515974D01*
X145809979Y-80517252D01*
X145797579Y-80518666D01*
X145785001Y-80520219D01*
X145772242Y-80521919D01*
X145759299Y-80523770D01*
X145746170Y-80525778D01*
X145732853Y-80527949D01*
X145719344Y-80530288D01*
X145705641Y-80532801D01*
X145691743Y-80535493D01*
X145677645Y-80538370D01*
X145663346Y-80541437D01*
X145648843Y-80544700D01*
X145634133Y-80548164D01*
X145619214Y-80551835D01*
X145604084Y-80555719D01*
X145588739Y-80559821D01*
X145573178Y-80564147D01*
X145557397Y-80568702D01*
X145472156Y-80394312D01*
X145487880Y-80389276D01*
X145503592Y-80384379D01*
X145519292Y-80379624D01*
X145534983Y-80375012D01*
X145550667Y-80370543D01*
X145566345Y-80366220D01*
X145582018Y-80362044D01*
X145597690Y-80358015D01*
X145613360Y-80354136D01*
X145629032Y-80350407D01*
X145644706Y-80346830D01*
X145660385Y-80343406D01*
X145676069Y-80340136D01*
X145691762Y-80337023D01*
X145707464Y-80334066D01*
X145723177Y-80331267D01*
X145738903Y-80328628D01*
X145754644Y-80326150D01*
X145770401Y-80323834D01*
X145786176Y-80321681D01*
X145801970Y-80319693D01*
X145817786Y-80317871D01*
X145833625Y-80316217D01*
X145849489Y-80314731D01*
X145865379Y-80313415D01*
X145881297Y-80312270D01*
X145897246Y-80311298D01*
X145913226Y-80310500D01*
X145929239Y-80309877D01*
X145945287Y-80309430D01*
X145961372Y-80309161D01*
X145977495Y-80309071D01*
X146009345Y-80309398D01*
G37*
G36*
X146604222Y-80736496D02*
G01*
X146604891Y-80764387D01*
X146606884Y-80791233D01*
X146610179Y-80817045D01*
X146614754Y-80841834D01*
X146620589Y-80865610D01*
X146627660Y-80888383D01*
X146635948Y-80910164D01*
X146645430Y-80930963D01*
X146656085Y-80950791D01*
X146667892Y-80969658D01*
X146680827Y-80987574D01*
X146694871Y-81004550D01*
X146710002Y-81020597D01*
X146726198Y-81035724D01*
X146743437Y-81049943D01*
X146761698Y-81063263D01*
X146780959Y-81075695D01*
X146801199Y-81087249D01*
X146822396Y-81097936D01*
X146844529Y-81107767D01*
X146867577Y-81116751D01*
X146891516Y-81124899D01*
X146916327Y-81132222D01*
X146941987Y-81138730D01*
X146968475Y-81144433D01*
X146995769Y-81149342D01*
X147023849Y-81153467D01*
X147052691Y-81156819D01*
X147082275Y-81159407D01*
X147112579Y-81161244D01*
X147143582Y-81162338D01*
X147175262Y-81162700D01*
X147203889Y-81162404D01*
X147231964Y-81161511D01*
X147259473Y-81160013D01*
X147286400Y-81157902D01*
X147312727Y-81155172D01*
X147338441Y-81151813D01*
X147363525Y-81147820D01*
X147387963Y-81143184D01*
X147411740Y-81137897D01*
X147434839Y-81131952D01*
X147457245Y-81125342D01*
X147478942Y-81118058D01*
X147499915Y-81110094D01*
X147520147Y-81101441D01*
X147539622Y-81092092D01*
X147558326Y-81082039D01*
X147576242Y-81071275D01*
X147593355Y-81059792D01*
X147609647Y-81047583D01*
X147625105Y-81034640D01*
X147639712Y-81020955D01*
X147653452Y-81006520D01*
X147666309Y-80991329D01*
X147678269Y-80975373D01*
X147689314Y-80958646D01*
X147699429Y-80941138D01*
X147708598Y-80922844D01*
X147716806Y-80903754D01*
X147724037Y-80883862D01*
X147730274Y-80863160D01*
X147735503Y-80841640D01*
X147739707Y-80819295D01*
X147494487Y-80819295D01*
X147491249Y-80829096D01*
X147487537Y-80838491D01*
X147483355Y-80847487D01*
X147478707Y-80856089D01*
X147468027Y-80872138D01*
X147455531Y-80886687D01*
X147441248Y-80899786D01*
X147433446Y-80905808D01*
X147425210Y-80911485D01*
X147416543Y-80916826D01*
X147407450Y-80921835D01*
X147397933Y-80926518D01*
X147387997Y-80930883D01*
X147377647Y-80934935D01*
X147366885Y-80938681D01*
X147355716Y-80942126D01*
X147344144Y-80945278D01*
X147332173Y-80948141D01*
X147319806Y-80950723D01*
X147307048Y-80953030D01*
X147293903Y-80955067D01*
X147280374Y-80956841D01*
X147266465Y-80958359D01*
X147252181Y-80959626D01*
X147237525Y-80960649D01*
X147222501Y-80961433D01*
X147207113Y-80961986D01*
X147191365Y-80962313D01*
X147175262Y-80962421D01*
X147156217Y-80962259D01*
X147137646Y-80961765D01*
X147119560Y-80960928D01*
X147101965Y-80959736D01*
X147084871Y-80958178D01*
X147068286Y-80956243D01*
X147052218Y-80953920D01*
X147036677Y-80951197D01*
X147021670Y-80948063D01*
X147007206Y-80944507D01*
X146993293Y-80940517D01*
X146979941Y-80936081D01*
X146967157Y-80931190D01*
X146954950Y-80925831D01*
X146943329Y-80919992D01*
X146932301Y-80913664D01*
X146921876Y-80906834D01*
X146912062Y-80899491D01*
X146902868Y-80891624D01*
X146894301Y-80883221D01*
X146886372Y-80874271D01*
X146879087Y-80864764D01*
X146872455Y-80854686D01*
X146866485Y-80844028D01*
X146861186Y-80832778D01*
X146856566Y-80820924D01*
X146852634Y-80808456D01*
X146849397Y-80795361D01*
X146846865Y-80781629D01*
X146845046Y-80767249D01*
X146843948Y-80752208D01*
X146843580Y-80736496D01*
X146843948Y-80720673D01*
X146845046Y-80705526D01*
X146846865Y-80691045D01*
X146849397Y-80677218D01*
X146852634Y-80664033D01*
X146856566Y-80651480D01*
X146861186Y-80639546D01*
X146866485Y-80628220D01*
X146872455Y-80617492D01*
X146879087Y-80607348D01*
X146886372Y-80597779D01*
X146894301Y-80588771D01*
X146902868Y-80580315D01*
X146912062Y-80572399D01*
X146921876Y-80565010D01*
X146932301Y-80558138D01*
X146943329Y-80551771D01*
X146954950Y-80545898D01*
X146967157Y-80540507D01*
X146979941Y-80535588D01*
X146993293Y-80531127D01*
X147007206Y-80527114D01*
X147021670Y-80523538D01*
X147036677Y-80520387D01*
X147052218Y-80517650D01*
X147068286Y-80515314D01*
X147084871Y-80513370D01*
X147101965Y-80511804D01*
X147119560Y-80510607D01*
X147137646Y-80509766D01*
X147156217Y-80509269D01*
X147175262Y-80509106D01*
X147191365Y-80509215D01*
X147207113Y-80509544D01*
X147222501Y-80510100D01*
X147237525Y-80510889D01*
X147252181Y-80511917D01*
X147266465Y-80513191D01*
X147280374Y-80514716D01*
X147293903Y-80516498D01*
X147307048Y-80518545D01*
X147319806Y-80520861D01*
X147332173Y-80523453D01*
X147344144Y-80526327D01*
X147355716Y-80529489D01*
X147366885Y-80532946D01*
X147377647Y-80536703D01*
X147387997Y-80540766D01*
X147397933Y-80545143D01*
X147407450Y-80549838D01*
X147416543Y-80554858D01*
X147425210Y-80560209D01*
X147433446Y-80565897D01*
X147441248Y-80571929D01*
X147455531Y-80585047D01*
X147468027Y-80599611D01*
X147478707Y-80615672D01*
X147483355Y-80624279D01*
X147487537Y-80633277D01*
X147491249Y-80642675D01*
X147494487Y-80652477D01*
X147739707Y-80652477D01*
X147735503Y-80630132D01*
X147730274Y-80608612D01*
X147724037Y-80587910D01*
X147716806Y-80568017D01*
X147708598Y-80548928D01*
X147699429Y-80530633D01*
X147689314Y-80513126D01*
X147678269Y-80496398D01*
X147666309Y-80480442D01*
X147653452Y-80465251D01*
X147639712Y-80450817D01*
X147625105Y-80437132D01*
X147609647Y-80424189D01*
X147593355Y-80411979D01*
X147576242Y-80400497D01*
X147558326Y-80389733D01*
X147539622Y-80379680D01*
X147520147Y-80370331D01*
X147499915Y-80361678D01*
X147478942Y-80353713D01*
X147457245Y-80346430D01*
X147434839Y-80339819D01*
X147411740Y-80333875D01*
X147387963Y-80328588D01*
X147363525Y-80323952D01*
X147338441Y-80319958D01*
X147312727Y-80316600D01*
X147286400Y-80313869D01*
X147259473Y-80311759D01*
X147231964Y-80310261D01*
X147203889Y-80309367D01*
X147175262Y-80309071D01*
X147143582Y-80309434D01*
X147112579Y-80310528D01*
X147082275Y-80312365D01*
X147052691Y-80314955D01*
X147023849Y-80318309D01*
X146995769Y-80322438D01*
X146968475Y-80327351D01*
X146941987Y-80333061D01*
X146916327Y-80339576D01*
X146891516Y-80346909D01*
X146867577Y-80355070D01*
X146844529Y-80364069D01*
X146822396Y-80373917D01*
X146801199Y-80384625D01*
X146780959Y-80396203D01*
X146761698Y-80408661D01*
X146743437Y-80422012D01*
X146726198Y-80436265D01*
X146710002Y-80451430D01*
X146694871Y-80467519D01*
X146680827Y-80484542D01*
X146667892Y-80502510D01*
X146656085Y-80521434D01*
X146645430Y-80541323D01*
X146635948Y-80562190D01*
X146627660Y-80584043D01*
X146620589Y-80606895D01*
X146614754Y-80630755D01*
X146610179Y-80655635D01*
X146606884Y-80681545D01*
X146604891Y-80708495D01*
X146604222Y-80736496D01*
G37*
G36*
X148400971Y-80309398D02*
G01*
X148431944Y-80310390D01*
X148462032Y-80312063D01*
X148491227Y-80314433D01*
X148519519Y-80317517D01*
X148546902Y-80321332D01*
X148573366Y-80325893D01*
X148598904Y-80331217D01*
X148623507Y-80337321D01*
X148647166Y-80344222D01*
X148669875Y-80351934D01*
X148691623Y-80360475D01*
X148712404Y-80369862D01*
X148732208Y-80380110D01*
X148751028Y-80391237D01*
X148768855Y-80403258D01*
X148785681Y-80416189D01*
X148801497Y-80430048D01*
X148816296Y-80444851D01*
X148830070Y-80460614D01*
X148842809Y-80477354D01*
X148854505Y-80495086D01*
X148865151Y-80513828D01*
X148874738Y-80533595D01*
X148883258Y-80554405D01*
X148890702Y-80576274D01*
X148897062Y-80599217D01*
X148902330Y-80623252D01*
X148906498Y-80648395D01*
X148909557Y-80674662D01*
X148911500Y-80702070D01*
X148912317Y-80730635D01*
X148912317Y-81151709D01*
X148671494Y-81151709D01*
X148671494Y-81049616D01*
X148657801Y-81056223D01*
X148644015Y-81062672D01*
X148630132Y-81068957D01*
X148616148Y-81075077D01*
X148602061Y-81081028D01*
X148587867Y-81086806D01*
X148573563Y-81092408D01*
X148559146Y-81097831D01*
X148544611Y-81103071D01*
X148529956Y-81108126D01*
X148515177Y-81112992D01*
X148500271Y-81117665D01*
X148485235Y-81122143D01*
X148470065Y-81126421D01*
X148454758Y-81130497D01*
X148439310Y-81134368D01*
X148423719Y-81138030D01*
X148407980Y-81141479D01*
X148392091Y-81144713D01*
X148376048Y-81147728D01*
X148359848Y-81150521D01*
X148343487Y-81153088D01*
X148326962Y-81155426D01*
X148310270Y-81157533D01*
X148293407Y-81159404D01*
X148276370Y-81161036D01*
X148259156Y-81162426D01*
X148241761Y-81163571D01*
X148224182Y-81164467D01*
X148206416Y-81165112D01*
X148188459Y-81165501D01*
X148170307Y-81165631D01*
X148148902Y-81165413D01*
X148128018Y-81164754D01*
X148107663Y-81163647D01*
X148087849Y-81162083D01*
X148068587Y-81160057D01*
X148049887Y-81157560D01*
X148031759Y-81154585D01*
X148014213Y-81151125D01*
X147997261Y-81147173D01*
X147980912Y-81142720D01*
X147965178Y-81137760D01*
X147950068Y-81132285D01*
X147935593Y-81126288D01*
X147921764Y-81119761D01*
X147908590Y-81112697D01*
X147896084Y-81105089D01*
X147884254Y-81096930D01*
X147873111Y-81088211D01*
X147862666Y-81078926D01*
X147852930Y-81069067D01*
X147843912Y-81058627D01*
X147835624Y-81047598D01*
X147828075Y-81035973D01*
X147821277Y-81023745D01*
X147815239Y-81010906D01*
X147809972Y-80997449D01*
X147805487Y-80983367D01*
X147801793Y-80968652D01*
X147798903Y-80953296D01*
X147796825Y-80937293D01*
X147795571Y-80920635D01*
X147795150Y-80903314D01*
X147795501Y-80893056D01*
X148034508Y-80893056D01*
X148034741Y-80901176D01*
X148036585Y-80916027D01*
X148040224Y-80929120D01*
X148045605Y-80940564D01*
X148052679Y-80950469D01*
X148061392Y-80958945D01*
X148071694Y-80966101D01*
X148083533Y-80972048D01*
X148096857Y-80976896D01*
X148111615Y-80980753D01*
X148127756Y-80983731D01*
X148145228Y-80985939D01*
X148163979Y-80987486D01*
X148173818Y-80988046D01*
X148183958Y-80988483D01*
X148194392Y-80988809D01*
X148205113Y-80989039D01*
X148216116Y-80989186D01*
X148227394Y-80989265D01*
X148238939Y-80989288D01*
X148251285Y-80989167D01*
X148263898Y-80988808D01*
X148276761Y-80988216D01*
X148289853Y-80987397D01*
X148303156Y-80986355D01*
X148316650Y-80985095D01*
X148330317Y-80983624D01*
X148344136Y-80981945D01*
X148358088Y-80980065D01*
X148372155Y-80977988D01*
X148386316Y-80975720D01*
X148400553Y-80973265D01*
X148414847Y-80970629D01*
X148429177Y-80967818D01*
X148443526Y-80964836D01*
X148457873Y-80961688D01*
X148472199Y-80958380D01*
X148486485Y-80954917D01*
X148500712Y-80951305D01*
X148514860Y-80947547D01*
X148528910Y-80943650D01*
X148542844Y-80939618D01*
X148556640Y-80935458D01*
X148570282Y-80931173D01*
X148583748Y-80926770D01*
X148597020Y-80922253D01*
X148610078Y-80917627D01*
X148622904Y-80912899D01*
X148635478Y-80908072D01*
X148647780Y-80903153D01*
X148659792Y-80898146D01*
X148671494Y-80893056D01*
X148671494Y-80827110D01*
X148663531Y-80824556D01*
X148647082Y-80819518D01*
X148629925Y-80814600D01*
X148612043Y-80809834D01*
X148593424Y-80805250D01*
X148583833Y-80803036D01*
X148574052Y-80800879D01*
X148564079Y-80798783D01*
X148553912Y-80796752D01*
X148543549Y-80794789D01*
X148532990Y-80792899D01*
X148522231Y-80791085D01*
X148511271Y-80789351D01*
X148500108Y-80787701D01*
X148488740Y-80786139D01*
X148477165Y-80784668D01*
X148465383Y-80783294D01*
X148453390Y-80782018D01*
X148441185Y-80780846D01*
X148428766Y-80779781D01*
X148416131Y-80778827D01*
X148403279Y-80777987D01*
X148390207Y-80777266D01*
X148376914Y-80776668D01*
X148363398Y-80776195D01*
X148349657Y-80775853D01*
X148335690Y-80775645D01*
X148321494Y-80775575D01*
X148304897Y-80775668D01*
X148288727Y-80775950D01*
X148272989Y-80776425D01*
X148257691Y-80777097D01*
X148242838Y-80777970D01*
X148228438Y-80779050D01*
X148214496Y-80780339D01*
X148201021Y-80781842D01*
X148188017Y-80783563D01*
X148175493Y-80785507D01*
X148163454Y-80787677D01*
X148151907Y-80790078D01*
X148140859Y-80792714D01*
X148130316Y-80795590D01*
X148120285Y-80798709D01*
X148110773Y-80802076D01*
X148093331Y-80809569D01*
X148078043Y-80818103D01*
X148064961Y-80827712D01*
X148054139Y-80838430D01*
X148045630Y-80850289D01*
X148039487Y-80863324D01*
X148035762Y-80877569D01*
X148034508Y-80893056D01*
X147795501Y-80893056D01*
X147795833Y-80883372D01*
X147797856Y-80864293D01*
X147801180Y-80846063D01*
X147805768Y-80828667D01*
X147811582Y-80812088D01*
X147818582Y-80796313D01*
X147826732Y-80781325D01*
X147835992Y-80767111D01*
X147846325Y-80753654D01*
X147857693Y-80740940D01*
X147870056Y-80728953D01*
X147883378Y-80717679D01*
X147897620Y-80707102D01*
X147912743Y-80697208D01*
X147928710Y-80687980D01*
X147945482Y-80679405D01*
X147963021Y-80671466D01*
X147981289Y-80664149D01*
X148000247Y-80657438D01*
X148019858Y-80651320D01*
X148040084Y-80645777D01*
X148060885Y-80640796D01*
X148082225Y-80636361D01*
X148104064Y-80632457D01*
X148126365Y-80629068D01*
X148149089Y-80626181D01*
X148172198Y-80623779D01*
X148195654Y-80621848D01*
X148219419Y-80620373D01*
X148243454Y-80619337D01*
X148267722Y-80618727D01*
X148292184Y-80618527D01*
X148305409Y-80618593D01*
X148318566Y-80618788D01*
X148331652Y-80619113D01*
X148344667Y-80619564D01*
X148357608Y-80620140D01*
X148370472Y-80620841D01*
X148383259Y-80621663D01*
X148395965Y-80622607D01*
X148408589Y-80623669D01*
X148421128Y-80624849D01*
X148433581Y-80626145D01*
X148445946Y-80627556D01*
X148458220Y-80629079D01*
X148470401Y-80630714D01*
X148482488Y-80632459D01*
X148494479Y-80634311D01*
X148506370Y-80636271D01*
X148518161Y-80638335D01*
X148529848Y-80640503D01*
X148541431Y-80642772D01*
X148552907Y-80645143D01*
X148564274Y-80647611D01*
X148575530Y-80650178D01*
X148586673Y-80652839D01*
X148597700Y-80655595D01*
X148608610Y-80658444D01*
X148619401Y-80661383D01*
X148630071Y-80664412D01*
X148640617Y-80667528D01*
X148651037Y-80670731D01*
X148661330Y-80674019D01*
X148671494Y-80677390D01*
X148670912Y-80663218D01*
X148669203Y-80649860D01*
X148666420Y-80637292D01*
X148662616Y-80625489D01*
X148657845Y-80614429D01*
X148652159Y-80604086D01*
X148645612Y-80594437D01*
X148638257Y-80585459D01*
X148630148Y-80577127D01*
X148621338Y-80569418D01*
X148611879Y-80562308D01*
X148601826Y-80555772D01*
X148591231Y-80549788D01*
X148580148Y-80544331D01*
X148568630Y-80539378D01*
X148556730Y-80534904D01*
X148544502Y-80530887D01*
X148531998Y-80527301D01*
X148519273Y-80524123D01*
X148506379Y-80521329D01*
X148493370Y-80518896D01*
X148480298Y-80516800D01*
X148467218Y-80515016D01*
X148454182Y-80513522D01*
X148441244Y-80512292D01*
X148428457Y-80511304D01*
X148415874Y-80510533D01*
X148403548Y-80509956D01*
X148391533Y-80509548D01*
X148379882Y-80509287D01*
X148368649Y-80509147D01*
X148357886Y-80509106D01*
X148347717Y-80509136D01*
X148337406Y-80509228D01*
X148326949Y-80509389D01*
X148316345Y-80509623D01*
X148305590Y-80509937D01*
X148294682Y-80510336D01*
X148283618Y-80510826D01*
X148272397Y-80511411D01*
X148261015Y-80512098D01*
X148249469Y-80512893D01*
X148237758Y-80513800D01*
X148225879Y-80514825D01*
X148213828Y-80515974D01*
X148201605Y-80517252D01*
X148189205Y-80518666D01*
X148176627Y-80520219D01*
X148163868Y-80521919D01*
X148150925Y-80523770D01*
X148137796Y-80525778D01*
X148124479Y-80527949D01*
X148110970Y-80530288D01*
X148097267Y-80532801D01*
X148083369Y-80535493D01*
X148069271Y-80538370D01*
X148054972Y-80541437D01*
X148040468Y-80544700D01*
X148025759Y-80548164D01*
X148010840Y-80551835D01*
X147995710Y-80555719D01*
X147980365Y-80559821D01*
X147964804Y-80564147D01*
X147949023Y-80568702D01*
X147863782Y-80394312D01*
X147879506Y-80389276D01*
X147895218Y-80384379D01*
X147910918Y-80379624D01*
X147926609Y-80375012D01*
X147942293Y-80370543D01*
X147957971Y-80366220D01*
X147973644Y-80362044D01*
X147989316Y-80358015D01*
X148004986Y-80354136D01*
X148020658Y-80350407D01*
X148036332Y-80346830D01*
X148052011Y-80343406D01*
X148067695Y-80340136D01*
X148083388Y-80337023D01*
X148099090Y-80334066D01*
X148114803Y-80331267D01*
X148130529Y-80328628D01*
X148146270Y-80326150D01*
X148162027Y-80323834D01*
X148177801Y-80321681D01*
X148193596Y-80319693D01*
X148209412Y-80317871D01*
X148225251Y-80316217D01*
X148241115Y-80314731D01*
X148257005Y-80313415D01*
X148272923Y-80312270D01*
X148288872Y-80311298D01*
X148304852Y-80310500D01*
X148320865Y-80309877D01*
X148336913Y-80309430D01*
X148352998Y-80309161D01*
X148369121Y-80309071D01*
X148400971Y-80309398D01*
G37*
G36*
X149796476Y-80524738D02*
G01*
X149796476Y-80324703D01*
X149405688Y-80324703D01*
X149405688Y-80085345D01*
X149164864Y-80153733D01*
X149164864Y-80324703D01*
X148947976Y-80324703D01*
X148947976Y-80524738D01*
X149164864Y-80524738D01*
X149164864Y-80901116D01*
X149165264Y-80917854D01*
X149166458Y-80934000D01*
X149168432Y-80949556D01*
X149171178Y-80964529D01*
X149174682Y-80978920D01*
X149178934Y-80992735D01*
X149183922Y-81005977D01*
X149189636Y-81018650D01*
X149196063Y-81030759D01*
X149203193Y-81042308D01*
X149211013Y-81053299D01*
X149219514Y-81063739D01*
X149228683Y-81073630D01*
X149238509Y-81082976D01*
X149248982Y-81091782D01*
X149260088Y-81100052D01*
X149271818Y-81107789D01*
X149284160Y-81114998D01*
X149297103Y-81121683D01*
X149310635Y-81127847D01*
X149324744Y-81133495D01*
X149339421Y-81138631D01*
X149354653Y-81143258D01*
X149370429Y-81147382D01*
X149386737Y-81151005D01*
X149403568Y-81154132D01*
X149420908Y-81156767D01*
X149438747Y-81158913D01*
X149457073Y-81160576D01*
X149475876Y-81161759D01*
X149495143Y-81162465D01*
X149514864Y-81162700D01*
X149525180Y-81162680D01*
X149535383Y-81162620D01*
X149545474Y-81162519D01*
X149555455Y-81162379D01*
X149565328Y-81162197D01*
X149584755Y-81161713D01*
X149603766Y-81161066D01*
X149622374Y-81160256D01*
X149640592Y-81159281D01*
X149658430Y-81158142D01*
X149675901Y-81156837D01*
X149693018Y-81155365D01*
X149709793Y-81153726D01*
X149726237Y-81151920D01*
X149742363Y-81149945D01*
X149758184Y-81147801D01*
X149773710Y-81145487D01*
X149788955Y-81143002D01*
X149796476Y-81141695D01*
X149796476Y-80948499D01*
X149778961Y-80950950D01*
X149762598Y-80953094D01*
X149747258Y-80954954D01*
X149732813Y-80956548D01*
X149719131Y-80957897D01*
X149706084Y-80959022D01*
X149693543Y-80959943D01*
X149681377Y-80960681D01*
X149669457Y-80961255D01*
X149657654Y-80961687D01*
X149645838Y-80961996D01*
X149633879Y-80962203D01*
X149621649Y-80962329D01*
X149609017Y-80962394D01*
X149595854Y-80962418D01*
X149582031Y-80962421D01*
X149568718Y-80962300D01*
X149556061Y-80961927D01*
X149544047Y-80961288D01*
X149532659Y-80960368D01*
X149521883Y-80959153D01*
X149511702Y-80957630D01*
X149502101Y-80955783D01*
X149484579Y-80951061D01*
X149469194Y-80944874D01*
X149455822Y-80937107D01*
X149444341Y-80927645D01*
X149434627Y-80916375D01*
X149426558Y-80903181D01*
X149420010Y-80887949D01*
X149414860Y-80870565D01*
X149410985Y-80850914D01*
X149409487Y-80840202D01*
X149408262Y-80828881D01*
X149407294Y-80816936D01*
X149406568Y-80804353D01*
X149406069Y-80791117D01*
X149405780Y-80777214D01*
X149405688Y-80762630D01*
X149405688Y-80524738D01*
X149796476Y-80524738D01*
G37*
G36*
X150556071Y-80309071D02*
G01*
X150541671Y-80309199D01*
X150527321Y-80309584D01*
X150513025Y-80310231D01*
X150498785Y-80311145D01*
X150484605Y-80312330D01*
X150470485Y-80313790D01*
X150456430Y-80315530D01*
X150442441Y-80317555D01*
X150428521Y-80319868D01*
X150414673Y-80322475D01*
X150400899Y-80325379D01*
X150387202Y-80328585D01*
X150373584Y-80332097D01*
X150360047Y-80335920D01*
X150346595Y-80340059D01*
X150333230Y-80344517D01*
X150319955Y-80349300D01*
X150306771Y-80354411D01*
X150293682Y-80359855D01*
X150280690Y-80365636D01*
X150267798Y-80371759D01*
X150255007Y-80378229D01*
X150242322Y-80385049D01*
X150229744Y-80392225D01*
X150217276Y-80399760D01*
X150204920Y-80407659D01*
X150192679Y-80415926D01*
X150180555Y-80424566D01*
X150168552Y-80433584D01*
X150156671Y-80442983D01*
X150144915Y-80452768D01*
X150133287Y-80462944D01*
X150133287Y-80322993D01*
X149893929Y-80322993D01*
X149893929Y-81147557D01*
X150133287Y-81147557D01*
X150133287Y-80653454D01*
X150146958Y-80643069D01*
X150160674Y-80633157D01*
X150174430Y-80623708D01*
X150188221Y-80614714D01*
X150202040Y-80606164D01*
X150215884Y-80598049D01*
X150229747Y-80590361D01*
X150243624Y-80583089D01*
X150257509Y-80576224D01*
X150271397Y-80569757D01*
X150285284Y-80563678D01*
X150299164Y-80557979D01*
X150313032Y-80552649D01*
X150326882Y-80547679D01*
X150340710Y-80543059D01*
X150354510Y-80538782D01*
X150368277Y-80534836D01*
X150382006Y-80531213D01*
X150395692Y-80527903D01*
X150409329Y-80524897D01*
X150422913Y-80522186D01*
X150436437Y-80519759D01*
X150449898Y-80517608D01*
X150463290Y-80515724D01*
X150476607Y-80514096D01*
X150489844Y-80512716D01*
X150502997Y-80511574D01*
X150516059Y-80510660D01*
X150529027Y-80509966D01*
X150541894Y-80509482D01*
X150554656Y-80509199D01*
X150567307Y-80509106D01*
X150580372Y-80509207D01*
X150593305Y-80509512D01*
X150606138Y-80510024D01*
X150618903Y-80510747D01*
X150631634Y-80511685D01*
X150644363Y-80512841D01*
X150657124Y-80514220D01*
X150669950Y-80515823D01*
X150682872Y-80517655D01*
X150695925Y-80519720D01*
X150709141Y-80522021D01*
X150722553Y-80524562D01*
X150736194Y-80527346D01*
X150750097Y-80530377D01*
X150764295Y-80533659D01*
X150778821Y-80537194D01*
X150778821Y-80336915D01*
X150768181Y-80334308D01*
X150757218Y-80331722D01*
X150745909Y-80329176D01*
X150734227Y-80326691D01*
X150722150Y-80324288D01*
X150709651Y-80321987D01*
X150696706Y-80319808D01*
X150683291Y-80317773D01*
X150669381Y-80315900D01*
X150654951Y-80314210D01*
X150639976Y-80312725D01*
X150624433Y-80311464D01*
X150608295Y-80310448D01*
X150591539Y-80309697D01*
X150574139Y-80309231D01*
X150556071Y-80309071D01*
G37*
G36*
X151402927Y-80309434D02*
G01*
X151433838Y-80310528D01*
X151464065Y-80312365D01*
X151493585Y-80314955D01*
X151522376Y-80318309D01*
X151550415Y-80322438D01*
X151577682Y-80327351D01*
X151604152Y-80333061D01*
X151629804Y-80339576D01*
X151654615Y-80346909D01*
X151678564Y-80355070D01*
X151701627Y-80364069D01*
X151723783Y-80373917D01*
X151745009Y-80384625D01*
X151765283Y-80396203D01*
X151784582Y-80408661D01*
X151802885Y-80422012D01*
X151820169Y-80436265D01*
X151836411Y-80451430D01*
X151851589Y-80467519D01*
X151865682Y-80484542D01*
X151878666Y-80502510D01*
X151890519Y-80521434D01*
X151901220Y-80541323D01*
X151910745Y-80562190D01*
X151919072Y-80584043D01*
X151926180Y-80606895D01*
X151932045Y-80630755D01*
X151936646Y-80655635D01*
X151939960Y-80681545D01*
X151941965Y-80708495D01*
X151942638Y-80736496D01*
X151941965Y-80764387D01*
X151939960Y-80791233D01*
X151936646Y-80817045D01*
X151932045Y-80841834D01*
X151926180Y-80865610D01*
X151919072Y-80888383D01*
X151910745Y-80910164D01*
X151901220Y-80930963D01*
X151890519Y-80950791D01*
X151878666Y-80969658D01*
X151865682Y-80987574D01*
X151851589Y-81004550D01*
X151836411Y-81020597D01*
X151820169Y-81035724D01*
X151802885Y-81049943D01*
X151784582Y-81063263D01*
X151765283Y-81075695D01*
X151745009Y-81087249D01*
X151723783Y-81097936D01*
X151701627Y-81107767D01*
X151678564Y-81116751D01*
X151654615Y-81124899D01*
X151629804Y-81132222D01*
X151604152Y-81138730D01*
X151577682Y-81144433D01*
X151550415Y-81149342D01*
X151522376Y-81153467D01*
X151493585Y-81156819D01*
X151464065Y-81159407D01*
X151433838Y-81161244D01*
X151402927Y-81162338D01*
X151371354Y-81162700D01*
X151339674Y-81162338D01*
X151308671Y-81161244D01*
X151278367Y-81159407D01*
X151248783Y-81156819D01*
X151219941Y-81153467D01*
X151191862Y-81149342D01*
X151164567Y-81144433D01*
X151138079Y-81138730D01*
X151112419Y-81132222D01*
X151087608Y-81124899D01*
X151063669Y-81116751D01*
X151040621Y-81107767D01*
X151018488Y-81097936D01*
X150997291Y-81087249D01*
X150977051Y-81075695D01*
X150957790Y-81063263D01*
X150939529Y-81049943D01*
X150922290Y-81035724D01*
X150906094Y-81020597D01*
X150890964Y-81004550D01*
X150876920Y-80987574D01*
X150863984Y-80969658D01*
X150852178Y-80950791D01*
X150841523Y-80930963D01*
X150832040Y-80910164D01*
X150823753Y-80888383D01*
X150816681Y-80865610D01*
X150810846Y-80841834D01*
X150806271Y-80817045D01*
X150802976Y-80791233D01*
X150800983Y-80764387D01*
X150800314Y-80736496D01*
X151039672Y-80736496D01*
X151039992Y-80752208D01*
X151040953Y-80767249D01*
X151042554Y-80781629D01*
X151044798Y-80795361D01*
X151047684Y-80808456D01*
X151051214Y-80820924D01*
X151055388Y-80832778D01*
X151060208Y-80844028D01*
X151065673Y-80854686D01*
X151071784Y-80864764D01*
X151078543Y-80874271D01*
X151085950Y-80883221D01*
X151094006Y-80891624D01*
X151102711Y-80899491D01*
X151112067Y-80906834D01*
X151122074Y-80913664D01*
X151132732Y-80919992D01*
X151144044Y-80925831D01*
X151156008Y-80931190D01*
X151168627Y-80936081D01*
X151181901Y-80940517D01*
X151195830Y-80944507D01*
X151210416Y-80948063D01*
X151225659Y-80951197D01*
X151241560Y-80953920D01*
X151258120Y-80956243D01*
X151275339Y-80958178D01*
X151293219Y-80959736D01*
X151311759Y-80960928D01*
X151330961Y-80961765D01*
X151350826Y-80962259D01*
X151371354Y-80962421D01*
X151391771Y-80962259D01*
X151411532Y-80961765D01*
X151430637Y-80960928D01*
X151449086Y-80959736D01*
X151466881Y-80958178D01*
X151484022Y-80956243D01*
X151500509Y-80953920D01*
X151516343Y-80951197D01*
X151531524Y-80948063D01*
X151546053Y-80944507D01*
X151559931Y-80940517D01*
X151573158Y-80936081D01*
X151585734Y-80931190D01*
X151597660Y-80925831D01*
X151608938Y-80919992D01*
X151619566Y-80913664D01*
X151629546Y-80906834D01*
X151638878Y-80899491D01*
X151647563Y-80891624D01*
X151655601Y-80883221D01*
X151662993Y-80874271D01*
X151669740Y-80864764D01*
X151675841Y-80854686D01*
X151681298Y-80844028D01*
X151686111Y-80832778D01*
X151690281Y-80820924D01*
X151693807Y-80808456D01*
X151696691Y-80795361D01*
X151698933Y-80781629D01*
X151700534Y-80767249D01*
X151701495Y-80752208D01*
X151701815Y-80736496D01*
X151701495Y-80720673D01*
X151700534Y-80705526D01*
X151698933Y-80691045D01*
X151696691Y-80677218D01*
X151693807Y-80664033D01*
X151690281Y-80651480D01*
X151686111Y-80639546D01*
X151681298Y-80628220D01*
X151675841Y-80617492D01*
X151669740Y-80607348D01*
X151662993Y-80597779D01*
X151655601Y-80588771D01*
X151647563Y-80580315D01*
X151638878Y-80572399D01*
X151629546Y-80565010D01*
X151619566Y-80558138D01*
X151608938Y-80551771D01*
X151597660Y-80545898D01*
X151585734Y-80540507D01*
X151573158Y-80535588D01*
X151559931Y-80531127D01*
X151546053Y-80527114D01*
X151531524Y-80523538D01*
X151516343Y-80520387D01*
X151500509Y-80517650D01*
X151484022Y-80515314D01*
X151466881Y-80513370D01*
X151449086Y-80511804D01*
X151430637Y-80510607D01*
X151411532Y-80509766D01*
X151391771Y-80509269D01*
X151371354Y-80509106D01*
X151350826Y-80509269D01*
X151330961Y-80509766D01*
X151311759Y-80510607D01*
X151293219Y-80511804D01*
X151275339Y-80513370D01*
X151258120Y-80515314D01*
X151241560Y-80517650D01*
X151225659Y-80520387D01*
X151210416Y-80523538D01*
X151195830Y-80527114D01*
X151181901Y-80531127D01*
X151168627Y-80535588D01*
X151156008Y-80540507D01*
X151144044Y-80545898D01*
X151132732Y-80551771D01*
X151122074Y-80558138D01*
X151112067Y-80565010D01*
X151102711Y-80572399D01*
X151094006Y-80580315D01*
X151085950Y-80588771D01*
X151078543Y-80597779D01*
X151071784Y-80607348D01*
X151065673Y-80617492D01*
X151060208Y-80628220D01*
X151055388Y-80639546D01*
X151051214Y-80651480D01*
X151047684Y-80664033D01*
X151044798Y-80677218D01*
X151042554Y-80691045D01*
X151040953Y-80705526D01*
X151039992Y-80720673D01*
X151039672Y-80736496D01*
X150800314Y-80736496D01*
X150800983Y-80708495D01*
X150802976Y-80681545D01*
X150806271Y-80655635D01*
X150810846Y-80630755D01*
X150816681Y-80606895D01*
X150823753Y-80584043D01*
X150832040Y-80562190D01*
X150841523Y-80541323D01*
X150852178Y-80521434D01*
X150863984Y-80502510D01*
X150876920Y-80484542D01*
X150890964Y-80467519D01*
X150906094Y-80451430D01*
X150922290Y-80436265D01*
X150939529Y-80422012D01*
X150957790Y-80408661D01*
X150977051Y-80396203D01*
X150997291Y-80384625D01*
X151018488Y-80373917D01*
X151040621Y-80364069D01*
X151063669Y-80355070D01*
X151087608Y-80346909D01*
X151112419Y-80339576D01*
X151138079Y-80333061D01*
X151164567Y-80327351D01*
X151191862Y-80322438D01*
X151219941Y-80318309D01*
X151248783Y-80314955D01*
X151278367Y-80312365D01*
X151308671Y-80310528D01*
X151339674Y-80309434D01*
X151371354Y-80309071D01*
X151402927Y-80309434D01*
G37*
G36*
X152753036Y-80305896D02*
G01*
X152734393Y-80306088D01*
X152715972Y-80306659D01*
X152697774Y-80307602D01*
X152679800Y-80308910D01*
X152662051Y-80310575D01*
X152644530Y-80312591D01*
X152627237Y-80314949D01*
X152610173Y-80317643D01*
X152593340Y-80320665D01*
X152576739Y-80324009D01*
X152560371Y-80327666D01*
X152544238Y-80331630D01*
X152528341Y-80335894D01*
X152512681Y-80340450D01*
X152497260Y-80345291D01*
X152482079Y-80350409D01*
X152467139Y-80355799D01*
X152452441Y-80361451D01*
X152437987Y-80367359D01*
X152423778Y-80373516D01*
X152409815Y-80379915D01*
X152396100Y-80386548D01*
X152382634Y-80393407D01*
X152369418Y-80400487D01*
X152356454Y-80407779D01*
X152343742Y-80415276D01*
X152331285Y-80422972D01*
X152319083Y-80430858D01*
X152307137Y-80438928D01*
X152295450Y-80447174D01*
X152284022Y-80455589D01*
X152272854Y-80464166D01*
X152272854Y-80320062D01*
X152033496Y-80320062D01*
X152033496Y-81144626D01*
X152272854Y-81144626D01*
X152272854Y-80682763D01*
X152280103Y-80674627D01*
X152287914Y-80666530D01*
X152296266Y-80658488D01*
X152305139Y-80650515D01*
X152314512Y-80642625D01*
X152324365Y-80634832D01*
X152334678Y-80627151D01*
X152345429Y-80619596D01*
X152356598Y-80612181D01*
X152368165Y-80604920D01*
X152380110Y-80597828D01*
X152392411Y-80590920D01*
X152405048Y-80584209D01*
X152418001Y-80577710D01*
X152431248Y-80571437D01*
X152444771Y-80565404D01*
X152458547Y-80559626D01*
X152472557Y-80554118D01*
X152486780Y-80548892D01*
X152501195Y-80543964D01*
X152515782Y-80539348D01*
X152530521Y-80535059D01*
X152545390Y-80531110D01*
X152560370Y-80527516D01*
X152575440Y-80524291D01*
X152590579Y-80521450D01*
X152605766Y-80519007D01*
X152620982Y-80516975D01*
X152636205Y-80515371D01*
X152651416Y-80514207D01*
X152666593Y-80513498D01*
X152681717Y-80513258D01*
X152699815Y-80513525D01*
X152717116Y-80514324D01*
X152733635Y-80515654D01*
X152749386Y-80517515D01*
X152764385Y-80519903D01*
X152778644Y-80522819D01*
X152792180Y-80526260D01*
X152805006Y-80530226D01*
X152817138Y-80534714D01*
X152828589Y-80539725D01*
X152839374Y-80545256D01*
X152849509Y-80551306D01*
X152859007Y-80557874D01*
X152867883Y-80564958D01*
X152876152Y-80572557D01*
X152883828Y-80580669D01*
X152890926Y-80589295D01*
X152897460Y-80598431D01*
X152903445Y-80608076D01*
X152908896Y-80618230D01*
X152913827Y-80628891D01*
X152918253Y-80640058D01*
X152922188Y-80651729D01*
X152925647Y-80663903D01*
X152928644Y-80676578D01*
X152931195Y-80689754D01*
X152933313Y-80703429D01*
X152935013Y-80717601D01*
X152936310Y-80732269D01*
X152937218Y-80747433D01*
X152937753Y-80763090D01*
X152937928Y-80779239D01*
X152937928Y-81144626D01*
X153178751Y-81144626D01*
X153181682Y-80688136D01*
X153180818Y-80660329D01*
X153178800Y-80633813D01*
X153175662Y-80608561D01*
X153171438Y-80584547D01*
X153166164Y-80561744D01*
X153159873Y-80540125D01*
X153152601Y-80519664D01*
X153144381Y-80500333D01*
X153135250Y-80482105D01*
X153125241Y-80464955D01*
X153114388Y-80448855D01*
X153102728Y-80433778D01*
X153090293Y-80419698D01*
X153077119Y-80406587D01*
X153063240Y-80394420D01*
X153048692Y-80383169D01*
X153033508Y-80372807D01*
X153017723Y-80363308D01*
X153001372Y-80354644D01*
X152984489Y-80346790D01*
X152967110Y-80339718D01*
X152949268Y-80333402D01*
X152930998Y-80327814D01*
X152912336Y-80322928D01*
X152893314Y-80318718D01*
X152873969Y-80315155D01*
X152854335Y-80312215D01*
X152834446Y-80309869D01*
X152814337Y-80308090D01*
X152794042Y-80306854D01*
X152773597Y-80306131D01*
X152753036Y-80305896D01*
G37*
G36*
X153291835Y-80034787D02*
G01*
X153291835Y-80243370D01*
X153531193Y-80243370D01*
X153531193Y-80034787D01*
X153291835Y-80034787D01*
G37*
G36*
X153291835Y-80330321D02*
G01*
X153291835Y-81154884D01*
X153531193Y-81154884D01*
X153531193Y-80330321D01*
X153291835Y-80330321D01*
G37*
G36*
X153621808Y-80736496D02*
G01*
X153622477Y-80764387D01*
X153624469Y-80791233D01*
X153627764Y-80817045D01*
X153632340Y-80841834D01*
X153638174Y-80865610D01*
X153645246Y-80888383D01*
X153653534Y-80910164D01*
X153663016Y-80930963D01*
X153673671Y-80950791D01*
X153685477Y-80969658D01*
X153698413Y-80987574D01*
X153712457Y-81004550D01*
X153727588Y-81020597D01*
X153743783Y-81035724D01*
X153761022Y-81049943D01*
X153779283Y-81063263D01*
X153798544Y-81075695D01*
X153818785Y-81087249D01*
X153839982Y-81097936D01*
X153862115Y-81107767D01*
X153885162Y-81116751D01*
X153909102Y-81124899D01*
X153933912Y-81132222D01*
X153959573Y-81138730D01*
X153986061Y-81144433D01*
X154013355Y-81149342D01*
X154041434Y-81153467D01*
X154070277Y-81156819D01*
X154099861Y-81159407D01*
X154130165Y-81161244D01*
X154161168Y-81162338D01*
X154192847Y-81162700D01*
X154221474Y-81162404D01*
X154249550Y-81161511D01*
X154277059Y-81160013D01*
X154303985Y-81157902D01*
X154330313Y-81155172D01*
X154356027Y-81151813D01*
X154381110Y-81147820D01*
X154405549Y-81143184D01*
X154429325Y-81137897D01*
X154452424Y-81131952D01*
X154474830Y-81125342D01*
X154496528Y-81118058D01*
X154517500Y-81110094D01*
X154537732Y-81101441D01*
X154557208Y-81092092D01*
X154575912Y-81082039D01*
X154593828Y-81071275D01*
X154610940Y-81059792D01*
X154627233Y-81047583D01*
X154642691Y-81034640D01*
X154657297Y-81020955D01*
X154671037Y-81006520D01*
X154683895Y-80991329D01*
X154695854Y-80975373D01*
X154706899Y-80958646D01*
X154717014Y-80941138D01*
X154726184Y-80922844D01*
X154734391Y-80903754D01*
X154741622Y-80883862D01*
X154747860Y-80863160D01*
X154753088Y-80841640D01*
X154757293Y-80819295D01*
X154512073Y-80819295D01*
X154508835Y-80829096D01*
X154505123Y-80838491D01*
X154500941Y-80847487D01*
X154496292Y-80856089D01*
X154485613Y-80872138D01*
X154473116Y-80886687D01*
X154458833Y-80899786D01*
X154451032Y-80905808D01*
X154442796Y-80911485D01*
X154434129Y-80916826D01*
X154425035Y-80921835D01*
X154415518Y-80926518D01*
X154405583Y-80930883D01*
X154395232Y-80934935D01*
X154384471Y-80938681D01*
X154373302Y-80942126D01*
X154361730Y-80945278D01*
X154349759Y-80948141D01*
X154337392Y-80950723D01*
X154324634Y-80953030D01*
X154311488Y-80955067D01*
X154297959Y-80956841D01*
X154284051Y-80958359D01*
X154269766Y-80959626D01*
X154255110Y-80960649D01*
X154240086Y-80961433D01*
X154224699Y-80961986D01*
X154208951Y-80962313D01*
X154192847Y-80962421D01*
X154173802Y-80962259D01*
X154155232Y-80961765D01*
X154137145Y-80960928D01*
X154119551Y-80959736D01*
X154102457Y-80958178D01*
X154085871Y-80956243D01*
X154069804Y-80953920D01*
X154054262Y-80951197D01*
X154039255Y-80948063D01*
X154024791Y-80944507D01*
X154010879Y-80940517D01*
X153997527Y-80936081D01*
X153984743Y-80931190D01*
X153972536Y-80925831D01*
X153960914Y-80919992D01*
X153949887Y-80913664D01*
X153939462Y-80906834D01*
X153929648Y-80899491D01*
X153920453Y-80891624D01*
X153911887Y-80883221D01*
X153903957Y-80874271D01*
X153896672Y-80864764D01*
X153890040Y-80854686D01*
X153884071Y-80844028D01*
X153878772Y-80832778D01*
X153874152Y-80820924D01*
X153870219Y-80808456D01*
X153866983Y-80795361D01*
X153864450Y-80781629D01*
X153862631Y-80767249D01*
X153861533Y-80752208D01*
X153861166Y-80736496D01*
X153861533Y-80720673D01*
X153862631Y-80705526D01*
X153864450Y-80691045D01*
X153866983Y-80677218D01*
X153870219Y-80664033D01*
X153874152Y-80651480D01*
X153878772Y-80639546D01*
X153884071Y-80628220D01*
X153890040Y-80617492D01*
X153896672Y-80607348D01*
X153903957Y-80597779D01*
X153911887Y-80588771D01*
X153920453Y-80580315D01*
X153929648Y-80572399D01*
X153939462Y-80565010D01*
X153949887Y-80558138D01*
X153960914Y-80551771D01*
X153972536Y-80545898D01*
X153984743Y-80540507D01*
X153997527Y-80535588D01*
X154010879Y-80531127D01*
X154024791Y-80527114D01*
X154039255Y-80523538D01*
X154054262Y-80520387D01*
X154069804Y-80517650D01*
X154085871Y-80515314D01*
X154102457Y-80513370D01*
X154119551Y-80511804D01*
X154137145Y-80510607D01*
X154155232Y-80509766D01*
X154173802Y-80509269D01*
X154192847Y-80509106D01*
X154208951Y-80509215D01*
X154224699Y-80509544D01*
X154240086Y-80510100D01*
X154255110Y-80510889D01*
X154269766Y-80511917D01*
X154284051Y-80513191D01*
X154297959Y-80514716D01*
X154311488Y-80516498D01*
X154324634Y-80518545D01*
X154337392Y-80520861D01*
X154349759Y-80523453D01*
X154361730Y-80526327D01*
X154373302Y-80529489D01*
X154384471Y-80532946D01*
X154395232Y-80536703D01*
X154405583Y-80540766D01*
X154415518Y-80545143D01*
X154425035Y-80549838D01*
X154434129Y-80554858D01*
X154442796Y-80560209D01*
X154451032Y-80565897D01*
X154458833Y-80571929D01*
X154473116Y-80585047D01*
X154485613Y-80599611D01*
X154496292Y-80615672D01*
X154500941Y-80624279D01*
X154505123Y-80633277D01*
X154508835Y-80642675D01*
X154512073Y-80652477D01*
X154757293Y-80652477D01*
X154753088Y-80630132D01*
X154747860Y-80608612D01*
X154741622Y-80587910D01*
X154734391Y-80568017D01*
X154726184Y-80548928D01*
X154717014Y-80530633D01*
X154706899Y-80513126D01*
X154695854Y-80496398D01*
X154683895Y-80480442D01*
X154671037Y-80465251D01*
X154657297Y-80450817D01*
X154642691Y-80437132D01*
X154627233Y-80424189D01*
X154610940Y-80411979D01*
X154593828Y-80400497D01*
X154575912Y-80389733D01*
X154557208Y-80379680D01*
X154537732Y-80370331D01*
X154517500Y-80361678D01*
X154496528Y-80353713D01*
X154474830Y-80346430D01*
X154452424Y-80339819D01*
X154429325Y-80333875D01*
X154405549Y-80328588D01*
X154381110Y-80323952D01*
X154356027Y-80319958D01*
X154330313Y-80316600D01*
X154303985Y-80313869D01*
X154277059Y-80311759D01*
X154249550Y-80310261D01*
X154221474Y-80309367D01*
X154192847Y-80309071D01*
X154161168Y-80309434D01*
X154130165Y-80310528D01*
X154099861Y-80312365D01*
X154070277Y-80314955D01*
X154041434Y-80318309D01*
X154013355Y-80322438D01*
X153986061Y-80327351D01*
X153959573Y-80333061D01*
X153933912Y-80339576D01*
X153909102Y-80346909D01*
X153885162Y-80355070D01*
X153862115Y-80364069D01*
X153839982Y-80373917D01*
X153818785Y-80384625D01*
X153798544Y-80396203D01*
X153779283Y-80408661D01*
X153761022Y-80422012D01*
X153743783Y-80436265D01*
X153727588Y-80451430D01*
X153712457Y-80467519D01*
X153698413Y-80484542D01*
X153685477Y-80502510D01*
X153673671Y-80521434D01*
X153663016Y-80541323D01*
X153653534Y-80562190D01*
X153645246Y-80584043D01*
X153638174Y-80606895D01*
X153632340Y-80630755D01*
X153627764Y-80655635D01*
X153624469Y-80681545D01*
X153622477Y-80708495D01*
X153621808Y-80736496D01*
G37*
G36*
X154811759Y-80861549D02*
G01*
X154812611Y-80885608D01*
X154815136Y-80908393D01*
X154819284Y-80929939D01*
X154825005Y-80950279D01*
X154832250Y-80969446D01*
X154840971Y-80987473D01*
X154851116Y-81004394D01*
X154862638Y-81020242D01*
X154875486Y-81035050D01*
X154889611Y-81048853D01*
X154904964Y-81061684D01*
X154921496Y-81073575D01*
X154939157Y-81084560D01*
X154957898Y-81094674D01*
X154977669Y-81103948D01*
X154998421Y-81112417D01*
X155020105Y-81120113D01*
X155042671Y-81127071D01*
X155066070Y-81133324D01*
X155090253Y-81138905D01*
X155115170Y-81143848D01*
X155140771Y-81148185D01*
X155167008Y-81151951D01*
X155193831Y-81155178D01*
X155221190Y-81157901D01*
X155249037Y-81160152D01*
X155277322Y-81161965D01*
X155305996Y-81163374D01*
X155335008Y-81164412D01*
X155364310Y-81165111D01*
X155393853Y-81165507D01*
X155423587Y-81165631D01*
X155453058Y-81165508D01*
X155481880Y-81165119D01*
X155510033Y-81164437D01*
X155537498Y-81163435D01*
X155564258Y-81162084D01*
X155590292Y-81160357D01*
X155615583Y-81158226D01*
X155640112Y-81155663D01*
X155663860Y-81152641D01*
X155686808Y-81149132D01*
X155708937Y-81145107D01*
X155730230Y-81140541D01*
X155750666Y-81135404D01*
X155770227Y-81129669D01*
X155788896Y-81123308D01*
X155806651Y-81116294D01*
X155823476Y-81108599D01*
X155839352Y-81100194D01*
X155854259Y-81091053D01*
X155868178Y-81081148D01*
X155881092Y-81070450D01*
X155892981Y-81058933D01*
X155903827Y-81046568D01*
X155913611Y-81033328D01*
X155922314Y-81019184D01*
X155929917Y-81004110D01*
X155936402Y-80988078D01*
X155941750Y-80971059D01*
X155945942Y-80953026D01*
X155948959Y-80933952D01*
X155950784Y-80913808D01*
X155951396Y-80892568D01*
X155950755Y-80872505D01*
X155948849Y-80853643D01*
X155945697Y-80835940D01*
X155941321Y-80819355D01*
X155935744Y-80803845D01*
X155928986Y-80789370D01*
X155921070Y-80775887D01*
X155912016Y-80763355D01*
X155901846Y-80751733D01*
X155890581Y-80740979D01*
X155878244Y-80731051D01*
X155864855Y-80721908D01*
X155850437Y-80713507D01*
X155835010Y-80705809D01*
X155818596Y-80698770D01*
X155801217Y-80692349D01*
X155782894Y-80686506D01*
X155763649Y-80681197D01*
X155743503Y-80676382D01*
X155722478Y-80672019D01*
X155700595Y-80668066D01*
X155677876Y-80664483D01*
X155654341Y-80661226D01*
X155630014Y-80658255D01*
X155604915Y-80655528D01*
X155579066Y-80653003D01*
X155552488Y-80650639D01*
X155525203Y-80648394D01*
X155497232Y-80646227D01*
X155468597Y-80644096D01*
X155439320Y-80641960D01*
X155409421Y-80639776D01*
X155383490Y-80637820D01*
X155358932Y-80635930D01*
X155335712Y-80634095D01*
X155313793Y-80632304D01*
X155293139Y-80630548D01*
X155273715Y-80628815D01*
X155255483Y-80627097D01*
X155238409Y-80625381D01*
X155222456Y-80623658D01*
X155207587Y-80621918D01*
X155193767Y-80620150D01*
X155180960Y-80618344D01*
X155169129Y-80616489D01*
X155158239Y-80614575D01*
X155148253Y-80612591D01*
X155130850Y-80608375D01*
X155116632Y-80603756D01*
X155105309Y-80598652D01*
X155096593Y-80592980D01*
X155087776Y-80583225D01*
X155083200Y-80571725D01*
X155081891Y-80558199D01*
X155083672Y-80545598D01*
X155089336Y-80534540D01*
X155099366Y-80524960D01*
X155108717Y-80519360D01*
X155120367Y-80514369D01*
X155134458Y-80509965D01*
X155151133Y-80506128D01*
X155170537Y-80502840D01*
X155181306Y-80501396D01*
X155192811Y-80500081D01*
X155205069Y-80498894D01*
X155218099Y-80497831D01*
X155231917Y-80496890D01*
X155246544Y-80496070D01*
X155261995Y-80495366D01*
X155278289Y-80494778D01*
X155295444Y-80494302D01*
X155313477Y-80493937D01*
X155332407Y-80493678D01*
X155352252Y-80493525D01*
X155373029Y-80493475D01*
X155393514Y-80493526D01*
X155413212Y-80493683D01*
X155432131Y-80493954D01*
X155450279Y-80494343D01*
X155467667Y-80494858D01*
X155484302Y-80495505D01*
X155500195Y-80496290D01*
X155515354Y-80497219D01*
X155529788Y-80498298D01*
X155543506Y-80499535D01*
X155556517Y-80500934D01*
X155568830Y-80502504D01*
X155580455Y-80504249D01*
X155591400Y-80506176D01*
X155601675Y-80508292D01*
X155611288Y-80510602D01*
X155628565Y-80515833D01*
X155643304Y-80521918D01*
X155655577Y-80528908D01*
X155665456Y-80536855D01*
X155673014Y-80545807D01*
X155678324Y-80555815D01*
X155681456Y-80566931D01*
X155682484Y-80579204D01*
X155923308Y-80579204D01*
X155922652Y-80558473D01*
X155920700Y-80538805D01*
X155917479Y-80520175D01*
X155913014Y-80502556D01*
X155907331Y-80485921D01*
X155900456Y-80470243D01*
X155892413Y-80455496D01*
X155883229Y-80441653D01*
X155872930Y-80428688D01*
X155861541Y-80416574D01*
X155849087Y-80405284D01*
X155835595Y-80394793D01*
X155821090Y-80385072D01*
X155805598Y-80376096D01*
X155789145Y-80367838D01*
X155771755Y-80360271D01*
X155753456Y-80353369D01*
X155734271Y-80347105D01*
X155714228Y-80341453D01*
X155693352Y-80336385D01*
X155671669Y-80331876D01*
X155649203Y-80327899D01*
X155625982Y-80324426D01*
X155602029Y-80321432D01*
X155577372Y-80318890D01*
X155552036Y-80316774D01*
X155526047Y-80315056D01*
X155499429Y-80313710D01*
X155472210Y-80312709D01*
X155444414Y-80312027D01*
X155416067Y-80311638D01*
X155387195Y-80311514D01*
X155359755Y-80311637D01*
X155332601Y-80312025D01*
X155305769Y-80312700D01*
X155279299Y-80313688D01*
X155253228Y-80315013D01*
X155227597Y-80316700D01*
X155202442Y-80318773D01*
X155177802Y-80321257D01*
X155153717Y-80324176D01*
X155130223Y-80327556D01*
X155107361Y-80331420D01*
X155085168Y-80335793D01*
X155063682Y-80340699D01*
X155042942Y-80346164D01*
X155022988Y-80352212D01*
X155003856Y-80358866D01*
X154985585Y-80366153D01*
X154968215Y-80374096D01*
X154951783Y-80382720D01*
X154936328Y-80392050D01*
X154921889Y-80402109D01*
X154908503Y-80412923D01*
X154896210Y-80424516D01*
X154885047Y-80436913D01*
X154875053Y-80450139D01*
X154866268Y-80464217D01*
X154858728Y-80479172D01*
X154852473Y-80495029D01*
X154847541Y-80511813D01*
X154843970Y-80529548D01*
X154841800Y-80548258D01*
X154841068Y-80567969D01*
X154841589Y-80586179D01*
X154843153Y-80603415D01*
X154845762Y-80619706D01*
X154849416Y-80635083D01*
X154854118Y-80649575D01*
X154859868Y-80663214D01*
X154866667Y-80676028D01*
X154874518Y-80688049D01*
X154883420Y-80699305D01*
X154893376Y-80709828D01*
X154904387Y-80719647D01*
X154916454Y-80728793D01*
X154929579Y-80737295D01*
X154943762Y-80745184D01*
X154959005Y-80752489D01*
X154975310Y-80759241D01*
X154992677Y-80765471D01*
X155011108Y-80771207D01*
X155030604Y-80776480D01*
X155051167Y-80781321D01*
X155072797Y-80785759D01*
X155095497Y-80789824D01*
X155119267Y-80793547D01*
X155144108Y-80796958D01*
X155170023Y-80800086D01*
X155197012Y-80802962D01*
X155225076Y-80805616D01*
X155254218Y-80808078D01*
X155284437Y-80810378D01*
X155315736Y-80812546D01*
X155348116Y-80814613D01*
X155381577Y-80816608D01*
X155408007Y-80818286D01*
X155433009Y-80819895D01*
X155456620Y-80821447D01*
X155478881Y-80822956D01*
X155499830Y-80824437D01*
X155519505Y-80825901D01*
X155537945Y-80827363D01*
X155555188Y-80828835D01*
X155571274Y-80830332D01*
X155586240Y-80831867D01*
X155600126Y-80833453D01*
X155612971Y-80835104D01*
X155624812Y-80836832D01*
X155635688Y-80838652D01*
X155645639Y-80840577D01*
X155662916Y-80844795D01*
X155676954Y-80849593D01*
X155688061Y-80855078D01*
X155696546Y-80861359D01*
X155705034Y-80872505D01*
X155709362Y-80886044D01*
X155710451Y-80896578D01*
X155710572Y-80902337D01*
X155710037Y-80913877D01*
X155708261Y-80924345D01*
X155704987Y-80933787D01*
X155699959Y-80942248D01*
X155692921Y-80949773D01*
X155683615Y-80956407D01*
X155671785Y-80962196D01*
X155657175Y-80967184D01*
X155639528Y-80971416D01*
X155629486Y-80973263D01*
X155618588Y-80974937D01*
X155606803Y-80976446D01*
X155594098Y-80977794D01*
X155580441Y-80978986D01*
X155565801Y-80980029D01*
X155550145Y-80980929D01*
X155533442Y-80981690D01*
X155515658Y-80982318D01*
X155496763Y-80982820D01*
X155476724Y-80983200D01*
X155455508Y-80983465D01*
X155433085Y-80983620D01*
X155409421Y-80983670D01*
X155384884Y-80983571D01*
X155361364Y-80983270D01*
X155338844Y-80982764D01*
X155317309Y-80982049D01*
X155296744Y-80981121D01*
X155277133Y-80979977D01*
X155258460Y-80978612D01*
X155240710Y-80977022D01*
X155223868Y-80975204D01*
X155207917Y-80973154D01*
X155192843Y-80970869D01*
X155178629Y-80968343D01*
X155165260Y-80965574D01*
X155152721Y-80962557D01*
X155140995Y-80959289D01*
X155130068Y-80955765D01*
X155119924Y-80951983D01*
X155110547Y-80947938D01*
X155094033Y-80939043D01*
X155080401Y-80929051D01*
X155069527Y-80917931D01*
X155061285Y-80905651D01*
X155055553Y-80892181D01*
X155052205Y-80877491D01*
X155051117Y-80861549D01*
X154811759Y-80861549D01*
G37*
G36*
X156309700Y-80170097D02*
G01*
X156057641Y-80170097D01*
X156063259Y-80846406D01*
X156304083Y-80846406D01*
X156309700Y-80170097D01*
G37*
G36*
X156063259Y-80962421D02*
G01*
X156063259Y-81150000D01*
X156302617Y-81150000D01*
X156302617Y-80962421D01*
X156063259Y-80962421D01*
G37*
G36*
X147764132Y-82145143D02*
G01*
X147763555Y-82122834D01*
X147761833Y-82101554D01*
X147758975Y-82081281D01*
X147754993Y-82061995D01*
X147749895Y-82043673D01*
X147743694Y-82026295D01*
X147736400Y-82009841D01*
X147728022Y-81994288D01*
X147718571Y-81979617D01*
X147708059Y-81965806D01*
X147696495Y-81952835D01*
X147683889Y-81940681D01*
X147670253Y-81929325D01*
X147655597Y-81918745D01*
X147639930Y-81908921D01*
X147623265Y-81899831D01*
X147605610Y-81891455D01*
X147586977Y-81883770D01*
X147567376Y-81876758D01*
X147546817Y-81870396D01*
X147525312Y-81864663D01*
X147502870Y-81859539D01*
X147479502Y-81855002D01*
X147455218Y-81851032D01*
X147430029Y-81847608D01*
X147403945Y-81844708D01*
X147376977Y-81842312D01*
X147349135Y-81840399D01*
X147320430Y-81838947D01*
X147290872Y-81837936D01*
X147260472Y-81837345D01*
X147229240Y-81837152D01*
X147199090Y-81837371D01*
X147169521Y-81838049D01*
X147140556Y-81839220D01*
X147112221Y-81840917D01*
X147084540Y-81843173D01*
X147057538Y-81846020D01*
X147031240Y-81849493D01*
X147005670Y-81853623D01*
X146980853Y-81858445D01*
X146956814Y-81863992D01*
X146933577Y-81870295D01*
X146911168Y-81877389D01*
X146889611Y-81885307D01*
X146868931Y-81894082D01*
X146849152Y-81903746D01*
X146830300Y-81914333D01*
X146812398Y-81925876D01*
X146795472Y-81938408D01*
X146779547Y-81951963D01*
X146764646Y-81966572D01*
X146750796Y-81982270D01*
X146738020Y-81999090D01*
X146726344Y-82017064D01*
X146715792Y-82036226D01*
X146706388Y-82056608D01*
X146698158Y-82078244D01*
X146691127Y-82101167D01*
X146685318Y-82125410D01*
X146680757Y-82151007D01*
X146677469Y-82177989D01*
X146675478Y-82206391D01*
X146674808Y-82236245D01*
X146926867Y-82236245D01*
X146927159Y-82222018D01*
X146928037Y-82208497D01*
X146929503Y-82195665D01*
X146931563Y-82183505D01*
X146934218Y-82172002D01*
X146937472Y-82161138D01*
X146941329Y-82150897D01*
X146945792Y-82141261D01*
X146950864Y-82132215D01*
X146956549Y-82123742D01*
X146962850Y-82115824D01*
X146969770Y-82108446D01*
X146977313Y-82101590D01*
X146985482Y-82095240D01*
X146994281Y-82089379D01*
X147003712Y-82083990D01*
X147013779Y-82079058D01*
X147024486Y-82074564D01*
X147035836Y-82070493D01*
X147047832Y-82066828D01*
X147060477Y-82063552D01*
X147073775Y-82060648D01*
X147087730Y-82058100D01*
X147102344Y-82055891D01*
X147117621Y-82054004D01*
X147133565Y-82052423D01*
X147150178Y-82051131D01*
X147167464Y-82050112D01*
X147185426Y-82049348D01*
X147204069Y-82048822D01*
X147223394Y-82048520D01*
X147243406Y-82048422D01*
X147263259Y-82048526D01*
X147282165Y-82048837D01*
X147300145Y-82049359D01*
X147317221Y-82050092D01*
X147333411Y-82051040D01*
X147348738Y-82052204D01*
X147363223Y-82053586D01*
X147376885Y-82055189D01*
X147389745Y-82057013D01*
X147401825Y-82059062D01*
X147413145Y-82061337D01*
X147423726Y-82063840D01*
X147433588Y-82066573D01*
X147451241Y-82072738D01*
X147466268Y-82079849D01*
X147478838Y-82087920D01*
X147489114Y-82096969D01*
X147497264Y-82107012D01*
X147503454Y-82118063D01*
X147507848Y-82130141D01*
X147510614Y-82143259D01*
X147511918Y-82157436D01*
X147512073Y-82164926D01*
X147509607Y-82184914D01*
X147502420Y-82203212D01*
X147490827Y-82219967D01*
X147475142Y-82235330D01*
X147455679Y-82249447D01*
X147432755Y-82262468D01*
X147406683Y-82274541D01*
X147377778Y-82285815D01*
X147346355Y-82296438D01*
X147312728Y-82306559D01*
X147277213Y-82316326D01*
X147240125Y-82325888D01*
X147201777Y-82335393D01*
X147162485Y-82344989D01*
X147122564Y-82354827D01*
X147082328Y-82365053D01*
X147042092Y-82375816D01*
X147002170Y-82387266D01*
X146962878Y-82399549D01*
X146924531Y-82412816D01*
X146887442Y-82427214D01*
X146851927Y-82442892D01*
X146818301Y-82459999D01*
X146786878Y-82478683D01*
X146757973Y-82499092D01*
X146731901Y-82521376D01*
X146708976Y-82545682D01*
X146689514Y-82572159D01*
X146673828Y-82600956D01*
X146662235Y-82632220D01*
X146655048Y-82666102D01*
X146652582Y-82702749D01*
X146652582Y-82830000D01*
X147750210Y-82830000D01*
X147750210Y-82618729D01*
X147005269Y-82618729D01*
X147012861Y-82601428D01*
X147023934Y-82585700D01*
X147038245Y-82571404D01*
X147055548Y-82558399D01*
X147075600Y-82546544D01*
X147098156Y-82535697D01*
X147122974Y-82525717D01*
X147149807Y-82516464D01*
X147178414Y-82507796D01*
X147208548Y-82499571D01*
X147239967Y-82491649D01*
X147272426Y-82483889D01*
X147305681Y-82476148D01*
X147339488Y-82468287D01*
X147373603Y-82460164D01*
X147407781Y-82451637D01*
X147441780Y-82442565D01*
X147475353Y-82432808D01*
X147508259Y-82422224D01*
X147540252Y-82410672D01*
X147571088Y-82398011D01*
X147600523Y-82384099D01*
X147628313Y-82368795D01*
X147654215Y-82351959D01*
X147677983Y-82333449D01*
X147699374Y-82313123D01*
X147718144Y-82290841D01*
X147734049Y-82266461D01*
X147746844Y-82239843D01*
X147756285Y-82210844D01*
X147762129Y-82179325D01*
X147764132Y-82145143D01*
G37*
G36*
X148442506Y-81837676D02*
G01*
X148477097Y-81839245D01*
X148510513Y-81841851D01*
X148542755Y-81845488D01*
X148573826Y-81850150D01*
X148603730Y-81855830D01*
X148632468Y-81862522D01*
X148660045Y-81870221D01*
X148686462Y-81878918D01*
X148711723Y-81888608D01*
X148735831Y-81899285D01*
X148758788Y-81910942D01*
X148780597Y-81923572D01*
X148801261Y-81937170D01*
X148820783Y-81951729D01*
X148839166Y-81967242D01*
X148856413Y-81983704D01*
X148872527Y-82001107D01*
X148887509Y-82019445D01*
X148901364Y-82038712D01*
X148914095Y-82058902D01*
X148925703Y-82080008D01*
X148936192Y-82102024D01*
X148945565Y-82124943D01*
X148953824Y-82148759D01*
X148960973Y-82173465D01*
X148967014Y-82199056D01*
X148971951Y-82225525D01*
X148975785Y-82252865D01*
X148978520Y-82281069D01*
X148980159Y-82310133D01*
X148980705Y-82340048D01*
X148980159Y-82370101D01*
X148978520Y-82399299D01*
X148975785Y-82427637D01*
X148971951Y-82455108D01*
X148967014Y-82481706D01*
X148960973Y-82507423D01*
X148953824Y-82532254D01*
X148945565Y-82556192D01*
X148936192Y-82579230D01*
X148925703Y-82601361D01*
X148914095Y-82622580D01*
X148901364Y-82642878D01*
X148887509Y-82662251D01*
X148872527Y-82680691D01*
X148856413Y-82698192D01*
X148839166Y-82714747D01*
X148820783Y-82730350D01*
X148801261Y-82744994D01*
X148780597Y-82758672D01*
X148758788Y-82771378D01*
X148735831Y-82783105D01*
X148711723Y-82793847D01*
X148686462Y-82803597D01*
X148660045Y-82812349D01*
X148632468Y-82820096D01*
X148603730Y-82826831D01*
X148573826Y-82832548D01*
X148542755Y-82837240D01*
X148510513Y-82840901D01*
X148477097Y-82843525D01*
X148442506Y-82845103D01*
X148406735Y-82845631D01*
X148370835Y-82845108D01*
X148336130Y-82843541D01*
X148302618Y-82840936D01*
X148270293Y-82837301D01*
X148239154Y-82832639D01*
X148209195Y-82826957D01*
X148180414Y-82820260D01*
X148152806Y-82812555D01*
X148126368Y-82803847D01*
X148101096Y-82794142D01*
X148076987Y-82783446D01*
X148054037Y-82771764D01*
X148032243Y-82759103D01*
X148011599Y-82745467D01*
X147992104Y-82730863D01*
X147973753Y-82715297D01*
X147956543Y-82698774D01*
X147940469Y-82681300D01*
X147925529Y-82662881D01*
X147911718Y-82643522D01*
X147899033Y-82623230D01*
X147887471Y-82602010D01*
X147877027Y-82579868D01*
X147867698Y-82556810D01*
X147859481Y-82532841D01*
X147852370Y-82507968D01*
X147846364Y-82482195D01*
X147841458Y-82455529D01*
X147837649Y-82427976D01*
X147834933Y-82399541D01*
X147833305Y-82370230D01*
X147832764Y-82340048D01*
X148084822Y-82340048D01*
X148085118Y-82357160D01*
X148086007Y-82373823D01*
X148087492Y-82390031D01*
X148089579Y-82405779D01*
X148092269Y-82421059D01*
X148095568Y-82435866D01*
X148099478Y-82450194D01*
X148104003Y-82464036D01*
X148109148Y-82477386D01*
X148114915Y-82490238D01*
X148121308Y-82502585D01*
X148128331Y-82514422D01*
X148135988Y-82525742D01*
X148144282Y-82536539D01*
X148153217Y-82546807D01*
X148162797Y-82556539D01*
X148173025Y-82565730D01*
X148183905Y-82574372D01*
X148195441Y-82582461D01*
X148207636Y-82589989D01*
X148220493Y-82596951D01*
X148234018Y-82603340D01*
X148248213Y-82609150D01*
X148263082Y-82614375D01*
X148278628Y-82619008D01*
X148294856Y-82623044D01*
X148311768Y-82626476D01*
X148329370Y-82629298D01*
X148347663Y-82631504D01*
X148366653Y-82633087D01*
X148386342Y-82634041D01*
X148406735Y-82634361D01*
X148427127Y-82634038D01*
X148446816Y-82633074D01*
X148465806Y-82631475D01*
X148484099Y-82629248D01*
X148501701Y-82626401D01*
X148518613Y-82622940D01*
X148534841Y-82618872D01*
X148550387Y-82614203D01*
X148565256Y-82608942D01*
X148579451Y-82603094D01*
X148592976Y-82596667D01*
X148605833Y-82589667D01*
X148618028Y-82582102D01*
X148629564Y-82573978D01*
X148640444Y-82565302D01*
X148650672Y-82556081D01*
X148660252Y-82546322D01*
X148669187Y-82536032D01*
X148677481Y-82525217D01*
X148685138Y-82513885D01*
X148692161Y-82502043D01*
X148698555Y-82489697D01*
X148704322Y-82476854D01*
X148709466Y-82463521D01*
X148713991Y-82449705D01*
X148717901Y-82435413D01*
X148721200Y-82420652D01*
X148723891Y-82405428D01*
X148725977Y-82389749D01*
X148727462Y-82373622D01*
X148728351Y-82357052D01*
X148728647Y-82340048D01*
X148728351Y-82323181D01*
X148727462Y-82306747D01*
X148725977Y-82290752D01*
X148723891Y-82275205D01*
X148721200Y-82260110D01*
X148717901Y-82245476D01*
X148713991Y-82231308D01*
X148709466Y-82217614D01*
X148704322Y-82204400D01*
X148698555Y-82191673D01*
X148692161Y-82179439D01*
X148685138Y-82167705D01*
X148677481Y-82156479D01*
X148669187Y-82145766D01*
X148660252Y-82135574D01*
X148650672Y-82125908D01*
X148640444Y-82116777D01*
X148629564Y-82108186D01*
X148618028Y-82100142D01*
X148605833Y-82092652D01*
X148592976Y-82085723D01*
X148579451Y-82079361D01*
X148565256Y-82073573D01*
X148550387Y-82068366D01*
X148534841Y-82063747D01*
X148518613Y-82059721D01*
X148501701Y-82056297D01*
X148484099Y-82053480D01*
X148465806Y-82051277D01*
X148446816Y-82049696D01*
X148427127Y-82048742D01*
X148406735Y-82048422D01*
X148386342Y-82048738D01*
X148366653Y-82049680D01*
X148347663Y-82051242D01*
X148329370Y-82053420D01*
X148311768Y-82056206D01*
X148294856Y-82059596D01*
X148278628Y-82063582D01*
X148263082Y-82068160D01*
X148248213Y-82073323D01*
X148234018Y-82079066D01*
X148220493Y-82085382D01*
X148207636Y-82092266D01*
X148195441Y-82099711D01*
X148183905Y-82107713D01*
X148173025Y-82116264D01*
X148162797Y-82125359D01*
X148153217Y-82134992D01*
X148144282Y-82145158D01*
X148135988Y-82155849D01*
X148128331Y-82167061D01*
X148121308Y-82178788D01*
X148114915Y-82191023D01*
X148109148Y-82203761D01*
X148104003Y-82216996D01*
X148099478Y-82230721D01*
X148095568Y-82244932D01*
X148092269Y-82259621D01*
X148089579Y-82274784D01*
X148087492Y-82290414D01*
X148086007Y-82306505D01*
X148085118Y-82323052D01*
X148084822Y-82340048D01*
X147832764Y-82340048D01*
X147833305Y-82310004D01*
X147834933Y-82280828D01*
X147837649Y-82252526D01*
X147841458Y-82225104D01*
X147846364Y-82198567D01*
X147852370Y-82172921D01*
X147859481Y-82148172D01*
X147867698Y-82124325D01*
X147877027Y-82101385D01*
X147887471Y-82079359D01*
X147899033Y-82058251D01*
X147911718Y-82038068D01*
X147925529Y-82018815D01*
X147940469Y-82000498D01*
X147956543Y-81983122D01*
X147973753Y-81966693D01*
X147992104Y-81951216D01*
X148011599Y-81936697D01*
X148032243Y-81923142D01*
X148054037Y-81910555D01*
X148076987Y-81898944D01*
X148101096Y-81888313D01*
X148126368Y-81878668D01*
X148152806Y-81870014D01*
X148180414Y-81862358D01*
X148209195Y-81855704D01*
X148239154Y-81850059D01*
X148270293Y-81845427D01*
X148302618Y-81841815D01*
X148336130Y-81839229D01*
X148370835Y-81837672D01*
X148406735Y-81837152D01*
X148442506Y-81837676D01*
G37*
G36*
X150151850Y-82145143D02*
G01*
X150151273Y-82122834D01*
X150149551Y-82101554D01*
X150146693Y-82081281D01*
X150142711Y-82061995D01*
X150137613Y-82043673D01*
X150131412Y-82026295D01*
X150124118Y-82009841D01*
X150115740Y-81994288D01*
X150106290Y-81979617D01*
X150095777Y-81965806D01*
X150084213Y-81952835D01*
X150071607Y-81940681D01*
X150057971Y-81929325D01*
X150043315Y-81918745D01*
X150027648Y-81908921D01*
X150010983Y-81899831D01*
X149993328Y-81891455D01*
X149974695Y-81883770D01*
X149955094Y-81876758D01*
X149934536Y-81870396D01*
X149913030Y-81864663D01*
X149890588Y-81859539D01*
X149867220Y-81855002D01*
X149842936Y-81851032D01*
X149817747Y-81847608D01*
X149791663Y-81844708D01*
X149764695Y-81842312D01*
X149736853Y-81840399D01*
X149708148Y-81838947D01*
X149678590Y-81837936D01*
X149648190Y-81837345D01*
X149616958Y-81837152D01*
X149586808Y-81837371D01*
X149557239Y-81838049D01*
X149528274Y-81839220D01*
X149499939Y-81840917D01*
X149472258Y-81843173D01*
X149445256Y-81846020D01*
X149418958Y-81849493D01*
X149393388Y-81853623D01*
X149368571Y-81858445D01*
X149344532Y-81863992D01*
X149321296Y-81870295D01*
X149298886Y-81877389D01*
X149277329Y-81885307D01*
X149256649Y-81894082D01*
X149236870Y-81903746D01*
X149218018Y-81914333D01*
X149200116Y-81925876D01*
X149183190Y-81938408D01*
X149167265Y-81951963D01*
X149152365Y-81966572D01*
X149138514Y-81982270D01*
X149125738Y-81999090D01*
X149114062Y-82017064D01*
X149103510Y-82036226D01*
X149094106Y-82056608D01*
X149085876Y-82078244D01*
X149078845Y-82101167D01*
X149073036Y-82125410D01*
X149068475Y-82151007D01*
X149065187Y-82177989D01*
X149063196Y-82206391D01*
X149062527Y-82236245D01*
X149314585Y-82236245D01*
X149314877Y-82222018D01*
X149315755Y-82208497D01*
X149317221Y-82195665D01*
X149319281Y-82183505D01*
X149321936Y-82172002D01*
X149325190Y-82161138D01*
X149329047Y-82150897D01*
X149333510Y-82141261D01*
X149338582Y-82132215D01*
X149344267Y-82123742D01*
X149350568Y-82115824D01*
X149357488Y-82108446D01*
X149365031Y-82101590D01*
X149373200Y-82095240D01*
X149381999Y-82089379D01*
X149391430Y-82083990D01*
X149401497Y-82079058D01*
X149412204Y-82074564D01*
X149423554Y-82070493D01*
X149435550Y-82066828D01*
X149448195Y-82063552D01*
X149461494Y-82060648D01*
X149475448Y-82058100D01*
X149490062Y-82055891D01*
X149505339Y-82054004D01*
X149521283Y-82052423D01*
X149537896Y-82051131D01*
X149555182Y-82050112D01*
X149573145Y-82049348D01*
X149591787Y-82048822D01*
X149611112Y-82048520D01*
X149631124Y-82048422D01*
X149650977Y-82048526D01*
X149669883Y-82048837D01*
X149687864Y-82049359D01*
X149704939Y-82050092D01*
X149721129Y-82051040D01*
X149736457Y-82052204D01*
X149750941Y-82053586D01*
X149764603Y-82055189D01*
X149777463Y-82057013D01*
X149789543Y-82059062D01*
X149800863Y-82061337D01*
X149811444Y-82063840D01*
X149821306Y-82066573D01*
X149838959Y-82072738D01*
X149853987Y-82079849D01*
X149866556Y-82087920D01*
X149876832Y-82096969D01*
X149884982Y-82107012D01*
X149891172Y-82118063D01*
X149895566Y-82130141D01*
X149898332Y-82143259D01*
X149899636Y-82157436D01*
X149899791Y-82164926D01*
X149897325Y-82184914D01*
X149890139Y-82203212D01*
X149878545Y-82219967D01*
X149862860Y-82235330D01*
X149843397Y-82249447D01*
X149820473Y-82262468D01*
X149794401Y-82274541D01*
X149765496Y-82285815D01*
X149734073Y-82296438D01*
X149700446Y-82306559D01*
X149664931Y-82316326D01*
X149627843Y-82325888D01*
X149589495Y-82335393D01*
X149550203Y-82344989D01*
X149510282Y-82354827D01*
X149470046Y-82365053D01*
X149429810Y-82375816D01*
X149389888Y-82387266D01*
X149350596Y-82399549D01*
X149312249Y-82412816D01*
X149275160Y-82427214D01*
X149239645Y-82442892D01*
X149206019Y-82459999D01*
X149174596Y-82478683D01*
X149145691Y-82499092D01*
X149119619Y-82521376D01*
X149096694Y-82545682D01*
X149077232Y-82572159D01*
X149061546Y-82600956D01*
X149049953Y-82632220D01*
X149042766Y-82666102D01*
X149040300Y-82702749D01*
X149040300Y-82830000D01*
X150137928Y-82830000D01*
X150137928Y-82618729D01*
X149392987Y-82618729D01*
X149400579Y-82601428D01*
X149411653Y-82585700D01*
X149425963Y-82571404D01*
X149443266Y-82558399D01*
X149463318Y-82546544D01*
X149485874Y-82535697D01*
X149510692Y-82525717D01*
X149537525Y-82516464D01*
X149566132Y-82507796D01*
X149596266Y-82499571D01*
X149627685Y-82491649D01*
X149660144Y-82483889D01*
X149693399Y-82476148D01*
X149727206Y-82468287D01*
X149761321Y-82460164D01*
X149795499Y-82451637D01*
X149829498Y-82442565D01*
X149863072Y-82432808D01*
X149895977Y-82422224D01*
X149927970Y-82410672D01*
X149958806Y-82398011D01*
X149988241Y-82384099D01*
X150016031Y-82368795D01*
X150041933Y-82351959D01*
X150065701Y-82333449D01*
X150087092Y-82313123D01*
X150105862Y-82290841D01*
X150121767Y-82266461D01*
X150134562Y-82239843D01*
X150144003Y-82210844D01*
X150149847Y-82179325D01*
X150151850Y-82145143D01*
G37*
G36*
X151196476Y-82342979D02*
G01*
X151213630Y-82334327D01*
X151229900Y-82325118D01*
X151245256Y-82315334D01*
X151259667Y-82304958D01*
X151273101Y-82293970D01*
X151285529Y-82282353D01*
X151296919Y-82270089D01*
X151307240Y-82257158D01*
X151316463Y-82243544D01*
X151324556Y-82229227D01*
X151331488Y-82214190D01*
X151337229Y-82198414D01*
X151341748Y-82181881D01*
X151345013Y-82164573D01*
X151346995Y-82146471D01*
X151347663Y-82127557D01*
X151347086Y-82107577D01*
X151345362Y-82088433D01*
X151342501Y-82070111D01*
X151338510Y-82052598D01*
X151333400Y-82035881D01*
X151327180Y-82019946D01*
X151319859Y-82004781D01*
X151311446Y-81990373D01*
X151301950Y-81976707D01*
X151291381Y-81963772D01*
X151279748Y-81951553D01*
X151267060Y-81940037D01*
X151253326Y-81929212D01*
X151238555Y-81919064D01*
X151222757Y-81909580D01*
X151205941Y-81900747D01*
X151188116Y-81892551D01*
X151169291Y-81884980D01*
X151149476Y-81878020D01*
X151128679Y-81871658D01*
X151106910Y-81865880D01*
X151084179Y-81860675D01*
X151060493Y-81856027D01*
X151035864Y-81851925D01*
X151010299Y-81848355D01*
X150983808Y-81845304D01*
X150956400Y-81842758D01*
X150928085Y-81840705D01*
X150898871Y-81839131D01*
X150868768Y-81838023D01*
X150837786Y-81837368D01*
X150805932Y-81837152D01*
X150774363Y-81837371D01*
X150743464Y-81838046D01*
X150713258Y-81839210D01*
X150683764Y-81840892D01*
X150655006Y-81843124D01*
X150627006Y-81845936D01*
X150599784Y-81849360D01*
X150573363Y-81853425D01*
X150547765Y-81858163D01*
X150523011Y-81863604D01*
X150499123Y-81869779D01*
X150476123Y-81876720D01*
X150454032Y-81884456D01*
X150432873Y-81893018D01*
X150412667Y-81902438D01*
X150393436Y-81912745D01*
X150375202Y-81923972D01*
X150357987Y-81936148D01*
X150341812Y-81949304D01*
X150326698Y-81963472D01*
X150312669Y-81978681D01*
X150299746Y-81994963D01*
X150287950Y-82012348D01*
X150277303Y-82030867D01*
X150267827Y-82050552D01*
X150259544Y-82071432D01*
X150252475Y-82093538D01*
X150246643Y-82116902D01*
X150242069Y-82141554D01*
X150238775Y-82167524D01*
X150236782Y-82194844D01*
X150236113Y-82223545D01*
X150488172Y-82223545D01*
X150488444Y-82209891D01*
X150489267Y-82196945D01*
X150490651Y-82184688D01*
X150492607Y-82173104D01*
X150495143Y-82162172D01*
X150498270Y-82151877D01*
X150501998Y-82142199D01*
X150506338Y-82133121D01*
X150511298Y-82124625D01*
X150523122Y-82109306D01*
X150537551Y-82096098D01*
X150545768Y-82090241D01*
X150554665Y-82084857D01*
X150564254Y-82079930D01*
X150574544Y-82075440D01*
X150585545Y-82071371D01*
X150597267Y-82067703D01*
X150609721Y-82064419D01*
X150622916Y-82061502D01*
X150636863Y-82058932D01*
X150651570Y-82056693D01*
X150667049Y-82054765D01*
X150683310Y-82053132D01*
X150700362Y-82051774D01*
X150718215Y-82050675D01*
X150736880Y-82049816D01*
X150756366Y-82049179D01*
X150776684Y-82048747D01*
X150797843Y-82048501D01*
X150819854Y-82048422D01*
X150839749Y-82048499D01*
X150858733Y-82048731D01*
X150876825Y-82049127D01*
X150894043Y-82049692D01*
X150910406Y-82050433D01*
X150925931Y-82051356D01*
X150940637Y-82052467D01*
X150954542Y-82053773D01*
X150967665Y-82055280D01*
X150980024Y-82056994D01*
X150991637Y-82058922D01*
X151002522Y-82061071D01*
X151012698Y-82063445D01*
X151022183Y-82066053D01*
X151039153Y-82071992D01*
X151053579Y-82078938D01*
X151065607Y-82086943D01*
X151075382Y-82096057D01*
X151083052Y-82106331D01*
X151088763Y-82117815D01*
X151092661Y-82130561D01*
X151094893Y-82144620D01*
X151095604Y-82160041D01*
X151094596Y-82177547D01*
X151091406Y-82193049D01*
X151085789Y-82206669D01*
X151077500Y-82218526D01*
X151066290Y-82228742D01*
X151051915Y-82237437D01*
X151034128Y-82244732D01*
X151023879Y-82247892D01*
X151012684Y-82250747D01*
X151000513Y-82253312D01*
X150987335Y-82255603D01*
X150973119Y-82257634D01*
X150957836Y-82259420D01*
X150941453Y-82260977D01*
X150923940Y-82262319D01*
X150905267Y-82263462D01*
X150885403Y-82264421D01*
X150864316Y-82265210D01*
X150841976Y-82265846D01*
X150818353Y-82266342D01*
X150793415Y-82266714D01*
X150767131Y-82266977D01*
X150739472Y-82267147D01*
X150710406Y-82267237D01*
X150679903Y-82267264D01*
X150679903Y-82418695D01*
X150711029Y-82418721D01*
X150740639Y-82418812D01*
X150768767Y-82418980D01*
X150795448Y-82419242D01*
X150820716Y-82419611D01*
X150844606Y-82420103D01*
X150867153Y-82420733D01*
X150888391Y-82421515D01*
X150908355Y-82422464D01*
X150927079Y-82423595D01*
X150944599Y-82424922D01*
X150960948Y-82426461D01*
X150976163Y-82428227D01*
X150990276Y-82430233D01*
X151003324Y-82432495D01*
X151015340Y-82435028D01*
X151026359Y-82437847D01*
X151036416Y-82440966D01*
X151053783Y-82448163D01*
X151067717Y-82456740D01*
X151078496Y-82466814D01*
X151086396Y-82478504D01*
X151091697Y-82491928D01*
X151094673Y-82507204D01*
X151095604Y-82524452D01*
X151094708Y-82541062D01*
X151091970Y-82555962D01*
X151087319Y-82569241D01*
X151080682Y-82580986D01*
X151071988Y-82591286D01*
X151061163Y-82600229D01*
X151048136Y-82607902D01*
X151032834Y-82614394D01*
X151015185Y-82619793D01*
X151005457Y-82622109D01*
X150995116Y-82624186D01*
X150984152Y-82626033D01*
X150972556Y-82627662D01*
X150960319Y-82629083D01*
X150947433Y-82630308D01*
X150933887Y-82631348D01*
X150919673Y-82632213D01*
X150904782Y-82632915D01*
X150889205Y-82633465D01*
X150872932Y-82633874D01*
X150855956Y-82634152D01*
X150838266Y-82634310D01*
X150819854Y-82634361D01*
X150799928Y-82634309D01*
X150780588Y-82634136D01*
X150761839Y-82633822D01*
X150743682Y-82633343D01*
X150726121Y-82632676D01*
X150709159Y-82631799D01*
X150692799Y-82630691D01*
X150677044Y-82629327D01*
X150661897Y-82627687D01*
X150647361Y-82625746D01*
X150633438Y-82623483D01*
X150620132Y-82620876D01*
X150607447Y-82617901D01*
X150595384Y-82614536D01*
X150583946Y-82610759D01*
X150573138Y-82606548D01*
X150562962Y-82601879D01*
X150553420Y-82596730D01*
X150544516Y-82591080D01*
X150536253Y-82584904D01*
X150528634Y-82578181D01*
X150521662Y-82570889D01*
X150515339Y-82563004D01*
X150509669Y-82554505D01*
X150504655Y-82545368D01*
X150500300Y-82535572D01*
X150496607Y-82525094D01*
X150493578Y-82513911D01*
X150491218Y-82502000D01*
X150489528Y-82489340D01*
X150488511Y-82475908D01*
X150488172Y-82461681D01*
X150236113Y-82461681D01*
X150236782Y-82490160D01*
X150238775Y-82517272D01*
X150242069Y-82543048D01*
X150246643Y-82567518D01*
X150252475Y-82590712D01*
X150259544Y-82612662D01*
X150267827Y-82633396D01*
X150277303Y-82652946D01*
X150287950Y-82671342D01*
X150299746Y-82688614D01*
X150312669Y-82704793D01*
X150326698Y-82719908D01*
X150341812Y-82733990D01*
X150357987Y-82747070D01*
X150375202Y-82759178D01*
X150393436Y-82770343D01*
X150412667Y-82780597D01*
X150432873Y-82789970D01*
X150454032Y-82798491D01*
X150476123Y-82806193D01*
X150499123Y-82813103D01*
X150523011Y-82819254D01*
X150547765Y-82824675D01*
X150573363Y-82829397D01*
X150599784Y-82833449D01*
X150627006Y-82836863D01*
X150655006Y-82839668D01*
X150683764Y-82841896D01*
X150713258Y-82843575D01*
X150743464Y-82844738D01*
X150774363Y-82845413D01*
X150805932Y-82845631D01*
X150837786Y-82845416D01*
X150868768Y-82844761D01*
X150898871Y-82843654D01*
X150928085Y-82842081D01*
X150956400Y-82840030D01*
X150983808Y-82837488D01*
X151010299Y-82834441D01*
X151035864Y-82830877D01*
X151060493Y-82826783D01*
X151084179Y-82822146D01*
X151106910Y-82816952D01*
X151128679Y-82811190D01*
X151149476Y-82804845D01*
X151169291Y-82797906D01*
X151188116Y-82790358D01*
X151205941Y-82782189D01*
X151222757Y-82773386D01*
X151238555Y-82763936D01*
X151253326Y-82753827D01*
X151267060Y-82743044D01*
X151279748Y-82731576D01*
X151291381Y-82719409D01*
X151301950Y-82706530D01*
X151311446Y-82692926D01*
X151319859Y-82678584D01*
X151327180Y-82663492D01*
X151333400Y-82647636D01*
X151338510Y-82631004D01*
X151342501Y-82613581D01*
X151345362Y-82595357D01*
X151347086Y-82576316D01*
X151347663Y-82556448D01*
X151346995Y-82537797D01*
X151345013Y-82519937D01*
X151341748Y-82502848D01*
X151337229Y-82486514D01*
X151331488Y-82470917D01*
X151324556Y-82456039D01*
X151316463Y-82441864D01*
X151307240Y-82428373D01*
X151296919Y-82415548D01*
X151285529Y-82403374D01*
X151273101Y-82391831D01*
X151259667Y-82380902D01*
X151245256Y-82370570D01*
X151229900Y-82360817D01*
X151213630Y-82351626D01*
X151196476Y-82342979D01*
G37*
%TO.C,D2*%
X187502619Y-42468094D02*
X186502619Y-42468094D01*
X186502619Y-42468094D02*
X186502619Y-42229999D01*
X186502619Y-42229999D02*
X186550238Y-42087142D01*
X186550238Y-42087142D02*
X186645476Y-41991904D01*
X186645476Y-41991904D02*
X186740714Y-41944285D01*
X186740714Y-41944285D02*
X186931190Y-41896666D01*
X186931190Y-41896666D02*
X187074047Y-41896666D01*
X187074047Y-41896666D02*
X187264523Y-41944285D01*
X187264523Y-41944285D02*
X187359761Y-41991904D01*
X187359761Y-41991904D02*
X187455000Y-42087142D01*
X187455000Y-42087142D02*
X187502619Y-42229999D01*
X187502619Y-42229999D02*
X187502619Y-42468094D01*
X186597857Y-41515713D02*
X186550238Y-41468094D01*
X186550238Y-41468094D02*
X186502619Y-41372856D01*
X186502619Y-41372856D02*
X186502619Y-41134761D01*
X186502619Y-41134761D02*
X186550238Y-41039523D01*
X186550238Y-41039523D02*
X186597857Y-40991904D01*
X186597857Y-40991904D02*
X186693095Y-40944285D01*
X186693095Y-40944285D02*
X186788333Y-40944285D01*
X186788333Y-40944285D02*
X186931190Y-40991904D01*
X186931190Y-40991904D02*
X187502619Y-41563332D01*
X187502619Y-41563332D02*
X187502619Y-40944285D01*
%TO.C,D4*%
X188677481Y-83471464D02*
X188677481Y-82471464D01*
X188677481Y-82471464D02*
X188915576Y-82471464D01*
X188915576Y-82471464D02*
X189058433Y-82519083D01*
X189058433Y-82519083D02*
X189153671Y-82614321D01*
X189153671Y-82614321D02*
X189201290Y-82709559D01*
X189201290Y-82709559D02*
X189248909Y-82900035D01*
X189248909Y-82900035D02*
X189248909Y-83042892D01*
X189248909Y-83042892D02*
X189201290Y-83233368D01*
X189201290Y-83233368D02*
X189153671Y-83328606D01*
X189153671Y-83328606D02*
X189058433Y-83423845D01*
X189058433Y-83423845D02*
X188915576Y-83471464D01*
X188915576Y-83471464D02*
X188677481Y-83471464D01*
X190106052Y-82804797D02*
X190106052Y-83471464D01*
X189867957Y-82423845D02*
X189629862Y-83138130D01*
X189629862Y-83138130D02*
X190248909Y-83138130D01*
%TO.C,FUS\u00CDVEL*%
X142055547Y-50938809D02*
X141722214Y-50938809D01*
X141722214Y-51462619D02*
X141722214Y-50462619D01*
X141722214Y-50462619D02*
X142198404Y-50462619D01*
X142579357Y-50462619D02*
X142579357Y-51272142D01*
X142579357Y-51272142D02*
X142626976Y-51367380D01*
X142626976Y-51367380D02*
X142674595Y-51415000D01*
X142674595Y-51415000D02*
X142769833Y-51462619D01*
X142769833Y-51462619D02*
X142960309Y-51462619D01*
X142960309Y-51462619D02*
X143055547Y-51415000D01*
X143055547Y-51415000D02*
X143103166Y-51367380D01*
X143103166Y-51367380D02*
X143150785Y-51272142D01*
X143150785Y-51272142D02*
X143150785Y-50462619D01*
X143579357Y-51415000D02*
X143722214Y-51462619D01*
X143722214Y-51462619D02*
X143960309Y-51462619D01*
X143960309Y-51462619D02*
X144055547Y-51415000D01*
X144055547Y-51415000D02*
X144103166Y-51367380D01*
X144103166Y-51367380D02*
X144150785Y-51272142D01*
X144150785Y-51272142D02*
X144150785Y-51176904D01*
X144150785Y-51176904D02*
X144103166Y-51081666D01*
X144103166Y-51081666D02*
X144055547Y-51034047D01*
X144055547Y-51034047D02*
X143960309Y-50986428D01*
X143960309Y-50986428D02*
X143769833Y-50938809D01*
X143769833Y-50938809D02*
X143674595Y-50891190D01*
X143674595Y-50891190D02*
X143626976Y-50843571D01*
X143626976Y-50843571D02*
X143579357Y-50748333D01*
X143579357Y-50748333D02*
X143579357Y-50653095D01*
X143579357Y-50653095D02*
X143626976Y-50557857D01*
X143626976Y-50557857D02*
X143674595Y-50510238D01*
X143674595Y-50510238D02*
X143769833Y-50462619D01*
X143769833Y-50462619D02*
X144007928Y-50462619D01*
X144007928Y-50462619D02*
X144150785Y-50510238D01*
X144579357Y-51462619D02*
X144579357Y-50462619D01*
X144674595Y-50081666D02*
X144531738Y-50224523D01*
X144912690Y-50462619D02*
X145246023Y-51462619D01*
X145246023Y-51462619D02*
X145579356Y-50462619D01*
X145912690Y-50938809D02*
X146246023Y-50938809D01*
X146388880Y-51462619D02*
X145912690Y-51462619D01*
X145912690Y-51462619D02*
X145912690Y-50462619D01*
X145912690Y-50462619D02*
X146388880Y-50462619D01*
X147293642Y-51462619D02*
X146817452Y-51462619D01*
X146817452Y-51462619D02*
X146817452Y-50462619D01*
%TO.C,B1*%
X135637738Y-76518809D02*
X135780595Y-76566428D01*
X135780595Y-76566428D02*
X135828214Y-76614047D01*
X135828214Y-76614047D02*
X135875833Y-76709285D01*
X135875833Y-76709285D02*
X135875833Y-76852142D01*
X135875833Y-76852142D02*
X135828214Y-76947380D01*
X135828214Y-76947380D02*
X135780595Y-76995000D01*
X135780595Y-76995000D02*
X135685357Y-77042619D01*
X135685357Y-77042619D02*
X135304405Y-77042619D01*
X135304405Y-77042619D02*
X135304405Y-76042619D01*
X135304405Y-76042619D02*
X135637738Y-76042619D01*
X135637738Y-76042619D02*
X135732976Y-76090238D01*
X135732976Y-76090238D02*
X135780595Y-76137857D01*
X135780595Y-76137857D02*
X135828214Y-76233095D01*
X135828214Y-76233095D02*
X135828214Y-76328333D01*
X135828214Y-76328333D02*
X135780595Y-76423571D01*
X135780595Y-76423571D02*
X135732976Y-76471190D01*
X135732976Y-76471190D02*
X135637738Y-76518809D01*
X135637738Y-76518809D02*
X135304405Y-76518809D01*
X136828214Y-77042619D02*
X136256786Y-77042619D01*
X136542500Y-77042619D02*
X136542500Y-76042619D01*
X136542500Y-76042619D02*
X136447262Y-76185476D01*
X136447262Y-76185476D02*
X136352024Y-76280714D01*
X136352024Y-76280714D02*
X136256786Y-76328333D01*
X133546243Y-81981539D02*
X133689100Y-82029158D01*
X133689100Y-82029158D02*
X133927195Y-82029158D01*
X133927195Y-82029158D02*
X134022433Y-81981539D01*
X134022433Y-81981539D02*
X134070052Y-81933919D01*
X134070052Y-81933919D02*
X134117671Y-81838681D01*
X134117671Y-81838681D02*
X134117671Y-81743443D01*
X134117671Y-81743443D02*
X134070052Y-81648205D01*
X134070052Y-81648205D02*
X134022433Y-81600586D01*
X134022433Y-81600586D02*
X133927195Y-81552967D01*
X133927195Y-81552967D02*
X133736719Y-81505348D01*
X133736719Y-81505348D02*
X133641481Y-81457729D01*
X133641481Y-81457729D02*
X133593862Y-81410110D01*
X133593862Y-81410110D02*
X133546243Y-81314872D01*
X133546243Y-81314872D02*
X133546243Y-81219634D01*
X133546243Y-81219634D02*
X133593862Y-81124396D01*
X133593862Y-81124396D02*
X133641481Y-81076777D01*
X133641481Y-81076777D02*
X133736719Y-81029158D01*
X133736719Y-81029158D02*
X133974814Y-81029158D01*
X133974814Y-81029158D02*
X134117671Y-81076777D01*
X134451005Y-81029158D02*
X134689100Y-82029158D01*
X134689100Y-82029158D02*
X134879576Y-81314872D01*
X134879576Y-81314872D02*
X135070052Y-82029158D01*
X135070052Y-82029158D02*
X135308148Y-81029158D01*
X135689100Y-82029158D02*
X135689100Y-81029158D01*
X136022433Y-81029158D02*
X136593861Y-81029158D01*
X136308147Y-82029158D02*
X136308147Y-81029158D01*
X137498623Y-81933919D02*
X137451004Y-81981539D01*
X137451004Y-81981539D02*
X137308147Y-82029158D01*
X137308147Y-82029158D02*
X137212909Y-82029158D01*
X137212909Y-82029158D02*
X137070052Y-81981539D01*
X137070052Y-81981539D02*
X136974814Y-81886300D01*
X136974814Y-81886300D02*
X136927195Y-81791062D01*
X136927195Y-81791062D02*
X136879576Y-81600586D01*
X136879576Y-81600586D02*
X136879576Y-81457729D01*
X136879576Y-81457729D02*
X136927195Y-81267253D01*
X136927195Y-81267253D02*
X136974814Y-81172015D01*
X136974814Y-81172015D02*
X137070052Y-81076777D01*
X137070052Y-81076777D02*
X137212909Y-81029158D01*
X137212909Y-81029158D02*
X137308147Y-81029158D01*
X137308147Y-81029158D02*
X137451004Y-81076777D01*
X137451004Y-81076777D02*
X137498623Y-81124396D01*
X137927195Y-82029158D02*
X137927195Y-81029158D01*
X137927195Y-81505348D02*
X138498623Y-81505348D01*
X138498623Y-82029158D02*
X138498623Y-81029158D01*
%TO.C,R2*%
X134832619Y-52166666D02*
X134356428Y-52499999D01*
X134832619Y-52738094D02*
X133832619Y-52738094D01*
X133832619Y-52738094D02*
X133832619Y-52357142D01*
X133832619Y-52357142D02*
X133880238Y-52261904D01*
X133880238Y-52261904D02*
X133927857Y-52214285D01*
X133927857Y-52214285D02*
X134023095Y-52166666D01*
X134023095Y-52166666D02*
X134165952Y-52166666D01*
X134165952Y-52166666D02*
X134261190Y-52214285D01*
X134261190Y-52214285D02*
X134308809Y-52261904D01*
X134308809Y-52261904D02*
X134356428Y-52357142D01*
X134356428Y-52357142D02*
X134356428Y-52738094D01*
X133927857Y-51785713D02*
X133880238Y-51738094D01*
X133880238Y-51738094D02*
X133832619Y-51642856D01*
X133832619Y-51642856D02*
X133832619Y-51404761D01*
X133832619Y-51404761D02*
X133880238Y-51309523D01*
X133880238Y-51309523D02*
X133927857Y-51261904D01*
X133927857Y-51261904D02*
X134023095Y-51214285D01*
X134023095Y-51214285D02*
X134118333Y-51214285D01*
X134118333Y-51214285D02*
X134261190Y-51261904D01*
X134261190Y-51261904D02*
X134832619Y-51833332D01*
X134832619Y-51833332D02*
X134832619Y-51214285D01*
%TO.C,U3*%
X173238095Y-49762619D02*
X173238095Y-50572142D01*
X173238095Y-50572142D02*
X173285714Y-50667380D01*
X173285714Y-50667380D02*
X173333333Y-50715000D01*
X173333333Y-50715000D02*
X173428571Y-50762619D01*
X173428571Y-50762619D02*
X173619047Y-50762619D01*
X173619047Y-50762619D02*
X173714285Y-50715000D01*
X173714285Y-50715000D02*
X173761904Y-50667380D01*
X173761904Y-50667380D02*
X173809523Y-50572142D01*
X173809523Y-50572142D02*
X173809523Y-49762619D01*
X174190476Y-49762619D02*
X174809523Y-49762619D01*
X174809523Y-49762619D02*
X174476190Y-50143571D01*
X174476190Y-50143571D02*
X174619047Y-50143571D01*
X174619047Y-50143571D02*
X174714285Y-50191190D01*
X174714285Y-50191190D02*
X174761904Y-50238809D01*
X174761904Y-50238809D02*
X174809523Y-50334047D01*
X174809523Y-50334047D02*
X174809523Y-50572142D01*
X174809523Y-50572142D02*
X174761904Y-50667380D01*
X174761904Y-50667380D02*
X174714285Y-50715000D01*
X174714285Y-50715000D02*
X174619047Y-50762619D01*
X174619047Y-50762619D02*
X174333333Y-50762619D01*
X174333333Y-50762619D02*
X174238095Y-50715000D01*
X174238095Y-50715000D02*
X174190476Y-50667380D01*
X169595238Y-42938809D02*
X169928571Y-42938809D01*
X170071428Y-43462619D02*
X169595238Y-43462619D01*
X169595238Y-43462619D02*
X169595238Y-42462619D01*
X169595238Y-42462619D02*
X170071428Y-42462619D01*
X170452381Y-43415000D02*
X170595238Y-43462619D01*
X170595238Y-43462619D02*
X170833333Y-43462619D01*
X170833333Y-43462619D02*
X170928571Y-43415000D01*
X170928571Y-43415000D02*
X170976190Y-43367380D01*
X170976190Y-43367380D02*
X171023809Y-43272142D01*
X171023809Y-43272142D02*
X171023809Y-43176904D01*
X171023809Y-43176904D02*
X170976190Y-43081666D01*
X170976190Y-43081666D02*
X170928571Y-43034047D01*
X170928571Y-43034047D02*
X170833333Y-42986428D01*
X170833333Y-42986428D02*
X170642857Y-42938809D01*
X170642857Y-42938809D02*
X170547619Y-42891190D01*
X170547619Y-42891190D02*
X170500000Y-42843571D01*
X170500000Y-42843571D02*
X170452381Y-42748333D01*
X170452381Y-42748333D02*
X170452381Y-42653095D01*
X170452381Y-42653095D02*
X170500000Y-42557857D01*
X170500000Y-42557857D02*
X170547619Y-42510238D01*
X170547619Y-42510238D02*
X170642857Y-42462619D01*
X170642857Y-42462619D02*
X170880952Y-42462619D01*
X170880952Y-42462619D02*
X171023809Y-42510238D01*
X171452381Y-43462619D02*
X171452381Y-42462619D01*
X171452381Y-42462619D02*
X171833333Y-42462619D01*
X171833333Y-42462619D02*
X171928571Y-42510238D01*
X171928571Y-42510238D02*
X171976190Y-42557857D01*
X171976190Y-42557857D02*
X172023809Y-42653095D01*
X172023809Y-42653095D02*
X172023809Y-42795952D01*
X172023809Y-42795952D02*
X171976190Y-42891190D01*
X171976190Y-42891190D02*
X171928571Y-42938809D01*
X171928571Y-42938809D02*
X171833333Y-42986428D01*
X171833333Y-42986428D02*
X171452381Y-42986428D01*
X172357143Y-42462619D02*
X172976190Y-42462619D01*
X172976190Y-42462619D02*
X172642857Y-42843571D01*
X172642857Y-42843571D02*
X172785714Y-42843571D01*
X172785714Y-42843571D02*
X172880952Y-42891190D01*
X172880952Y-42891190D02*
X172928571Y-42938809D01*
X172928571Y-42938809D02*
X172976190Y-43034047D01*
X172976190Y-43034047D02*
X172976190Y-43272142D01*
X172976190Y-43272142D02*
X172928571Y-43367380D01*
X172928571Y-43367380D02*
X172880952Y-43415000D01*
X172880952Y-43415000D02*
X172785714Y-43462619D01*
X172785714Y-43462619D02*
X172500000Y-43462619D01*
X172500000Y-43462619D02*
X172404762Y-43415000D01*
X172404762Y-43415000D02*
X172357143Y-43367380D01*
X173547619Y-42891190D02*
X173452381Y-42843571D01*
X173452381Y-42843571D02*
X173404762Y-42795952D01*
X173404762Y-42795952D02*
X173357143Y-42700714D01*
X173357143Y-42700714D02*
X173357143Y-42653095D01*
X173357143Y-42653095D02*
X173404762Y-42557857D01*
X173404762Y-42557857D02*
X173452381Y-42510238D01*
X173452381Y-42510238D02*
X173547619Y-42462619D01*
X173547619Y-42462619D02*
X173738095Y-42462619D01*
X173738095Y-42462619D02*
X173833333Y-42510238D01*
X173833333Y-42510238D02*
X173880952Y-42557857D01*
X173880952Y-42557857D02*
X173928571Y-42653095D01*
X173928571Y-42653095D02*
X173928571Y-42700714D01*
X173928571Y-42700714D02*
X173880952Y-42795952D01*
X173880952Y-42795952D02*
X173833333Y-42843571D01*
X173833333Y-42843571D02*
X173738095Y-42891190D01*
X173738095Y-42891190D02*
X173547619Y-42891190D01*
X173547619Y-42891190D02*
X173452381Y-42938809D01*
X173452381Y-42938809D02*
X173404762Y-42986428D01*
X173404762Y-42986428D02*
X173357143Y-43081666D01*
X173357143Y-43081666D02*
X173357143Y-43272142D01*
X173357143Y-43272142D02*
X173404762Y-43367380D01*
X173404762Y-43367380D02*
X173452381Y-43415000D01*
X173452381Y-43415000D02*
X173547619Y-43462619D01*
X173547619Y-43462619D02*
X173738095Y-43462619D01*
X173738095Y-43462619D02*
X173833333Y-43415000D01*
X173833333Y-43415000D02*
X173880952Y-43367380D01*
X173880952Y-43367380D02*
X173928571Y-43272142D01*
X173928571Y-43272142D02*
X173928571Y-43081666D01*
X173928571Y-43081666D02*
X173880952Y-42986428D01*
X173880952Y-42986428D02*
X173833333Y-42938809D01*
X173833333Y-42938809D02*
X173738095Y-42891190D01*
X174357143Y-43462619D02*
X174357143Y-42462619D01*
X174357143Y-42462619D02*
X174738095Y-42462619D01*
X174738095Y-42462619D02*
X174833333Y-42510238D01*
X174833333Y-42510238D02*
X174880952Y-42557857D01*
X174880952Y-42557857D02*
X174928571Y-42653095D01*
X174928571Y-42653095D02*
X174928571Y-42795952D01*
X174928571Y-42795952D02*
X174880952Y-42891190D01*
X174880952Y-42891190D02*
X174833333Y-42938809D01*
X174833333Y-42938809D02*
X174738095Y-42986428D01*
X174738095Y-42986428D02*
X174357143Y-42986428D01*
X175357143Y-43462619D02*
X175357143Y-42462619D01*
X175833333Y-43462619D02*
X175833333Y-42462619D01*
X175833333Y-42462619D02*
X176404761Y-43462619D01*
X176404761Y-43462619D02*
X176404761Y-42462619D01*
X177071428Y-42462619D02*
X177261904Y-42462619D01*
X177261904Y-42462619D02*
X177357142Y-42510238D01*
X177357142Y-42510238D02*
X177452380Y-42605476D01*
X177452380Y-42605476D02*
X177499999Y-42795952D01*
X177499999Y-42795952D02*
X177499999Y-43129285D01*
X177499999Y-43129285D02*
X177452380Y-43319761D01*
X177452380Y-43319761D02*
X177357142Y-43415000D01*
X177357142Y-43415000D02*
X177261904Y-43462619D01*
X177261904Y-43462619D02*
X177071428Y-43462619D01*
X177071428Y-43462619D02*
X176976190Y-43415000D01*
X176976190Y-43415000D02*
X176880952Y-43319761D01*
X176880952Y-43319761D02*
X176833333Y-43129285D01*
X176833333Y-43129285D02*
X176833333Y-42795952D01*
X176833333Y-42795952D02*
X176880952Y-42605476D01*
X176880952Y-42605476D02*
X176976190Y-42510238D01*
X176976190Y-42510238D02*
X177071428Y-42462619D01*
X177880952Y-43415000D02*
X178023809Y-43462619D01*
X178023809Y-43462619D02*
X178261904Y-43462619D01*
X178261904Y-43462619D02*
X178357142Y-43415000D01*
X178357142Y-43415000D02*
X178404761Y-43367380D01*
X178404761Y-43367380D02*
X178452380Y-43272142D01*
X178452380Y-43272142D02*
X178452380Y-43176904D01*
X178452380Y-43176904D02*
X178404761Y-43081666D01*
X178404761Y-43081666D02*
X178357142Y-43034047D01*
X178357142Y-43034047D02*
X178261904Y-42986428D01*
X178261904Y-42986428D02*
X178071428Y-42938809D01*
X178071428Y-42938809D02*
X177976190Y-42891190D01*
X177976190Y-42891190D02*
X177928571Y-42843571D01*
X177928571Y-42843571D02*
X177880952Y-42748333D01*
X177880952Y-42748333D02*
X177880952Y-42653095D01*
X177880952Y-42653095D02*
X177928571Y-42557857D01*
X177928571Y-42557857D02*
X177976190Y-42510238D01*
X177976190Y-42510238D02*
X178071428Y-42462619D01*
X178071428Y-42462619D02*
X178309523Y-42462619D01*
X178309523Y-42462619D02*
X178452380Y-42510238D01*
X170238095Y-78877619D02*
X170238095Y-77877619D01*
X170238095Y-77877619D02*
X170571428Y-78591904D01*
X170571428Y-78591904D02*
X170904761Y-77877619D01*
X170904761Y-77877619D02*
X170904761Y-78877619D01*
X171380952Y-78877619D02*
X171380952Y-77877619D01*
X172428570Y-78782380D02*
X172380951Y-78830000D01*
X172380951Y-78830000D02*
X172238094Y-78877619D01*
X172238094Y-78877619D02*
X172142856Y-78877619D01*
X172142856Y-78877619D02*
X171999999Y-78830000D01*
X171999999Y-78830000D02*
X171904761Y-78734761D01*
X171904761Y-78734761D02*
X171857142Y-78639523D01*
X171857142Y-78639523D02*
X171809523Y-78449047D01*
X171809523Y-78449047D02*
X171809523Y-78306190D01*
X171809523Y-78306190D02*
X171857142Y-78115714D01*
X171857142Y-78115714D02*
X171904761Y-78020476D01*
X171904761Y-78020476D02*
X171999999Y-77925238D01*
X171999999Y-77925238D02*
X172142856Y-77877619D01*
X172142856Y-77877619D02*
X172238094Y-77877619D01*
X172238094Y-77877619D02*
X172380951Y-77925238D01*
X172380951Y-77925238D02*
X172428570Y-77972857D01*
X173428570Y-78877619D02*
X173095237Y-78401428D01*
X172857142Y-78877619D02*
X172857142Y-77877619D01*
X172857142Y-77877619D02*
X173238094Y-77877619D01*
X173238094Y-77877619D02*
X173333332Y-77925238D01*
X173333332Y-77925238D02*
X173380951Y-77972857D01*
X173380951Y-77972857D02*
X173428570Y-78068095D01*
X173428570Y-78068095D02*
X173428570Y-78210952D01*
X173428570Y-78210952D02*
X173380951Y-78306190D01*
X173380951Y-78306190D02*
X173333332Y-78353809D01*
X173333332Y-78353809D02*
X173238094Y-78401428D01*
X173238094Y-78401428D02*
X172857142Y-78401428D01*
X174047618Y-77877619D02*
X174238094Y-77877619D01*
X174238094Y-77877619D02*
X174333332Y-77925238D01*
X174333332Y-77925238D02*
X174428570Y-78020476D01*
X174428570Y-78020476D02*
X174476189Y-78210952D01*
X174476189Y-78210952D02*
X174476189Y-78544285D01*
X174476189Y-78544285D02*
X174428570Y-78734761D01*
X174428570Y-78734761D02*
X174333332Y-78830000D01*
X174333332Y-78830000D02*
X174238094Y-78877619D01*
X174238094Y-78877619D02*
X174047618Y-78877619D01*
X174047618Y-78877619D02*
X173952380Y-78830000D01*
X173952380Y-78830000D02*
X173857142Y-78734761D01*
X173857142Y-78734761D02*
X173809523Y-78544285D01*
X173809523Y-78544285D02*
X173809523Y-78210952D01*
X173809523Y-78210952D02*
X173857142Y-78020476D01*
X173857142Y-78020476D02*
X173952380Y-77925238D01*
X173952380Y-77925238D02*
X174047618Y-77877619D01*
X175666666Y-77877619D02*
X175666666Y-78687142D01*
X175666666Y-78687142D02*
X175714285Y-78782380D01*
X175714285Y-78782380D02*
X175761904Y-78830000D01*
X175761904Y-78830000D02*
X175857142Y-78877619D01*
X175857142Y-78877619D02*
X176047618Y-78877619D01*
X176047618Y-78877619D02*
X176142856Y-78830000D01*
X176142856Y-78830000D02*
X176190475Y-78782380D01*
X176190475Y-78782380D02*
X176238094Y-78687142D01*
X176238094Y-78687142D02*
X176238094Y-77877619D01*
X176666666Y-78830000D02*
X176809523Y-78877619D01*
X176809523Y-78877619D02*
X177047618Y-78877619D01*
X177047618Y-78877619D02*
X177142856Y-78830000D01*
X177142856Y-78830000D02*
X177190475Y-78782380D01*
X177190475Y-78782380D02*
X177238094Y-78687142D01*
X177238094Y-78687142D02*
X177238094Y-78591904D01*
X177238094Y-78591904D02*
X177190475Y-78496666D01*
X177190475Y-78496666D02*
X177142856Y-78449047D01*
X177142856Y-78449047D02*
X177047618Y-78401428D01*
X177047618Y-78401428D02*
X176857142Y-78353809D01*
X176857142Y-78353809D02*
X176761904Y-78306190D01*
X176761904Y-78306190D02*
X176714285Y-78258571D01*
X176714285Y-78258571D02*
X176666666Y-78163333D01*
X176666666Y-78163333D02*
X176666666Y-78068095D01*
X176666666Y-78068095D02*
X176714285Y-77972857D01*
X176714285Y-77972857D02*
X176761904Y-77925238D01*
X176761904Y-77925238D02*
X176857142Y-77877619D01*
X176857142Y-77877619D02*
X177095237Y-77877619D01*
X177095237Y-77877619D02*
X177238094Y-77925238D01*
X177999999Y-78353809D02*
X178142856Y-78401428D01*
X178142856Y-78401428D02*
X178190475Y-78449047D01*
X178190475Y-78449047D02*
X178238094Y-78544285D01*
X178238094Y-78544285D02*
X178238094Y-78687142D01*
X178238094Y-78687142D02*
X178190475Y-78782380D01*
X178190475Y-78782380D02*
X178142856Y-78830000D01*
X178142856Y-78830000D02*
X178047618Y-78877619D01*
X178047618Y-78877619D02*
X177666666Y-78877619D01*
X177666666Y-78877619D02*
X177666666Y-77877619D01*
X177666666Y-77877619D02*
X177999999Y-77877619D01*
X177999999Y-77877619D02*
X178095237Y-77925238D01*
X178095237Y-77925238D02*
X178142856Y-77972857D01*
X178142856Y-77972857D02*
X178190475Y-78068095D01*
X178190475Y-78068095D02*
X178190475Y-78163333D01*
X178190475Y-78163333D02*
X178142856Y-78258571D01*
X178142856Y-78258571D02*
X178095237Y-78306190D01*
X178095237Y-78306190D02*
X177999999Y-78353809D01*
X177999999Y-78353809D02*
X177666666Y-78353809D01*
%TO.C,MOTOR2*%
X171368664Y-92731797D02*
X171368664Y-91731797D01*
X171368664Y-91731797D02*
X171701997Y-92446082D01*
X171701997Y-92446082D02*
X172035330Y-91731797D01*
X172035330Y-91731797D02*
X172035330Y-92731797D01*
X172701997Y-91731797D02*
X172892473Y-91731797D01*
X172892473Y-91731797D02*
X172987711Y-91779416D01*
X172987711Y-91779416D02*
X173082949Y-91874654D01*
X173082949Y-91874654D02*
X173130568Y-92065130D01*
X173130568Y-92065130D02*
X173130568Y-92398463D01*
X173130568Y-92398463D02*
X173082949Y-92588939D01*
X173082949Y-92588939D02*
X172987711Y-92684178D01*
X172987711Y-92684178D02*
X172892473Y-92731797D01*
X172892473Y-92731797D02*
X172701997Y-92731797D01*
X172701997Y-92731797D02*
X172606759Y-92684178D01*
X172606759Y-92684178D02*
X172511521Y-92588939D01*
X172511521Y-92588939D02*
X172463902Y-92398463D01*
X172463902Y-92398463D02*
X172463902Y-92065130D01*
X172463902Y-92065130D02*
X172511521Y-91874654D01*
X172511521Y-91874654D02*
X172606759Y-91779416D01*
X172606759Y-91779416D02*
X172701997Y-91731797D01*
X173416283Y-91731797D02*
X173987711Y-91731797D01*
X173701997Y-92731797D02*
X173701997Y-91731797D01*
X174511521Y-91731797D02*
X174701997Y-91731797D01*
X174701997Y-91731797D02*
X174797235Y-91779416D01*
X174797235Y-91779416D02*
X174892473Y-91874654D01*
X174892473Y-91874654D02*
X174940092Y-92065130D01*
X174940092Y-92065130D02*
X174940092Y-92398463D01*
X174940092Y-92398463D02*
X174892473Y-92588939D01*
X174892473Y-92588939D02*
X174797235Y-92684178D01*
X174797235Y-92684178D02*
X174701997Y-92731797D01*
X174701997Y-92731797D02*
X174511521Y-92731797D01*
X174511521Y-92731797D02*
X174416283Y-92684178D01*
X174416283Y-92684178D02*
X174321045Y-92588939D01*
X174321045Y-92588939D02*
X174273426Y-92398463D01*
X174273426Y-92398463D02*
X174273426Y-92065130D01*
X174273426Y-92065130D02*
X174321045Y-91874654D01*
X174321045Y-91874654D02*
X174416283Y-91779416D01*
X174416283Y-91779416D02*
X174511521Y-91731797D01*
X175940092Y-92731797D02*
X175606759Y-92255606D01*
X175368664Y-92731797D02*
X175368664Y-91731797D01*
X175368664Y-91731797D02*
X175749616Y-91731797D01*
X175749616Y-91731797D02*
X175844854Y-91779416D01*
X175844854Y-91779416D02*
X175892473Y-91827035D01*
X175892473Y-91827035D02*
X175940092Y-91922273D01*
X175940092Y-91922273D02*
X175940092Y-92065130D01*
X175940092Y-92065130D02*
X175892473Y-92160368D01*
X175892473Y-92160368D02*
X175844854Y-92207987D01*
X175844854Y-92207987D02*
X175749616Y-92255606D01*
X175749616Y-92255606D02*
X175368664Y-92255606D01*
X176321045Y-91827035D02*
X176368664Y-91779416D01*
X176368664Y-91779416D02*
X176463902Y-91731797D01*
X176463902Y-91731797D02*
X176701997Y-91731797D01*
X176701997Y-91731797D02*
X176797235Y-91779416D01*
X176797235Y-91779416D02*
X176844854Y-91827035D01*
X176844854Y-91827035D02*
X176892473Y-91922273D01*
X176892473Y-91922273D02*
X176892473Y-92017511D01*
X176892473Y-92017511D02*
X176844854Y-92160368D01*
X176844854Y-92160368D02*
X176273426Y-92731797D01*
X176273426Y-92731797D02*
X176892473Y-92731797D01*
%TO.C,R1*%
X172092619Y-60166666D02*
X171616428Y-60499999D01*
X172092619Y-60738094D02*
X171092619Y-60738094D01*
X171092619Y-60738094D02*
X171092619Y-60357142D01*
X171092619Y-60357142D02*
X171140238Y-60261904D01*
X171140238Y-60261904D02*
X171187857Y-60214285D01*
X171187857Y-60214285D02*
X171283095Y-60166666D01*
X171283095Y-60166666D02*
X171425952Y-60166666D01*
X171425952Y-60166666D02*
X171521190Y-60214285D01*
X171521190Y-60214285D02*
X171568809Y-60261904D01*
X171568809Y-60261904D02*
X171616428Y-60357142D01*
X171616428Y-60357142D02*
X171616428Y-60738094D01*
X172092619Y-59214285D02*
X172092619Y-59785713D01*
X172092619Y-59499999D02*
X171092619Y-59499999D01*
X171092619Y-59499999D02*
X171235476Y-59595237D01*
X171235476Y-59595237D02*
X171330714Y-59690475D01*
X171330714Y-59690475D02*
X171378333Y-59785713D01*
%TO.C,3V3*%
X150462619Y-88238094D02*
X150462619Y-87619047D01*
X150462619Y-87619047D02*
X150843571Y-87952380D01*
X150843571Y-87952380D02*
X150843571Y-87809523D01*
X150843571Y-87809523D02*
X150891190Y-87714285D01*
X150891190Y-87714285D02*
X150938809Y-87666666D01*
X150938809Y-87666666D02*
X151034047Y-87619047D01*
X151034047Y-87619047D02*
X151272142Y-87619047D01*
X151272142Y-87619047D02*
X151367380Y-87666666D01*
X151367380Y-87666666D02*
X151415000Y-87714285D01*
X151415000Y-87714285D02*
X151462619Y-87809523D01*
X151462619Y-87809523D02*
X151462619Y-88095237D01*
X151462619Y-88095237D02*
X151415000Y-88190475D01*
X151415000Y-88190475D02*
X151367380Y-88238094D01*
X150462619Y-87333332D02*
X151462619Y-86999999D01*
X151462619Y-86999999D02*
X150462619Y-86666666D01*
X150462619Y-86428570D02*
X150462619Y-85809523D01*
X150462619Y-85809523D02*
X150843571Y-86142856D01*
X150843571Y-86142856D02*
X150843571Y-85999999D01*
X150843571Y-85999999D02*
X150891190Y-85904761D01*
X150891190Y-85904761D02*
X150938809Y-85857142D01*
X150938809Y-85857142D02*
X151034047Y-85809523D01*
X151034047Y-85809523D02*
X151272142Y-85809523D01*
X151272142Y-85809523D02*
X151367380Y-85857142D01*
X151367380Y-85857142D02*
X151415000Y-85904761D01*
X151415000Y-85904761D02*
X151462619Y-85999999D01*
X151462619Y-85999999D02*
X151462619Y-86285713D01*
X151462619Y-86285713D02*
X151415000Y-86380951D01*
X151415000Y-86380951D02*
X151367380Y-86428570D01*
X145952381Y-91462619D02*
X145476191Y-91462619D01*
X145476191Y-91462619D02*
X145476191Y-90462619D01*
X146285715Y-91462619D02*
X146285715Y-90462619D01*
X146285715Y-90462619D02*
X146619048Y-91176904D01*
X146619048Y-91176904D02*
X146952381Y-90462619D01*
X146952381Y-90462619D02*
X146952381Y-91462619D01*
X147952381Y-91462619D02*
X147380953Y-91462619D01*
X147666667Y-91462619D02*
X147666667Y-90462619D01*
X147666667Y-90462619D02*
X147571429Y-90605476D01*
X147571429Y-90605476D02*
X147476191Y-90700714D01*
X147476191Y-90700714D02*
X147380953Y-90748333D01*
X148904762Y-91462619D02*
X148333334Y-91462619D01*
X148619048Y-91462619D02*
X148619048Y-90462619D01*
X148619048Y-90462619D02*
X148523810Y-90605476D01*
X148523810Y-90605476D02*
X148428572Y-90700714D01*
X148428572Y-90700714D02*
X148333334Y-90748333D01*
X149857143Y-91462619D02*
X149285715Y-91462619D01*
X149571429Y-91462619D02*
X149571429Y-90462619D01*
X149571429Y-90462619D02*
X149476191Y-90605476D01*
X149476191Y-90605476D02*
X149380953Y-90700714D01*
X149380953Y-90700714D02*
X149285715Y-90748333D01*
X150190477Y-90462619D02*
X150857143Y-90462619D01*
X150857143Y-90462619D02*
X150428572Y-91462619D01*
X151238096Y-91462619D02*
X151238096Y-90462619D01*
X151238096Y-90462619D02*
X151571429Y-91176904D01*
X151571429Y-91176904D02*
X151904762Y-90462619D01*
X151904762Y-90462619D02*
X151904762Y-91462619D01*
X152380953Y-91462619D02*
X152380953Y-90462619D01*
X152380953Y-90462619D02*
X152761905Y-90462619D01*
X152761905Y-90462619D02*
X152857143Y-90510238D01*
X152857143Y-90510238D02*
X152904762Y-90557857D01*
X152904762Y-90557857D02*
X152952381Y-90653095D01*
X152952381Y-90653095D02*
X152952381Y-90795952D01*
X152952381Y-90795952D02*
X152904762Y-90891190D01*
X152904762Y-90891190D02*
X152857143Y-90938809D01*
X152857143Y-90938809D02*
X152761905Y-90986428D01*
X152761905Y-90986428D02*
X152380953Y-90986428D01*
X153380953Y-91081666D02*
X154142858Y-91081666D01*
X154523810Y-90462619D02*
X155142857Y-90462619D01*
X155142857Y-90462619D02*
X154809524Y-90843571D01*
X154809524Y-90843571D02*
X154952381Y-90843571D01*
X154952381Y-90843571D02*
X155047619Y-90891190D01*
X155047619Y-90891190D02*
X155095238Y-90938809D01*
X155095238Y-90938809D02*
X155142857Y-91034047D01*
X155142857Y-91034047D02*
X155142857Y-91272142D01*
X155142857Y-91272142D02*
X155095238Y-91367380D01*
X155095238Y-91367380D02*
X155047619Y-91415000D01*
X155047619Y-91415000D02*
X154952381Y-91462619D01*
X154952381Y-91462619D02*
X154666667Y-91462619D01*
X154666667Y-91462619D02*
X154571429Y-91415000D01*
X154571429Y-91415000D02*
X154523810Y-91367380D01*
X155571429Y-91367380D02*
X155619048Y-91415000D01*
X155619048Y-91415000D02*
X155571429Y-91462619D01*
X155571429Y-91462619D02*
X155523810Y-91415000D01*
X155523810Y-91415000D02*
X155571429Y-91367380D01*
X155571429Y-91367380D02*
X155571429Y-91462619D01*
X155952381Y-90462619D02*
X156571428Y-90462619D01*
X156571428Y-90462619D02*
X156238095Y-90843571D01*
X156238095Y-90843571D02*
X156380952Y-90843571D01*
X156380952Y-90843571D02*
X156476190Y-90891190D01*
X156476190Y-90891190D02*
X156523809Y-90938809D01*
X156523809Y-90938809D02*
X156571428Y-91034047D01*
X156571428Y-91034047D02*
X156571428Y-91272142D01*
X156571428Y-91272142D02*
X156523809Y-91367380D01*
X156523809Y-91367380D02*
X156476190Y-91415000D01*
X156476190Y-91415000D02*
X156380952Y-91462619D01*
X156380952Y-91462619D02*
X156095238Y-91462619D01*
X156095238Y-91462619D02*
X156000000Y-91415000D01*
X156000000Y-91415000D02*
X155952381Y-91367380D01*
%TO.C,MOTOR1*%
X143053807Y-41072435D02*
X143053807Y-40072435D01*
X143053807Y-40072435D02*
X143387140Y-40786720D01*
X143387140Y-40786720D02*
X143720473Y-40072435D01*
X143720473Y-40072435D02*
X143720473Y-41072435D01*
X144387140Y-40072435D02*
X144577616Y-40072435D01*
X144577616Y-40072435D02*
X144672854Y-40120054D01*
X144672854Y-40120054D02*
X144768092Y-40215292D01*
X144768092Y-40215292D02*
X144815711Y-40405768D01*
X144815711Y-40405768D02*
X144815711Y-40739101D01*
X144815711Y-40739101D02*
X144768092Y-40929577D01*
X144768092Y-40929577D02*
X144672854Y-41024816D01*
X144672854Y-41024816D02*
X144577616Y-41072435D01*
X144577616Y-41072435D02*
X144387140Y-41072435D01*
X144387140Y-41072435D02*
X144291902Y-41024816D01*
X144291902Y-41024816D02*
X144196664Y-40929577D01*
X144196664Y-40929577D02*
X144149045Y-40739101D01*
X144149045Y-40739101D02*
X144149045Y-40405768D01*
X144149045Y-40405768D02*
X144196664Y-40215292D01*
X144196664Y-40215292D02*
X144291902Y-40120054D01*
X144291902Y-40120054D02*
X144387140Y-40072435D01*
X145101426Y-40072435D02*
X145672854Y-40072435D01*
X145387140Y-41072435D02*
X145387140Y-40072435D01*
X146196664Y-40072435D02*
X146387140Y-40072435D01*
X146387140Y-40072435D02*
X146482378Y-40120054D01*
X146482378Y-40120054D02*
X146577616Y-40215292D01*
X146577616Y-40215292D02*
X146625235Y-40405768D01*
X146625235Y-40405768D02*
X146625235Y-40739101D01*
X146625235Y-40739101D02*
X146577616Y-40929577D01*
X146577616Y-40929577D02*
X146482378Y-41024816D01*
X146482378Y-41024816D02*
X146387140Y-41072435D01*
X146387140Y-41072435D02*
X146196664Y-41072435D01*
X146196664Y-41072435D02*
X146101426Y-41024816D01*
X146101426Y-41024816D02*
X146006188Y-40929577D01*
X146006188Y-40929577D02*
X145958569Y-40739101D01*
X145958569Y-40739101D02*
X145958569Y-40405768D01*
X145958569Y-40405768D02*
X146006188Y-40215292D01*
X146006188Y-40215292D02*
X146101426Y-40120054D01*
X146101426Y-40120054D02*
X146196664Y-40072435D01*
X147625235Y-41072435D02*
X147291902Y-40596244D01*
X147053807Y-41072435D02*
X147053807Y-40072435D01*
X147053807Y-40072435D02*
X147434759Y-40072435D01*
X147434759Y-40072435D02*
X147529997Y-40120054D01*
X147529997Y-40120054D02*
X147577616Y-40167673D01*
X147577616Y-40167673D02*
X147625235Y-40262911D01*
X147625235Y-40262911D02*
X147625235Y-40405768D01*
X147625235Y-40405768D02*
X147577616Y-40501006D01*
X147577616Y-40501006D02*
X147529997Y-40548625D01*
X147529997Y-40548625D02*
X147434759Y-40596244D01*
X147434759Y-40596244D02*
X147053807Y-40596244D01*
X148577616Y-41072435D02*
X148006188Y-41072435D01*
X148291902Y-41072435D02*
X148291902Y-40072435D01*
X148291902Y-40072435D02*
X148196664Y-40215292D01*
X148196664Y-40215292D02*
X148101426Y-40310530D01*
X148101426Y-40310530D02*
X148006188Y-40358149D01*
%TO.C,D3*%
X131531905Y-60502619D02*
X131531905Y-59502619D01*
X131531905Y-59502619D02*
X131770000Y-59502619D01*
X131770000Y-59502619D02*
X131912857Y-59550238D01*
X131912857Y-59550238D02*
X132008095Y-59645476D01*
X132008095Y-59645476D02*
X132055714Y-59740714D01*
X132055714Y-59740714D02*
X132103333Y-59931190D01*
X132103333Y-59931190D02*
X132103333Y-60074047D01*
X132103333Y-60074047D02*
X132055714Y-60264523D01*
X132055714Y-60264523D02*
X132008095Y-60359761D01*
X132008095Y-60359761D02*
X131912857Y-60455000D01*
X131912857Y-60455000D02*
X131770000Y-60502619D01*
X131770000Y-60502619D02*
X131531905Y-60502619D01*
X132436667Y-59502619D02*
X133055714Y-59502619D01*
X133055714Y-59502619D02*
X132722381Y-59883571D01*
X132722381Y-59883571D02*
X132865238Y-59883571D01*
X132865238Y-59883571D02*
X132960476Y-59931190D01*
X132960476Y-59931190D02*
X133008095Y-59978809D01*
X133008095Y-59978809D02*
X133055714Y-60074047D01*
X133055714Y-60074047D02*
X133055714Y-60312142D01*
X133055714Y-60312142D02*
X133008095Y-60407380D01*
X133008095Y-60407380D02*
X132960476Y-60455000D01*
X132960476Y-60455000D02*
X132865238Y-60502619D01*
X132865238Y-60502619D02*
X132579524Y-60502619D01*
X132579524Y-60502619D02*
X132484286Y-60455000D01*
X132484286Y-60455000D02*
X132436667Y-60407380D01*
%TO.C,BATERIA*%
X133512795Y-85207525D02*
X133655652Y-85255144D01*
X133655652Y-85255144D02*
X133703271Y-85302763D01*
X133703271Y-85302763D02*
X133750890Y-85398001D01*
X133750890Y-85398001D02*
X133750890Y-85540858D01*
X133750890Y-85540858D02*
X133703271Y-85636096D01*
X133703271Y-85636096D02*
X133655652Y-85683716D01*
X133655652Y-85683716D02*
X133560414Y-85731335D01*
X133560414Y-85731335D02*
X133179462Y-85731335D01*
X133179462Y-85731335D02*
X133179462Y-84731335D01*
X133179462Y-84731335D02*
X133512795Y-84731335D01*
X133512795Y-84731335D02*
X133608033Y-84778954D01*
X133608033Y-84778954D02*
X133655652Y-84826573D01*
X133655652Y-84826573D02*
X133703271Y-84921811D01*
X133703271Y-84921811D02*
X133703271Y-85017049D01*
X133703271Y-85017049D02*
X133655652Y-85112287D01*
X133655652Y-85112287D02*
X133608033Y-85159906D01*
X133608033Y-85159906D02*
X133512795Y-85207525D01*
X133512795Y-85207525D02*
X133179462Y-85207525D01*
X134131843Y-85445620D02*
X134608033Y-85445620D01*
X134036605Y-85731335D02*
X134369938Y-84731335D01*
X134369938Y-84731335D02*
X134703271Y-85731335D01*
X134893748Y-84731335D02*
X135465176Y-84731335D01*
X135179462Y-85731335D02*
X135179462Y-84731335D01*
X135798510Y-85207525D02*
X136131843Y-85207525D01*
X136274700Y-85731335D02*
X135798510Y-85731335D01*
X135798510Y-85731335D02*
X135798510Y-84731335D01*
X135798510Y-84731335D02*
X136274700Y-84731335D01*
X137274700Y-85731335D02*
X136941367Y-85255144D01*
X136703272Y-85731335D02*
X136703272Y-84731335D01*
X136703272Y-84731335D02*
X137084224Y-84731335D01*
X137084224Y-84731335D02*
X137179462Y-84778954D01*
X137179462Y-84778954D02*
X137227081Y-84826573D01*
X137227081Y-84826573D02*
X137274700Y-84921811D01*
X137274700Y-84921811D02*
X137274700Y-85064668D01*
X137274700Y-85064668D02*
X137227081Y-85159906D01*
X137227081Y-85159906D02*
X137179462Y-85207525D01*
X137179462Y-85207525D02*
X137084224Y-85255144D01*
X137084224Y-85255144D02*
X136703272Y-85255144D01*
X137703272Y-85731335D02*
X137703272Y-84731335D01*
X138131843Y-85445620D02*
X138608033Y-85445620D01*
X138036605Y-85731335D02*
X138369938Y-84731335D01*
X138369938Y-84731335D02*
X138703271Y-85731335D01*
%TO.C,R3*%
X172833333Y-83092619D02*
X172500000Y-82616428D01*
X172261905Y-83092619D02*
X172261905Y-82092619D01*
X172261905Y-82092619D02*
X172642857Y-82092619D01*
X172642857Y-82092619D02*
X172738095Y-82140238D01*
X172738095Y-82140238D02*
X172785714Y-82187857D01*
X172785714Y-82187857D02*
X172833333Y-82283095D01*
X172833333Y-82283095D02*
X172833333Y-82425952D01*
X172833333Y-82425952D02*
X172785714Y-82521190D01*
X172785714Y-82521190D02*
X172738095Y-82568809D01*
X172738095Y-82568809D02*
X172642857Y-82616428D01*
X172642857Y-82616428D02*
X172261905Y-82616428D01*
X173166667Y-82092619D02*
X173785714Y-82092619D01*
X173785714Y-82092619D02*
X173452381Y-82473571D01*
X173452381Y-82473571D02*
X173595238Y-82473571D01*
X173595238Y-82473571D02*
X173690476Y-82521190D01*
X173690476Y-82521190D02*
X173738095Y-82568809D01*
X173738095Y-82568809D02*
X173785714Y-82664047D01*
X173785714Y-82664047D02*
X173785714Y-82902142D01*
X173785714Y-82902142D02*
X173738095Y-82997380D01*
X173738095Y-82997380D02*
X173690476Y-83045000D01*
X173690476Y-83045000D02*
X173595238Y-83092619D01*
X173595238Y-83092619D02*
X173309524Y-83092619D01*
X173309524Y-83092619D02*
X173214286Y-83045000D01*
X173214286Y-83045000D02*
X173166667Y-82997380D01*
%TO.C,DRV8833*%
X142444762Y-66146619D02*
X142444762Y-65146619D01*
X142444762Y-65146619D02*
X142682857Y-65146619D01*
X142682857Y-65146619D02*
X142825714Y-65194238D01*
X142825714Y-65194238D02*
X142920952Y-65289476D01*
X142920952Y-65289476D02*
X142968571Y-65384714D01*
X142968571Y-65384714D02*
X143016190Y-65575190D01*
X143016190Y-65575190D02*
X143016190Y-65718047D01*
X143016190Y-65718047D02*
X142968571Y-65908523D01*
X142968571Y-65908523D02*
X142920952Y-66003761D01*
X142920952Y-66003761D02*
X142825714Y-66099000D01*
X142825714Y-66099000D02*
X142682857Y-66146619D01*
X142682857Y-66146619D02*
X142444762Y-66146619D01*
X144016190Y-66146619D02*
X143682857Y-65670428D01*
X143444762Y-66146619D02*
X143444762Y-65146619D01*
X143444762Y-65146619D02*
X143825714Y-65146619D01*
X143825714Y-65146619D02*
X143920952Y-65194238D01*
X143920952Y-65194238D02*
X143968571Y-65241857D01*
X143968571Y-65241857D02*
X144016190Y-65337095D01*
X144016190Y-65337095D02*
X144016190Y-65479952D01*
X144016190Y-65479952D02*
X143968571Y-65575190D01*
X143968571Y-65575190D02*
X143920952Y-65622809D01*
X143920952Y-65622809D02*
X143825714Y-65670428D01*
X143825714Y-65670428D02*
X143444762Y-65670428D01*
X144301905Y-65146619D02*
X144635238Y-66146619D01*
X144635238Y-66146619D02*
X144968571Y-65146619D01*
X145444762Y-65575190D02*
X145349524Y-65527571D01*
X145349524Y-65527571D02*
X145301905Y-65479952D01*
X145301905Y-65479952D02*
X145254286Y-65384714D01*
X145254286Y-65384714D02*
X145254286Y-65337095D01*
X145254286Y-65337095D02*
X145301905Y-65241857D01*
X145301905Y-65241857D02*
X145349524Y-65194238D01*
X145349524Y-65194238D02*
X145444762Y-65146619D01*
X145444762Y-65146619D02*
X145635238Y-65146619D01*
X145635238Y-65146619D02*
X145730476Y-65194238D01*
X145730476Y-65194238D02*
X145778095Y-65241857D01*
X145778095Y-65241857D02*
X145825714Y-65337095D01*
X145825714Y-65337095D02*
X145825714Y-65384714D01*
X145825714Y-65384714D02*
X145778095Y-65479952D01*
X145778095Y-65479952D02*
X145730476Y-65527571D01*
X145730476Y-65527571D02*
X145635238Y-65575190D01*
X145635238Y-65575190D02*
X145444762Y-65575190D01*
X145444762Y-65575190D02*
X145349524Y-65622809D01*
X145349524Y-65622809D02*
X145301905Y-65670428D01*
X145301905Y-65670428D02*
X145254286Y-65765666D01*
X145254286Y-65765666D02*
X145254286Y-65956142D01*
X145254286Y-65956142D02*
X145301905Y-66051380D01*
X145301905Y-66051380D02*
X145349524Y-66099000D01*
X145349524Y-66099000D02*
X145444762Y-66146619D01*
X145444762Y-66146619D02*
X145635238Y-66146619D01*
X145635238Y-66146619D02*
X145730476Y-66099000D01*
X145730476Y-66099000D02*
X145778095Y-66051380D01*
X145778095Y-66051380D02*
X145825714Y-65956142D01*
X145825714Y-65956142D02*
X145825714Y-65765666D01*
X145825714Y-65765666D02*
X145778095Y-65670428D01*
X145778095Y-65670428D02*
X145730476Y-65622809D01*
X145730476Y-65622809D02*
X145635238Y-65575190D01*
X146397143Y-65575190D02*
X146301905Y-65527571D01*
X146301905Y-65527571D02*
X146254286Y-65479952D01*
X146254286Y-65479952D02*
X146206667Y-65384714D01*
X146206667Y-65384714D02*
X146206667Y-65337095D01*
X146206667Y-65337095D02*
X146254286Y-65241857D01*
X146254286Y-65241857D02*
X146301905Y-65194238D01*
X146301905Y-65194238D02*
X146397143Y-65146619D01*
X146397143Y-65146619D02*
X146587619Y-65146619D01*
X146587619Y-65146619D02*
X146682857Y-65194238D01*
X146682857Y-65194238D02*
X146730476Y-65241857D01*
X146730476Y-65241857D02*
X146778095Y-65337095D01*
X146778095Y-65337095D02*
X146778095Y-65384714D01*
X146778095Y-65384714D02*
X146730476Y-65479952D01*
X146730476Y-65479952D02*
X146682857Y-65527571D01*
X146682857Y-65527571D02*
X146587619Y-65575190D01*
X146587619Y-65575190D02*
X146397143Y-65575190D01*
X146397143Y-65575190D02*
X146301905Y-65622809D01*
X146301905Y-65622809D02*
X146254286Y-65670428D01*
X146254286Y-65670428D02*
X146206667Y-65765666D01*
X146206667Y-65765666D02*
X146206667Y-65956142D01*
X146206667Y-65956142D02*
X146254286Y-66051380D01*
X146254286Y-66051380D02*
X146301905Y-66099000D01*
X146301905Y-66099000D02*
X146397143Y-66146619D01*
X146397143Y-66146619D02*
X146587619Y-66146619D01*
X146587619Y-66146619D02*
X146682857Y-66099000D01*
X146682857Y-66099000D02*
X146730476Y-66051380D01*
X146730476Y-66051380D02*
X146778095Y-65956142D01*
X146778095Y-65956142D02*
X146778095Y-65765666D01*
X146778095Y-65765666D02*
X146730476Y-65670428D01*
X146730476Y-65670428D02*
X146682857Y-65622809D01*
X146682857Y-65622809D02*
X146587619Y-65575190D01*
X147111429Y-65146619D02*
X147730476Y-65146619D01*
X147730476Y-65146619D02*
X147397143Y-65527571D01*
X147397143Y-65527571D02*
X147540000Y-65527571D01*
X147540000Y-65527571D02*
X147635238Y-65575190D01*
X147635238Y-65575190D02*
X147682857Y-65622809D01*
X147682857Y-65622809D02*
X147730476Y-65718047D01*
X147730476Y-65718047D02*
X147730476Y-65956142D01*
X147730476Y-65956142D02*
X147682857Y-66051380D01*
X147682857Y-66051380D02*
X147635238Y-66099000D01*
X147635238Y-66099000D02*
X147540000Y-66146619D01*
X147540000Y-66146619D02*
X147254286Y-66146619D01*
X147254286Y-66146619D02*
X147159048Y-66099000D01*
X147159048Y-66099000D02*
X147111429Y-66051380D01*
X148063810Y-65146619D02*
X148682857Y-65146619D01*
X148682857Y-65146619D02*
X148349524Y-65527571D01*
X148349524Y-65527571D02*
X148492381Y-65527571D01*
X148492381Y-65527571D02*
X148587619Y-65575190D01*
X148587619Y-65575190D02*
X148635238Y-65622809D01*
X148635238Y-65622809D02*
X148682857Y-65718047D01*
X148682857Y-65718047D02*
X148682857Y-65956142D01*
X148682857Y-65956142D02*
X148635238Y-66051380D01*
X148635238Y-66051380D02*
X148587619Y-66099000D01*
X148587619Y-66099000D02*
X148492381Y-66146619D01*
X148492381Y-66146619D02*
X148206667Y-66146619D01*
X148206667Y-66146619D02*
X148111429Y-66099000D01*
X148111429Y-66099000D02*
X148063810Y-66051380D01*
X144986776Y-62130024D02*
X144510586Y-62130024D01*
X144510586Y-62130024D02*
X144510586Y-61130024D01*
X145320110Y-61606214D02*
X145653443Y-61606214D01*
X145796300Y-62130024D02*
X145320110Y-62130024D01*
X145320110Y-62130024D02*
X145320110Y-61130024D01*
X145320110Y-61130024D02*
X145796300Y-61130024D01*
X146224872Y-62130024D02*
X146224872Y-61130024D01*
X146224872Y-61130024D02*
X146462967Y-61130024D01*
X146462967Y-61130024D02*
X146605824Y-61177643D01*
X146605824Y-61177643D02*
X146701062Y-61272881D01*
X146701062Y-61272881D02*
X146748681Y-61368119D01*
X146748681Y-61368119D02*
X146796300Y-61558595D01*
X146796300Y-61558595D02*
X146796300Y-61701452D01*
X146796300Y-61701452D02*
X146748681Y-61891928D01*
X146748681Y-61891928D02*
X146701062Y-61987166D01*
X146701062Y-61987166D02*
X146605824Y-62082405D01*
X146605824Y-62082405D02*
X146462967Y-62130024D01*
X146462967Y-62130024D02*
X146224872Y-62130024D01*
%TO.C,MPU6050*%
X163537380Y-62357143D02*
X164537380Y-62357143D01*
X164537380Y-62357143D02*
X163823095Y-62690476D01*
X163823095Y-62690476D02*
X164537380Y-63023809D01*
X164537380Y-63023809D02*
X163537380Y-63023809D01*
X163537380Y-63500000D02*
X164537380Y-63500000D01*
X164537380Y-63500000D02*
X164537380Y-63880952D01*
X164537380Y-63880952D02*
X164489761Y-63976190D01*
X164489761Y-63976190D02*
X164442142Y-64023809D01*
X164442142Y-64023809D02*
X164346904Y-64071428D01*
X164346904Y-64071428D02*
X164204047Y-64071428D01*
X164204047Y-64071428D02*
X164108809Y-64023809D01*
X164108809Y-64023809D02*
X164061190Y-63976190D01*
X164061190Y-63976190D02*
X164013571Y-63880952D01*
X164013571Y-63880952D02*
X164013571Y-63500000D01*
X164537380Y-64500000D02*
X163727857Y-64500000D01*
X163727857Y-64500000D02*
X163632619Y-64547619D01*
X163632619Y-64547619D02*
X163585000Y-64595238D01*
X163585000Y-64595238D02*
X163537380Y-64690476D01*
X163537380Y-64690476D02*
X163537380Y-64880952D01*
X163537380Y-64880952D02*
X163585000Y-64976190D01*
X163585000Y-64976190D02*
X163632619Y-65023809D01*
X163632619Y-65023809D02*
X163727857Y-65071428D01*
X163727857Y-65071428D02*
X164537380Y-65071428D01*
X163442142Y-65309524D02*
X163442142Y-66071428D01*
X164537380Y-66738095D02*
X164537380Y-66547619D01*
X164537380Y-66547619D02*
X164489761Y-66452381D01*
X164489761Y-66452381D02*
X164442142Y-66404762D01*
X164442142Y-66404762D02*
X164299285Y-66309524D01*
X164299285Y-66309524D02*
X164108809Y-66261905D01*
X164108809Y-66261905D02*
X163727857Y-66261905D01*
X163727857Y-66261905D02*
X163632619Y-66309524D01*
X163632619Y-66309524D02*
X163585000Y-66357143D01*
X163585000Y-66357143D02*
X163537380Y-66452381D01*
X163537380Y-66452381D02*
X163537380Y-66642857D01*
X163537380Y-66642857D02*
X163585000Y-66738095D01*
X163585000Y-66738095D02*
X163632619Y-66785714D01*
X163632619Y-66785714D02*
X163727857Y-66833333D01*
X163727857Y-66833333D02*
X163965952Y-66833333D01*
X163965952Y-66833333D02*
X164061190Y-66785714D01*
X164061190Y-66785714D02*
X164108809Y-66738095D01*
X164108809Y-66738095D02*
X164156428Y-66642857D01*
X164156428Y-66642857D02*
X164156428Y-66452381D01*
X164156428Y-66452381D02*
X164108809Y-66357143D01*
X164108809Y-66357143D02*
X164061190Y-66309524D01*
X164061190Y-66309524D02*
X163965952Y-66261905D01*
X164537380Y-67452381D02*
X164537380Y-67547619D01*
X164537380Y-67547619D02*
X164489761Y-67642857D01*
X164489761Y-67642857D02*
X164442142Y-67690476D01*
X164442142Y-67690476D02*
X164346904Y-67738095D01*
X164346904Y-67738095D02*
X164156428Y-67785714D01*
X164156428Y-67785714D02*
X163918333Y-67785714D01*
X163918333Y-67785714D02*
X163727857Y-67738095D01*
X163727857Y-67738095D02*
X163632619Y-67690476D01*
X163632619Y-67690476D02*
X163585000Y-67642857D01*
X163585000Y-67642857D02*
X163537380Y-67547619D01*
X163537380Y-67547619D02*
X163537380Y-67452381D01*
X163537380Y-67452381D02*
X163585000Y-67357143D01*
X163585000Y-67357143D02*
X163632619Y-67309524D01*
X163632619Y-67309524D02*
X163727857Y-67261905D01*
X163727857Y-67261905D02*
X163918333Y-67214286D01*
X163918333Y-67214286D02*
X164156428Y-67214286D01*
X164156428Y-67214286D02*
X164346904Y-67261905D01*
X164346904Y-67261905D02*
X164442142Y-67309524D01*
X164442142Y-67309524D02*
X164489761Y-67357143D01*
X164489761Y-67357143D02*
X164537380Y-67452381D01*
X164537380Y-68690476D02*
X164537380Y-68214286D01*
X164537380Y-68214286D02*
X164061190Y-68166667D01*
X164061190Y-68166667D02*
X164108809Y-68214286D01*
X164108809Y-68214286D02*
X164156428Y-68309524D01*
X164156428Y-68309524D02*
X164156428Y-68547619D01*
X164156428Y-68547619D02*
X164108809Y-68642857D01*
X164108809Y-68642857D02*
X164061190Y-68690476D01*
X164061190Y-68690476D02*
X163965952Y-68738095D01*
X163965952Y-68738095D02*
X163727857Y-68738095D01*
X163727857Y-68738095D02*
X163632619Y-68690476D01*
X163632619Y-68690476D02*
X163585000Y-68642857D01*
X163585000Y-68642857D02*
X163537380Y-68547619D01*
X163537380Y-68547619D02*
X163537380Y-68309524D01*
X163537380Y-68309524D02*
X163585000Y-68214286D01*
X163585000Y-68214286D02*
X163632619Y-68166667D01*
X164537380Y-69357143D02*
X164537380Y-69452381D01*
X164537380Y-69452381D02*
X164489761Y-69547619D01*
X164489761Y-69547619D02*
X164442142Y-69595238D01*
X164442142Y-69595238D02*
X164346904Y-69642857D01*
X164346904Y-69642857D02*
X164156428Y-69690476D01*
X164156428Y-69690476D02*
X163918333Y-69690476D01*
X163918333Y-69690476D02*
X163727857Y-69642857D01*
X163727857Y-69642857D02*
X163632619Y-69595238D01*
X163632619Y-69595238D02*
X163585000Y-69547619D01*
X163585000Y-69547619D02*
X163537380Y-69452381D01*
X163537380Y-69452381D02*
X163537380Y-69357143D01*
X163537380Y-69357143D02*
X163585000Y-69261905D01*
X163585000Y-69261905D02*
X163632619Y-69214286D01*
X163632619Y-69214286D02*
X163727857Y-69166667D01*
X163727857Y-69166667D02*
X163918333Y-69119048D01*
X163918333Y-69119048D02*
X164156428Y-69119048D01*
X164156428Y-69119048D02*
X164346904Y-69166667D01*
X164346904Y-69166667D02*
X164442142Y-69214286D01*
X164442142Y-69214286D02*
X164489761Y-69261905D01*
X164489761Y-69261905D02*
X164537380Y-69357143D01*
D11*
%TO.C,D2*%
X188764000Y-43290000D02*
X188920000Y-43290000D01*
X191080000Y-43290000D02*
X191236000Y-43290000D01*
X188921392Y-40057666D02*
G75*
G03*
X188764485Y-43289999I1078608J-1672334D01*
G01*
X188920164Y-40688871D02*
G75*
G03*
X188920001Y-42770960I1079836J-1041129D01*
G01*
X191079999Y-42770960D02*
G75*
G03*
X191079836Y-40688871I-1079999J1040960D01*
G01*
X191235515Y-43289999D02*
G75*
G03*
X191078608Y-40057666I-1235515J1559999D01*
G01*
%TO.C,D4*%
X190725565Y-84983763D02*
X190569565Y-84983763D01*
X188409565Y-84983763D02*
X188253565Y-84983763D01*
X190568173Y-88216097D02*
G75*
G03*
X190725080Y-84983764I-1078608J1672334D01*
G01*
X190569401Y-87584892D02*
G75*
G03*
X190569564Y-85502803I-1079836J1041129D01*
G01*
X188409566Y-85502803D02*
G75*
G03*
X188409729Y-87584892I1079999J-1040960D01*
G01*
X188254050Y-84983764D02*
G75*
G03*
X188410957Y-88216097I1235515J-1559999D01*
G01*
%TO.C,FUS\u00CDVEL*%
X130657000Y-49590000D02*
X158216000Y-49590000D01*
X158216000Y-49590000D02*
X158216000Y-54289000D01*
X158216000Y-54289000D02*
X130657000Y-54289000D01*
X130657000Y-54289000D02*
X130657000Y-49590000D01*
%TO.C,B1*%
X130852500Y-77340000D02*
X130852500Y-78723000D01*
X130852500Y-77340000D02*
X132236500Y-77340000D01*
X131092500Y-77580000D02*
X131092500Y-82420000D01*
X131092500Y-77580000D02*
X140992500Y-77580000D01*
X131092500Y-82420000D02*
X140992500Y-82420000D01*
X134012500Y-79365000D02*
X134012500Y-80635000D01*
X134012500Y-79485000D02*
X135365833Y-79485000D01*
X134012500Y-79605000D02*
X135365833Y-79605000D01*
X134012500Y-79725000D02*
X135365833Y-79725000D01*
X134012500Y-79845000D02*
X135365833Y-79845000D01*
X134012500Y-79965000D02*
X135365833Y-79965000D01*
X134012500Y-80085000D02*
X135365833Y-80085000D01*
X134012500Y-80205000D02*
X135365833Y-80205000D01*
X134012500Y-80325000D02*
X135365833Y-80325000D01*
X134012500Y-80445000D02*
X135365833Y-80445000D01*
X134012500Y-80565000D02*
X135365833Y-80565000D01*
X134012500Y-80635000D02*
X138072500Y-80635000D01*
X135365833Y-79365000D02*
X135365833Y-80635000D01*
X138072500Y-79365000D02*
X134012500Y-79365000D01*
X138072500Y-80635000D02*
X138072500Y-79365000D01*
X140992500Y-77580000D02*
X140992500Y-82420000D01*
%TO.C,R2*%
X132000000Y-45420000D02*
X132000000Y-48730000D01*
X133370000Y-48730000D02*
X130630000Y-48730000D01*
X130630000Y-48730000D02*
X130630000Y-55270000D01*
X133370000Y-55270000D02*
X133370000Y-48730000D01*
X130630000Y-55270000D02*
X133370000Y-55270000D01*
X132000000Y-58580000D02*
X132000000Y-55270000D01*
%TO.C,U3*%
X160000000Y-40620000D02*
X187248000Y-40620000D01*
X187248000Y-40620000D02*
X187248000Y-91420000D01*
X187248000Y-91420000D02*
X160000000Y-91420000D01*
X160000000Y-91420000D02*
X160000000Y-40620000D01*
X164856000Y-44140000D02*
X182636000Y-44140000D01*
X182636000Y-44140000D02*
X182636000Y-63444000D01*
X182636000Y-63444000D02*
X164856000Y-63444000D01*
X164856000Y-63444000D02*
X164856000Y-44140000D01*
X171460000Y-86812000D02*
X176540000Y-86812000D01*
X176540000Y-86812000D02*
X176540000Y-90876000D01*
X176540000Y-90876000D02*
X171460000Y-90876000D01*
X171460000Y-90876000D02*
X171460000Y-86812000D01*
%TO.C,MOTOR2*%
X166050000Y-91330000D02*
X166050000Y-90000000D01*
X167380000Y-91330000D02*
X166050000Y-91330000D01*
X168650000Y-91330000D02*
X181410000Y-91330000D01*
X168650000Y-91330000D02*
X168650000Y-88670000D01*
X181410000Y-91330000D02*
X181410000Y-88670000D01*
X168650000Y-88670000D02*
X181410000Y-88670000D01*
%TO.C,R1*%
X174000000Y-66580000D02*
X174000000Y-63270000D01*
X172630000Y-63270000D02*
X175370000Y-63270000D01*
X175370000Y-63270000D02*
X175370000Y-56730000D01*
X172630000Y-56730000D02*
X172630000Y-63270000D01*
X175370000Y-56730000D02*
X172630000Y-56730000D01*
X174000000Y-53420000D02*
X174000000Y-56730000D01*
%TO.C,3V3*%
X154950000Y-90110000D02*
X148940000Y-90110000D01*
X152700000Y-83290000D02*
X148940000Y-83290000D01*
X148940000Y-90110000D02*
X148940000Y-88850000D01*
X148940000Y-83290000D02*
X148940000Y-84550000D01*
%TO.C,MOTOR1*%
X138050000Y-44330000D02*
X138050000Y-43000000D01*
X139380000Y-44330000D02*
X138050000Y-44330000D01*
X140650000Y-44330000D02*
X153410000Y-44330000D01*
X140650000Y-44330000D02*
X140650000Y-41670000D01*
X153410000Y-44330000D02*
X153410000Y-41670000D01*
X140650000Y-41670000D02*
X153410000Y-41670000D01*
%TO.C,D3*%
X130710000Y-61764000D02*
X130710000Y-61920000D01*
X130710000Y-64080000D02*
X130710000Y-64236000D01*
X133942334Y-61921392D02*
G75*
G03*
X130710001Y-61764485I-1672334J-1078608D01*
G01*
X133311129Y-61920164D02*
G75*
G03*
X131229040Y-61920001I-1041129J-1079836D01*
G01*
X131229040Y-64079999D02*
G75*
G03*
X133311129Y-64079836I1040960J1079999D01*
G01*
X130710001Y-64235515D02*
G75*
G03*
X133942334Y-64078608I1559999J1235515D01*
G01*
%TO.C,BATERIA*%
X130920000Y-84190000D02*
X130920000Y-91810000D01*
X130920000Y-91810000D02*
X141080000Y-91810000D01*
X141080000Y-84190000D02*
X130920000Y-84190000D01*
X141080000Y-90540000D02*
X130920000Y-90540000D01*
X141080000Y-91810000D02*
X141080000Y-84190000D01*
%TO.C,G\u002A\u002A\u002A*%
G36*
X149267105Y-77979713D02*
G01*
X149324170Y-77979970D01*
X149381165Y-77980374D01*
X149436273Y-77980902D01*
X149487678Y-77981529D01*
X149533564Y-77982235D01*
X149572115Y-77982994D01*
X149601515Y-77983785D01*
X149609105Y-77984057D01*
X149699784Y-77987617D01*
X149685828Y-78031061D01*
X149666950Y-78076766D01*
X149641971Y-78113431D01*
X149609516Y-78142478D01*
X149568207Y-78165328D01*
X149548049Y-78173360D01*
X149513159Y-78184676D01*
X149484738Y-78190149D01*
X149459290Y-78189846D01*
X149433322Y-78183835D01*
X149412324Y-78176005D01*
X149390526Y-78167648D01*
X149371141Y-78162237D01*
X149351589Y-78159684D01*
X149329289Y-78159902D01*
X149301661Y-78162804D01*
X149266126Y-78168302D01*
X149252616Y-78170604D01*
X149207646Y-78177214D01*
X149171399Y-78179710D01*
X149141735Y-78178008D01*
X149116516Y-78172024D01*
X149098912Y-78164512D01*
X149074107Y-78145720D01*
X149052786Y-78117176D01*
X149035725Y-78080390D01*
X149023698Y-78036874D01*
X149019358Y-78009339D01*
X149015782Y-77978928D01*
X149267105Y-77979713D01*
G37*
G36*
X149189619Y-76584834D02*
G01*
X149291689Y-76600849D01*
X149394805Y-76627516D01*
X149494208Y-76664975D01*
X149589427Y-76712898D01*
X149679990Y-76770957D01*
X149765427Y-76838822D01*
X149845266Y-76916164D01*
X149919038Y-77002655D01*
X149971664Y-77075660D01*
X150025854Y-77164288D01*
X150073380Y-77257694D01*
X150114080Y-77354754D01*
X150147795Y-77454346D01*
X150174362Y-77555350D01*
X150193622Y-77656643D01*
X150205413Y-77757102D01*
X150209576Y-77855606D01*
X150205948Y-77951033D01*
X150194370Y-78042260D01*
X150174680Y-78128166D01*
X150146718Y-78207628D01*
X150136970Y-78229453D01*
X150110407Y-78285930D01*
X149947644Y-78285224D01*
X149898527Y-78284885D01*
X149847046Y-78284307D01*
X149796155Y-78283540D01*
X149748810Y-78282631D01*
X149707965Y-78281630D01*
X149684235Y-78280879D01*
X149583589Y-78277241D01*
X149622952Y-78228517D01*
X149652338Y-78190733D01*
X149675064Y-78157428D01*
X149692067Y-78126026D01*
X149704283Y-78093948D01*
X149712651Y-78058617D01*
X149718106Y-78017455D01*
X149721586Y-77967885D01*
X149722182Y-77955544D01*
X149725861Y-77874664D01*
X149234612Y-77874664D01*
X148743363Y-77874664D01*
X148746942Y-77942725D01*
X148751370Y-77993585D01*
X148759571Y-78040193D01*
X148772420Y-78085192D01*
X148790792Y-78131227D01*
X148815563Y-78180940D01*
X148840259Y-78224599D01*
X148853354Y-78247378D01*
X148863900Y-78266727D01*
X148870677Y-78280343D01*
X148872566Y-78285608D01*
X148867704Y-78290009D01*
X148859533Y-78290774D01*
X148852016Y-78290556D01*
X148833715Y-78290179D01*
X148805432Y-78289657D01*
X148767965Y-78289004D01*
X148722115Y-78288232D01*
X148668682Y-78287354D01*
X148608466Y-78286383D01*
X148542267Y-78285333D01*
X148470886Y-78284216D01*
X148395123Y-78283045D01*
X148315778Y-78281834D01*
X148269088Y-78281129D01*
X148174604Y-78279703D01*
X148091030Y-78278428D01*
X148017693Y-78277278D01*
X147953919Y-78276231D01*
X147899037Y-78275262D01*
X147852372Y-78274346D01*
X147813250Y-78273460D01*
X147781000Y-78272579D01*
X147754947Y-78271681D01*
X147734418Y-78270739D01*
X147718740Y-78269731D01*
X147707240Y-78268632D01*
X147699244Y-78267418D01*
X147694079Y-78266065D01*
X147691072Y-78264549D01*
X147689550Y-78262846D01*
X147688839Y-78260931D01*
X147688694Y-78260355D01*
X147685803Y-78243149D01*
X147683051Y-78216838D01*
X147680556Y-78183901D01*
X147678438Y-78146817D01*
X147676815Y-78108067D01*
X147675806Y-78070129D01*
X147675530Y-78035483D01*
X147676106Y-78006608D01*
X147676315Y-78002098D01*
X147688578Y-77870052D01*
X147711289Y-77741078D01*
X147744079Y-77615758D01*
X147786575Y-77494675D01*
X147838408Y-77378409D01*
X147899204Y-77267542D01*
X147968594Y-77162657D01*
X148046206Y-77064335D01*
X148131669Y-76973158D01*
X148224611Y-76889708D01*
X148324662Y-76814566D01*
X148431450Y-76748314D01*
X148498951Y-76712901D01*
X148612531Y-76663153D01*
X148727132Y-76624710D01*
X148842448Y-76597612D01*
X148958172Y-76581905D01*
X149073998Y-76577631D01*
X149189619Y-76584834D01*
G37*
G36*
X148651489Y-78569752D02*
G01*
X148812716Y-78569762D01*
X148985028Y-78569769D01*
X149047602Y-78569770D01*
X149222619Y-78569773D01*
X149386425Y-78569782D01*
X149539394Y-78569798D01*
X149681902Y-78569825D01*
X149814323Y-78569863D01*
X149937031Y-78569915D01*
X150050399Y-78569982D01*
X150154804Y-78570068D01*
X150250619Y-78570173D01*
X150338218Y-78570300D01*
X150417976Y-78570451D01*
X150490267Y-78570628D01*
X150555466Y-78570832D01*
X150613946Y-78571066D01*
X150666083Y-78571333D01*
X150712251Y-78571632D01*
X150752824Y-78571968D01*
X150788177Y-78572342D01*
X150818683Y-78572755D01*
X150844717Y-78573211D01*
X150866655Y-78573710D01*
X150884869Y-78574255D01*
X150899734Y-78574848D01*
X150911626Y-78575490D01*
X150920917Y-78576185D01*
X150927983Y-78576933D01*
X150933198Y-78577738D01*
X150936936Y-78578600D01*
X150939572Y-78579522D01*
X150940398Y-78579907D01*
X150955734Y-78590386D01*
X150966878Y-78602810D01*
X150967827Y-78604516D01*
X150974663Y-78628420D01*
X150973442Y-78653224D01*
X150965056Y-78675567D01*
X150950396Y-78692091D01*
X150943537Y-78696067D01*
X150936233Y-78696781D01*
X150917883Y-78697458D01*
X150889014Y-78698098D01*
X150850153Y-78698702D01*
X150801827Y-78699269D01*
X150744561Y-78699801D01*
X150678882Y-78700297D01*
X150605318Y-78700757D01*
X150524394Y-78701181D01*
X150436637Y-78701570D01*
X150342574Y-78701924D01*
X150242731Y-78702243D01*
X150137635Y-78702526D01*
X150027813Y-78702775D01*
X149913790Y-78702990D01*
X149796094Y-78703170D01*
X149675250Y-78703316D01*
X149551787Y-78703427D01*
X149426230Y-78703505D01*
X149299105Y-78703549D01*
X149170940Y-78703559D01*
X149042260Y-78703536D01*
X148913594Y-78703480D01*
X148785466Y-78703390D01*
X148658404Y-78703267D01*
X148532934Y-78703112D01*
X148409582Y-78702924D01*
X148288876Y-78702704D01*
X148171342Y-78702451D01*
X148057506Y-78702166D01*
X147947896Y-78701849D01*
X147843037Y-78701500D01*
X147743455Y-78701119D01*
X147649679Y-78700707D01*
X147562234Y-78700263D01*
X147481647Y-78699789D01*
X147408444Y-78699283D01*
X147343152Y-78698747D01*
X147286298Y-78698179D01*
X147238408Y-78697581D01*
X147200008Y-78696953D01*
X147171626Y-78696295D01*
X147153787Y-78695606D01*
X147147046Y-78694904D01*
X147133293Y-78683639D01*
X147125529Y-78673388D01*
X147119250Y-78653692D01*
X147118172Y-78630397D01*
X147122195Y-78608946D01*
X147126892Y-78599400D01*
X147128547Y-78596650D01*
X147129784Y-78594076D01*
X147130972Y-78591670D01*
X147132485Y-78589428D01*
X147134691Y-78587344D01*
X147137963Y-78585411D01*
X147142672Y-78583625D01*
X147149189Y-78581979D01*
X147157884Y-78580469D01*
X147169129Y-78579087D01*
X147183295Y-78577829D01*
X147200753Y-78576688D01*
X147221875Y-78575659D01*
X147247030Y-78574736D01*
X147276591Y-78573914D01*
X147310928Y-78573187D01*
X147350412Y-78572548D01*
X147395416Y-78571993D01*
X147446308Y-78571516D01*
X147503462Y-78571110D01*
X147567247Y-78570770D01*
X147638036Y-78570491D01*
X147716198Y-78570267D01*
X147802105Y-78570091D01*
X147896128Y-78569959D01*
X147998639Y-78569864D01*
X148110008Y-78569801D01*
X148230607Y-78569764D01*
X148360805Y-78569747D01*
X148500976Y-78569745D01*
X148651489Y-78569752D01*
G37*
G36*
X149043150Y-74479716D02*
G01*
X149096781Y-74493742D01*
X149126391Y-74506661D01*
X149132253Y-74509400D01*
X149137565Y-74511583D01*
X149142491Y-74513484D01*
X149147194Y-74515374D01*
X149151837Y-74517524D01*
X149156582Y-74520207D01*
X149161594Y-74523693D01*
X149167035Y-74528255D01*
X149173069Y-74534164D01*
X149179858Y-74541692D01*
X149187565Y-74551110D01*
X149196354Y-74562691D01*
X149206389Y-74576705D01*
X149217831Y-74593424D01*
X149230844Y-74613121D01*
X149245592Y-74636067D01*
X149262237Y-74662532D01*
X149280943Y-74692790D01*
X149301872Y-74727112D01*
X149325188Y-74765769D01*
X149351054Y-74809032D01*
X149379633Y-74857175D01*
X149411088Y-74910468D01*
X149445582Y-74969183D01*
X149483279Y-75033591D01*
X149524341Y-75103965D01*
X149568932Y-75180575D01*
X149617215Y-75263695D01*
X149669352Y-75353594D01*
X149725508Y-75450545D01*
X149785845Y-75554820D01*
X149850526Y-75666690D01*
X149919715Y-75786427D01*
X149993574Y-75914302D01*
X150072267Y-76050588D01*
X150155956Y-76195555D01*
X150244806Y-76349476D01*
X150338978Y-76512622D01*
X150438637Y-76685265D01*
X150538408Y-76858085D01*
X150625263Y-77008544D01*
X150710693Y-77156576D01*
X150794513Y-77301858D01*
X150876538Y-77444069D01*
X150956584Y-77582888D01*
X151034466Y-77717993D01*
X151109998Y-77849063D01*
X151182997Y-77975777D01*
X151253277Y-78097813D01*
X151320654Y-78214850D01*
X151384942Y-78326567D01*
X151445958Y-78432641D01*
X151503515Y-78532753D01*
X151557430Y-78626580D01*
X151607518Y-78713800D01*
X151653594Y-78794094D01*
X151695472Y-78867139D01*
X151732969Y-78932613D01*
X151765899Y-78990196D01*
X151794078Y-79039566D01*
X151817321Y-79080402D01*
X151835444Y-79112382D01*
X151848260Y-79135186D01*
X151855586Y-79148490D01*
X151857321Y-79151904D01*
X151866480Y-79185242D01*
X151871388Y-79224602D01*
X151871828Y-79265145D01*
X151867584Y-79302034D01*
X151864604Y-79314413D01*
X151843384Y-79368725D01*
X151813476Y-79416287D01*
X151775793Y-79456254D01*
X151731243Y-79487776D01*
X151680740Y-79510006D01*
X151644509Y-79519191D01*
X151637603Y-79519742D01*
X151622895Y-79520263D01*
X151600220Y-79520756D01*
X151569413Y-79521220D01*
X151530310Y-79521655D01*
X151482746Y-79522063D01*
X151426557Y-79522444D01*
X151361577Y-79522797D01*
X151287643Y-79523123D01*
X151204589Y-79523423D01*
X151112252Y-79523698D01*
X151010465Y-79523946D01*
X150899065Y-79524169D01*
X150777888Y-79524367D01*
X150646768Y-79524541D01*
X150505541Y-79524690D01*
X150354042Y-79524816D01*
X150192106Y-79524918D01*
X150019570Y-79524997D01*
X149836268Y-79525053D01*
X149642036Y-79525087D01*
X149436709Y-79525099D01*
X149220123Y-79525089D01*
X148997488Y-79525059D01*
X148785329Y-79525017D01*
X148584460Y-79524967D01*
X148394587Y-79524909D01*
X148215415Y-79524841D01*
X148046651Y-79524763D01*
X147887999Y-79524674D01*
X147739165Y-79524572D01*
X147599854Y-79524457D01*
X147469773Y-79524328D01*
X147348626Y-79524183D01*
X147236119Y-79524023D01*
X147131958Y-79523846D01*
X147035847Y-79523651D01*
X146947494Y-79523438D01*
X146866602Y-79523204D01*
X146792878Y-79522951D01*
X146726027Y-79522675D01*
X146665754Y-79522377D01*
X146611766Y-79522056D01*
X146563767Y-79521711D01*
X146521464Y-79521340D01*
X146484561Y-79520943D01*
X146452764Y-79520519D01*
X146425779Y-79520067D01*
X146403311Y-79519586D01*
X146385066Y-79519075D01*
X146370748Y-79518534D01*
X146360065Y-79517961D01*
X146352721Y-79517355D01*
X146348568Y-79516749D01*
X146299377Y-79500394D01*
X146253609Y-79474288D01*
X146212904Y-79440042D01*
X146178905Y-79399270D01*
X146153250Y-79353586D01*
X146138868Y-79310550D01*
X146133392Y-79270155D01*
X146133749Y-79226093D01*
X146139681Y-79183720D01*
X146146065Y-79160593D01*
X146150040Y-79152479D01*
X146155036Y-79143216D01*
X146585578Y-79143216D01*
X149000520Y-79143216D01*
X149167127Y-79143205D01*
X149330778Y-79143175D01*
X149491095Y-79143125D01*
X149647697Y-79143056D01*
X149800205Y-79142969D01*
X149948239Y-79142865D01*
X150091420Y-79142744D01*
X150229366Y-79142607D01*
X150361699Y-79142455D01*
X150488040Y-79142288D01*
X150608007Y-79142106D01*
X150721221Y-79141912D01*
X150827304Y-79141705D01*
X150925874Y-79141486D01*
X151016552Y-79141255D01*
X151098958Y-79141015D01*
X151172712Y-79140764D01*
X151237436Y-79140504D01*
X151292748Y-79140235D01*
X151338270Y-79139959D01*
X151373621Y-79139675D01*
X151398421Y-79139385D01*
X151412291Y-79139089D01*
X151415297Y-79138871D01*
X151412413Y-79133360D01*
X151403960Y-79118238D01*
X151390169Y-79093907D01*
X151371274Y-79060769D01*
X151347506Y-79019226D01*
X151319098Y-78969680D01*
X151286283Y-78912532D01*
X151249292Y-78848185D01*
X151208358Y-78777040D01*
X151163714Y-78699499D01*
X151115592Y-78615965D01*
X151064224Y-78526838D01*
X151009842Y-78432522D01*
X150952679Y-78333417D01*
X150892968Y-78229925D01*
X150830940Y-78122449D01*
X150766829Y-78011391D01*
X150700865Y-77897151D01*
X150633283Y-77780133D01*
X150564314Y-77660737D01*
X150494190Y-77539367D01*
X150423144Y-77416423D01*
X150351408Y-77292307D01*
X150279215Y-77167422D01*
X150206797Y-77042170D01*
X150134386Y-76916951D01*
X150062215Y-76792168D01*
X149990516Y-76668224D01*
X149919522Y-76545519D01*
X149849464Y-76424456D01*
X149780576Y-76305436D01*
X149713089Y-76188862D01*
X149647236Y-76075135D01*
X149583250Y-75964657D01*
X149521362Y-75857830D01*
X149461805Y-75755056D01*
X149404812Y-75656736D01*
X149350614Y-75563273D01*
X149299445Y-75475069D01*
X149251536Y-75392525D01*
X149207120Y-75316043D01*
X149166429Y-75246026D01*
X149129696Y-75182874D01*
X149097153Y-75126990D01*
X149069032Y-75078776D01*
X149045566Y-75038634D01*
X149026988Y-75006964D01*
X149013528Y-74984171D01*
X149005421Y-74970654D01*
X149002896Y-74966752D01*
X149001822Y-74967917D01*
X148999305Y-74971609D01*
X148995229Y-74978030D01*
X148989479Y-74987380D01*
X148981938Y-74999859D01*
X148972491Y-75015669D01*
X148961020Y-75035009D01*
X148947410Y-75058080D01*
X148931546Y-75085083D01*
X148913310Y-75116219D01*
X148892586Y-75151686D01*
X148869260Y-75191687D01*
X148843213Y-75236422D01*
X148814331Y-75286091D01*
X148782498Y-75340894D01*
X148747596Y-75401033D01*
X148709511Y-75466708D01*
X148668125Y-75538118D01*
X148623323Y-75615466D01*
X148574989Y-75698951D01*
X148523007Y-75788773D01*
X148467260Y-75885134D01*
X148407633Y-75988234D01*
X148344009Y-76098273D01*
X148276272Y-76215452D01*
X148204306Y-76339971D01*
X148127995Y-76472031D01*
X148047223Y-76611833D01*
X147961874Y-76759576D01*
X147871832Y-76915462D01*
X147776980Y-77079691D01*
X147677203Y-77252463D01*
X147572384Y-77433980D01*
X147462408Y-77624440D01*
X147347157Y-77824046D01*
X147226517Y-78032997D01*
X147100371Y-78251494D01*
X146968602Y-78479738D01*
X146909108Y-78582794D01*
X146585578Y-79143216D01*
X146155036Y-79143216D01*
X146159735Y-79134503D01*
X146175060Y-79106822D01*
X146195924Y-79069595D01*
X146222236Y-79022981D01*
X146253905Y-78967138D01*
X146290840Y-78902226D01*
X146332949Y-78828403D01*
X146380143Y-78745827D01*
X146432329Y-78654657D01*
X146489417Y-78555052D01*
X146551316Y-78447170D01*
X146617935Y-78331170D01*
X146689182Y-78207211D01*
X146764968Y-78075451D01*
X146845200Y-77936048D01*
X146929788Y-77789163D01*
X147018641Y-77634953D01*
X147111668Y-77473576D01*
X147208778Y-77305192D01*
X147309880Y-77129959D01*
X147414883Y-76948035D01*
X147468048Y-76855949D01*
X147573051Y-76674079D01*
X147672413Y-76501962D01*
X147766296Y-76339328D01*
X147854864Y-76185905D01*
X147938279Y-76041421D01*
X148016706Y-75905605D01*
X148090307Y-75778186D01*
X148159245Y-75658891D01*
X148223684Y-75547450D01*
X148283787Y-75443590D01*
X148339718Y-75347041D01*
X148391639Y-75257530D01*
X148439713Y-75174787D01*
X148484105Y-75098539D01*
X148524976Y-75028515D01*
X148562491Y-74964444D01*
X148596813Y-74906054D01*
X148628104Y-74853073D01*
X148656528Y-74805231D01*
X148682249Y-74762254D01*
X148705429Y-74723873D01*
X148726232Y-74689815D01*
X148744821Y-74659809D01*
X148761359Y-74633583D01*
X148776010Y-74610866D01*
X148788936Y-74591387D01*
X148800301Y-74574873D01*
X148810268Y-74561053D01*
X148819001Y-74549655D01*
X148826662Y-74540409D01*
X148833415Y-74533042D01*
X148839423Y-74527284D01*
X148844849Y-74522862D01*
X148849857Y-74519505D01*
X148854609Y-74516941D01*
X148859270Y-74514899D01*
X148864001Y-74513107D01*
X148868967Y-74511295D01*
X148874331Y-74509189D01*
X148880255Y-74506520D01*
X148880426Y-74506437D01*
X148934365Y-74486063D01*
X148988809Y-74477156D01*
X149043150Y-74479716D01*
G37*
%TO.C,R3*%
X166420000Y-85000000D02*
X169730000Y-85000000D01*
X169730000Y-83630000D02*
X169730000Y-86370000D01*
X169730000Y-86370000D02*
X176270000Y-86370000D01*
X176270000Y-83630000D02*
X169730000Y-83630000D01*
X176270000Y-86370000D02*
X176270000Y-83630000D01*
X179580000Y-85000000D02*
X176270000Y-85000000D01*
%TO.C,DRV8833*%
X136396000Y-60096000D02*
X154430000Y-60096000D01*
X154430000Y-60096000D02*
X154430000Y-75844000D01*
X154430000Y-75844000D02*
X136396000Y-75844000D01*
X136396000Y-75844000D02*
X136396000Y-60096000D01*
X143508000Y-60604000D02*
X147572000Y-60604000D01*
X147572000Y-60604000D02*
X147572000Y-62636000D01*
X147572000Y-62636000D02*
X143508000Y-62636000D01*
X143508000Y-62636000D02*
X143508000Y-60604000D01*
%TO.C,MPU6050*%
X168000000Y-76065000D02*
X152000000Y-76065000D01*
X152000000Y-76065000D02*
X152000000Y-56065000D01*
X152000000Y-56065000D02*
X168000000Y-56065000D01*
X168000000Y-56065000D02*
X168000000Y-76065000D01*
%TD*%
M02*
